<svg id="Layer_1" data-name="Layer 1" xmlns="http://www.w3.org/2000/svg" viewBox="0 0 21.83818 35.15792">
  <defs>
    <style>
      .cls-1 {
        fill: #fff;
      }
    </style>
  </defs>
  <title>grabby-dots</title>
  <g>
    <g>
      <path d="M5.3246.6754A1.05631,1.05631,0,0,1,5.4,1.06293V4.337A1.06294,1.06294,0,0,1,4.33707,5.4H1.06293A1.05652,1.05652,0,0,1,.6754,5.3246,1.06137,1.06137,0,0,0,1.66293,6H4.93707A1.06294,1.06294,0,0,0,6,4.937V1.66293A1.06129,1.06129,0,0,0,5.3246.6754Z"/>
      <path class="cls-1" d="M.6,4.93707V1.663A1.06294,1.06294,0,0,1,1.66293.6H4.937A1.05655,1.05655,0,0,1,5.3246.6754,1.06133,1.06133,0,0,0,4.337,0H1.06293A1.06294,1.06294,0,0,0,0,1.063V4.33707a1.06129,1.06129,0,0,0,.6754.98753A1.05652,1.05652,0,0,1,.6,4.93707Z"/>
    </g>
    <g>
      <path d="M21.16277.6754a1.05632,1.05632,0,0,1,.07541.38753V4.337A1.06294,1.06294,0,0,1,20.17525,5.4H16.9011a1.05646,1.05646,0,0,1-.38752-.0754A1.06134,1.06134,0,0,0,17.5011,6h3.27415a1.06294,1.06294,0,0,0,1.06293-1.063V1.66293A1.0613,1.0613,0,0,0,21.16277.6754Z"/>
      <path class="cls-1" d="M16.43818,4.93707V1.663A1.06293,1.06293,0,0,1,17.5011.6h3.27411a1.05647,1.05647,0,0,1,.38756.0754A1.06131,1.06131,0,0,0,20.17521,0H16.9011a1.06293,1.06293,0,0,0-1.06292,1.063V4.33707a1.06129,1.06129,0,0,0,.6754.98753A1.05631,1.05631,0,0,1,16.43818,4.93707Z"/>
    </g>
  </g>
  <g>
    <g>
      <path d="M5.3246,15.25436a1.0565,1.0565,0,0,1,.0754.38752V18.916a1.06294,1.06294,0,0,1-1.06293,1.063H1.06293a1.05632,1.05632,0,0,1-.38753-.07541,1.06138,1.06138,0,0,0,.98753.67541H4.93707A1.06294,1.06294,0,0,0,6,19.516V16.24188A1.06128,1.06128,0,0,0,5.3246,15.25436Z"/>
      <path class="cls-1" d="M.6,19.516V16.24192a1.06294,1.06294,0,0,1,1.06293-1.063H4.937a1.05635,1.05635,0,0,1,.38756.0754A1.06133,1.06133,0,0,0,4.337,14.579H1.06293A1.06294,1.06294,0,0,0,0,15.64192V18.916a1.06126,1.06126,0,0,0,.6754.98752A1.05642,1.05642,0,0,1,.6,19.516Z"/>
    </g>
    <g>
      <path d="M21.16277,15.25436a1.0563,1.0563,0,0,1,.07541.38752V18.916a1.06294,1.06294,0,0,1-1.06293,1.063H16.9011a1.05626,1.05626,0,0,1-.38752-.07541,1.06135,1.06135,0,0,0,.98752.67541h3.27415a1.06294,1.06294,0,0,0,1.06293-1.063V16.24188A1.06129,1.06129,0,0,0,21.16277,15.25436Z"/>
      <path class="cls-1" d="M16.43818,19.516V16.24192a1.06293,1.06293,0,0,1,1.06292-1.063h3.27411a1.05627,1.05627,0,0,1,.38756.0754,1.06131,1.06131,0,0,0-.98756-.6754H16.9011a1.06293,1.06293,0,0,0-1.06292,1.063V18.916a1.06126,1.06126,0,0,0,.6754.98752A1.05622,1.05622,0,0,1,16.43818,19.516Z"/>
    </g>
  </g>
  <g>
    <g>
      <path d="M5.3246,29.83332a1.05622,1.05622,0,0,1,.0754.38752V33.495a1.06294,1.06294,0,0,1-1.06293,1.063H1.06293a1.05632,1.05632,0,0,1-.38753-.07541,1.06138,1.06138,0,0,0,.98753.67541H4.93707A1.06294,1.06294,0,0,0,6,34.095V30.82084A1.06128,1.06128,0,0,0,5.3246,29.83332Z"/>
      <path class="cls-1" d="M.6,34.095V30.82088a1.06294,1.06294,0,0,1,1.06293-1.063H4.937a1.05635,1.05635,0,0,1,.38756.0754,1.06132,1.06132,0,0,0-.98756-.6754H1.06293A1.06294,1.06294,0,0,0,0,30.22088V33.495a1.06127,1.06127,0,0,0,.6754.98752A1.05642,1.05642,0,0,1,.6,34.095Z"/>
    </g>
    <g>
      <path d="M21.16277,29.83332a1.05622,1.05622,0,0,1,.07541.38752V33.495a1.06294,1.06294,0,0,1-1.06293,1.063H16.9011a1.05626,1.05626,0,0,1-.38752-.07541,1.06135,1.06135,0,0,0,.98752.67541h3.27415a1.06294,1.06294,0,0,0,1.06293-1.063V30.82084A1.06129,1.06129,0,0,0,21.16277,29.83332Z"/>
      <path class="cls-1" d="M16.43818,34.095V30.82088a1.06293,1.06293,0,0,1,1.06292-1.063h3.27411a1.05627,1.05627,0,0,1,.38756.0754,1.0613,1.0613,0,0,0-.98756-.6754H16.9011a1.06293,1.06293,0,0,0-1.06292,1.063V33.495a1.06127,1.06127,0,0,0,.6754.98752A1.05622,1.05622,0,0,1,16.43818,34.095Z"/>
    </g>
  </g>
</svg>
