<svg id="Layer_1" data-name="Layer 1" xmlns="http://www.w3.org/2000/svg" viewBox="0 0 451.64985 90.25097">
  <defs>
    <style>
      .cls-1 {
        fill: #4c46fe;
      }

      .cls-2 {
        fill: #fff;
      }
    </style>
  </defs>
  <title>trivial-logo-light</title>
  <g>
    <polygon class="cls-1" points="0 15.892 0 32.935 24.913 53.071 0 73.207 0 90.251 46 53.071 0 15.892"/>
    <polygon class="cls-1" points="42.174 15.892 42.174 32.935 67.087 53.071 42.174 73.207 42.174 90.251 88.174 53.071 42.174 15.892"/>
  </g>
  <path class="cls-2" d="M111.62593,26.53124h10.32032V7.93163h13.67968V26.53124h12.36036v10.2002H135.62593V69.85155a33.00636,33.00636,0,0,0,.17969,3.71973,6.39389,6.39389,0,0,0,.84082,2.63965,3.99708,3.99708,0,0,0,1.97949,1.62012,9.73067,9.73067,0,0,0,3.59961.54q1.44,0,2.88086-.05958a14.35743,14.35743,0,0,0,2.87989-.41992V88.45116q-2.28077.23877-4.44043.48047a40.39522,40.39522,0,0,1-4.43946.23926,30.32633,30.32633,0,0,1-8.70019-1.01953,11.5889,11.5889,0,0,1-5.16016-3,10.33649,10.33649,0,0,1-2.52051-4.98047,37.23821,37.23821,0,0,1-.77929-6.83984V36.73144H111.62593Z"/>
  <path class="cls-2" d="M166.66068,26.53124h12.83984v12h.24024a13.83194,13.83194,0,0,1,2.33984-4.91992,22.76373,22.76373,0,0,1,4.20019-4.37988,21.16918,21.16918,0,0,1,5.46-3.17969,16.35435,16.35435,0,0,1,6.12011-1.2002,29.92255,29.92255,0,0,1,3.29981.12012c.59961.08008,1.21875.16113,1.85937.23926V38.41112q-1.43994-.23877-2.93945-.41992a24.66219,24.66219,0,0,0-2.94043-.17969,15.73576,15.73576,0,0,0-6.54,1.37989,15.019,15.019,0,0,0-5.33984,4.08008,19.95841,19.95841,0,0,0-3.59961,6.66015,28.77191,28.77191,0,0,0-1.32032,9.12012V88.57128H166.66068Z"/>
  <rect class="cls-2" x="219.70117" y="26.53124" width="13.68066" height="62.04004"/>
  <path class="cls-2" d="M248.11594,26.53124h14.87988l15.71973,47.63965h.24023L294.0759,26.53124h14.16016l-22.2002,62.04H270.67551Z"/>
  <rect class="cls-2" x="322.97016" y="26.53124" width="13.68066" height="62.04004"/>
  <path class="cls-2" d="M448.77,78.31151q-1.43994.06153-2.88086.05958a9.73067,9.73067,0,0,1-3.59961-.54A3.997,3.997,0,0,1,440.31,76.21093a6.39389,6.39389,0,0,1-.84082-2.63965,33.004,33.004,0,0,1-.17969-3.71973V56.19921h.001V2.89159H425.60981V73.33105a37.23821,37.23821,0,0,0,.77929,6.83984,10.33649,10.33649,0,0,0,2.52051,4.98047,11.5889,11.5889,0,0,0,5.16016,3A30.32633,30.32633,0,0,0,442.77,89.17089a40.39522,40.39522,0,0,0,4.43946-.23926q2.16064-.2417,4.44043-.48047V77.89159A14.35753,14.35753,0,0,1,448.77,78.31151Z"/>
  <path class="cls-2" d="M407.833,82.83153c-.17651-1.82959-.282-3.72778-.332-5.68066V70.38525h-.01025V42.85155a15.30614,15.30614,0,0,0-2.16016-8.33984,17.28662,17.28662,0,0,0-5.7002-5.58008,25.58867,25.58867,0,0,0-7.97949-3.12012,42.50232,42.50232,0,0,0-9-.96,52.52714,52.52714,0,0,0-10.08008.96,26.28745,26.28745,0,0,0-8.82031,3.35938,19.90651,19.90651,0,0,0-6.41992,6.36035,20.59959,20.59959,0,0,0-2.87988,9.96h13.67968a9.358,9.358,0,0,1,4.2002-7.43945,17.18353,17.18353,0,0,1,9.48047-2.40039,33.491,33.491,0,0,1,4.31933.2998,13.54726,13.54726,0,0,1,4.14063,1.2002,8.46269,8.46269,0,0,1,3.11914,2.58008,7.00808,7.00808,0,0,1,1.26074,4.32031,6.1158,6.1158,0,0,1-1.5,4.5,9.10881,9.10881,0,0,1-4.08008,2.21973,33.15915,33.15915,0,0,1-5.94043,1.01953,70.37954,70.37954,0,0,0-7.08007,1.0205q-4.31983.48048-8.58008,1.37989a24.93739,24.93739,0,0,0-7.67969,2.93945,15.55137,15.55137,0,0,0-5.51953,5.64063,18.41136,18.41136,0,0,0-2.10059,9.35937,17.35783,17.35783,0,0,0,1.74024,7.98047,16.06463,16.06463,0,0,0,4.67969,5.63965,21.05158,21.05158,0,0,0,6.78027,3.36035,28.09951,28.09951,0,0,0,8.04,1.13965,39.45715,39.45715,0,0,0,11.46-1.79981,24.195,24.195,0,0,0,10.01562-5.75634q.09339,1.50805.31543,2.95752.23072,1.50366.60181,2.94189h13.32544A17.79162,17.79162,0,0,1,407.833,82.83153ZM393.811,67.6914a9.26418,9.26418,0,0,1-1.56055,5.46A13.09894,13.09894,0,0,1,388.35,76.81151a16.35434,16.35434,0,0,1-4.97949,2.04,22.21045,22.21045,0,0,1-4.91992.59961,25.30125,25.30125,0,0,1-4.02051-.36035A14.678,14.678,0,0,1,370.35,77.83105a9.55471,9.55471,0,0,1-3.17969-2.46A5.7327,5.7327,0,0,1,365.85,71.53124a10.27055,10.27055,0,0,1,.90039-4.5,7.91658,7.91658,0,0,1,2.46-3,12.64037,12.64037,0,0,1,3.60059-1.7998,29.46346,29.46346,0,0,1,4.19922-1.02051q4.56006-.83788,9.12011-1.25977a16.59328,16.59328,0,0,0,7.68067-2.46Z"/>
  <rect class="cls-2" x="219.701" y="2.83365" width="13.681" height="13.68066" transform="translate(59.51194 163.02248) rotate(-45)"/>
  <rect class="cls-2" x="322.97016" y="2.83348" width="13.681" height="13.68066" transform="translate(89.75889 236.04475) rotate(-45)"/>
</svg>
