<svg xmlns="http://www.w3.org/2000/svg" width="600" height="60" fill="none"><rect width="599" height="59" x=".5" y=".5" stroke="#858585" stroke-dasharray="4 4" rx="7.5"/><path fill="#858585" d="M187.348 31.696h-1.398a.636.636 0 0 0 0 1.273h1.398a.636.636 0 0 0 0-1.273ZM178.487 21.637c0 .351.284.636.635.636h1.397a.636.636 0 0 0 0-1.273h-1.397a.636.636 0 0 0-.635.637ZM187.256 22.273h.409c.04 0 .061.017.067.053a.636.636 0 1 0 1.253-.208 1.332 1.332 0 0 0-1.32-1.118h-.409a.636.636 0 0 0 0 1.273ZM188.365 28.334a.636.636 0 0 0-.635.636v1.4a.636.636 0 1 0 1.27 0v-1.4a.636.636 0 0 0-.635-.636ZM188.365 24.259a.636.636 0 0 0-.635.637v1.4a.636.636 0 1 0 1.27 0v-1.4a.636.636 0 0 0-.635-.637ZM177.06 23.189v1.4a.637.637 0 1 0 1.271 0v-1.4a.636.636 0 1 0-1.271 0ZM183.187 22.273h1.397a.636.636 0 0 0 0-1.273h-1.397a.636.636 0 0 0 0 1.273ZM185.452 25.41a.813.813 0 0 0-.804-.816l-2.622-.023a.638.638 0 0 0-.01 1.274l1.201.01-2.287 2.292h-2.602v-.884a.636.636 0 1 0-1.271 0v.884h-5.323a.735.735 0 0 0-.734.737v9.38c0 .407.329.736.734.736h9.36c.405 0 .734-.33.734-.736v-5.3c.019.001.037.005.057.005h1.397a.636.636 0 0 0 0-1.273h-1.397c-.02 0-.038.004-.057.006v-2.654l2.348-2.354-.005 1.315a.636.636 0 0 0 .632.639h.003c.35 0 .634-.283.635-.634l.011-2.604Zm-4.895 12.317h-8.287V29.42h8.287v8.306ZM209.975 29.988c0 .751-.119 1.435-.357 2.051a4.549 4.549 0 0 1-1.008 1.582c-.434.439-.957.78-1.568 1.022a5.48 5.48 0 0 1-2.016.357h-3.745V24.969h3.745c.737 0 1.409.121 2.016.364a4.396 4.396 0 0 1 1.568 1.022c.434.439.77.966 1.008 1.582.238.616.357 1.3.357 2.051Zm-1.393 0c0-.616-.084-1.167-.252-1.652a3.482 3.482 0 0 0-.714-1.232 3.042 3.042 0 0 0-1.12-.77 3.893 3.893 0 0 0-1.47-.266h-2.387v7.833h2.387c.541 0 1.031-.089 1.47-.266a3.083 3.083 0 0 0 1.12-.763c.308-.336.546-.747.714-1.232.168-.485.252-1.036.252-1.652Zm4.228-.658c.224-.485.499-.863.826-1.134.327-.275.726-.413 1.197-.413.149 0 .292.016.427.049.14.033.264.084.371.154l-.091.931c-.028.117-.098.175-.21.175-.065 0-.161-.014-.287-.042a1.974 1.974 0 0 0-.427-.042c-.224 0-.425.033-.602.098a1.414 1.414 0 0 0-.469.294 2.09 2.09 0 0 0-.371.476 4.214 4.214 0 0 0-.294.644V35h-1.253v-7.091h.714c.135 0 .229.026.28.077.051.051.086.14.105.266l.084 1.078Zm6.758-1.533c.518 0 .985.086 1.4.259.416.173.771.418 1.064.735.294.317.518.702.672 1.155.159.448.239.95.239 1.505a4.5 4.5 0 0 1-.239 1.512 3.19 3.19 0 0 1-.672 1.148 2.986 2.986 0 0 1-1.064.735 3.703 3.703 0 0 1-1.4.252 3.78 3.78 0 0 1-1.414-.252 3.004 3.004 0 0 1-1.064-.735c-.294-.317-.52-.7-.679-1.148a4.634 4.634 0 0 1-.231-1.512c0-.555.077-1.057.231-1.505.159-.453.385-.838.679-1.155a3.004 3.004 0 0 1 1.064-.735 3.69 3.69 0 0 1 1.414-.259Zm0 6.328c.701 0 1.223-.233 1.569-.7.345-.471.518-1.127.518-1.967 0-.845-.173-1.503-.518-1.974-.346-.471-.868-.707-1.569-.707-.354 0-.665.06-.931.182-.261.121-.48.296-.658.525a2.428 2.428 0 0 0-.392.847 4.598 4.598 0 0 0-.126 1.127c0 .84.173 1.496.518 1.967.35.467.88.7 1.589.7Zm6.348-.833c.229.308.478.525.749.651s.574.189.91.189c.663 0 1.171-.236 1.526-.707s.532-1.143.532-2.016c0-.462-.042-.859-.126-1.19a2.241 2.241 0 0 0-.35-.812 1.366 1.366 0 0 0-.567-.469 1.885 1.885 0 0 0-.763-.147c-.406 0-.763.093-1.071.28a3.11 3.11 0 0 0-.84.791v3.43Zm-.063-4.284a3.677 3.677 0 0 1 1.036-.889 2.66 2.66 0 0 1 1.344-.336c.411 0 .782.08 1.113.238.331.154.614.385.847.693.233.303.413.681.539 1.134.126.453.189.973.189 1.561 0 .523-.07 1.01-.21 1.463-.14.448-.343.838-.609 1.169a2.85 2.85 0 0 1-.966.777c-.378.187-.805.28-1.281.28-.434 0-.807-.072-1.12-.217a2.685 2.685 0 0 1-.819-.616v3.136h-1.253v-9.492h.749c.177 0 .287.086.329.259l.112.84Zm15.455.161a.583.583 0 0 1-.112.119.254.254 0 0 1-.154.042.426.426 0 0 1-.231-.084 3.191 3.191 0 0 0-.315-.196 2.245 2.245 0 0 0-.455-.189 2.056 2.056 0 0 0-.658-.091c-.35 0-.658.063-.924.189-.266.121-.49.299-.672.532a2.49 2.49 0 0 0-.406.847 4.292 4.292 0 0 0-.133 1.113c0 .43.049.812.147 1.148.098.331.235.611.413.84.182.224.399.397.651.518.256.117.543.175.861.175.303 0 .553-.035.749-.105a2.21 2.21 0 0 0 .483-.245 4.31 4.31 0 0 0 .322-.238.406.406 0 0 1 .259-.112c.102 0 .182.04.238.119l.35.455a2.483 2.483 0 0 1-.525.49c-.196.135-.409.25-.637.343-.224.089-.46.154-.707.196a4.52 4.52 0 0 1-.756.063c-.444 0-.857-.082-1.239-.245a2.845 2.845 0 0 1-.987-.707c-.28-.313-.5-.695-.658-1.148-.159-.453-.238-.968-.238-1.547 0-.527.072-1.015.217-1.463.149-.448.364-.833.644-1.155a2.938 2.938 0 0 1 1.043-.763c.415-.182.891-.273 1.428-.273.499 0 .938.082 1.316.245a3.11 3.11 0 0 1 1.015.679l-.329.448Zm4.756-1.372c.518 0 .985.086 1.4.259.415.173.77.418 1.064.735.294.317.518.702.672 1.155.159.448.238.95.238 1.505a4.5 4.5 0 0 1-.238 1.512 3.19 3.19 0 0 1-.672 1.148 3.004 3.004 0 0 1-1.064.735 3.703 3.703 0 0 1-1.4.252c-.523 0-.994-.084-1.414-.252a3.004 3.004 0 0 1-1.064-.735c-.294-.317-.52-.7-.679-1.148a4.634 4.634 0 0 1-.231-1.512c0-.555.077-1.057.231-1.505.159-.453.385-.838.679-1.155a3.004 3.004 0 0 1 1.064-.735c.42-.173.891-.259 1.414-.259Zm0 6.328c.7 0 1.223-.233 1.568-.7.345-.471.518-1.127.518-1.967 0-.845-.173-1.503-.518-1.974-.345-.471-.868-.707-1.568-.707-.355 0-.665.06-.931.182a1.758 1.758 0 0 0-.658.525 2.41 2.41 0 0 0-.392.847 4.598 4.598 0 0 0-.126 1.127c0 .84.173 1.496.518 1.967.35.467.88.7 1.589.7Zm6.382-9.436V35H251.2V24.689h1.246Zm7.992 3.22V35h-.742c-.177 0-.289-.086-.336-.259l-.098-.763c-.308.34-.653.616-1.036.826a2.74 2.74 0 0 1-1.316.308 2.63 2.63 0 0 1-1.029-.189 2.08 2.08 0 0 1-.742-.546 2.345 2.345 0 0 1-.455-.847 3.865 3.865 0 0 1-.147-1.099v-4.522h1.246v4.522c0 .537.121.952.364 1.246.247.294.623.441 1.127.441.369 0 .712-.086 1.029-.259a3.32 3.32 0 0 0 .889-.728v-5.222h1.246ZM262.554 35v-7.091h.749c.177 0 .287.086.329.259l.091.728c.261-.322.555-.586.882-.791a2.083 2.083 0 0 1 1.134-.308c.476 0 .861.133 1.155.399.298.266.513.625.644 1.078a2.36 2.36 0 0 1 .392-.665 2.303 2.303 0 0 1 1.183-.728c.228-.056.459-.084.693-.084.373 0 .704.06.994.182.294.117.541.29.742.518.205.229.361.511.469.847.107.331.161.712.161 1.141V35h-1.253v-4.515c0-.555-.122-.975-.364-1.26-.243-.29-.593-.434-1.05-.434-.206 0-.402.037-.588.112-.182.07-.343.175-.483.315-.14.14-.252.317-.336.532a2.06 2.06 0 0 0-.119.735V35h-1.253v-4.515c0-.57-.115-.994-.343-1.274-.229-.28-.563-.42-1.001-.42-.308 0-.593.084-.854.252a2.76 2.76 0 0 0-.721.672V35h-1.253Zm12.827-6.062c.154-.173.318-.329.49-.469a3.16 3.16 0 0 1 .546-.357 2.854 2.854 0 0 1 1.323-.315c.388 0 .728.065 1.022.196.299.126.546.308.742.546.201.233.353.516.455.847.103.331.154.698.154 1.099V35h-1.253v-4.515c0-.537-.123-.952-.371-1.246-.242-.299-.613-.448-1.113-.448-.368 0-.714.089-1.036.266a3.436 3.436 0 0 0-.882.721V35h-1.253v-7.091h.749c.178 0 .287.086.329.259l.098.77Zm10.901.14a.276.276 0 0 1-.259.154.489.489 0 0 1-.238-.077 4.211 4.211 0 0 0-.329-.168 2.52 2.52 0 0 0-.455-.175 2.099 2.099 0 0 0-.63-.084c-.21 0-.399.028-.567.084a1.349 1.349 0 0 0-.434.217 1.012 1.012 0 0 0-.273.329.875.875 0 0 0-.091.399c0 .182.051.334.154.455.107.121.247.226.42.315s.369.168.588.238c.219.065.443.138.672.217.233.075.46.159.679.252.219.093.415.21.588.35.173.14.31.313.413.518.107.2.161.443.161.728 0 .327-.058.63-.175.91a2.018 2.018 0 0 1-.518.721c-.229.2-.509.36-.84.476a3.449 3.449 0 0 1-1.148.175c-.495 0-.943-.08-1.344-.238a3.464 3.464 0 0 1-1.022-.623l.294-.476a.427.427 0 0 1 .133-.14.359.359 0 0 1 .196-.049c.084 0 .173.033.266.098.093.065.205.138.336.217a2.232 2.232 0 0 0 1.204.315c.243 0 .455-.03.637-.091a1.38 1.38 0 0 0 .455-.259.98.98 0 0 0 .266-.371c.061-.14.091-.29.091-.448a.72.72 0 0 0-.161-.483c-.103-.13-.24-.24-.413-.329a3.049 3.049 0 0 0-.595-.238l-.679-.217a9.12 9.12 0 0 1-.679-.252 2.505 2.505 0 0 1-.588-.364 1.677 1.677 0 0 1-.42-.532 1.784 1.784 0 0 1-.154-.777c0-.27.056-.53.168-.777.112-.252.275-.471.49-.658.215-.191.478-.343.791-.455.313-.112.67-.168 1.071-.168.467 0 .884.075 1.253.224.373.145.695.345.966.602l-.28.455Zm7.042-.224a3.752 3.752 0 0 1 1.008-.77c.368-.191.793-.287 1.274-.287.387 0 .728.065 1.022.196.298.126.546.308.742.546.2.233.352.516.455.847.102.331.154.698.154 1.099V35h-1.253v-4.515c0-.537-.124-.952-.371-1.246-.243-.299-.614-.448-1.113-.448-.369 0-.714.089-1.036.266a3.403 3.403 0 0 0-.882.721V35h-1.253V24.689h1.253v4.165Zm11.439 1.827c0-.29-.042-.553-.126-.791a1.668 1.668 0 0 0-.357-.623 1.507 1.507 0 0 0-.567-.406 1.885 1.885 0 0 0-.763-.147c-.597 0-1.071.175-1.421.525-.345.345-.56.826-.644 1.442h3.878Zm1.008 3.325c-.154.187-.338.35-.553.49a3.493 3.493 0 0 1-.693.336 4.057 4.057 0 0 1-.756.196c-.261.047-.52.07-.777.07-.49 0-.942-.082-1.358-.245a3.088 3.088 0 0 1-1.071-.728 3.415 3.415 0 0 1-.7-1.19c-.168-.471-.252-1.013-.252-1.624 0-.495.075-.957.224-1.386.154-.43.374-.8.658-1.113a2.962 2.962 0 0 1 1.043-.742 3.388 3.388 0 0 1 1.386-.273c.425 0 .817.072 1.176.217.364.14.677.345.938.616.266.266.474.597.623.994.15.392.224.84.224 1.344 0 .196-.021.327-.063.392-.042.065-.121.098-.238.098h-4.739c.014.448.075.838.182 1.169.112.331.266.609.462.833.196.22.43.385.7.497.271.107.574.161.91.161.313 0 .581-.035.805-.105a4.005 4.005 0 0 0 .994-.469.55.55 0 0 1 .287-.112c.103 0 .182.04.238.119l.35.455Zm2.966-4.676c.224-.485.499-.863.826-1.134.326-.275.725-.413 1.197-.413.149 0 .291.016.427.049.14.033.263.084.371.154l-.091.931c-.028.117-.098.175-.21.175-.066 0-.161-.014-.287-.042a1.98 1.98 0 0 0-.427-.042c-.224 0-.425.033-.602.098a1.414 1.414 0 0 0-.469.294 2.062 2.062 0 0 0-.371.476 4.03 4.03 0 0 0-.294.644V35h-1.253v-7.091h.714c.135 0 .228.026.28.077.051.051.086.14.105.266l.084 1.078Zm8.515 1.351c0-.29-.042-.553-.126-.791a1.668 1.668 0 0 0-.357-.623 1.507 1.507 0 0 0-.567-.406 1.885 1.885 0 0 0-.763-.147c-.597 0-1.071.175-1.421.525-.345.345-.56.826-.644 1.442h3.878Zm1.008 3.325c-.154.187-.338.35-.553.49a3.493 3.493 0 0 1-.693.336 4.057 4.057 0 0 1-.756.196c-.261.047-.52.07-.777.07-.49 0-.942-.082-1.358-.245a3.088 3.088 0 0 1-1.071-.728 3.415 3.415 0 0 1-.7-1.19c-.168-.471-.252-1.013-.252-1.624 0-.495.075-.957.224-1.386.154-.43.374-.8.658-1.113a2.962 2.962 0 0 1 1.043-.742 3.388 3.388 0 0 1 1.386-.273c.425 0 .817.072 1.176.217.364.14.677.345.938.616.266.266.474.597.623.994.15.392.224.84.224 1.344 0 .196-.021.327-.063.392-.042.065-.121.098-.238.098h-4.739c.014.448.075.838.182 1.169.112.331.266.609.462.833.196.22.43.385.7.497.271.107.574.161.91.161.313 0 .581-.035.805-.105a4.005 4.005 0 0 0 .994-.469.55.55 0 0 1 .287-.112c.103 0 .182.04.238.119l.35.455Zm7.682 1.106c-.56 0-.992-.156-1.295-.469-.299-.313-.448-.763-.448-1.351v-4.34h-.854a.287.287 0 0 1-.189-.063c-.052-.047-.077-.117-.077-.21v-.497l1.162-.147.287-2.191a.278.278 0 0 1 .287-.238h.63v2.443h2.051v.903h-2.051v4.256c0 .299.072.52.217.665a.756.756 0 0 0 .56.217c.13 0 .242-.016.336-.049.098-.037.182-.077.252-.119.07-.042.128-.08.175-.112.051-.037.095-.056.133-.056.065 0 .123.04.175.119l.364.595c-.215.2-.474.36-.777.476a2.69 2.69 0 0 1-.938.168Zm5.928-7.315c.518 0 .985.086 1.4.259.416.173.77.418 1.064.735.294.317.518.702.672 1.155.159.448.238.95.238 1.505a4.5 4.5 0 0 1-.238 1.512 3.19 3.19 0 0 1-.672 1.148 2.995 2.995 0 0 1-1.064.735 3.703 3.703 0 0 1-1.4.252 3.78 3.78 0 0 1-1.414-.252 3.004 3.004 0 0 1-1.064-.735c-.294-.317-.52-.7-.679-1.148a4.634 4.634 0 0 1-.231-1.512c0-.555.077-1.057.231-1.505.159-.453.385-.838.679-1.155a3.004 3.004 0 0 1 1.064-.735 3.69 3.69 0 0 1 1.414-.259Zm0 6.328c.7 0 1.223-.233 1.568-.7.346-.471.518-1.127.518-1.967 0-.845-.172-1.503-.518-1.974-.345-.471-.868-.707-1.568-.707-.354 0-.665.06-.931.182-.261.121-.48.296-.658.525a2.428 2.428 0 0 0-.392.847 4.598 4.598 0 0 0-.126 1.127c0 .84.173 1.496.518 1.967.35.467.88.7 1.589.7Zm13.752-4.956a.583.583 0 0 1-.112.119.254.254 0 0 1-.154.042.426.426 0 0 1-.231-.084 3.191 3.191 0 0 0-.315-.196 2.245 2.245 0 0 0-.455-.189 2.056 2.056 0 0 0-.658-.091c-.35 0-.658.063-.924.189-.266.121-.49.299-.672.532a2.49 2.49 0 0 0-.406.847 4.292 4.292 0 0 0-.133 1.113c0 .43.049.812.147 1.148.098.331.235.611.413.84.182.224.399.397.651.518.256.117.543.175.861.175.303 0 .553-.035.749-.105a2.21 2.21 0 0 0 .483-.245 4.31 4.31 0 0 0 .322-.238.406.406 0 0 1 .259-.112c.102 0 .182.04.238.119l.35.455a2.483 2.483 0 0 1-.525.49c-.196.135-.409.25-.637.343-.224.089-.46.154-.707.196a4.52 4.52 0 0 1-.756.063c-.444 0-.857-.082-1.239-.245a2.845 2.845 0 0 1-.987-.707c-.28-.313-.5-.695-.658-1.148-.159-.453-.238-.968-.238-1.547 0-.527.072-1.015.217-1.463.149-.448.364-.833.644-1.155a2.938 2.938 0 0 1 1.043-.763c.415-.182.891-.273 1.428-.273.499 0 .938.082 1.316.245a3.11 3.11 0 0 1 1.015.679l-.329.448Zm3.073.161c.224-.485.5-.863.826-1.134.327-.275.726-.413 1.197-.413.15 0 .292.016.427.049.14.033.264.084.371.154l-.091.931c-.028.117-.098.175-.21.175-.065 0-.161-.014-.287-.042a1.974 1.974 0 0 0-.427-.042c-.224 0-.424.033-.602.098a1.424 1.424 0 0 0-.469.294 2.09 2.09 0 0 0-.371.476 4.214 4.214 0 0 0-.294.644V35h-1.253v-7.091h.714c.136 0 .229.026.28.077.052.051.087.14.105.266l.084 1.078Zm8.516 1.351c0-.29-.042-.553-.126-.791a1.695 1.695 0 0 0-.357-.623 1.507 1.507 0 0 0-.567-.406 1.888 1.888 0 0 0-.763-.147c-.598 0-1.071.175-1.421.525-.346.345-.56.826-.644 1.442h3.878Zm1.008 3.325c-.154.187-.339.35-.553.49a3.548 3.548 0 0 1-.693.336 4.098 4.098 0 0 1-.756.196c-.262.047-.521.07-.777.07-.49 0-.943-.082-1.358-.245a3.07 3.07 0 0 1-1.071-.728 3.4 3.4 0 0 1-.7-1.19c-.168-.471-.252-1.013-.252-1.624 0-.495.074-.957.224-1.386.154-.43.373-.8.658-1.113a2.944 2.944 0 0 1 1.043-.742c.41-.182.872-.273 1.386-.273.424 0 .816.072 1.176.217.364.14.676.345.938.616.266.266.473.597.623.994.149.392.224.84.224 1.344 0 .196-.021.327-.063.392-.042.065-.122.098-.238.098h-4.739c.014.448.074.838.182 1.169.112.331.266.609.462.833.196.22.429.385.7.497.27.107.574.161.91.161.312 0 .581-.035.805-.105a4.099 4.099 0 0 0 .994-.469.547.547 0 0 1 .287-.112c.102 0 .182.04.238.119l.35.455Zm5.625-2.198c-.574.019-1.064.065-1.47.14-.401.07-.73.163-.987.28-.252.117-.436.254-.553.413a.901.901 0 0 0-.168.532c0 .187.031.348.091.483a.962.962 0 0 0 .245.336c.108.084.231.147.371.189.145.037.299.056.462.056.22 0 .42-.021.602-.063a2.652 2.652 0 0 0 .973-.497c.15-.117.294-.25.434-.399v-1.47Zm-4.025-2.898c.392-.378.815-.66 1.267-.847.453-.187.955-.28 1.505-.28.397 0 .749.065 1.057.196.308.13.567.313.777.546.21.233.369.516.476.847.108.331.161.695.161 1.092V35h-.553a.574.574 0 0 1-.28-.056c-.065-.042-.116-.121-.154-.238l-.14-.672a7.29 7.29 0 0 1-.546.462c-.177.13-.364.243-.56.336a3.016 3.016 0 0 1-.63.203 3.23 3.23 0 0 1-.735.077 2.63 2.63 0 0 1-.777-.112 1.883 1.883 0 0 1-.637-.35 1.708 1.708 0 0 1-.427-.581 2.12 2.12 0 0 1-.154-.84c0-.28.077-.548.231-.805.154-.261.404-.492.749-.693.346-.2.796-.364 1.351-.49.556-.13 1.237-.205 2.044-.224v-.553c0-.55-.119-.966-.357-1.246-.238-.285-.585-.427-1.043-.427-.308 0-.567.04-.777.119a2.769 2.769 0 0 0-.539.259c-.149.093-.28.18-.392.259a.558.558 0 0 1-.322.112.372.372 0 0 1-.217-.063.675.675 0 0 1-.154-.168l-.224-.399Zm9.363 6.202c-.56 0-.992-.156-1.295-.469-.299-.313-.448-.763-.448-1.351v-4.34h-.854a.287.287 0 0 1-.189-.063c-.052-.047-.077-.117-.077-.21v-.497l1.162-.147.287-2.191a.278.278 0 0 1 .287-.238h.63v2.443h2.051v.903h-2.051v4.256c0 .299.072.52.217.665a.756.756 0 0 0 .56.217c.13 0 .242-.016.336-.049.098-.037.182-.077.252-.119.07-.042.128-.08.175-.112.051-.037.095-.056.133-.056.065 0 .123.04.175.119l.364.595c-.215.2-.474.36-.777.476a2.69 2.69 0 0 1-.938.168Zm7.685-4.431c0-.29-.042-.553-.126-.791a1.668 1.668 0 0 0-.357-.623 1.507 1.507 0 0 0-.567-.406 1.885 1.885 0 0 0-.763-.147c-.597 0-1.071.175-1.421.525-.345.345-.56.826-.644 1.442h3.878Zm1.008 3.325c-.154.187-.338.35-.553.49a3.548 3.548 0 0 1-.693.336 4.098 4.098 0 0 1-.756.196c-.261.047-.52.07-.777.07-.49 0-.943-.082-1.358-.245a3.07 3.07 0 0 1-1.071-.728 3.4 3.4 0 0 1-.7-1.19c-.168-.471-.252-1.013-.252-1.624 0-.495.075-.957.224-1.386.154-.43.373-.8.658-1.113a2.953 2.953 0 0 1 1.043-.742 3.388 3.388 0 0 1 1.386-.273c.425 0 .817.072 1.176.217.364.14.677.345.938.616.266.266.474.597.623.994.149.392.224.84.224 1.344 0 .196-.021.327-.063.392-.042.065-.121.098-.238.098h-4.739c.014.448.075.838.182 1.169.112.331.266.609.462.833.196.22.429.385.7.497.271.107.574.161.91.161.313 0 .581-.035.805-.105a4.005 4.005 0 0 0 .994-.469.55.55 0 0 1 .287-.112c.103 0 .182.04.238.119l.35.455Zm13.947-3.829v3.85a5.681 5.681 0 0 1-1.617.819 6.29 6.29 0 0 1-1.876.266c-.808 0-1.536-.124-2.184-.371a4.916 4.916 0 0 1-1.666-1.05 4.626 4.626 0 0 1-1.057-1.624 5.628 5.628 0 0 1-.371-2.079c0-.765.119-1.463.357-2.093a4.616 4.616 0 0 1 1.029-1.617 4.526 4.526 0 0 1 1.617-1.05c.634-.247 1.344-.371 2.128-.371.396 0 .765.03 1.106.091a4.769 4.769 0 0 1 1.75.651c.247.154.478.329.693.525l-.385.616a.416.416 0 0 1-.238.182c-.094.023-.199 0-.315-.07a9.723 9.723 0 0 1-.385-.238 3.147 3.147 0 0 0-.532-.266 3.967 3.967 0 0 0-.735-.224 4.787 4.787 0 0 0-1.001-.091 4.02 4.02 0 0 0-1.533.28 3.18 3.18 0 0 0-1.169.791c-.322.34-.57.756-.742 1.246a4.856 4.856 0 0 0-.259 1.638c0 .63.088 1.195.266 1.694.182.495.438.917.77 1.267.336.345.742.609 1.218.791.476.182 1.01.273 1.603.273.466 0 .879-.051 1.239-.154a5.525 5.525 0 0 0 1.064-.441v-2.205h-1.561a.308.308 0 0 1-.217-.077.254.254 0 0 1-.077-.189v-.77h3.08Zm2.998-.847c.224-.485.499-.863.826-1.134.327-.275.726-.413 1.197-.413.149 0 .292.016.427.049.14.033.264.084.371.154l-.091.931c-.028.117-.098.175-.21.175-.065 0-.161-.014-.287-.042a1.974 1.974 0 0 0-.427-.042c-.224 0-.425.033-.602.098a1.414 1.414 0 0 0-.469.294 2.09 2.09 0 0 0-.371.476 4.214 4.214 0 0 0-.294.644V35h-1.253v-7.091h.714c.135 0 .229.026.28.077.051.051.086.14.105.266l.084 1.078Zm6.758-1.533c.518 0 .985.086 1.4.259.416.173.77.418 1.064.735.294.317.518.702.672 1.155.159.448.238.95.238 1.505a4.5 4.5 0 0 1-.238 1.512 3.19 3.19 0 0 1-.672 1.148 2.995 2.995 0 0 1-1.064.735 3.703 3.703 0 0 1-1.4.252 3.78 3.78 0 0 1-1.414-.252 3.004 3.004 0 0 1-1.064-.735c-.294-.317-.52-.7-.679-1.148a4.634 4.634 0 0 1-.231-1.512c0-.555.077-1.057.231-1.505.159-.453.385-.838.679-1.155a3.004 3.004 0 0 1 1.064-.735 3.69 3.69 0 0 1 1.414-.259Zm0 6.328c.7 0 1.223-.233 1.568-.7.346-.471.518-1.127.518-1.967 0-.845-.172-1.503-.518-1.974-.345-.471-.868-.707-1.568-.707-.354 0-.665.06-.931.182-.261.121-.48.296-.658.525a2.428 2.428 0 0 0-.392.847 4.598 4.598 0 0 0-.126 1.127c0 .84.173 1.496.518 1.967.35.467.88.7 1.589.7Zm10.926-6.216V35h-.742c-.178 0-.29-.086-.336-.259l-.098-.763c-.308.34-.654.616-1.036.826a2.743 2.743 0 0 1-1.316.308c-.388 0-.731-.063-1.029-.189a2.07 2.07 0 0 1-.742-.546 2.33 2.33 0 0 1-.455-.847 3.865 3.865 0 0 1-.147-1.099v-4.522h1.246v4.522c0 .537.121.952.364 1.246.247.294.623.441 1.127.441.368 0 .711-.086 1.029-.259a3.32 3.32 0 0 0 .889-.728v-5.222h1.246Zm3.368 5.383c.229.308.479.525.749.651.271.126.574.189.91.189.663 0 1.172-.236 1.526-.707.355-.471.532-1.143.532-2.016 0-.462-.042-.859-.126-1.19a2.241 2.241 0 0 0-.35-.812 1.366 1.366 0 0 0-.567-.469 1.885 1.885 0 0 0-.763-.147c-.406 0-.763.093-1.071.28a3.11 3.11 0 0 0-.84.791v3.43Zm-.063-4.284a3.677 3.677 0 0 1 1.036-.889 2.66 2.66 0 0 1 1.344-.336c.411 0 .782.08 1.113.238.332.154.614.385.847.693.234.303.413.681.539 1.134.126.453.189.973.189 1.561 0 .523-.07 1.01-.21 1.463-.14.448-.343.838-.609 1.169a2.85 2.85 0 0 1-.966.777c-.378.187-.805.28-1.281.28-.434 0-.807-.072-1.12-.217a2.685 2.685 0 0 1-.819-.616v3.136h-1.253v-9.492h.749c.178 0 .287.086.329.259l.112.84Zm10.928.07a.276.276 0 0 1-.259.154.489.489 0 0 1-.238-.077 4.211 4.211 0 0 0-.329-.168 2.52 2.52 0 0 0-.455-.175 2.099 2.099 0 0 0-.63-.084c-.21 0-.399.028-.567.084a1.349 1.349 0 0 0-.434.217 1.012 1.012 0 0 0-.273.329.875.875 0 0 0-.091.399c0 .182.051.334.154.455.107.121.247.226.42.315s.369.168.588.238c.219.065.443.138.672.217.233.075.46.159.679.252.219.093.415.21.588.35.173.14.31.313.413.518.107.2.161.443.161.728 0 .327-.058.63-.175.91a2.018 2.018 0 0 1-.518.721c-.229.2-.509.36-.84.476a3.449 3.449 0 0 1-1.148.175c-.495 0-.943-.08-1.344-.238a3.464 3.464 0 0 1-1.022-.623l.294-.476a.427.427 0 0 1 .133-.14.359.359 0 0 1 .196-.049c.084 0 .173.033.266.098.093.065.205.138.336.217a2.232 2.232 0 0 0 1.204.315c.243 0 .455-.03.637-.091a1.38 1.38 0 0 0 .455-.259.98.98 0 0 0 .266-.371c.061-.14.091-.29.091-.448a.72.72 0 0 0-.161-.483c-.103-.13-.24-.24-.413-.329a3.049 3.049 0 0 0-.595-.238l-.679-.217a9.12 9.12 0 0 1-.679-.252 2.505 2.505 0 0 1-.588-.364 1.677 1.677 0 0 1-.42-.532 1.784 1.784 0 0 1-.154-.777c0-.27.056-.53.168-.777.112-.252.275-.471.49-.658.215-.191.478-.343.791-.455.313-.112.67-.168 1.071-.168.467 0 .884.075 1.253.224.373.145.695.345.966.602l-.28.455Zm1.857 5.152c0-.121.021-.236.063-.343a.947.947 0 0 1 .182-.28.888.888 0 0 1 .623-.259c.121 0 .235.023.343.07.107.047.2.11.28.189a.91.91 0 0 1 .189.28.88.88 0 0 1 0 .693.935.935 0 0 1-.189.273.817.817 0 0 1-.28.182.854.854 0 0 1-.343.07.847.847 0 0 1-.343-.07.798.798 0 0 1-.28-.182.974.974 0 0 1-.182-.273.952.952 0 0 1-.063-.35Z"/></svg>