<svg xmlns="http://www.w3.org/2000/svg" width="50" height="50" fill="none"><path fill="#858585" fill-rule="evenodd" d="M25.933 9.075a2.18 2.18 0 1 0-1.863 3.943 2.18 2.18 0 0 0 1.863-3.943ZM24.572 6.27a4.796 4.796 0 0 1 5.142 5.67l5.703 2.852a4.795 4.795 0 0 1 7.83 5.368l-.005.01a4.797 4.797 0 0 1-9.003-3.042l-5.694-2.847a4.798 4.798 0 0 1-6.452.58l-6.57 4.928a4.797 4.797 0 1 1-1.57-2.093l6.57-4.928a4.794 4.794 0 0 1 1.689-5.622 4.796 4.796 0 0 1 2.36-.876Zm12.407 10.822a2.18 2.18 0 0 0 3.921 1.911 2.18 2.18 0 1 0-3.92-1.91Zm-25.624 2.261a2.18 2.18 0 1 0-.617 4.315 2.18 2.18 0 0 0 .617-4.315ZM25 18.458c.723 0 1.308.586 1.308 1.308V37.21a1.308 1.308 0 1 1-2.616 0V19.766c0-.722.585-1.308 1.308-1.308Zm13.953 6.977c.723 0 1.309.586 1.309 1.308V37.21a1.308 1.308 0 1 1-2.617 0V26.743c0-.722.586-1.308 1.308-1.308Zm-27.907 3.489c.723 0 1.309.585 1.309 1.308v6.977a1.308 1.308 0 1 1-2.617 0v-6.977c0-.723.586-1.308 1.309-1.308ZM6.25 42.442c0-.723.586-1.308 1.308-1.308h34.884a1.308 1.308 0 0 1 0 2.616H7.558a1.308 1.308 0 0 1-1.308-1.308Z" clip-rule="evenodd"/></svg>