<?xml version="1.0" encoding="UTF-8"?>
<svg width="64px" height="64px" viewBox="0 0 64 64" version="1.1" xmlns="http://www.w3.org/2000/svg" xmlns:xlink="http://www.w3.org/1999/xlink">
    <!-- Generator: Sketch 64 (93537) - https://sketch.com -->
    <title>discord</title>
    <desc>Created with Sketch.</desc>
    <g id="Page-1" stroke="none" stroke-width="1" fill="none" fill-rule="evenodd">
        <circle id="Oval" fill="#404EED" cx="32" cy="32" r="32"></circle>
        <g id="Shape-2" transform="translate(7.000000, 13.000000)" fill="#FFFFFF" fill-rule="nonzero">
            <path d="M42.389085,3.19198758 C39.1295524,1.69733192 35.6678681,0.607996077 32.0545701,0 C31.5997288,0.785337801 31.0943497,1.84932276 30.7405843,2.68532963 C26.8974202,2.12798627 23.0819706,2.12798627 19.2917899,2.68532963 C18.9380244,1.84932276 18.4073763,0.785337801 17.977804,0 C14.3393186,0.607996077 10.8776343,1.69733192 7.64084378,3.19198758 C1.09651126,12.8692884 -0.672235939,22.3185785 0.212135214,31.6411959 C4.55817759,34.807849 8.75266164,36.7332734 12.8738331,38 C13.8845425,36.6319353 14.7941924,35.1625324 15.5774975,33.6172894 C14.0866942,33.0599297 12.6716977,32.3758974 11.3072392,31.5651923 C11.6609883,31.3120105 12.0147537,31.0333306 12.3432339,30.7546508 C20.5805067,34.5293326 29.5025683,34.5293326 37.6386838,30.7546508 C37.9924492,31.0333306 38.3209457,31.3120105 38.6747111,31.5651923 C37.3101874,32.3758974 35.8952887,33.0599297 34.4044202,33.6172894 C35.1877579,35.1625324 36.0974404,36.6319353 37.1080357,38 C41.2267129,36.7332734 45.4464659,34.807849 49.7697401,31.6411959 C50.8561423,20.8493391 48.0490056,11.4760526 42.389085,3.19198758 Z M16.7145191,25.8905841 C14.238259,25.8905841 12.2168402,23.6359742 12.2168402,20.8746736 C12.2168402,18.1133731 14.1877211,15.8585998 16.7145191,15.8585998 C19.215983,15.8585998 21.2626056,18.1133731 21.2120677,20.8746736 C21.2120677,23.6359742 19.215983,25.8905841 16.7145191,25.8905841 Z M33.318018,25.8905841 C30.8416601,25.8905841 28.8176981,23.6359742 28.8176981,20.8746736 C28.8176981,18.1133731 30.7911222,15.8585998 33.318018,15.8585998 C35.8194819,15.8585998 37.8661045,18.1133731 37.8155665,20.8746736 C37.8155665,23.6359742 35.8447508,25.8905841 33.318018,25.8905841 Z" id="Shape"></path>
        </g>
    </g>
</svg>