<?xml version="1.0" encoding="UTF-8"?><svg xmlns="http://www.w3.org/2000/svg" xmlns:xlink="http://www.w3.org/1999/xlink" viewBox="0 0 104.35 144.17"><defs><style>.cls-1{fill:url(#linear-gradient);}.cls-2{fill:#fff;}.cls-3{fill:#fff9ff;}.cls-4{fill:#abb0c4;}.cls-5{fill:#d5d4e8;}.cls-6{fill:#c9c9dc;mix-blend-mode:multiply;}.cls-7{fill:url(#linear-gradient-3);}.cls-8{fill:url(#linear-gradient-4);}.cls-9{fill:url(#linear-gradient-2);}.cls-10{isolation:isolate;}</style><linearGradient id="linear-gradient" x1=".75" y1="110.98" x2="52.88" y2="110.98" gradientUnits="userSpaceOnUse"><stop offset="0" stop-color="#fff"/><stop offset="1" stop-color="#ebebf0"/></linearGradient><linearGradient id="linear-gradient-2" x1=".75" y1="60.41" x2="103.6" y2="60.41" gradientUnits="userSpaceOnUse"><stop offset="0" stop-color="#ff5a00"/><stop offset="1" stop-color="#f0f"/></linearGradient><linearGradient id="linear-gradient-3" x1="16.1" y1="15.83" x2="39.83" y2="15.83" xlink:href="#linear-gradient-2"/><linearGradient id="linear-gradient-4" x1="429.03" y1="2349.36" x2="437.99" y2="2349.36" gradientTransform="translate(1190.78 -2101.18) rotate(38.39)" xlink:href="#linear-gradient-2"/></defs><g class="cls-10"><g id="Layer_2"><g id="Layer_1-2"><g><path class="cls-6" d="M103.6,114.35c0,1.5-1.1,3.09-3.25,4.33l-13.35,7.71-27.53,15.9c-3.93,2.27-9.88,2.51-13.28,.54l-28.84-16.65-14.31-8.26c-1.54-.89-2.3-2.08-2.3-3.33,0-1.5,1.1-3.09,3.25-4.33l40.88-23.6c3.93-2.28,9.88-2.52,13.28-.55l43.14,24.91c1.54,.89,2.3,2.08,2.3,3.33Z"/><g><path d="M103.6,89.97v11.94c0,1.5-1.1,3.09-3.25,4.33l-40.88,23.61c-.13,.08-.27,.15-.4,.21-.6,.32-1.23,.59-1.89,.82-1.36,.46-2.83,.73-4.29,.81v-11.94c1.46-.08,2.93-.36,4.29-.81,.66-.23,1.29-.5,1.89-.82,.13-.06,.27-.13,.4-.21l27.53-15.9,13.35-7.71c2.15-1.24,3.25-2.83,3.25-4.33Z"/><path class="cls-1" d="M52.88,119.76v11.94c-2.49,.14-4.94-.29-6.7-1.3L6.62,107.56l-3.57-2.06c-1.54-.89-2.3-2.08-2.3-3.33v-11.94c0,1.25,.75,2.44,2.3,3.33l3.57,2.06,10.73,6.2,28.84,16.65c1.76,1.02,4.21,1.45,6.7,1.3Z"/><path class="cls-6" d="M46.19,124.96L6.62,102.12l-3.57-2.06c-1.54-.89-2.3-2.08-2.3-3.33v5.44c0,1.25,.75,2.44,2.3,3.33l3.57,2.06,39.57,22.84c1.76,1.02,4.21,1.45,6.7,1.3v-5.44c-2.49,.14-4.94-.29-6.7-1.3Z"/><path class="cls-5" d="M103.6,89.97c0,1.5-1.1,3.09-3.26,4.34l-13.35,7.7-27.52,15.91c-.13,.08-.27,.15-.4,.21-.18,.1-.36,.19-.55,.27-.25,.12-.51,.23-.77,.34-.03,.02-.06,.03-.1,.04-.23,.09-.47,.17-.71,.25-.14,.05-.3,.1-.45,.12-.18,.07-.35,.11-.54,.15-.65,.17-1.32,.3-1.99,.37-.36,.05-.73,.08-1.09,.1-2.49,.14-4.93-.29-6.69-1.3l-.59-.34-28.24-16.3-14.31-8.27c-1.54-.89-2.29-2.08-2.29-3.33,0-1.49,1.09-3.08,3.25-4.33l11.62-6.7,29.27-16.89c3.93-2.28,9.87-2.52,13.27-.56l31.27,18.05,11.88,6.86c1.54,.89,2.3,2.08,2.3,3.32Z"/><path d="M51.93,120.54c-2.36,0-4.5-.5-6.12-1.43l-.6-.35L2.67,94.2C.95,93.21,0,91.79,0,90.22c0-1.83,1.32-3.65,3.62-4.98l40.88-23.6c4.12-2.39,10.41-2.64,14.02-.56l43.14,24.91c1.72,1,2.67,2.41,2.67,3.97,0,1.84-1.32,3.65-3.63,4.99l-40.88,23.61c-.17,.1-.33,.19-.48,.25-.15,.08-.35,.19-.55,.27-.21,.11-.46,.21-.73,.32-.09,.05-.18,.07-.24,.09-.17,.07-.42,.16-.67,.24-.15,.05-.31,.1-.48,.13-.2,.07-.39,.12-.58,.16-.64,.17-1.34,.3-2.06,.38-.37,.05-.75,.08-1.14,.1-.33,.02-.66,.03-.99,.03Zm.46-59.39c-2.48,0-5.09,.61-7.13,1.79L4.38,86.54c-1.82,1.05-2.87,2.4-2.87,3.68,0,1.03,.66,1.96,1.91,2.68l43.15,24.91c1.57,.9,3.85,1.35,6.27,1.2,.35-.02,.69-.04,1.04-.09,.66-.08,1.29-.19,1.9-.35,.18-.04,.32-.08,.47-.13,.04-.01,.08-.03,.12-.03,.12-.02,.24-.06,.35-.1,.24-.08,.46-.16,.68-.24,.01,0,.02,0,.02,0,.02,0,.04-.02,.05-.02,.24-.1,.48-.19,.71-.31,.21-.09,.37-.18,.53-.26,.16-.07,.26-.13,.36-.19l40.89-23.62c1.83-1.06,2.88-2.4,2.88-3.69,0-1.02-.67-1.95-1.92-2.67l-43.14-24.91c-1.44-.83-3.37-1.24-5.39-1.24Zm4.94,56.96s0,0,0,0c0,0,0,0,0,0Z"/><path class="cls-4" d="M52.88,119.76v11.94c-2.49,.14-4.94-.29-6.7-1.3l-.6-.35v-11.94l.6,.35c1.76,1.02,4.21,1.45,6.7,1.3Z"/><polygon class="cls-2" points="45.74 119 45.74 130.43 41.71 128.1 41.71 116.68 45.74 119"/><path d="M51.94,132.48c-2.37,0-4.51-.5-6.13-1.43L2.67,106.14c-1.72-1-2.67-2.41-2.67-3.98v-11.94c0-.41,.34-.75,.75-.75s.75,.34,.75,.75c0,1.03,.66,1.95,1.92,2.68l43.14,24.91c1.56,.91,3.87,1.35,6.28,1.2,.2-.02,.41,.06,.56,.2s.24,.34,.24,.54v11.94c0,.4-.31,.73-.71,.75-.33,.02-.66,.03-.99,.03ZM1.5,93.36v8.8c0,1.03,.66,1.96,1.92,2.68l43.14,24.91c1.41,.82,3.42,1.29,5.57,1.23v-10.44c-2.44,.05-4.66-.47-6.32-1.43L2.67,94.2c-.44-.26-.83-.54-1.17-.84Z"/><path class="cls-2" d="M59.06,118.13v11.94c-.6,.32-1.23,.59-1.89,.82v-11.94c.66-.23,1.29-.5,1.89-.82Z"/><path d="M52.88,132.45c-.19,0-.38-.07-.52-.21-.15-.14-.23-.34-.23-.54v-11.94c0-.4,.31-.73,.71-.75,1.4-.08,2.81-.35,4.09-.77,.66-.23,1.24-.49,1.78-.77,.15-.07,.26-.13,.37-.2l40.89-23.62c1.83-1.05,2.88-2.4,2.88-3.68,0-.41,.34-.75,.75-.75s.75,.34,.75,.75v11.94c0,1.84-1.32,3.65-3.63,4.98l-40.88,23.61c-.15,.09-.3,.17-.46,.25-.56,.3-1.22,.59-1.96,.85-1.42,.48-2.97,.77-4.5,.85-.01,0-.03,0-.04,0Zm.75-12v10.43c1.13-.12,2.26-.36,3.3-.71,.66-.23,1.25-.49,1.78-.77,.15-.07,.26-.13,.37-.2l40.89-23.62c1.83-1.05,2.88-2.4,2.88-3.68v-8.6c-.56,.6-1.28,1.15-2.13,1.64l-40.88,23.61c-.15,.09-.3,.17-.46,.24-.57,.3-1.22,.59-1.96,.85-1.2,.4-2.49,.67-3.79,.8Z"/><g><ellipse cx="7.67" cy="89.31" rx=".98" ry="1.69" transform="translate(-81.68 96.5) rotate(-89.69)"/><ellipse cx="11.91" cy="86.85" rx=".98" ry="1.69" transform="translate(-75.01 98.29) rotate(-89.69)"/><ellipse cx="16.14" cy="84.39" rx=".98" ry="1.69" transform="translate(-68.33 100.07) rotate(-89.69)"/></g></g><path d="M66.11,97.19c.28-.16,.55-.33,.81-.5l6.32,.43c.44,.03,.86-.1,1.06-.33l1.26-1.44c.2-.23,.13-.5-.17-.69l-3.9-2.44c-.27-.17-.37-.4-.3-.62s.13-.43,.18-.65,.27-.42,.61-.54l4.99-1.62c.38-.12,.59-.37,.52-.63l-.45-1.6c-.07-.25-.4-.45-.84-.5l-5.62-.66c-.39-.05-.71-.2-.88-.4s-.34-.4-.52-.59-.22-.44-.05-.64l2.37-3c.18-.23,.1-.5-.22-.69l-1.99-1.15c-.31-.18-.79-.23-1.19-.13l-5.2,1.37c-.36,.09-.77,.08-1.11-.03s-.68-.21-1.03-.3-.62-.28-.7-.51l-1.15-3.25c-.09-.25-.44-.44-.87-.48l-2.77-.26c-.44-.04-.87,.08-1.08,.3l-2.8,2.88c-.19,.2-.54,.32-.93,.35s-.75,.06-1.13,.1-.79-.02-1.08-.17l-4.23-2.25c-.33-.17-.8-.21-1.19-.1l-2.49,.73c-.39,.11-.62,.36-.57,.61l.75,3.65c-.3,.15-.59,.31-.87,.47s-.55,.33-.81,.51l-6.32-.43c-.44-.03-.86,.1-1.06,.33l-1.26,1.44c-.2,.23-.13,.5,.17,.69l3.9,2.44c.27,.17,.37,.4,.3,.62s-.13,.43-.18,.65-.27,.42-.61,.54l-4.99,1.62c-.38,.12-.59,.37-.52,.63l.45,1.6c.07,.25,.4,.45,.84,.5l5.62,.66c.39,.05,.71,.2,.88,.4s.34,.4,.52,.59,.22,.44,.05,.64l-2.37,3c-.18,.23-.1,.5,.22,.69l1.99,1.15c.31,.18,.79,.23,1.19,.13l5.2-1.37c.36-.09,.77-.08,1.11,.03s.68,.21,1.03,.3,.62,.28,.7,.51l1.15,3.25c.09,.25,.44,.44,.87,.48l2.77,.26c.44,.04,.87-.08,1.08-.3l2.8-2.88c.19-.2,.54-.32,.93-.35s.76-.06,1.13-.1,.79,.02,1.08,.17l4.23,2.25c.33,.17,.8,.21,1.19,.1l2.49-.73c.39-.11,.62-.36,.57-.61l-.75-3.65c.3-.15,.59-.31,.88-.47Zm-18.95-2.67c-6.16-2.43-6.18-7.56-.04-9.96,3.42-1.34,8.07-1.33,11.51,.03,6.14,2.43,6.17,7.55,.05,9.95-3.42,1.34-8.07,1.33-11.51-.02Z"/><path class="cls-6" d="M89.43,79.79l-1.72,1-27.52,15.91c-3.94,2.27-9.88,2.51-13.28,.55l-28.84-16.65-2.44-1.41,29.27-16.89c3.93-2.28,9.87-2.52,13.27-.56l31.27,18.05Z"/><g><path class="cls-9" d="M103.6,60.28c0,1.5-1.1,3.09-3.25,4.33l-13.35,7.71-27.53,15.9c-3.93,2.27-9.88,2.51-13.28,.54l-28.84-16.65L3.05,63.86c-1.54-.89-2.3-2.08-2.3-3.33,0-1.5,1.1-3.09,3.25-4.33l40.88-23.6c3.93-2.28,9.88-2.52,13.28-.55l43.14,24.91c1.54,.89,2.3,2.08,2.3,3.33Z"/><path d="M51.96,90.83c-2.3,0-4.5-.47-6.15-1.42L2.67,64.51c-1.72-1-2.67-2.41-2.67-3.98,0-1.84,1.32-3.65,3.63-4.98L44.51,31.95c4.12-2.39,10.42-2.64,14.03-.55l43.14,24.91c1.72,1,2.67,2.41,2.67,3.98,0,1.84-1.32,3.65-3.63,4.98l-40.88,23.61c-2.25,1.3-5.13,1.96-7.88,1.96Zm.43-59.38c-2.48,0-5.09,.61-7.13,1.79L4.38,56.85c-1.83,1.05-2.88,2.4-2.88,3.68,0,1.03,.66,1.96,1.92,2.68l43.14,24.91c3.2,1.84,8.82,1.6,12.53-.54l40.88-23.61c1.83-1.05,2.88-2.4,2.88-3.68,0-1.03-.66-1.96-1.92-2.68l-43.14-24.91c-1.44-.83-3.37-1.24-5.39-1.24Z"/></g><path class="cls-3" d="M51.96,86.27c-1.56,0-2.96-.3-3.86-.82L4.96,60.55c-.08-.05-.15-.09-.21-.13,.19-.21,.53-.53,1.16-.9l40.88-23.6c1.48-.86,3.57-1.37,5.59-1.37,1.55,0,2.96,.3,3.85,.81l43.14,24.91c.08,.05,.15,.09,.21,.13-.19,.21-.53,.53-1.16,.9l-13.35,7.71-27.53,15.91c-1.47,.85-3.56,1.36-5.59,1.36Z"/><path class="cls-7" d="M39.23,15.04l-6.46-1.79c-1.09-.3-1.93-1.15-2.23-2.23l-1.79-6.46c-.22-.8-1.35-.8-1.58,0l-1.79,6.46c-.3,1.09-1.15,1.93-2.23,2.23l-6.46,1.79c-.8,.22-.8,1.35,0,1.58l6.46,1.79c1.09,.3,1.93,1.15,2.23,2.23l1.79,6.46c.22,.8,1.35,.8,1.58,0l1.79-6.46c.3-1.09,1.15-1.93,2.23-2.23l6.46-1.79c.8-.22,.8-1.35,0-1.58Z"/><path class="cls-5" d="M87.88,26.35l-3.95-1.09c-.66-.18-1.18-.7-1.37-1.37l-1.09-3.95c-.14-.49-.83-.49-.96,0l-1.09,3.95c-.18,.66-.7,1.18-1.37,1.37l-3.95,1.09c-.49,.14-.49,.83,0,.96l3.95,1.09c.66,.18,1.18,.7,1.37,1.37l1.09,3.95c.14,.49,.83,.49,.96,0l1.09-3.95c.18-.66,.7-1.18,1.37-1.37l3.95-1.09c.49-.14,.49-.83,0-.96Z"/><path d="M74.73,57.6l-5.15-1.42c-1.01-.28-1.79-1.06-2.07-2.07l-1.42-5.15c-.18-.66-1.12-.66-1.3,0l-1.42,5.15c-.28,1.01-1.06,1.79-2.07,2.07l-5.15,1.42c-.66,.18-.66,1.12,0,1.3l5.15,1.42c1.01,.28,1.79,1.06,2.07,2.07l1.42,5.15c.18,.66,1.12,.66,1.3,0l1.42-5.15c.28-1.01,1.06-1.79,2.07-2.07l5.15-1.42c.66-.18,.66-1.12,0-1.3Z"/><path class="cls-6" d="M62.99,86.85l-26.57-15.16-9.26-5.27-.14-.07c-.78-.5-1.01-1.22-.61-2.06,.71-1.57,3.4-3.15,6.11-3.59,1.46-.23,2.73-.1,3.57,.36,.01,.01,.03,.01,.04,.02t.02,.01l9.22,5.26s.01,.01,.02,.01l26.46,15.08-8.87,5.41Z"/><g><path class="cls-2" d="M79.02,7.05L34.12,63.72c-.11,.13-.25,.24-.4,.33-.42,.25-1.01,.34-1.71,.24-1.99-.29-4.21-2.06-4.96-3.94-.27-.67-.31-1.27-.16-1.74,.06-.19,.15-.37,.27-.52L72.06,1.41c-.12,.15-.21,.32-.27,.52-.14,.47-.1,1.07,.16,1.75,.75,1.89,2.97,3.65,4.96,3.94,.7,.1,1.29,.01,1.71-.24,.16-.09,.29-.2,.4-.33Z"/><g><path class="cls-5" d="M72.66,4.89c-.29-.39-.54-.8-.7-1.22-.27-.67-.31-1.27-.16-1.75,.06-.19,.15-.37,.27-.52l-1.59,2.01c.64,.62,1.4,1.13,2.19,1.47Z"/><path class="cls-5" d="M78.62,7.38c-.42,.25-1.01,.34-1.71,.24-.79-.12-1.61-.47-2.36-.96L31.18,61.39c-.11,.13-.25,.24-.4,.33-.42,.25-1.01,.34-1.71,.24-.43-.06-.88-.21-1.32-.4,1.02,1.37,2.7,2.5,4.25,2.73,.7,.1,1.28,.01,1.71-.24,.16-.09,.29-.2,.4-.33L79.02,7.05c-.11,.13-.25,.24-.4,.33Z"/></g><path d="M77.45,8.41c-.21,0-.43-.02-.65-.05-2.26-.33-4.7-2.27-5.55-4.41-.32-.81-.38-1.58-.18-2.24,.09-.29,.22-.54,.4-.76,.6-.76,1.62-1.07,2.85-.89,2.26,.33,4.7,2.27,5.55,4.41,.45,1.13,.39,2.17-.16,2.93,0,0-.01,.02-.02,.03l-.08,.1c-.19,.22-.39,.38-.61,.51-.43,.25-.96,.38-1.55,.38Zm1.65-1.46h0Zm-5.43-5.45c-.47,0-.83,.13-1.02,.38-.06,.08-.11,.17-.14,.27-.1,.32-.05,.76,.15,1.25,.65,1.63,2.65,3.22,4.37,3.48,.51,.08,.94,.02,1.22-.14,.08-.05,.16-.11,.22-.18l.04-.05c.23-.33,.22-.87-.03-1.49-.65-1.63-2.65-3.22-4.37-3.48-.15-.02-.3-.03-.43-.03Z"/><path d="M32.55,65.08c-.21,0-.43-.02-.65-.05-2.26-.33-4.7-2.27-5.55-4.41-.32-.81-.38-1.58-.18-2.24,.09-.28,.22-.54,.4-.76L71.47,.95s0,0,0,0h0c.26-.32,.73-.38,1.05-.12,.32,.26,.38,.73,.12,1.05-.06,.08-.11,.17-.14,.28-.1,.32-.05,.76,.15,1.25,.65,1.63,2.65,3.22,4.37,3.48,.51,.08,.94,.02,1.22-.14,.08-.05,.16-.11,.22-.18,.27-.31,.73-.34,1.04-.08,.31,.26,.36,.72,.11,1.04l-44.91,56.67c-.18,.21-.38,.38-.61,.51-.43,.25-.96,.38-1.55,.38ZM71.17,3.73L27.74,58.54c-.06,.08-.11,.17-.14,.27-.1,.32-.05,.77,.14,1.25,.65,1.63,2.65,3.23,4.37,3.48,.51,.08,.94,.02,1.22-.14,.08-.05,.16-.11,.21-.17L77.01,8.38c-.07,0-.14-.02-.21-.03-2.26-.33-4.7-2.27-5.55-4.41-.03-.07-.06-.15-.08-.22Z"/><path class="cls-8" d="M79.03,7.05l-6.63,8.37c-.11,.13-.25,.24-.4,.33-.42,.25-1.01,.34-1.71,.24-1.99-.29-4.21-2.06-4.96-3.94-.26-.67-.31-1.27-.16-1.74,.06-.19,.15-.37,.27-.52l6.63-8.37c-.12,.15-.21,.33-.27,.52-.15,.47-.11,1.07,.16,1.74,.75,1.89,2.97,3.65,4.96,3.94,.7,.1,1.29,.01,1.71-.24,.15-.09,.29-.2,.4-.33Z"/><path d="M70.82,16.78c-.21,0-.43-.02-.66-.05-2.26-.33-4.7-2.27-5.55-4.41-.32-.82-.38-1.6-.18-2.25,.09-.29,.22-.54,.39-.76L71.47,.94c.26-.32,.73-.38,1.05-.12,.32,.26,.38,.73,.12,1.05-.06,.07-.1,.17-.14,.28-.1,.33-.05,.77,.14,1.25,.64,1.63,2.65,3.23,4.37,3.48,.5,.08,.94,.03,1.22-.14,.09-.05,.16-.11,.21-.17,.26-.32,.73-.36,1.05-.1,.32,.26,.37,.72,.11,1.05l-6.63,8.37c-.17,.2-.37,.37-.61,.51-.44,.25-.96,.38-1.55,.38Zm.35-13.05l-5.16,6.51c-.06,.07-.1,.16-.14,.28-.1,.32-.05,.76,.14,1.25,.65,1.63,2.65,3.22,4.37,3.47,.51,.07,.94,.02,1.22-.14,.09-.05,.16-.11,.21-.17l5.19-6.55c-.07,0-.14-.02-.21-.03-2.27-.33-4.7-2.27-5.55-4.41-.03-.07-.06-.15-.08-.22Z"/><g><path d="M72.39,15.41l-2.73,3.44c-.11,.13-.25,.24-.41,.34-.42,.24-1,.34-1.71,.23-2-.29-4.21-2.06-4.96-3.94-.27-.68-.31-1.27-.16-1.75,.06-.19,.15-.37,.27-.51l2.66-3.36c-.09,.13-.16,.28-.21,.44-.14,.47-.1,1.07,.16,1.75,.75,1.89,2.96,3.65,4.96,3.94,.7,.11,1.28,.01,1.71-.23,.16-.1,.29-.21,.41-.34Z"/><path d="M68.1,20.21c-.21,0-.43-.02-.66-.05-2.26-.33-4.7-2.26-5.55-4.41-.32-.8-.39-1.58-.18-2.24,.09-.29,.22-.54,.4-.76l2.67-3.36c.25-.32,.71-.38,1.04-.13,.33,.25,.4,.7,.16,1.04-.04,.06-.07,.12-.1,.21-.1,.33-.05,.78,.14,1.26,.65,1.63,2.65,3.22,4.37,3.47,.51,.08,.94,.03,1.23-.14,.07-.05,.15-.11,.22-.18,.27-.3,.73-.34,1.04-.08,.31,.26,.36,.72,.11,1.04l-2.73,3.44c-.19,.21-.38,.38-.6,.51-.44,.25-.97,.38-1.55,.38Zm-3.56-8.11l-1.26,1.58c-.06,.08-.11,.17-.14,.28-.1,.32-.05,.76,.14,1.24,.65,1.64,2.65,3.23,4.37,3.48,.51,.08,.94,.03,1.23-.14,.07-.05,.15-.11,.21-.18l1.28-1.61c-.07,0-.14-.02-.21-.03-2.26-.33-4.7-2.26-5.55-4.41-.03-.07-.05-.14-.08-.22Z"/></g></g></g></g></g></g></svg>