<svg xmlns="http://www.w3.org/2000/svg" xmlns:xlink="http://www.w3.org/1999/xlink" viewBox="0 0 45 46"><defs><style>.a{fill-rule:evenodd;fill:url(#a);}</style><linearGradient id="a" y1="23" x2="45" y2="23" gradientUnits="userSpaceOnUse"><stop offset="0.26" stop-color="#e53212"/><stop offset="0.27" stop-color="#e53412"/><stop offset="0.77" stop-color="#ee7305"/><stop offset="1" stop-color="#f18c00"/></linearGradient></defs><title>shipandco-stripe</title><path class="a" d="M35.79,26.12q-0.73.73-1.46,1.39l0.42,4.29a7.21,7.21,0,0,1-3.25,6.85L21,45.66,20.08,34a8.72,8.72,0,0,1-8.76-8.71L0,24.58,6.7,14a7.21,7.21,0,0,1,7-3.39L17.8,11q0.67-.75,1.41-1.49C27.71,1.05,41.1-.5,44.65.69,45.83,4.24,44.28,17.62,35.79,26.12Zm-0.61-16a5,5,0,1,0,0,7.1A5,5,0,0,0,35.18,10.16ZM3.76,32l4.33-4.33a11,11,0,0,0,9.47,9.47L14,40.67l-3.68,3.68V39.62L3.22,42l2.37-7.1H0.85Z"/></svg>