<svg xmlns="http://www.w3.org/2000/svg" xmlns:xlink="http://www.w3.org/1999/xlink" viewBox="0 0 907.09 907.09">
  <defs>
    <style>
      .cls-1 {
        fill: #4c46fe;
      }
      .cls-2 {
        fill: #fff;
      }
      .cls-3 {
        fill: url(#New_Gradient_Swatch);
      }
      .cls-4 {
        fill: url(#New_Gradient_Swatch-2);
      }
    </style>
    <linearGradient id="New_Gradient_Swatch" data-name="New Gradient Swatch" x1="298.88417" y1="298.51102" x2="423.12242" y2="511.09647" gradientUnits="userSpaceOnUse">
      <stop offset="0" stop-color="#f0f"/>
      <stop offset="1" stop-color="#ff5b00"/>
    </linearGradient>
    <linearGradient id="New_Gradient_Swatch-2" x1="402.55333" y1="237.92515" x2="526.79158" y2="450.5106" xlink:href="#New_Gradient_Swatch"/>
  </defs>
  <title>Action-Icon-Tshirt</title>
  <g id="BG">
    <rect class="cls-1" width="907" height="907" rx="170.07874"/>
  </g>
  <g id="tshirt">
    <path class="cls-2" d="M833.77343,263.59134,670.2257,158.35058l-.00081-.156L564.33752,123.15509c-9.97335,26.29535-55.531,77.62052-107.605,77.62052s-93.38682-51.32517-103.36017-77.62052L244.18566,160.75253v.19476L82.74061,264.66492l87.13084,135.62643,74.31421-20.06381V793.84491H673.52417l-2.15375-414.94966,75.27216,20.32244Z"/>
    <g>
      <polygon class="cls-3" points="322.588 284.944 322.588 341.148 404.744 407.551 322.588 473.953 322.588 530.157 474.282 407.551 322.588 284.944"/>
      <polygon class="cls-4" points="461.665 284.944 461.665 341.148 543.82 407.551 461.665 473.953 461.665 530.157 613.359 407.551 461.665 284.944"/>
    </g>
  </g>
</svg>