<svg id="Layer_2" data-name="Layer 2" xmlns="http://www.w3.org/2000/svg" xmlns:xlink="http://www.w3.org/1999/xlink" viewBox="0 0 750.98531 702.963">
  <defs>
    <style>
      .cls-1 {
        fill: url(#linear-gradient);
      }

      .cls-2 {
        fill: url(#linear-gradient-2);
      }

      .cls-3 {
        fill: url(#linear-gradient-3);
      }
    </style>
    <linearGradient id="linear-gradient" x1="197.86599" y1="120.59988" x2="678.42316" y2="639.6686" gradientUnits="userSpaceOnUse">
      <stop offset="0" stop-color="#ec008c"/>
      <stop offset="0.99438" stop-color="#ff5b00"/>
    </linearGradient>
    <linearGradient id="linear-gradient-2" x1="167.32716" y1="148.87292" x2="647.88434" y2="667.94164" xlink:href="#linear-gradient"/>
    <linearGradient id="linear-gradient-3" x1="59.36737" y1="248.82279" x2="539.92454" y2="767.89152" xlink:href="#linear-gradient"/>
  </defs>
  <title>webhook relay icon</title>
  <path class="cls-1" d="M562.75887,326.51012a187.69361,187.69361,0,0,0-66.64154,12.15533L439.06271,239.8438a80.68416,80.68416,0,1,0-45.46949,28.80255l55.47492,96.08551c-.10138.077-.20477.15137-.306.22852l27.19873,47.10968a134.44454,134.44454,0,1,1-14.55322,191.00262l-38.0929,38.0929A187.74059,187.74059,0,0,0,562.75887,702.963c103.95465,0,188.22644-84.27185,188.22644-188.22644S666.71352,326.51012,562.75887,326.51012ZM348.768,190.00414a26.8895,26.8895,0,1,1,26.88946,26.88946A26.8895,26.8895,0,0,1,348.768,190.00414Z"/>
  <path class="cls-2" d="M211.48129,282.3711a187.69354,187.69354,0,0,0,43.8476,51.6356l-57.05475,98.82158a80.68421,80.68421,0,1,0,47.67848,24.97645l55.475-96.08544c.11734.04932.23347.10166.35088.15072l27.19882-47.10963a134.44454,134.44454,0,1,1,172.68973-82.89785l52.03587,13.943A187.74059,187.74059,0,0,0,537.49905,94.14466C485.52172,4.11729,370.40427-26.72829,280.377,25.249S159.504,192.34373,211.48129,282.3711ZM200.2591,535.94565a26.8895,26.8895,0,1,1,9.84222-36.73169A26.88951,26.88951,0,0,1,200.2591,535.94565Z"/>
  <path class="cls-3" d="M351.26677,605.2135a187.69366,187.69366,0,0,0,22.79394-63.79093l114.10937.00006a80.68422,80.68422,0,1,0-2.209-53.779l-110.94995,0c-.016-.12628-.0287-.253-.04492-.37924l-54.39754,0A134.44454,134.44454,0,1,1,162.43214,379.15953l-13.943-52.03586A187.74056,187.74056,0,0,0,25.249,416.9871C-26.72832,507.01447,4.11736,622.1319,94.14468,674.10919S299.28945,695.24088,351.26677,605.2135ZM576.47986,488.14491a26.8895,26.8895,0,1,1-36.73169,9.84223A26.8895,26.8895,0,0,1,576.47986,488.14491Z"/>
</svg>