<?xml version="1.0" encoding="utf-8"?>
<!-- Generator: Adobe Illustrator 24.1.2, SVG Export Plug-In . SVG Version: 6.00 Build 0)  -->
<svg version="1.1" id="Layer_1" xmlns="http://www.w3.org/2000/svg" xmlns:xlink="http://www.w3.org/1999/xlink" x="0px" y="0px"
	 viewBox="0 0 363 259" style="enable-background:new 0 0 363 259;" xml:space="preserve">
<style type="text/css">
	.st0{fill:#F3F0EE;}
</style>
<path class="st0" d="M173.8,40.5v112.9H80.3L173.8,40.5z M173.8,0c0,25.8-20.9,46.7-46.7,46.7S80.3,25.8,80.3,0H173.8z M189.2,153.4
	c0-25.8,20.9-46.7,46.7-46.7s46.7,20.9,46.7,46.7H189.2z M189.2,112.9V0h93.5L189.2,112.9L189.2,112.9z M241.5,249.9
	c4.8,0.1,9.5-1.7,12.9-5l6.4,6.9c-4.2,4.4-10.1,7.6-19.3,7.6c-15.7,0-25.8-10.4-25.8-24.5c-0.3-13.3,10.3-24.2,23.5-24.5
	c0.3,0,0.6,0,0.8,0c15.6,0,24.4,11.8,23.6,28.3H227C228.3,245.6,233.1,250,241.5,249.9 M252.7,231c-1-6.4-4.8-11.1-12.4-11.1
	c-7.1,0-12,4-13.3,11.1H252.7L252.7,231z M0,249.4l28.3-28.8H0.7v-9h40.8v9.2l-28.3,28.8h28.7v9H0V249.4L0,249.4z M73.6,249.9
	c4.8,0.1,9.5-1.7,12.9-5l6.4,6.9c-4.2,4.4-10.1,7.6-19.3,7.6C58,259.4,47.9,249,47.9,235c-0.3-13.3,10.3-24.2,23.5-24.5
	c0.3,0,0.6,0,0.8,0c15.6,0,24.4,11.8,23.6,28.3H59.1C60.4,245.6,65.2,249.9,73.6,249.9 M84.8,230.9c-1-6.4-4.8-11.1-12.4-11.1
	c-7.1,0-12,4-13.3,11.1H84.8L84.8,230.9z M157,235c0-15,11.2-24.4,23.6-24.4c6-0.1,11.7,2.5,15.7,7.1v-27.7h10v68.6h-10V252
	c-3.9,4.7-9.7,7.5-15.8,7.4C168.5,259.4,157,249.9,157,235 M196.9,234.9c-0.2-8.2-7.1-14.7-15.3-14.5c-8.2,0.2-14.7,7.1-14.5,15.3
	c0.2,8.1,6.8,14.5,14.9,14.5C190.5,250.2,196.8,243.4,196.9,234.9 M270.3,248.5l9.1-4.7c2.4,4.4,7.1,7,12.1,6.9
	c5.7,0,8.6-2.9,8.6-6.2c0-3.8-5.5-4.6-11.4-5.8c-8-1.7-16.3-4.3-16.3-14c0-7.4,7.1-14.3,18.2-14.2c8.8,0,15.3,3.5,19,9.1l-8.4,4.6
	c-2.4-3.5-6.4-5.5-10.6-5.4c-5.4,0-8.1,2.6-8.1,5.6c0,3.4,4.3,4.3,11.1,5.8c7.7,1.7,16.5,4.2,16.5,14c0,6.5-5.7,15.2-19.1,15.1
	C281.2,259.4,274.3,255.4,270.3,248.5 M337.2,237.6l-7.9,8.6v12.2h-10v-68.6h10v44.9l21.2-23.3h12.2l-18.4,20.1l18.9,26.9h-11.3
	L337.2,237.6L337.2,237.6z M126.8,210.5c-11.9,0-21.8,7.7-21.8,20.5v27.5h10.2v-26.2c0-7.7,4.4-12.3,12-12.3s11.3,4.6,11.3,12.3
	v26.2h10.1V231C148.6,218.3,138.6,210.5,126.8,210.5"/>
</svg>
