<?xml version="1.0" encoding="utf-8"?>
<!-- Generator: Adobe Illustrator 24.1.2, SVG Export Plug-In . SVG Version: 6.00 Build 0)  -->
<svg version="1.1" id="Layer_1" xmlns="http://www.w3.org/2000/svg" xmlns:xlink="http://www.w3.org/1999/xlink" x="0px" y="0px"
	 viewBox="0 0 631.7 623" style="enable-background:new 0 0 631.7 623;" xml:space="preserve">
<style type="text/css">
	.st0{fill:#499EEA;}
</style>
<path class="st0" d="M614.2,242h-299c-9.6-0.1-17.4,7.6-17.5,17.2c0,0.1,0,0.2,0,0.3v126c-0.1,9.6,7.6,17.4,17.2,17.5
	c0.1,0,0.2,0,0.3,0h299c9.6,0.1,17.4-7.6,17.5-17.2c0-0.1,0-0.2,0-0.3v-126c0.1-9.6-7.6-17.4-17.2-17.5
	C614.4,242,614.3,242,614.2,242z M596.7,368h-264v-91h264V368z"/>
<path class="st0" d="M614.2,462h-299c-9.6-0.1-17.4,7.6-17.5,17.2c0,0.1,0,0.2,0,0.3v126c-0.1,9.6,7.6,17.4,17.2,17.5
	c0.1,0,0.2,0,0.3,0h299c9.6,0.1,17.4-7.6,17.5-17.2c0-0.1,0-0.2,0-0.3v-126c0.1-9.6-7.5-17.4-17.1-17.5
	C614.5,462,614.3,462,614.2,462z M596.7,588h-264v-91h264V588z"/>
<path class="st0" d="M90.2,155.5v356.7c0,28.7,23.8,52.5,52.5,52.5h61.5l-22.4,22.4c-7,7-7,18.2,0,24.5c7,7,18.2,7,24.5,0l52.5-52.5
	c7-7,7-18.2,0-24.5l-52.5-52.5c-7-7-18.2-7-24.5,0c-7,7-7,18.2,0,24.5l22.4,23.1h-61.5c-9.6,0.1-17.4-7.6-17.5-17.2
	c0-0.1,0-0.2,0-0.3V155.5"/>
<path class="st0" d="M90.2,175v111.1c0,28.7,23.8,52.5,52.5,52.5h61.8L182.1,361c-7,7-7,18.2,0,24.5c7,7,18.2,7,24.5,0l52.5-52.5
	c7-7,7-18.2,0-24.5L206.6,256c-7-7-18.2-7-24.5,0c-7,7-7,18.2,0,24.5l22.4,23.1h-61.8c-9.6,0.1-17.4-7.6-17.5-17.2
	c0-0.1,0-0.2,0-0.3V160.7"/>
<path class="st0" d="M415,0H17.5C7.9-0.1,0.1,7.6,0,17.2c0,0.1,0,0.2,0,0.3v140c-0.1,9.6,7.6,17.4,17.2,17.5c0.1,0,0.2,0,0.3,0H415
	c9.6,0.1,17.4-7.6,17.5-17.2c0-0.1,0-0.2,0-0.3v-140c0.1-9.6-7.6-17.4-17.2-17.5C415.2,0,415.1,0,415,0z M397.5,140H35V35h362.5V140
	z"/>
</svg>
