<?xml version="1.0" encoding="utf-8"?>
<!-- Generator: Adobe Illustrator 24.1.2, SVG Export Plug-In . SVG Version: 6.00 Build 0)  -->
<svg version="1.1" id="Layer_1" xmlns="http://www.w3.org/2000/svg" xmlns:xlink="http://www.w3.org/1999/xlink" x="0px" y="0px"
	 viewBox="0 0 270 270" style="enable-background:new 0 0 270 270;" xml:space="preserve">
<style type="text/css">
	.st0{fill:#E01E5A;}
	.st1{fill:#36C5F0;}
	.st2{fill:#2EB67D;}
	.st3{fill:#ECB22E;}
</style>
<g>
	<g>
		<path class="st0" d="M58.5,169.8c0,15.3-12.5,27.7-27.7,27.7S3,185.1,3,169.8c0-15.3,12.5-27.7,27.7-27.7h27.7V169.8z"/>
		<path class="st0" d="M72.4,169.8c0-15.3,12.5-27.7,27.7-27.7s27.7,12.5,27.7,27.7v69.4c0,15.3-12.5,27.7-27.7,27.7
			s-27.7-12.5-27.7-27.7C72.4,239.3,72.4,169.8,72.4,169.8z"/>
	</g>
	<g>
		<path class="st1" d="M100.2,58.5c-15.3,0-27.7-12.5-27.7-27.7S84.9,3,100.2,3s27.7,12.5,27.7,27.7v27.7H100.2z"/>
		<path class="st1" d="M100.2,72.4c15.3,0,27.7,12.5,27.7,27.7s-12.5,27.7-27.7,27.7H30.7C15.5,127.9,3,115.4,3,100.2
			s12.5-27.7,27.7-27.7C30.7,72.4,100.2,72.4,100.2,72.4z"/>
	</g>
	<g>
		<path class="st2" d="M211.5,100.2c0-15.3,12.5-27.7,27.7-27.7c15.3,0,27.7,12.5,27.7,27.7s-12.5,27.7-27.7,27.7h-27.7V100.2z"/>
		<path class="st2" d="M197.6,100.2c0,15.3-12.5,27.7-27.7,27.7c-15.3,0-27.7-12.5-27.7-27.7V30.7c0-15.3,12.5-27.7,27.7-27.7
			c15.3,0,27.7,12.5,27.7,27.7V100.2z"/>
	</g>
	<g>
		<path class="st3" d="M169.8,211.5c15.3,0,27.7,12.5,27.7,27.7c0,15.3-12.5,27.7-27.7,27.7c-15.3,0-27.7-12.5-27.7-27.7v-27.7
			H169.8z"/>
		<path class="st3" d="M169.8,197.6c-15.3,0-27.7-12.5-27.7-27.7c0-15.3,12.5-27.7,27.7-27.7h69.4c15.3,0,27.7,12.5,27.7,27.7
			c0,15.3-12.5,27.7-27.7,27.7H169.8z"/>
	</g>
</g>
</svg>
