<svg width="57px" height="97px" viewBox="0 0 57 97" version="1.1" xmlns="http://www.w3.org/2000/svg" xmlns:xlink="http://www.w3.org/1999/xlink"><g id="Page-1" stroke="none" stroke-width="1" fill="none" fill-rule="evenodd"><path d="M52.9,26.5 C52.3,26.3 51.6,26.4 50.9,26.6 L48.2,27.5 L48.2,2.4 C48.2,1.1 47.1,0 45.8,0 L10.3,0 C9,0 7.9,1.1 7.9,2.4 L7.9,27.6 L5.2,26.7 C4.5,26.5 3.8,26.4 3.2,26.6 C2.2,26.8 0,27.8 0,31.7 L0,52.7 C0.3,54.5 1.5,56.6 4.2,56.6 L13.2,56.6 C14.1,57.7 16.3,59.5 20.5,59.8 C20.6,62.9 22.4,65.5 25.1,66.6 L25.1,72.5 C25.1,72.6 25,72.7 24.9,72.7 C12.3,73.1 4.3,77.1 2,78.4 C0.6,79.2 0.3,80.9 0.3,82 L0.3,86.6 C0.4,88.2 1.7,89.5 3.4,89.5 C4.9,89.5 6.2,88.2 6.3,86.7 C6.4,85.2 5.4,84 4,83.6 C3.9,83.6 3.8,83.5 3.8,83.4 L3.8,81.7 C3.8,81.3 4,80.9 4.4,80.7 C7.8,78.8 16.5,77.9 23.1,77.5 L25,77.5 C25.1,77.5 25.2,77.6 25.2,77.7 C25.5,83 26.1,87.5 26.3,90.3 L26.1,90.3 C25,90.3 24,91.6 24,93.3 C24,95 25,96.3 26.1,96.3 L30.1,96.3 C31.2,96.3 32.2,95 32.2,93.3 C32.2,91.6 31.2,90.3 30.1,90.3 L29.9,90.3 C29.9,90.3 30.6,83 31,77.7 C31,77.6 31.1,77.5 31.2,77.5 L33.1,77.5 C39.7,77.8 48.4,78.8 51.8,80.7 C52.2,80.9 52.4,81.3 52.4,81.7 L52.4,83.4 C52.4,83.5 52.3,83.6 52.2,83.6 C50.8,83.9 49.8,85.2 49.9,86.7 C50,88.2 51.3,89.5 52.8,89.5 C54.4,89.5 55.8,88.3 55.9,86.6 L55.9,82 C55.9,80.9 55.6,79.3 54.2,78.4 C51.9,77.1 43.8,73.1 31.3,72.6 C31.2,72.6 31.1,72.5 31.1,72.4 L31.1,66.5 C33.8,65.4 35.6,62.8 35.7,59.7 C39.8,59.4 42,57.5 43,56.5 L52,56.5 C54.7,56.5 55.9,54.4 56.2,52.6 L56.2,31.6 C56.1,27.7 53.9,26.8 52.9,26.5 Z M7.9,48.3 L3.8,51.4 C3.7,51.5 3.6,51.4 3.6,51.3 L3.6,31.6 C3.6,30.8 3.7,29.8 4.1,29.9 L7.7,31.1 C7.8,31.1 7.9,31.3 7.9,31.4 L7.9,48.3 L7.9,48.3 Z M52.4,51.4 L48.3,48.3 L48.3,31.5 C48.3,31.4 48.4,31.3 48.5,31.2 L52.1,30 C52.6,29.9 52.6,30.9 52.6,31.7 L52.6,51.4 C52.6,51.4 52.5,51.5 52.4,51.4 Z" id="Shape" fill="#B2E522"></path></g></svg>