<svg xmlns="http://www.w3.org/2000/svg" width="600" height="144" fill="none"><rect width="599" height="39" x=".5" y=".5" stroke="#A3A3A3" stroke-dasharray="4 4" rx="3.5"/><g fill="#858585" clip-path="url(#a)"><path d="M162.365 21.696h-1.4a.637.637 0 1 0 0 1.273h1.4a.637.637 0 1 0 0-1.273ZM153.484 11.637c0 .351.285.636.637.636h1.401a.636.636 0 0 0 0-1.273h-1.401a.637.637 0 0 0-.637.637ZM162.273 12.273h.41c.04 0 .062.017.068.053a.636.636 0 1 0 1.256-.208A1.336 1.336 0 0 0 162.683 11h-.41a.637.637 0 0 0 0 1.273ZM163.385 18.334a.637.637 0 0 0-.637.636v1.4a.637.637 0 0 0 1.273 0v-1.4a.636.636 0 0 0-.636-.636ZM163.385 14.259a.637.637 0 0 0-.637.637v1.4a.637.637 0 0 0 1.273 0v-1.4a.636.636 0 0 0-.636-.637ZM152.055 13.189v1.4a.637.637 0 1 0 1.273 0v-1.4a.637.637 0 0 0-1.273 0ZM158.195 12.273h1.401a.636.636 0 0 0 0-1.273h-1.401a.637.637 0 0 0 0 1.273ZM160.466 15.41a.816.816 0 0 0-.806-.816l-2.628-.022a.636.636 0 1 0-.011 1.273l1.204.01-2.292 2.292h-2.608v-.884a.637.637 0 0 0-1.273 0v.884h-5.336a.736.736 0 0 0-.736.736v9.381c0 .407.33.736.736.736h9.381c.407 0 .736-.33.736-.736v-5.3c.019.001.038.005.057.005h1.401a.637.637 0 0 0 0-1.273h-1.401c-.019 0-.038.004-.057.006v-2.654l2.354-2.354-.006 1.315a.637.637 0 0 0 .634.639h.003c.35 0 .635-.283.637-.634l.011-2.604Zm-4.906 12.317h-8.306V19.42h8.306v8.306Z"/></g><path fill="#858585" d="M180.912 19.988c0 .751-.119 1.435-.357 2.051a4.549 4.549 0 0 1-1.008 1.582c-.434.439-.954.78-1.561 1.022a5.48 5.48 0 0 1-2.016.357h-3.752V14.969h3.752c.737 0 1.409.121 2.016.364a4.403 4.403 0 0 1 1.561 1.022c.434.439.77.966 1.008 1.582.238.616.357 1.3.357 2.051Zm-1.393 0c0-.616-.084-1.167-.252-1.652a3.482 3.482 0 0 0-.714-1.232 3.042 3.042 0 0 0-1.12-.77 3.871 3.871 0 0 0-1.463-.266h-2.387v7.833h2.387c.537 0 1.024-.089 1.463-.266a3.083 3.083 0 0 0 1.12-.763c.308-.336.546-.747.714-1.232.168-.485.252-1.036.252-1.652ZM182.703 25v-7.091h.714c.135 0 .229.026.28.077.051.051.086.14.105.266l.084 1.106c.243-.495.541-.88.896-1.155a1.99 1.99 0 0 1 1.26-.42c.196 0 .373.023.532.07.159.042.306.103.441.182l-.161.931c-.033.117-.105.175-.217.175-.065 0-.166-.021-.301-.063a1.805 1.805 0 0 0-.567-.07c-.434 0-.798.126-1.092.378-.289.252-.532.618-.728 1.099V25h-1.246Zm10.735 0h-.553a.657.657 0 0 1-.294-.056c-.075-.037-.124-.117-.147-.238l-.14-.658a8.99 8.99 0 0 1-.546.455c-.178.13-.364.243-.56.336a3.016 3.016 0 0 1-.63.203c-.22.047-.465.07-.735.07a2.62 2.62 0 0 1-.777-.112 1.809 1.809 0 0 1-.623-.35 1.682 1.682 0 0 1-.427-.581 2.103 2.103 0 0 1-.154-.84c0-.28.077-.548.231-.805.154-.261.401-.492.742-.693.345-.2.795-.364 1.351-.49.555-.13 1.234-.205 2.037-.224v-.553c0-.55-.119-.966-.357-1.246-.234-.285-.581-.427-1.043-.427-.304 0-.56.04-.77.119a2.741 2.741 0 0 0-.539.259c-.15.093-.28.18-.392.259a.563.563 0 0 1-.322.112.404.404 0 0 1-.224-.063.554.554 0 0 1-.147-.168l-.224-.399c.392-.378.814-.66 1.267-.847.452-.187.954-.28 1.505-.28.396 0 .749.065 1.057.196.308.13.567.313.777.546.21.233.368.516.476.847.107.331.161.695.161 1.092V25Zm-3.234-.763c.219 0 .42-.021.602-.063.182-.047.352-.11.511-.189a2.73 2.73 0 0 0 .462-.301c.149-.117.294-.25.434-.399v-1.477a9.91 9.91 0 0 0-1.463.14 4 4 0 0 0-.98.28c-.252.117-.437.254-.553.413a.901.901 0 0 0-.168.532c0 .187.03.348.091.483.06.135.142.247.245.336.102.084.224.147.364.189.14.037.291.056.455.056Zm7.648-6.447c.308 0 .595.035.861.105.271.065.516.163.735.294h1.925v.462c0 .154-.098.252-.294.294l-.805.112c.159.303.238.642.238 1.015 0 .345-.067.66-.203.945-.13.28-.315.52-.553.721-.233.2-.513.355-.84.462a3.346 3.346 0 0 1-1.064.161 3.59 3.59 0 0 1-.938-.119 1.243 1.243 0 0 0-.343.301.557.557 0 0 0-.112.315c0 .168.068.296.203.385.136.084.315.145.539.182.224.037.479.06.763.07.285.01.574.026.868.049.299.019.591.054.875.105.285.051.539.135.763.252.224.117.404.278.539.483.136.205.203.471.203.798 0 .303-.077.597-.231.882a2.302 2.302 0 0 1-.651.756 3.265 3.265 0 0 1-1.043.532c-.41.135-.875.203-1.393.203s-.973-.051-1.365-.154a3.194 3.194 0 0 1-.966-.413 1.832 1.832 0 0 1-.581-.602 1.421 1.421 0 0 1-.189-.707c0-.35.11-.646.329-.889.224-.247.53-.443.917-.588a1.31 1.31 0 0 1-.483-.371c-.116-.159-.175-.369-.175-.63 0-.103.019-.208.056-.315.038-.112.094-.222.168-.329a1.853 1.853 0 0 1 .679-.567 2.247 2.247 0 0 1-.826-.777 2.175 2.175 0 0 1-.294-1.141c0-.345.066-.658.196-.938.136-.285.322-.525.56-.721.238-.2.521-.355.847-.462a3.508 3.508 0 0 1 1.085-.161Zm2.212 7.595a.609.609 0 0 0-.147-.427.922.922 0 0 0-.399-.245 2.724 2.724 0 0 0-.581-.133 7.832 7.832 0 0 0-.693-.056l-.742-.042a6.845 6.845 0 0 1-.721-.077 2.09 2.09 0 0 0-.651.462.943.943 0 0 0-.245.651c0 .159.04.306.119.441.084.14.21.259.378.357.168.103.378.182.63.238.257.06.558.091.903.091.336 0 .637-.03.903-.091.266-.06.49-.147.672-.259a1.26 1.26 0 0 0 .427-.399.932.932 0 0 0 .147-.511Zm-2.212-3.85c.252 0 .474-.035.665-.105.196-.07.36-.168.49-.294a1.2 1.2 0 0 0 .294-.448c.066-.177.098-.371.098-.581 0-.434-.133-.78-.399-1.036-.261-.257-.644-.385-1.148-.385-.499 0-.882.128-1.148.385-.261.257-.392.602-.392 1.036 0 .21.033.404.098.581.07.173.171.322.301.448.131.126.292.224.483.294.192.07.411.105.658.105Zm11.349-6.678c.369 0 .705.06 1.008.182.303.117.565.273.784.469.224.196.399.425.525.686.131.257.205.525.224.805l-.777.154a.317.317 0 0 1-.238-.042c-.051-.033-.089-.091-.112-.175a1.613 1.613 0 0 0-.161-.378c-.07-.13-.163-.25-.28-.357a1.373 1.373 0 0 0-.973-.371c-.233 0-.443.037-.63.112-.187.075-.348.18-.483.315-.131.13-.233.287-.308.469-.07.177-.105.371-.105.581 0 .163.019.32.056.469.042.15.103.301.182.455.079.15.182.306.308.469.126.159.278.327.455.504l2.884 2.933c.177-.313.317-.64.42-.98.107-.345.18-.69.217-1.036a.354.354 0 0 1 .084-.21.252.252 0 0 1 .196-.077h.77a5.556 5.556 0 0 1-.966 3.038l2.1 2.128h-1.204a.923.923 0 0 1-.329-.049.872.872 0 0 1-.28-.203l-1.008-1.015c-.439.425-.945.76-1.519 1.008a4.675 4.675 0 0 1-1.883.371 3.3 3.3 0 0 1-1.099-.189 3.09 3.09 0 0 1-.966-.546 2.83 2.83 0 0 1-.679-.882 2.574 2.574 0 0 1-.259-1.169c0-.327.054-.635.161-.924.112-.294.264-.565.455-.812.196-.247.427-.469.693-.665.266-.196.558-.364.875-.504a4.207 4.207 0 0 1-.63-1.05 2.845 2.845 0 0 1-.203-1.057c0-.34.061-.66.182-.959.126-.299.306-.558.539-.777.233-.224.516-.399.847-.525.336-.13.712-.196 1.127-.196Zm-2.779 7.371c0 .303.056.572.168.805.112.229.259.422.441.581.182.159.39.28.623.364.233.08.471.119.714.119.523 0 .992-.096 1.407-.287a3.773 3.773 0 0 0 1.099-.763l-2.961-2.989c-.495.266-.868.586-1.12.959a2.131 2.131 0 0 0-.371 1.211ZM223.425 25c-.178 0-.29-.086-.336-.259l-.112-.861a3.775 3.775 0 0 1-1.043.889c-.388.22-.833.329-1.337.329-.406 0-.775-.077-1.106-.231a2.319 2.319 0 0 1-.847-.693c-.234-.303-.413-.681-.539-1.134a5.838 5.838 0 0 1-.189-1.561c0-.523.07-1.008.21-1.456.14-.453.34-.845.602-1.176a2.812 2.812 0 0 1 2.254-1.064c.434 0 .805.075 1.113.224.308.145.583.35.826.616v-3.934h1.246V25h-.742Zm-2.415-.91c.406 0 .76-.093 1.064-.28.308-.187.59-.45.847-.791v-3.43c-.229-.308-.481-.523-.756-.644a2.116 2.116 0 0 0-.903-.189c-.663 0-1.172.236-1.526.707-.355.471-.532 1.143-.532 2.016 0 .462.039.859.119 1.19.079.327.196.597.35.812.154.21.343.364.567.462.224.098.48.147.77.147Zm5.384.91v-7.091h.714c.135 0 .229.026.28.077.051.051.086.14.105.266l.084 1.106c.243-.495.541-.88.896-1.155a1.99 1.99 0 0 1 1.26-.42c.196 0 .373.023.532.07.159.042.306.103.441.182l-.161.931c-.033.117-.105.175-.217.175-.065 0-.166-.021-.301-.063a1.805 1.805 0 0 0-.567-.07c-.434 0-.798.126-1.092.378-.289.252-.532.618-.728 1.099V25h-1.246Zm8.656-7.203c.518 0 .985.086 1.4.259.42.173.775.418 1.064.735.294.317.518.702.672 1.155.159.448.238.95.238 1.505a4.5 4.5 0 0 1-.238 1.512 3.19 3.19 0 0 1-.672 1.148 2.918 2.918 0 0 1-1.064.735 3.703 3.703 0 0 1-1.4.252c-.518 0-.987-.084-1.407-.252a3.004 3.004 0 0 1-1.064-.735c-.294-.317-.52-.7-.679-1.148a4.526 4.526 0 0 1-.238-1.512c0-.555.08-1.057.238-1.505.159-.453.385-.838.679-1.155a3.004 3.004 0 0 1 1.064-.735c.42-.173.889-.259 1.407-.259Zm0 6.328c.7 0 1.223-.233 1.568-.7.346-.471.518-1.127.518-1.967 0-.845-.172-1.503-.518-1.974-.345-.471-.868-.707-1.568-.707-.354 0-.662.06-.924.182-.261.121-.48.296-.658.525a2.428 2.428 0 0 0-.392.847 4.598 4.598 0 0 0-.126 1.127c0 .42.042.796.126 1.127.089.331.22.611.392.84.178.224.397.397.658.518.262.121.57.182.924.182Zm5.05 3.276v-9.492h.742c.177 0 .289.086.336.259l.105.84a3.791 3.791 0 0 1 1.036-.889 2.674 2.674 0 0 1 1.351-.336c.406 0 .774.08 1.106.238.331.154.613.385.847.693.233.303.413.681.539 1.134.126.453.189.973.189 1.561 0 .523-.07 1.01-.21 1.463-.14.448-.341.838-.602 1.169a2.869 2.869 0 0 1-.966.777c-.378.187-.805.28-1.281.28-.439 0-.815-.072-1.127-.217a2.544 2.544 0 0 1-.819-.616v3.136H240.1Zm3.157-8.61c-.406 0-.763.093-1.071.28a3.08 3.08 0 0 0-.84.791v3.43c.228.308.478.525.749.651.275.126.581.189.917.189.658 0 1.164-.236 1.519-.707.354-.471.532-1.143.532-2.016 0-.462-.042-.859-.126-1.19a2.258 2.258 0 0 0-.35-.812 1.366 1.366 0 0 0-.567-.469 1.888 1.888 0 0 0-.763-.147Zm8.94-.882V25h-1.246v-7.091h1.246Zm.28-2.226a.776.776 0 0 1-.077.343.938.938 0 0 1-.476.469.847.847 0 0 1-.343.07.854.854 0 0 1-.343-.07 1.032 1.032 0 0 1-.28-.189 1.035 1.035 0 0 1-.189-.28.862.862 0 0 1 0-.686.888.888 0 0 1 .189-.287.854.854 0 0 1 .623-.266.847.847 0 0 1 .623.266c.084.08.15.175.196.287a.776.776 0 0 1 .077.343Zm4.205 9.429c-.56 0-.991-.156-1.295-.469-.298-.313-.448-.763-.448-1.351v-4.34h-.854a.291.291 0 0 1-.189-.063c-.051-.047-.077-.117-.077-.21v-.497l1.162-.147.287-2.191a.282.282 0 0 1 .287-.238h.63v2.443h2.03v.903h-2.03v4.256c0 .299.073.52.217.665a.76.76 0 0 0 .56.217 1.017 1.017 0 0 0 .588-.168c.07-.042.129-.08.175-.112.052-.037.096-.056.133-.056.066 0 .124.04.175.119l.364.595c-.214.2-.473.36-.777.476a2.686 2.686 0 0 1-.938.168Zm6.021-7.315c.425 0 .817.072 1.176.217.359.14.67.345.931.616.261.266.464.597.609.994.149.392.224.84.224 1.344 0 .196-.021.327-.063.392-.042.065-.121.098-.238.098h-4.718c.009.448.07.838.182 1.169.112.331.266.609.462.833.196.22.429.385.7.497.271.107.574.161.91.161.313 0 .581-.035.805-.105a4.005 4.005 0 0 0 .994-.469.55.55 0 0 1 .287-.112c.103 0 .182.04.238.119l.35.455c-.154.187-.338.35-.553.49a3.548 3.548 0 0 1-.693.336 4.098 4.098 0 0 1-.756.196c-.261.047-.52.07-.777.07-.49 0-.943-.082-1.358-.245a3.07 3.07 0 0 1-1.071-.728 3.4 3.4 0 0 1-.7-1.19c-.168-.471-.252-1.013-.252-1.624 0-.495.075-.957.224-1.386.154-.43.373-.8.658-1.113a2.953 2.953 0 0 1 1.043-.742 3.388 3.388 0 0 1 1.386-.273Zm.028.917c-.602 0-1.076.175-1.421.525-.345.345-.56.826-.644 1.442h3.857a2.5 2.5 0 0 0-.119-.791 1.725 1.725 0 0 0-.35-.623 1.507 1.507 0 0 0-.567-.406 1.834 1.834 0 0 0-.756-.147ZM267.378 25v-7.091h.742c.177 0 .289.086.336.259l.091.728a3.66 3.66 0 0 1 .875-.791 2.088 2.088 0 0 1 1.134-.308c.481 0 .868.133 1.162.399.299.266.513.625.644 1.078.098-.257.226-.478.385-.665a2.303 2.303 0 0 1 1.183-.728c.229-.056.46-.084.693-.084.373 0 .705.06.994.182.294.117.541.29.742.518.205.229.362.511.469.847.107.331.161.712.161 1.141V25h-1.246v-4.515c0-.555-.121-.975-.364-1.26-.243-.29-.595-.434-1.057-.434a1.57 1.57 0 0 0-.588.112c-.182.07-.343.175-.483.315-.14.14-.252.317-.336.532-.079.21-.119.455-.119.735V25h-1.246v-4.515c0-.57-.114-.994-.343-1.274-.229-.28-.562-.42-1.001-.42-.308 0-.595.084-.861.252a2.775 2.775 0 0 0-.721.672V25h-1.246Zm15.698-5.922a.276.276 0 0 1-.259.154.489.489 0 0 1-.238-.077 4.211 4.211 0 0 0-.329-.168 2.52 2.52 0 0 0-.455-.175 2.099 2.099 0 0 0-.63-.084c-.21 0-.399.028-.567.084a1.349 1.349 0 0 0-.434.217 1.012 1.012 0 0 0-.273.329.875.875 0 0 0-.091.399c0 .182.051.334.154.455.107.121.247.226.42.315s.369.168.588.238c.219.065.443.138.672.217.233.075.46.159.679.252.219.093.415.21.588.35.173.14.31.313.413.518.107.2.161.443.161.728 0 .327-.058.63-.175.91a2.018 2.018 0 0 1-.518.721c-.229.2-.509.36-.84.476a3.449 3.449 0 0 1-1.148.175c-.495 0-.943-.08-1.344-.238a3.464 3.464 0 0 1-1.022-.623l.294-.476a.427.427 0 0 1 .133-.14.372.372 0 0 1 .203-.049c.084 0 .173.033.266.098.093.065.205.138.336.217.135.08.296.152.483.217.191.065.429.098.714.098.243 0 .455-.03.637-.091a1.38 1.38 0 0 0 .455-.259.98.98 0 0 0 .266-.371c.061-.14.091-.29.091-.448a.72.72 0 0 0-.161-.483c-.103-.13-.24-.24-.413-.329a3.049 3.049 0 0 0-.595-.238l-.679-.217a9.12 9.12 0 0 1-.679-.252 2.505 2.505 0 0 1-.588-.364 1.677 1.677 0 0 1-.42-.532 1.784 1.784 0 0 1-.154-.777c0-.27.056-.53.168-.777.112-.252.275-.471.49-.658.215-.191.478-.343.791-.455.313-.112.67-.168 1.071-.168.467 0 .884.075 1.253.224.373.145.695.345.966.602l-.28.455ZM288.073 25V14.689h1.246v4.172c.304-.322.64-.579 1.008-.77a2.676 2.676 0 0 1 1.274-.294c.388 0 .728.065 1.022.196.299.126.546.308.742.546.201.233.353.516.455.847.103.331.154.698.154 1.099V25h-1.246v-4.515c0-.537-.123-.952-.371-1.246-.242-.299-.616-.448-1.12-.448-.368 0-.714.089-1.036.266a3.436 3.436 0 0 0-.882.721V25h-1.246Zm10.727-7.203c.424 0 .816.072 1.176.217.359.14.669.345.931.616.261.266.464.597.609.994.149.392.224.84.224 1.344 0 .196-.021.327-.063.392-.042.065-.122.098-.238.098h-4.718c.009.448.07.838.182 1.169.112.331.266.609.462.833.196.22.429.385.7.497.27.107.574.161.91.161.312 0 .581-.035.805-.105a4.099 4.099 0 0 0 .994-.469.547.547 0 0 1 .287-.112c.102 0 .182.04.238.119l.35.455c-.154.187-.339.35-.553.49a3.548 3.548 0 0 1-.693.336 4.098 4.098 0 0 1-.756.196c-.262.047-.521.07-.777.07-.49 0-.943-.082-1.358-.245a3.07 3.07 0 0 1-1.071-.728 3.4 3.4 0 0 1-.7-1.19c-.168-.471-.252-1.013-.252-1.624 0-.495.074-.957.224-1.386.154-.43.373-.8.658-1.113a2.944 2.944 0 0 1 1.043-.742c.41-.182.872-.273 1.386-.273Zm.028.917c-.602 0-1.076.175-1.421.525-.346.345-.56.826-.644 1.442h3.857a2.5 2.5 0 0 0-.119-.791 1.74 1.74 0 0 0-.35-.623 1.507 1.507 0 0 0-.567-.406 1.84 1.84 0 0 0-.756-.147ZM303.474 25v-7.091h.714c.136 0 .229.026.28.077.052.051.087.14.105.266l.084 1.106c.243-.495.542-.88.896-1.155.36-.28.78-.42 1.26-.42.196 0 .374.023.532.07.159.042.306.103.441.182l-.161.931c-.032.117-.105.175-.217.175-.065 0-.165-.021-.301-.063a1.805 1.805 0 0 0-.567-.07c-.434 0-.798.126-1.092.378-.289.252-.532.618-.728 1.099V25h-1.246Zm8.594-7.203c.424 0 .816.072 1.176.217.359.14.669.345.931.616.261.266.464.597.609.994.149.392.224.84.224 1.344 0 .196-.021.327-.063.392-.042.065-.122.098-.238.098h-4.718c.009.448.07.838.182 1.169.112.331.266.609.462.833.196.22.429.385.7.497.27.107.574.161.91.161.312 0 .581-.035.805-.105a4.099 4.099 0 0 0 .994-.469.547.547 0 0 1 .287-.112c.102 0 .182.04.238.119l.35.455c-.154.187-.339.35-.553.49a3.548 3.548 0 0 1-.693.336 4.098 4.098 0 0 1-.756.196c-.262.047-.521.07-.777.07-.49 0-.943-.082-1.358-.245a3.07 3.07 0 0 1-1.071-.728 3.4 3.4 0 0 1-.7-1.19c-.168-.471-.252-1.013-.252-1.624 0-.495.074-.957.224-1.386.154-.43.373-.8.658-1.113a2.944 2.944 0 0 1 1.043-.742c.41-.182.872-.273 1.386-.273Zm.028.917c-.602 0-1.076.175-1.421.525-.346.345-.56.826-.644 1.442h3.857a2.5 2.5 0 0 0-.119-.791 1.74 1.74 0 0 0-.35-.623 1.507 1.507 0 0 0-.567-.406 1.84 1.84 0 0 0-.756-.147ZM319.87 25v-6.027l-.784-.091a.69.69 0 0 1-.245-.105.268.268 0 0 1-.091-.217v-.511h1.12v-.686c0-.406.056-.765.168-1.078a2.08 2.08 0 0 1 1.26-1.295 2.849 2.849 0 0 1 1.008-.168c.317 0 .611.047.882.14l-.028.623c-.005.093-.045.15-.119.168a1.37 1.37 0 0 1-.315.028h-.217c-.215 0-.411.028-.588.084a1.105 1.105 0 0 0-.448.273 1.268 1.268 0 0 0-.294.497c-.066.205-.098.46-.098.763v.651h2.051v.903h-2.009V25h-1.253Zm4.576 0v-7.091h.714c.136 0 .229.026.28.077.052.051.087.14.105.266l.084 1.106c.243-.495.542-.88.896-1.155.36-.28.78-.42 1.26-.42.196 0 .374.023.532.07.159.042.306.103.441.182l-.161.931c-.032.117-.105.175-.217.175-.065 0-.165-.021-.301-.063a1.805 1.805 0 0 0-.567-.07c-.434 0-.798.126-1.092.378-.289.252-.532.618-.728 1.099V25h-1.246Zm8.657-7.203c.518 0 .985.086 1.4.259.42.173.775.418 1.064.735.294.317.518.702.672 1.155.159.448.238.95.238 1.505a4.5 4.5 0 0 1-.238 1.512 3.19 3.19 0 0 1-.672 1.148 2.918 2.918 0 0 1-1.064.735 3.703 3.703 0 0 1-1.4.252c-.518 0-.987-.084-1.407-.252a3.004 3.004 0 0 1-1.064-.735c-.294-.317-.52-.7-.679-1.148a4.5 4.5 0 0 1-.238-1.512c0-.555.079-1.057.238-1.505.159-.453.385-.838.679-1.155a3.004 3.004 0 0 1 1.064-.735c.42-.173.889-.259 1.407-.259Zm0 6.328c.7 0 1.223-.233 1.568-.7.345-.471.518-1.127.518-1.967 0-.845-.173-1.503-.518-1.974-.345-.471-.868-.707-1.568-.707-.355 0-.663.06-.924.182a1.758 1.758 0 0 0-.658.525 2.41 2.41 0 0 0-.392.847 4.598 4.598 0 0 0-.126 1.127c0 .42.042.796.126 1.127.089.331.219.611.392.84.177.224.397.397.658.518s.569.182.924.182Zm5.049.875v-7.091h.742c.178 0 .29.086.336.259l.091.728a3.68 3.68 0 0 1 .875-.791 2.088 2.088 0 0 1 1.134-.308c.481 0 .868.133 1.162.399.299.266.514.625.644 1.078.098-.257.227-.478.385-.665a2.311 2.311 0 0 1 1.183-.728c.229-.056.46-.084.693-.084.374 0 .705.06.994.182.294.117.542.29.742.518.206.229.362.511.469.847.108.331.161.712.161 1.141V25h-1.246v-4.515c0-.555-.121-.975-.364-1.26-.242-.29-.595-.434-1.057-.434a1.57 1.57 0 0 0-.588.112c-.182.07-.343.175-.483.315-.14.14-.252.317-.336.532-.079.21-.119.455-.119.735V25h-1.246v-4.515c0-.57-.114-.994-.343-1.274-.228-.28-.562-.42-1.001-.42-.308 0-.595.084-.861.252a2.79 2.79 0 0 0-.721.672V25h-1.246Zm14.261-7.084a2.88 2.88 0 0 1-.301-.672 2.516 2.516 0 0 1 .217-1.883c.21-.387.502-.742.875-1.064l.385.238c.038.023.061.049.07.077a.186.186 0 0 1 .021.084.228.228 0 0 1-.07.168 5.059 5.059 0 0 0-.217.294c-.07.103-.133.212-.189.329-.056.112-.1.231-.133.357a1.615 1.615 0 0 0-.049.399c0 .15.021.303.063.462.047.159.124.327.231.504a.293.293 0 0 1 .049.161c0 .112-.063.191-.189.238l-.763.308Zm2.128 0a2.88 2.88 0 0 1-.301-.672 2.516 2.516 0 0 1 .217-1.883c.21-.387.502-.742.875-1.064l.385.238c.038.023.061.049.07.077a.186.186 0 0 1 .021.084.228.228 0 0 1-.07.168 5.059 5.059 0 0 0-.217.294c-.07.103-.133.212-.189.329-.056.112-.1.231-.133.357a1.615 1.615 0 0 0-.049.399c0 .15.021.303.063.462.047.159.124.327.231.504a.293.293 0 0 1 .049.161c0 .112-.063.191-.189.238l-.763.308Zm8.467 3.458c.065.112.121.231.168.357.051.121.1.245.147.371a5.98 5.98 0 0 1 .322-.735l3.395-6.167c.061-.107.124-.173.189-.196a.871.871 0 0 1 .28-.035h1.001V25h-1.19v-7.371a10.623 10.623 0 0 1 .028-.658l-3.437 6.272c-.117.21-.28.315-.49.315h-.196c-.21 0-.373-.105-.49-.315l-3.514-6.293c.014.121.023.24.028.357.009.117.014.224.014.322V25h-1.19V14.969h1.001c.121 0 .215.012.28.035.065.023.128.089.189.196l3.465 6.174Zm9.967 5.719a.633.633 0 0 1-.161.224c-.061.056-.157.084-.287.084h-.924l1.295-2.814-2.926-6.678h1.078c.107 0 .191.028.252.084a.48.48 0 0 1 .133.175l1.897 4.466c.042.103.077.205.105.308.032.103.06.208.084.315.032-.107.065-.212.098-.315.032-.103.07-.208.112-.315l1.841-4.459a.381.381 0 0 1 .14-.182.37.37 0 0 1 .224-.077h.994l-3.955 9.184Zm12.741-3.08c.271 0 .518-.012.742-.035.229-.028.443-.068.644-.119.201-.051.39-.112.567-.182.177-.075.355-.159.532-.252v-2.212h-1.554a.308.308 0 0 1-.217-.077.258.258 0 0 1-.077-.189v-.77h3.08v3.85a5.486 5.486 0 0 1-1.666.819 6.237 6.237 0 0 1-.994.196 8.88 8.88 0 0 1-1.155.07 5.257 5.257 0 0 1-2.002-.371 4.678 4.678 0 0 1-1.568-1.05 4.84 4.84 0 0 1-1.029-1.624 5.732 5.732 0 0 1-.364-2.079c0-.765.119-1.463.357-2.093a4.644 4.644 0 0 1 1.029-1.617 4.615 4.615 0 0 1 1.617-1.05c.635-.247 1.344-.371 2.128-.371.397 0 .765.03 1.106.091.341.056.656.14.945.252.294.107.565.24.812.399.247.154.478.329.693.525l-.385.616c-.079.126-.182.189-.308.189a.496.496 0 0 1-.245-.077 7.428 7.428 0 0 1-.392-.238 3.147 3.147 0 0 0-.532-.266 3.92 3.92 0 0 0-.735-.224 4.787 4.787 0 0 0-1.001-.091 4.02 4.02 0 0 0-1.533.28 3.188 3.188 0 0 0-1.169.791c-.322.34-.569.756-.742 1.246a4.856 4.856 0 0 0-.259 1.638c0 .635.089 1.202.266 1.701.182.495.436.915.763 1.26s.714.609 1.162.791a3.91 3.91 0 0 0 1.484.273Zm5.752.987v-7.091h.714c.136 0 .229.026.28.077.052.051.087.14.105.266l.084 1.106c.243-.495.542-.88.896-1.155.36-.28.78-.42 1.26-.42.196 0 .374.023.532.07.159.042.306.103.441.182l-.161.931c-.032.117-.105.175-.217.175-.065 0-.165-.021-.301-.063a1.805 1.805 0 0 0-.567-.07c-.434 0-.798.126-1.092.378-.289.252-.532.618-.728 1.099V25h-1.246Zm8.657-7.203c.518 0 .984.086 1.4.259.42.173.774.418 1.064.735.294.317.518.702.672 1.155.158.448.238.95.238 1.505 0 .56-.08 1.064-.238 1.512a3.19 3.19 0 0 1-.672 1.148c-.29.317-.644.562-1.064.735a3.707 3.707 0 0 1-1.4.252c-.518 0-.987-.084-1.407-.252a2.995 2.995 0 0 1-1.064-.735 3.262 3.262 0 0 1-.679-1.148 4.5 4.5 0 0 1-.238-1.512c0-.555.079-1.057.238-1.505.158-.453.385-.838.679-1.155a2.995 2.995 0 0 1 1.064-.735c.42-.173.889-.259 1.407-.259Zm0 6.328c.7 0 1.222-.233 1.568-.7.345-.471.518-1.127.518-1.967 0-.845-.173-1.503-.518-1.974-.346-.471-.868-.707-1.568-.707-.355 0-.663.06-.924.182a1.75 1.75 0 0 0-.658.525 2.393 2.393 0 0 0-.392.847 4.598 4.598 0 0 0-.126 1.127c0 .42.042.796.126 1.127.088.331.219.611.392.84.177.224.396.397.658.518.261.121.569.182.924.182Zm6.127-6.216v4.522c0 .537.124.952.371 1.246.247.294.621.441 1.12.441.364 0 .707-.086 1.029-.259.322-.173.618-.413.889-.721v-5.229h1.246V25h-.742c-.177 0-.289-.086-.336-.259l-.098-.763c-.308.34-.653.616-1.036.826a2.74 2.74 0 0 1-1.316.308 2.63 2.63 0 0 1-1.029-.189 2.08 2.08 0 0 1-.742-.546 2.345 2.345 0 0 1-.455-.847 3.865 3.865 0 0 1-.147-1.099v-4.522h1.246Zm6.841 9.492v-9.492h.742c.178 0 .29.086.336.259l.105.84a3.82 3.82 0 0 1 1.036-.889 2.676 2.676 0 0 1 1.351-.336c.406 0 .775.08 1.106.238.332.154.614.385.847.693.234.303.413.681.539 1.134.126.453.189.973.189 1.561 0 .523-.07 1.01-.21 1.463-.14.448-.34.838-.602 1.169a2.85 2.85 0 0 1-.966.777c-.378.187-.805.28-1.281.28-.438 0-.814-.072-1.127-.217a2.544 2.544 0 0 1-.819-.616v3.136h-1.246Zm3.157-8.61c-.406 0-.763.093-1.071.28a3.11 3.11 0 0 0-.84.791v3.43c.229.308.479.525.749.651.276.126.581.189.917.189.658 0 1.165-.236 1.519-.707.355-.471.532-1.143.532-2.016 0-.462-.042-.859-.126-1.19a2.241 2.241 0 0 0-.35-.812 1.366 1.366 0 0 0-.567-.469 1.885 1.885 0 0 0-.763-.147Zm8.768.287a.276.276 0 0 1-.259.154.489.489 0 0 1-.238-.077 4.211 4.211 0 0 0-.329-.168 2.52 2.52 0 0 0-.455-.175 2.099 2.099 0 0 0-.63-.084c-.21 0-.399.028-.567.084a1.349 1.349 0 0 0-.434.217 1.012 1.012 0 0 0-.273.329.875.875 0 0 0-.091.399c0 .182.051.334.154.455.107.121.247.226.42.315s.369.168.588.238c.219.065.443.138.672.217.233.075.46.159.679.252.219.093.415.21.588.35.173.14.31.313.413.518.107.2.161.443.161.728 0 .327-.058.63-.175.91a2.018 2.018 0 0 1-.518.721c-.229.2-.509.36-.84.476a3.449 3.449 0 0 1-1.148.175c-.495 0-.943-.08-1.344-.238a3.464 3.464 0 0 1-1.022-.623l.294-.476a.427.427 0 0 1 .133-.14.372.372 0 0 1 .203-.049c.084 0 .173.033.266.098.093.065.205.138.336.217.135.08.296.152.483.217.191.065.429.098.714.098.243 0 .455-.03.637-.091a1.38 1.38 0 0 0 .455-.259.98.98 0 0 0 .266-.371c.061-.14.091-.29.091-.448a.72.72 0 0 0-.161-.483c-.103-.13-.24-.24-.413-.329a3.049 3.049 0 0 0-.595-.238l-.679-.217a9.12 9.12 0 0 1-.679-.252 2.505 2.505 0 0 1-.588-.364 1.677 1.677 0 0 1-.42-.532 1.784 1.784 0 0 1-.154-.777c0-.27.056-.53.168-.777.112-.252.275-.471.49-.658.215-.191.478-.343.791-.455.313-.112.67-.168 1.071-.168.467 0 .884.075 1.253.224.373.145.695.345.966.602l-.28.455Zm3.025-4.634a2.547 2.547 0 0 1 .385 1.344c0 .425-.105.83-.315 1.218a3.771 3.771 0 0 1-.861 1.057l-.385-.238a.204.204 0 0 1-.077-.077.274.274 0 0 1-.014-.084c0-.065.024-.121.07-.168.075-.089.147-.184.217-.287.07-.107.133-.217.189-.329a1.95 1.95 0 0 0 .133-.364 1.57 1.57 0 0 0-.021-.861 1.925 1.925 0 0 0-.224-.504.29.29 0 0 1-.049-.154c0-.112.063-.194.189-.245l.763-.308Zm2.128 0a2.547 2.547 0 0 1 .385 1.344c0 .425-.105.83-.315 1.218a3.771 3.771 0 0 1-.861 1.057l-.385-.238a.204.204 0 0 1-.077-.077.274.274 0 0 1-.014-.084c0-.065.024-.121.07-.168.075-.089.147-.184.217-.287.07-.107.133-.217.189-.329a1.95 1.95 0 0 0 .133-.364 1.57 1.57 0 0 0-.021-.861 1.925 1.925 0 0 0-.224-.504.29.29 0 0 1-.049-.154c0-.112.063-.194.189-.245l.763-.308Zm6.47.245V25h-1.246V14.689h1.246Zm3.722 3.22V25h-1.246v-7.091h1.246Zm.28-2.226a.79.79 0 0 1-.077.343.956.956 0 0 1-.196.28.9.9 0 0 1-.28.189.85.85 0 0 1-.343.07.85.85 0 0 1-.343-.07 1.017 1.017 0 0 1-.28-.189 1.035 1.035 0 0 1-.189-.28.845.845 0 0 1-.07-.343c0-.121.023-.236.07-.343a.888.888 0 0 1 .189-.287.85.85 0 0 1 .623-.266.85.85 0 0 1 .623.266.83.83 0 0 1 .196.287.79.79 0 0 1 .077.343Zm6.116 3.395a.276.276 0 0 1-.259.154.489.489 0 0 1-.238-.077 4.211 4.211 0 0 0-.329-.168 2.52 2.52 0 0 0-.455-.175 2.099 2.099 0 0 0-.63-.084c-.21 0-.399.028-.567.084a1.349 1.349 0 0 0-.434.217 1.012 1.012 0 0 0-.273.329.875.875 0 0 0-.091.399c0 .182.051.334.154.455.107.121.247.226.42.315s.369.168.588.238c.219.065.443.138.672.217.233.075.46.159.679.252.219.093.415.21.588.35.173.14.31.313.413.518.107.2.161.443.161.728 0 .327-.058.63-.175.91a2.018 2.018 0 0 1-.518.721c-.229.2-.509.36-.84.476a3.449 3.449 0 0 1-1.148.175c-.495 0-.943-.08-1.344-.238a3.464 3.464 0 0 1-1.022-.623l.294-.476a.427.427 0 0 1 .133-.14.372.372 0 0 1 .203-.049c.084 0 .173.033.266.098.093.065.205.138.336.217.135.08.296.152.483.217.191.065.429.098.714.098.243 0 .455-.03.637-.091a1.38 1.38 0 0 0 .455-.259.98.98 0 0 0 .266-.371c.061-.14.091-.29.091-.448a.72.72 0 0 0-.161-.483c-.103-.13-.24-.24-.413-.329a3.049 3.049 0 0 0-.595-.238l-.679-.217a9.12 9.12 0 0 1-.679-.252 2.505 2.505 0 0 1-.588-.364 1.677 1.677 0 0 1-.42-.532 1.784 1.784 0 0 1-.154-.777c0-.27.056-.53.168-.777.112-.252.275-.471.49-.658.215-.191.478-.343.791-.455.313-.112.67-.168 1.071-.168.467 0 .884.075 1.253.224.373.145.695.345.966.602l-.28.455Zm4.299 6.034c-.56 0-.991-.156-1.295-.469-.298-.313-.448-.763-.448-1.351v-4.34h-.854a.291.291 0 0 1-.189-.063c-.051-.047-.077-.117-.077-.21v-.497l1.162-.147.287-2.191a.282.282 0 0 1 .287-.238h.63v2.443h2.03v.903h-2.03v4.256c0 .299.073.52.217.665a.76.76 0 0 0 .56.217 1.017 1.017 0 0 0 .588-.168c.07-.042.129-.08.175-.112.052-.037.096-.056.133-.056.066 0 .124.04.175.119l.364.595c-.214.2-.473.36-.777.476a2.686 2.686 0 0 1-.938.168Zm2.808-.882c0-.121.021-.236.063-.343a.967.967 0 0 1 .182-.28.9.9 0 0 1 .28-.189.85.85 0 0 1 .343-.07.85.85 0 0 1 .343.07.9.9 0 0 1 .28.189c.079.08.14.173.182.28.047.107.07.222.07.343a.863.863 0 0 1-.07.35.828.828 0 0 1-.462.455.85.85 0 0 1-.343.07.85.85 0 0 1-.343-.07.808.808 0 0 1-.462-.455.952.952 0 0 1-.063-.35Z"/><rect width="20" height="20" x="12" y="10" fill="#F4F4F4" rx="10"/><path fill="#858585" d="M19.509 24.048h2.156v-6.839c0-.205.007-.413.021-.623l-1.792 1.533a.559.559 0 0 1-.14.084.463.463 0 0 1-.133.021.417.417 0 0 1-.189-.042.374.374 0 0 1-.126-.112l-.392-.539 2.982-2.583h1.015v9.1h1.974V25h-5.376v-.952Z"/><rect width="599" height="39" x=".5" y="52.5" stroke="#A3A3A3" stroke-dasharray="4 4" rx="3.5"/><g fill="#858585" clip-path="url(#b)"><path d="M162.365 73.696h-1.4a.637.637 0 1 0 0 1.273h1.4a.637.637 0 1 0 0-1.273ZM153.484 63.637c0 .351.285.636.637.636h1.401a.636.636 0 0 0 0-1.273h-1.401a.637.637 0 0 0-.637.637ZM162.273 64.273h.41c.04 0 .062.017.068.053a.636.636 0 1 0 1.256-.208A1.336 1.336 0 0 0 162.683 63h-.41a.637.637 0 0 0 0 1.273ZM163.385 70.334a.637.637 0 0 0-.637.636v1.4a.637.637 0 0 0 1.273 0v-1.4a.636.636 0 0 0-.636-.636ZM163.385 66.259a.637.637 0 0 0-.637.637v1.4a.637.637 0 0 0 1.273 0v-1.4a.636.636 0 0 0-.636-.637ZM152.055 65.189v1.4a.637.637 0 1 0 1.273 0v-1.4a.637.637 0 0 0-1.273 0ZM158.195 64.273h1.401a.636.636 0 0 0 0-1.273h-1.401a.637.637 0 0 0 0 1.273ZM160.466 67.41a.816.816 0 0 0-.806-.816l-2.628-.022a.636.636 0 1 0-.011 1.273l1.204.01-2.292 2.292h-2.608v-.884a.637.637 0 0 0-1.273 0v.884h-5.336a.736.736 0 0 0-.736.736v9.381c0 .407.33.736.736.736h9.381c.407 0 .736-.33.736-.736v-5.3c.019.001.038.005.057.005h1.401a.637.637 0 0 0 0-1.273h-1.401c-.019 0-.038.004-.057.006v-2.654l2.354-2.354-.006 1.315a.637.637 0 0 0 .634.639h.003c.35 0 .635-.283.637-.634l.011-2.604Zm-4.906 12.317h-8.306V71.42h8.306v8.306Z"/></g><path fill="#858585" d="M180.912 71.988c0 .751-.119 1.435-.357 2.051a4.549 4.549 0 0 1-1.008 1.582c-.434.439-.954.78-1.561 1.022a5.48 5.48 0 0 1-2.016.357h-3.752V66.969h3.752c.737 0 1.409.121 2.016.364a4.403 4.403 0 0 1 1.561 1.022c.434.439.77.966 1.008 1.582.238.616.357 1.3.357 2.051Zm-1.393 0c0-.616-.084-1.167-.252-1.652a3.482 3.482 0 0 0-.714-1.232 3.042 3.042 0 0 0-1.12-.77 3.871 3.871 0 0 0-1.463-.266h-2.387v7.833h2.387c.537 0 1.024-.089 1.463-.266a3.083 3.083 0 0 0 1.12-.763c.308-.336.546-.747.714-1.232.168-.485.252-1.036.252-1.652ZM182.703 77v-7.091h.714c.135 0 .229.026.28.077.051.051.086.14.105.266l.084 1.106c.243-.495.541-.88.896-1.155a1.99 1.99 0 0 1 1.26-.42c.196 0 .373.023.532.07.159.042.306.103.441.182l-.161.931c-.033.117-.105.175-.217.175-.065 0-.166-.021-.301-.063a1.805 1.805 0 0 0-.567-.07c-.434 0-.798.126-1.092.378-.289.252-.532.618-.728 1.099V77h-1.246Zm10.735 0h-.553a.657.657 0 0 1-.294-.056c-.075-.037-.124-.117-.147-.238l-.14-.658a8.99 8.99 0 0 1-.546.455c-.178.13-.364.243-.56.336a3.016 3.016 0 0 1-.63.203c-.22.047-.465.07-.735.07a2.62 2.62 0 0 1-.777-.112 1.809 1.809 0 0 1-.623-.35 1.682 1.682 0 0 1-.427-.581 2.103 2.103 0 0 1-.154-.84c0-.28.077-.548.231-.805.154-.261.401-.492.742-.693.345-.2.795-.364 1.351-.49.555-.13 1.234-.205 2.037-.224v-.553c0-.55-.119-.966-.357-1.246-.234-.285-.581-.427-1.043-.427-.304 0-.56.04-.77.119a2.741 2.741 0 0 0-.539.259c-.15.093-.28.18-.392.259a.563.563 0 0 1-.322.112.404.404 0 0 1-.224-.063.554.554 0 0 1-.147-.168l-.224-.399c.392-.378.814-.66 1.267-.847.452-.187.954-.28 1.505-.28.396 0 .749.065 1.057.196.308.13.567.313.777.546.21.233.368.516.476.847.107.331.161.695.161 1.092V77Zm-3.234-.763c.219 0 .42-.021.602-.063.182-.047.352-.11.511-.189a2.73 2.73 0 0 0 .462-.301c.149-.117.294-.25.434-.399v-1.477a9.91 9.91 0 0 0-1.463.14 4 4 0 0 0-.98.28c-.252.117-.437.254-.553.413a.901.901 0 0 0-.168.532c0 .187.03.348.091.483.06.135.142.247.245.336.102.084.224.147.364.189.14.037.291.056.455.056Zm7.648-6.447c.308 0 .595.035.861.105.271.065.516.163.735.294h1.925v.462c0 .154-.098.252-.294.294l-.805.112c.159.303.238.642.238 1.015 0 .345-.067.66-.203.945-.13.28-.315.52-.553.721-.233.2-.513.355-.84.462a3.346 3.346 0 0 1-1.064.161 3.59 3.59 0 0 1-.938-.119 1.243 1.243 0 0 0-.343.301.557.557 0 0 0-.112.315c0 .168.068.296.203.385.136.084.315.145.539.182.224.037.479.06.763.07.285.01.574.026.868.049.299.019.591.054.875.105.285.051.539.135.763.252.224.117.404.278.539.483.136.205.203.471.203.798 0 .303-.077.597-.231.882a2.302 2.302 0 0 1-.651.756 3.265 3.265 0 0 1-1.043.532c-.41.135-.875.203-1.393.203s-.973-.051-1.365-.154a3.194 3.194 0 0 1-.966-.413 1.832 1.832 0 0 1-.581-.602 1.421 1.421 0 0 1-.189-.707c0-.35.11-.646.329-.889.224-.247.53-.443.917-.588a1.31 1.31 0 0 1-.483-.371c-.116-.159-.175-.369-.175-.63 0-.103.019-.208.056-.315.038-.112.094-.222.168-.329a1.853 1.853 0 0 1 .679-.567 2.247 2.247 0 0 1-.826-.777 2.175 2.175 0 0 1-.294-1.141c0-.345.066-.658.196-.938.136-.285.322-.525.56-.721.238-.2.521-.355.847-.462a3.508 3.508 0 0 1 1.085-.161Zm2.212 7.595a.609.609 0 0 0-.147-.427.922.922 0 0 0-.399-.245 2.724 2.724 0 0 0-.581-.133 7.832 7.832 0 0 0-.693-.056l-.742-.042a6.845 6.845 0 0 1-.721-.077 2.09 2.09 0 0 0-.651.462.943.943 0 0 0-.245.651c0 .159.04.306.119.441.084.14.21.259.378.357.168.103.378.182.63.238.257.06.558.091.903.091.336 0 .637-.03.903-.091.266-.06.49-.147.672-.259a1.26 1.26 0 0 0 .427-.399.932.932 0 0 0 .147-.511Zm-2.212-3.85c.252 0 .474-.035.665-.105.196-.07.36-.168.49-.294a1.2 1.2 0 0 0 .294-.448c.066-.177.098-.371.098-.581 0-.434-.133-.78-.399-1.036-.261-.257-.644-.385-1.148-.385-.499 0-.882.128-1.148.385-.261.257-.392.602-.392 1.036 0 .21.033.404.098.581.07.173.171.322.301.448.131.126.292.224.483.294.192.07.411.105.658.105Zm11.349-6.678c.369 0 .705.06 1.008.182.303.117.565.273.784.469.224.196.399.425.525.686.131.257.205.525.224.805l-.777.154a.317.317 0 0 1-.238-.042c-.051-.033-.089-.091-.112-.175a1.613 1.613 0 0 0-.161-.378c-.07-.13-.163-.25-.28-.357a1.373 1.373 0 0 0-.973-.371c-.233 0-.443.037-.63.112-.187.075-.348.18-.483.315-.131.13-.233.287-.308.469-.07.177-.105.371-.105.581 0 .163.019.32.056.469.042.15.103.301.182.455.079.15.182.306.308.469.126.159.278.327.455.504l2.884 2.933c.177-.313.317-.64.42-.98.107-.345.18-.69.217-1.036a.354.354 0 0 1 .084-.21.252.252 0 0 1 .196-.077h.77a5.556 5.556 0 0 1-.966 3.038l2.1 2.128h-1.204a.923.923 0 0 1-.329-.049.872.872 0 0 1-.28-.203l-1.008-1.015c-.439.425-.945.76-1.519 1.008a4.675 4.675 0 0 1-1.883.371 3.3 3.3 0 0 1-1.099-.189 3.09 3.09 0 0 1-.966-.546 2.83 2.83 0 0 1-.679-.882 2.574 2.574 0 0 1-.259-1.169c0-.327.054-.635.161-.924.112-.294.264-.565.455-.812.196-.247.427-.469.693-.665.266-.196.558-.364.875-.504a4.207 4.207 0 0 1-.63-1.05 2.845 2.845 0 0 1-.203-1.057c0-.34.061-.66.182-.959.126-.299.306-.558.539-.777.233-.224.516-.399.847-.525.336-.13.712-.196 1.127-.196Zm-2.779 7.371c0 .303.056.572.168.805.112.229.259.422.441.581.182.159.39.28.623.364.233.08.471.119.714.119.523 0 .992-.096 1.407-.287a3.773 3.773 0 0 0 1.099-.763l-2.961-2.989c-.495.266-.868.586-1.12.959a2.131 2.131 0 0 0-.371 1.211ZM223.425 77c-.178 0-.29-.086-.336-.259l-.112-.861a3.775 3.775 0 0 1-1.043.889c-.388.22-.833.329-1.337.329-.406 0-.775-.077-1.106-.231a2.319 2.319 0 0 1-.847-.693c-.234-.303-.413-.681-.539-1.134a5.838 5.838 0 0 1-.189-1.561c0-.523.07-1.008.21-1.456.14-.453.34-.845.602-1.176a2.812 2.812 0 0 1 2.254-1.064c.434 0 .805.075 1.113.224.308.145.583.35.826.616v-3.934h1.246V77h-.742Zm-2.415-.91c.406 0 .76-.093 1.064-.28.308-.187.59-.45.847-.791v-3.43c-.229-.308-.481-.523-.756-.644a2.116 2.116 0 0 0-.903-.189c-.663 0-1.172.236-1.526.707-.355.471-.532 1.143-.532 2.016 0 .462.039.859.119 1.19.079.327.196.597.35.812.154.21.343.364.567.462.224.098.48.147.77.147Zm5.384.91v-7.091h.714c.135 0 .229.026.28.077.051.051.086.14.105.266l.084 1.106c.243-.495.541-.88.896-1.155a1.99 1.99 0 0 1 1.26-.42c.196 0 .373.023.532.07.159.042.306.103.441.182l-.161.931c-.033.117-.105.175-.217.175-.065 0-.166-.021-.301-.063a1.805 1.805 0 0 0-.567-.07c-.434 0-.798.126-1.092.378-.289.252-.532.618-.728 1.099V77h-1.246Zm8.656-7.203c.518 0 .985.086 1.4.259.42.173.775.418 1.064.735.294.317.518.702.672 1.155.159.448.238.95.238 1.505a4.5 4.5 0 0 1-.238 1.512 3.19 3.19 0 0 1-.672 1.148 2.918 2.918 0 0 1-1.064.735 3.703 3.703 0 0 1-1.4.252c-.518 0-.987-.084-1.407-.252a3.004 3.004 0 0 1-1.064-.735c-.294-.317-.52-.7-.679-1.148a4.526 4.526 0 0 1-.238-1.512c0-.555.08-1.057.238-1.505.159-.453.385-.838.679-1.155a3.004 3.004 0 0 1 1.064-.735c.42-.173.889-.259 1.407-.259Zm0 6.328c.7 0 1.223-.233 1.568-.7.346-.471.518-1.127.518-1.967 0-.845-.172-1.503-.518-1.974-.345-.471-.868-.707-1.568-.707-.354 0-.662.06-.924.182-.261.121-.48.296-.658.525a2.428 2.428 0 0 0-.392.847 4.598 4.598 0 0 0-.126 1.127c0 .42.042.796.126 1.127.089.331.22.611.392.84.178.224.397.397.658.518.262.121.57.182.924.182Zm5.05 3.276v-9.492h.742c.177 0 .289.086.336.259l.105.84a3.791 3.791 0 0 1 1.036-.889 2.674 2.674 0 0 1 1.351-.336c.406 0 .774.08 1.106.238.331.154.613.385.847.693.233.303.413.681.539 1.134.126.453.189.973.189 1.561 0 .523-.07 1.01-.21 1.463-.14.448-.341.838-.602 1.169a2.869 2.869 0 0 1-.966.777c-.378.187-.805.28-1.281.28-.439 0-.815-.072-1.127-.217a2.544 2.544 0 0 1-.819-.616v3.136H240.1Zm3.157-8.61c-.406 0-.763.093-1.071.28a3.08 3.08 0 0 0-.84.791v3.43c.228.308.478.525.749.651.275.126.581.189.917.189.658 0 1.164-.236 1.519-.707.354-.471.532-1.143.532-2.016 0-.462-.042-.859-.126-1.19a2.258 2.258 0 0 0-.35-.812 1.366 1.366 0 0 0-.567-.469 1.888 1.888 0 0 0-.763-.147Zm8.94-.882V77h-1.246v-7.091h1.246Zm.28-2.226a.776.776 0 0 1-.077.343.938.938 0 0 1-.476.469.847.847 0 0 1-.343.07.854.854 0 0 1-.343-.07 1.032 1.032 0 0 1-.28-.189 1.035 1.035 0 0 1-.189-.28.862.862 0 0 1 0-.686.888.888 0 0 1 .189-.287.854.854 0 0 1 .623-.266.847.847 0 0 1 .623.266c.084.08.15.175.196.287a.776.776 0 0 1 .077.343Zm4.205 9.429c-.56 0-.991-.156-1.295-.469-.298-.313-.448-.763-.448-1.351v-4.34h-.854a.291.291 0 0 1-.189-.063c-.051-.047-.077-.117-.077-.21v-.497l1.162-.147.287-2.191a.282.282 0 0 1 .287-.238h.63v2.443h2.03v.903h-2.03v4.256c0 .299.073.52.217.665a.76.76 0 0 0 .56.217 1.017 1.017 0 0 0 .588-.168c.07-.042.129-.08.175-.112.052-.037.096-.056.133-.056.066 0 .124.04.175.119l.364.595c-.214.2-.473.36-.777.476a2.686 2.686 0 0 1-.938.168Zm6.021-7.315c.425 0 .817.072 1.176.217.359.14.67.345.931.616.261.266.464.597.609.994.149.392.224.84.224 1.344 0 .196-.021.327-.063.392-.042.065-.121.098-.238.098h-4.718c.009.448.07.838.182 1.169.112.331.266.609.462.833.196.22.429.385.7.497.271.107.574.161.91.161.313 0 .581-.035.805-.105a4.005 4.005 0 0 0 .994-.469.55.55 0 0 1 .287-.112c.103 0 .182.04.238.119l.35.455c-.154.187-.338.35-.553.49a3.548 3.548 0 0 1-.693.336 4.098 4.098 0 0 1-.756.196c-.261.047-.52.07-.777.07-.49 0-.943-.082-1.358-.245a3.07 3.07 0 0 1-1.071-.728 3.4 3.4 0 0 1-.7-1.19c-.168-.471-.252-1.013-.252-1.624 0-.495.075-.957.224-1.386.154-.43.373-.8.658-1.113a2.953 2.953 0 0 1 1.043-.742 3.388 3.388 0 0 1 1.386-.273Zm.028.917c-.602 0-1.076.175-1.421.525-.345.345-.56.826-.644 1.442h3.857a2.5 2.5 0 0 0-.119-.791 1.725 1.725 0 0 0-.35-.623 1.507 1.507 0 0 0-.567-.406 1.834 1.834 0 0 0-.756-.147ZM267.378 77v-7.091h.742c.177 0 .289.086.336.259l.091.728a3.66 3.66 0 0 1 .875-.791 2.088 2.088 0 0 1 1.134-.308c.481 0 .868.133 1.162.399.299.266.513.625.644 1.078.098-.257.226-.478.385-.665a2.303 2.303 0 0 1 1.183-.728c.229-.056.46-.084.693-.084.373 0 .705.06.994.182.294.117.541.29.742.518.205.229.362.511.469.847.107.331.161.712.161 1.141V77h-1.246v-4.515c0-.555-.121-.975-.364-1.26-.243-.29-.595-.434-1.057-.434a1.57 1.57 0 0 0-.588.112c-.182.07-.343.175-.483.315-.14.14-.252.317-.336.532-.079.21-.119.455-.119.735V77h-1.246v-4.515c0-.57-.114-.994-.343-1.274-.229-.28-.562-.42-1.001-.42-.308 0-.595.084-.861.252a2.775 2.775 0 0 0-.721.672V77h-1.246Zm15.698-5.922a.276.276 0 0 1-.259.154.489.489 0 0 1-.238-.077 4.211 4.211 0 0 0-.329-.168 2.52 2.52 0 0 0-.455-.175 2.099 2.099 0 0 0-.63-.084c-.21 0-.399.028-.567.084a1.349 1.349 0 0 0-.434.217 1.012 1.012 0 0 0-.273.329.875.875 0 0 0-.091.399c0 .182.051.334.154.455.107.121.247.226.42.315s.369.168.588.238c.219.065.443.138.672.217.233.075.46.159.679.252.219.093.415.21.588.35.173.14.31.313.413.518.107.2.161.443.161.728 0 .327-.058.63-.175.91a2.018 2.018 0 0 1-.518.721c-.229.2-.509.36-.84.476a3.449 3.449 0 0 1-1.148.175c-.495 0-.943-.08-1.344-.238a3.464 3.464 0 0 1-1.022-.623l.294-.476a.427.427 0 0 1 .133-.14.372.372 0 0 1 .203-.049c.084 0 .173.033.266.098.093.065.205.138.336.217.135.08.296.152.483.217.191.065.429.098.714.098.243 0 .455-.03.637-.091a1.38 1.38 0 0 0 .455-.259.98.98 0 0 0 .266-.371c.061-.14.091-.29.091-.448a.72.72 0 0 0-.161-.483c-.103-.13-.24-.24-.413-.329a3.049 3.049 0 0 0-.595-.238l-.679-.217a9.12 9.12 0 0 1-.679-.252 2.505 2.505 0 0 1-.588-.364 1.677 1.677 0 0 1-.42-.532 1.784 1.784 0 0 1-.154-.777c0-.27.056-.53.168-.777.112-.252.275-.471.49-.658.215-.191.478-.343.791-.455.313-.112.67-.168 1.071-.168.467 0 .884.075 1.253.224.373.145.695.345.966.602l-.28.455ZM288.073 77V66.689h1.246v4.172c.304-.322.64-.579 1.008-.77a2.676 2.676 0 0 1 1.274-.294c.388 0 .728.065 1.022.196.299.126.546.308.742.546.201.233.353.516.455.847.103.331.154.698.154 1.099V77h-1.246v-4.515c0-.537-.123-.952-.371-1.246-.242-.299-.616-.448-1.12-.448-.368 0-.714.089-1.036.266a3.436 3.436 0 0 0-.882.721V77h-1.246Zm10.727-7.203c.424 0 .816.072 1.176.217.359.14.669.345.931.616.261.266.464.597.609.994.149.392.224.84.224 1.344 0 .196-.021.327-.063.392-.042.065-.122.098-.238.098h-4.718c.009.448.07.838.182 1.169.112.331.266.609.462.833.196.22.429.385.7.497.27.107.574.161.91.161.312 0 .581-.035.805-.105a4.099 4.099 0 0 0 .994-.469.547.547 0 0 1 .287-.112c.102 0 .182.04.238.119l.35.455c-.154.187-.339.35-.553.49a3.548 3.548 0 0 1-.693.336 4.098 4.098 0 0 1-.756.196c-.262.047-.521.07-.777.07-.49 0-.943-.082-1.358-.245a3.07 3.07 0 0 1-1.071-.728 3.4 3.4 0 0 1-.7-1.19c-.168-.471-.252-1.013-.252-1.624 0-.495.074-.957.224-1.386.154-.43.373-.8.658-1.113a2.944 2.944 0 0 1 1.043-.742c.41-.182.872-.273 1.386-.273Zm.028.917c-.602 0-1.076.175-1.421.525-.346.345-.56.826-.644 1.442h3.857a2.5 2.5 0 0 0-.119-.791 1.74 1.74 0 0 0-.35-.623 1.507 1.507 0 0 0-.567-.406 1.84 1.84 0 0 0-.756-.147ZM303.474 77v-7.091h.714c.136 0 .229.026.28.077.052.051.087.14.105.266l.084 1.106c.243-.495.542-.88.896-1.155.36-.28.78-.42 1.26-.42.196 0 .374.023.532.07.159.042.306.103.441.182l-.161.931c-.032.117-.105.175-.217.175-.065 0-.165-.021-.301-.063a1.805 1.805 0 0 0-.567-.07c-.434 0-.798.126-1.092.378-.289.252-.532.618-.728 1.099V77h-1.246Zm8.594-7.203c.424 0 .816.072 1.176.217.359.14.669.345.931.616.261.266.464.597.609.994.149.392.224.84.224 1.344 0 .196-.021.327-.063.392-.042.065-.122.098-.238.098h-4.718c.009.448.07.838.182 1.169.112.331.266.609.462.833.196.22.429.385.7.497.27.107.574.161.91.161.312 0 .581-.035.805-.105a4.099 4.099 0 0 0 .994-.469.547.547 0 0 1 .287-.112c.102 0 .182.04.238.119l.35.455c-.154.187-.339.35-.553.49a3.548 3.548 0 0 1-.693.336 4.098 4.098 0 0 1-.756.196c-.262.047-.521.07-.777.07-.49 0-.943-.082-1.358-.245a3.07 3.07 0 0 1-1.071-.728 3.4 3.4 0 0 1-.7-1.19c-.168-.471-.252-1.013-.252-1.624 0-.495.074-.957.224-1.386.154-.43.373-.8.658-1.113a2.944 2.944 0 0 1 1.043-.742c.41-.182.872-.273 1.386-.273Zm.028.917c-.602 0-1.076.175-1.421.525-.346.345-.56.826-.644 1.442h3.857a2.5 2.5 0 0 0-.119-.791 1.74 1.74 0 0 0-.35-.623 1.507 1.507 0 0 0-.567-.406 1.84 1.84 0 0 0-.756-.147ZM319.87 77v-6.027l-.784-.091a.69.69 0 0 1-.245-.105.268.268 0 0 1-.091-.217v-.511h1.12v-.686c0-.406.056-.765.168-1.078a2.08 2.08 0 0 1 1.26-1.295 2.849 2.849 0 0 1 1.008-.168c.317 0 .611.047.882.14l-.028.623c-.005.093-.045.15-.119.168a1.37 1.37 0 0 1-.315.028h-.217c-.215 0-.411.028-.588.084a1.105 1.105 0 0 0-.448.273 1.268 1.268 0 0 0-.294.497c-.066.205-.098.46-.098.763v.651h2.051v.903h-2.009V77h-1.253Zm4.576 0v-7.091h.714c.136 0 .229.026.28.077.052.051.087.14.105.266l.084 1.106c.243-.495.542-.88.896-1.155.36-.28.78-.42 1.26-.42.196 0 .374.023.532.07.159.042.306.103.441.182l-.161.931c-.032.117-.105.175-.217.175-.065 0-.165-.021-.301-.063a1.805 1.805 0 0 0-.567-.07c-.434 0-.798.126-1.092.378-.289.252-.532.618-.728 1.099V77h-1.246Zm8.657-7.203c.518 0 .985.086 1.4.259.42.173.775.418 1.064.735.294.317.518.702.672 1.155.159.448.238.95.238 1.505a4.5 4.5 0 0 1-.238 1.512 3.19 3.19 0 0 1-.672 1.148 2.918 2.918 0 0 1-1.064.735 3.703 3.703 0 0 1-1.4.252c-.518 0-.987-.084-1.407-.252a3.004 3.004 0 0 1-1.064-.735c-.294-.317-.52-.7-.679-1.148a4.5 4.5 0 0 1-.238-1.512c0-.555.079-1.057.238-1.505.159-.453.385-.838.679-1.155a3.004 3.004 0 0 1 1.064-.735c.42-.173.889-.259 1.407-.259Zm0 6.328c.7 0 1.223-.233 1.568-.7.345-.471.518-1.127.518-1.967 0-.845-.173-1.503-.518-1.974-.345-.471-.868-.707-1.568-.707-.355 0-.663.06-.924.182a1.758 1.758 0 0 0-.658.525 2.41 2.41 0 0 0-.392.847 4.598 4.598 0 0 0-.126 1.127c0 .42.042.796.126 1.127.089.331.219.611.392.84.177.224.397.397.658.518s.569.182.924.182Zm5.049.875v-7.091h.742c.178 0 .29.086.336.259l.091.728a3.68 3.68 0 0 1 .875-.791 2.088 2.088 0 0 1 1.134-.308c.481 0 .868.133 1.162.399.299.266.514.625.644 1.078.098-.257.227-.478.385-.665a2.311 2.311 0 0 1 1.183-.728c.229-.056.46-.084.693-.084.374 0 .705.06.994.182.294.117.542.29.742.518.206.229.362.511.469.847.108.331.161.712.161 1.141V77h-1.246v-4.515c0-.555-.121-.975-.364-1.26-.242-.29-.595-.434-1.057-.434a1.57 1.57 0 0 0-.588.112c-.182.07-.343.175-.483.315-.14.14-.252.317-.336.532-.079.21-.119.455-.119.735V77h-1.246v-4.515c0-.57-.114-.994-.343-1.274-.228-.28-.562-.42-1.001-.42-.308 0-.595.084-.861.252a2.79 2.79 0 0 0-.721.672V77h-1.246Zm14.261-7.084a2.88 2.88 0 0 1-.301-.672 2.516 2.516 0 0 1 .217-1.883c.21-.387.502-.742.875-1.064l.385.238c.038.023.061.049.07.077a.186.186 0 0 1 .021.084.228.228 0 0 1-.07.168 5.059 5.059 0 0 0-.217.294c-.07.103-.133.212-.189.329-.056.112-.1.231-.133.357a1.615 1.615 0 0 0-.049.399c0 .15.021.303.063.462.047.159.124.327.231.504a.293.293 0 0 1 .049.161c0 .112-.063.191-.189.238l-.763.308Zm2.128 0a2.88 2.88 0 0 1-.301-.672 2.516 2.516 0 0 1 .217-1.883c.21-.387.502-.742.875-1.064l.385.238c.038.023.061.049.07.077a.186.186 0 0 1 .021.084.228.228 0 0 1-.07.168 5.059 5.059 0 0 0-.217.294c-.07.103-.133.212-.189.329-.056.112-.1.231-.133.357a1.615 1.615 0 0 0-.049.399c0 .15.021.303.063.462.047.159.124.327.231.504a.293.293 0 0 1 .049.161c0 .112-.063.191-.189.238l-.763.308Zm8.467 3.458c.065.112.121.231.168.357.051.121.1.245.147.371a5.98 5.98 0 0 1 .322-.735l3.395-6.167c.061-.107.124-.173.189-.196a.871.871 0 0 1 .28-.035h1.001V77h-1.19v-7.371a10.623 10.623 0 0 1 .028-.658l-3.437 6.272c-.117.21-.28.315-.49.315h-.196c-.21 0-.373-.105-.49-.315l-3.514-6.293c.014.121.023.24.028.357.009.117.014.224.014.322V77h-1.19V66.969h1.001c.121 0 .215.012.28.035.065.023.128.089.189.196l3.465 6.174Zm9.967 5.719a.633.633 0 0 1-.161.224c-.061.056-.157.084-.287.084h-.924l1.295-2.814-2.926-6.678h1.078c.107 0 .191.028.252.084a.48.48 0 0 1 .133.175l1.897 4.466c.042.103.077.205.105.308.032.103.06.208.084.315.032-.107.065-.212.098-.315.032-.103.07-.208.112-.315l1.841-4.459a.381.381 0 0 1 .14-.182.37.37 0 0 1 .224-.077h.994l-3.955 9.184Zm12.741-3.08c.271 0 .518-.012.742-.035.229-.028.443-.068.644-.119.201-.051.39-.112.567-.182.177-.075.355-.159.532-.252v-2.212h-1.554a.308.308 0 0 1-.217-.077.258.258 0 0 1-.077-.189v-.77h3.08v3.85a5.486 5.486 0 0 1-1.666.819 6.237 6.237 0 0 1-.994.196 8.88 8.88 0 0 1-1.155.07 5.257 5.257 0 0 1-2.002-.371 4.678 4.678 0 0 1-1.568-1.05 4.84 4.84 0 0 1-1.029-1.624 5.732 5.732 0 0 1-.364-2.079c0-.765.119-1.463.357-2.093a4.644 4.644 0 0 1 1.029-1.617 4.615 4.615 0 0 1 1.617-1.05c.635-.247 1.344-.371 2.128-.371.397 0 .765.03 1.106.091.341.056.656.14.945.252.294.107.565.24.812.399.247.154.478.329.693.525l-.385.616c-.079.126-.182.189-.308.189a.496.496 0 0 1-.245-.077 7.428 7.428 0 0 1-.392-.238 3.147 3.147 0 0 0-.532-.266 3.92 3.92 0 0 0-.735-.224 4.787 4.787 0 0 0-1.001-.091 4.02 4.02 0 0 0-1.533.28 3.188 3.188 0 0 0-1.169.791c-.322.34-.569.756-.742 1.246a4.856 4.856 0 0 0-.259 1.638c0 .635.089 1.202.266 1.701.182.495.436.915.763 1.26s.714.609 1.162.791a3.91 3.91 0 0 0 1.484.273Zm5.752.987v-7.091h.714c.136 0 .229.026.28.077.052.051.087.14.105.266l.084 1.106c.243-.495.542-.88.896-1.155.36-.28.78-.42 1.26-.42.196 0 .374.023.532.07.159.042.306.103.441.182l-.161.931c-.032.117-.105.175-.217.175-.065 0-.165-.021-.301-.063a1.805 1.805 0 0 0-.567-.07c-.434 0-.798.126-1.092.378-.289.252-.532.618-.728 1.099V77h-1.246Zm8.657-7.203c.518 0 .984.086 1.4.259.42.173.774.418 1.064.735.294.317.518.702.672 1.155.158.448.238.95.238 1.505 0 .56-.08 1.064-.238 1.512a3.19 3.19 0 0 1-.672 1.148c-.29.317-.644.562-1.064.735a3.707 3.707 0 0 1-1.4.252c-.518 0-.987-.084-1.407-.252a2.995 2.995 0 0 1-1.064-.735 3.262 3.262 0 0 1-.679-1.148 4.5 4.5 0 0 1-.238-1.512c0-.555.079-1.057.238-1.505.158-.453.385-.838.679-1.155a2.995 2.995 0 0 1 1.064-.735c.42-.173.889-.259 1.407-.259Zm0 6.328c.7 0 1.222-.233 1.568-.7.345-.471.518-1.127.518-1.967 0-.845-.173-1.503-.518-1.974-.346-.471-.868-.707-1.568-.707-.355 0-.663.06-.924.182a1.75 1.75 0 0 0-.658.525 2.393 2.393 0 0 0-.392.847 4.598 4.598 0 0 0-.126 1.127c0 .42.042.796.126 1.127.088.331.219.611.392.84.177.224.396.397.658.518.261.121.569.182.924.182Zm6.127-6.216v4.522c0 .537.124.952.371 1.246.247.294.621.441 1.12.441.364 0 .707-.086 1.029-.259.322-.173.618-.413.889-.721v-5.229h1.246V77h-.742c-.177 0-.289-.086-.336-.259l-.098-.763c-.308.34-.653.616-1.036.826a2.74 2.74 0 0 1-1.316.308 2.63 2.63 0 0 1-1.029-.189 2.08 2.08 0 0 1-.742-.546 2.345 2.345 0 0 1-.455-.847 3.865 3.865 0 0 1-.147-1.099v-4.522h1.246Zm6.841 9.492v-9.492h.742c.178 0 .29.086.336.259l.105.84a3.82 3.82 0 0 1 1.036-.889 2.676 2.676 0 0 1 1.351-.336c.406 0 .775.08 1.106.238.332.154.614.385.847.693.234.303.413.681.539 1.134.126.453.189.973.189 1.561 0 .523-.07 1.01-.21 1.463-.14.448-.34.838-.602 1.169a2.85 2.85 0 0 1-.966.777c-.378.187-.805.28-1.281.28-.438 0-.814-.072-1.127-.217a2.544 2.544 0 0 1-.819-.616v3.136h-1.246Zm3.157-8.61c-.406 0-.763.093-1.071.28a3.11 3.11 0 0 0-.84.791v3.43c.229.308.479.525.749.651.276.126.581.189.917.189.658 0 1.165-.236 1.519-.707.355-.471.532-1.143.532-2.016 0-.462-.042-.859-.126-1.19a2.241 2.241 0 0 0-.35-.812 1.366 1.366 0 0 0-.567-.469 1.885 1.885 0 0 0-.763-.147Zm8.768.287a.276.276 0 0 1-.259.154.489.489 0 0 1-.238-.077 4.211 4.211 0 0 0-.329-.168 2.52 2.52 0 0 0-.455-.175 2.099 2.099 0 0 0-.63-.084c-.21 0-.399.028-.567.084a1.349 1.349 0 0 0-.434.217 1.012 1.012 0 0 0-.273.329.875.875 0 0 0-.091.399c0 .182.051.334.154.455.107.121.247.226.42.315s.369.168.588.238c.219.065.443.138.672.217.233.075.46.159.679.252.219.093.415.21.588.35.173.14.31.313.413.518.107.2.161.443.161.728 0 .327-.058.63-.175.91a2.018 2.018 0 0 1-.518.721c-.229.2-.509.36-.84.476a3.449 3.449 0 0 1-1.148.175c-.495 0-.943-.08-1.344-.238a3.464 3.464 0 0 1-1.022-.623l.294-.476a.427.427 0 0 1 .133-.14.372.372 0 0 1 .203-.049c.084 0 .173.033.266.098.093.065.205.138.336.217.135.08.296.152.483.217.191.065.429.098.714.098.243 0 .455-.03.637-.091a1.38 1.38 0 0 0 .455-.259.98.98 0 0 0 .266-.371c.061-.14.091-.29.091-.448a.72.72 0 0 0-.161-.483c-.103-.13-.24-.24-.413-.329a3.049 3.049 0 0 0-.595-.238l-.679-.217a9.12 9.12 0 0 1-.679-.252 2.505 2.505 0 0 1-.588-.364 1.677 1.677 0 0 1-.42-.532 1.784 1.784 0 0 1-.154-.777c0-.27.056-.53.168-.777.112-.252.275-.471.49-.658.215-.191.478-.343.791-.455.313-.112.67-.168 1.071-.168.467 0 .884.075 1.253.224.373.145.695.345.966.602l-.28.455Zm3.025-4.634a2.547 2.547 0 0 1 .385 1.344c0 .425-.105.83-.315 1.218a3.771 3.771 0 0 1-.861 1.057l-.385-.238a.204.204 0 0 1-.077-.077.274.274 0 0 1-.014-.084c0-.065.024-.121.07-.168.075-.089.147-.184.217-.287.07-.107.133-.217.189-.329a1.95 1.95 0 0 0 .133-.364 1.57 1.57 0 0 0-.021-.861 1.925 1.925 0 0 0-.224-.504.29.29 0 0 1-.049-.154c0-.112.063-.194.189-.245l.763-.308Zm2.128 0a2.547 2.547 0 0 1 .385 1.344c0 .425-.105.83-.315 1.218a3.771 3.771 0 0 1-.861 1.057l-.385-.238a.204.204 0 0 1-.077-.077.274.274 0 0 1-.014-.084c0-.065.024-.121.07-.168.075-.089.147-.184.217-.287.07-.107.133-.217.189-.329a1.95 1.95 0 0 0 .133-.364 1.57 1.57 0 0 0-.021-.861 1.925 1.925 0 0 0-.224-.504.29.29 0 0 1-.049-.154c0-.112.063-.194.189-.245l.763-.308Zm6.47.245V77h-1.246V66.689h1.246Zm3.722 3.22V77h-1.246v-7.091h1.246Zm.28-2.226a.79.79 0 0 1-.077.343.956.956 0 0 1-.196.28.9.9 0 0 1-.28.189.85.85 0 0 1-.343.07.85.85 0 0 1-.343-.07 1.017 1.017 0 0 1-.28-.189 1.035 1.035 0 0 1-.189-.28.845.845 0 0 1-.07-.343c0-.121.023-.236.07-.343a.888.888 0 0 1 .189-.287.85.85 0 0 1 .623-.266.85.85 0 0 1 .623.266.83.83 0 0 1 .196.287.79.79 0 0 1 .077.343Zm6.116 3.395a.276.276 0 0 1-.259.154.489.489 0 0 1-.238-.077 4.211 4.211 0 0 0-.329-.168 2.52 2.52 0 0 0-.455-.175 2.099 2.099 0 0 0-.63-.084c-.21 0-.399.028-.567.084a1.349 1.349 0 0 0-.434.217 1.012 1.012 0 0 0-.273.329.875.875 0 0 0-.091.399c0 .182.051.334.154.455.107.121.247.226.42.315s.369.168.588.238c.219.065.443.138.672.217.233.075.46.159.679.252.219.093.415.21.588.35.173.14.31.313.413.518.107.2.161.443.161.728 0 .327-.058.63-.175.91a2.018 2.018 0 0 1-.518.721c-.229.2-.509.36-.84.476a3.449 3.449 0 0 1-1.148.175c-.495 0-.943-.08-1.344-.238a3.464 3.464 0 0 1-1.022-.623l.294-.476a.427.427 0 0 1 .133-.14.372.372 0 0 1 .203-.049c.084 0 .173.033.266.098.093.065.205.138.336.217.135.08.296.152.483.217.191.065.429.098.714.098.243 0 .455-.03.637-.091a1.38 1.38 0 0 0 .455-.259.98.98 0 0 0 .266-.371c.061-.14.091-.29.091-.448a.72.72 0 0 0-.161-.483c-.103-.13-.24-.24-.413-.329a3.049 3.049 0 0 0-.595-.238l-.679-.217a9.12 9.12 0 0 1-.679-.252 2.505 2.505 0 0 1-.588-.364 1.677 1.677 0 0 1-.42-.532 1.784 1.784 0 0 1-.154-.777c0-.27.056-.53.168-.777.112-.252.275-.471.49-.658.215-.191.478-.343.791-.455.313-.112.67-.168 1.071-.168.467 0 .884.075 1.253.224.373.145.695.345.966.602l-.28.455Zm4.299 6.034c-.56 0-.991-.156-1.295-.469-.298-.313-.448-.763-.448-1.351v-4.34h-.854a.291.291 0 0 1-.189-.063c-.051-.047-.077-.117-.077-.21v-.497l1.162-.147.287-2.191a.282.282 0 0 1 .287-.238h.63v2.443h2.03v.903h-2.03v4.256c0 .299.073.52.217.665a.76.76 0 0 0 .56.217 1.017 1.017 0 0 0 .588-.168c.07-.042.129-.08.175-.112.052-.037.096-.056.133-.056.066 0 .124.04.175.119l.364.595c-.214.2-.473.36-.777.476a2.686 2.686 0 0 1-.938.168Zm2.808-.882c0-.121.021-.236.063-.343a.967.967 0 0 1 .182-.28.9.9 0 0 1 .28-.189.85.85 0 0 1 .343-.07.85.85 0 0 1 .343.07.9.9 0 0 1 .28.189c.079.08.14.173.182.28.047.107.07.222.07.343a.863.863 0 0 1-.07.35.828.828 0 0 1-.462.455.85.85 0 0 1-.343.07.85.85 0 0 1-.343-.07.808.808 0 0 1-.462-.455.952.952 0 0 1-.063-.35Z"/><rect width="20" height="20" x="12" y="62" fill="#F4F4F4" rx="10"/><path fill="#858585" d="M21.707 66.857c.425 0 .821.063 1.19.189s.686.31.952.553c.27.238.483.53.637.875.154.345.231.737.231 1.176 0 .373-.056.719-.168 1.036a4.306 4.306 0 0 1-.455.917c-.191.29-.413.572-.665.847-.247.27-.511.548-.791.833l-2.639 2.702c.187-.051.376-.091.567-.119.191-.033.376-.049.553-.049h3.36c.135 0 .243.04.322.119.08.08.119.182.119.308V77h-6.692v-.427c0-.089.016-.18.049-.273a.771.771 0 0 1 .175-.259l3.213-3.227c.266-.27.509-.53.728-.777.22-.252.406-.504.56-.756.159-.252.28-.506.364-.763.084-.261.126-.539.126-.833 0-.294-.047-.55-.14-.77a1.491 1.491 0 0 0-.959-.875 2.179 2.179 0 0 0-.707-.112c-.252 0-.485.037-.7.112a1.904 1.904 0 0 0-.994.784 1.89 1.89 0 0 0-.238.602.558.558 0 0 1-.168.294.452.452 0 0 1-.294.091h-.077a1.554 1.554 0 0 0-.084-.014l-.651-.112a3.65 3.65 0 0 1 .378-1.211c.187-.355.422-.651.707-.889.29-.238.618-.418.987-.539a3.741 3.741 0 0 1 1.204-.189Z"/><rect width="599" height="39" x=".5" y="104.5" stroke="#A3A3A3" stroke-dasharray="4 4" rx="3.5"/><g fill="#858585" clip-path="url(#c)"><path d="M162.365 125.696h-1.4a.637.637 0 1 0 0 1.273h1.4a.637.637 0 1 0 0-1.273ZM153.484 115.637c0 .351.285.636.637.636h1.401a.636.636 0 0 0 0-1.273h-1.401a.637.637 0 0 0-.637.637ZM162.273 116.273h.41c.04 0 .062.017.068.053a.636.636 0 1 0 1.256-.208 1.336 1.336 0 0 0-1.324-1.118h-.41a.637.637 0 0 0 0 1.273ZM163.385 122.334a.637.637 0 0 0-.637.636v1.401a.637.637 0 0 0 1.273 0v-1.401a.636.636 0 0 0-.636-.636ZM163.385 118.259a.637.637 0 0 0-.637.637v1.4a.637.637 0 1 0 1.273 0v-1.4a.637.637 0 0 0-.636-.637ZM152.055 117.189v1.4a.637.637 0 1 0 1.273 0v-1.4a.637.637 0 1 0-1.273 0ZM158.195 116.273h1.401a.636.636 0 0 0 0-1.273h-1.401a.637.637 0 0 0 0 1.273ZM160.466 119.41a.815.815 0 0 0-.806-.816l-2.628-.023a.637.637 0 0 0-.011 1.274l1.204.01-2.292 2.292h-2.608v-.884a.637.637 0 0 0-1.273 0v.884h-5.336a.737.737 0 0 0-.736.736v9.381c0 .407.33.736.736.736h9.381a.735.735 0 0 0 .736-.736v-5.3c.019.001.038.005.057.005h1.401a.636.636 0 0 0 0-1.273h-1.401c-.019 0-.038.004-.057.006v-2.654l2.354-2.354-.006 1.315a.637.637 0 0 0 .634.639h.003c.35 0 .635-.283.637-.634l.011-2.604Zm-4.906 12.317h-8.306v-8.306h8.306v8.306Z"/></g><path fill="#858585" d="M180.912 123.988c0 .751-.119 1.435-.357 2.051a4.552 4.552 0 0 1-1.008 1.582 4.532 4.532 0 0 1-1.561 1.022 5.48 5.48 0 0 1-2.016.357h-3.752v-10.031h3.752c.737 0 1.409.121 2.016.364a4.407 4.407 0 0 1 1.561 1.022c.434.439.77.966 1.008 1.582.238.616.357 1.3.357 2.051Zm-1.393 0c0-.616-.084-1.167-.252-1.652a3.485 3.485 0 0 0-.714-1.232 3.038 3.038 0 0 0-1.12-.77 3.877 3.877 0 0 0-1.463-.266h-2.387v7.833h2.387c.537 0 1.024-.089 1.463-.266a3.083 3.083 0 0 0 1.12-.763c.308-.336.546-.747.714-1.232.168-.485.252-1.036.252-1.652Zm3.184 5.012v-7.091h.714c.135 0 .229.026.28.077.051.051.086.14.105.266l.084 1.106c.243-.495.541-.88.896-1.155a1.99 1.99 0 0 1 1.26-.42c.196 0 .373.023.532.07.159.042.306.103.441.182l-.161.931c-.033.117-.105.175-.217.175-.065 0-.166-.021-.301-.063a1.796 1.796 0 0 0-.567-.07c-.434 0-.798.126-1.092.378-.289.252-.532.618-.728 1.099V129h-1.246Zm10.735 0h-.553a.66.66 0 0 1-.294-.056c-.075-.037-.124-.117-.147-.238l-.14-.658c-.187.168-.369.32-.546.455a3.405 3.405 0 0 1-.56.336 3.016 3.016 0 0 1-.63.203c-.22.047-.465.07-.735.07-.276 0-.535-.037-.777-.112a1.804 1.804 0 0 1-.623-.35 1.685 1.685 0 0 1-.427-.581 2.103 2.103 0 0 1-.154-.84c0-.28.077-.548.231-.805.154-.261.401-.492.742-.693.345-.201.795-.364 1.351-.49.555-.131 1.234-.205 2.037-.224v-.553c0-.551-.119-.966-.357-1.246-.234-.285-.581-.427-1.043-.427-.304 0-.56.04-.77.119a2.758 2.758 0 0 0-.539.259c-.15.093-.28.18-.392.259a.561.561 0 0 1-.322.112.404.404 0 0 1-.224-.063.56.56 0 0 1-.147-.168l-.224-.399c.392-.378.814-.66 1.267-.847.452-.187.954-.28 1.505-.28.396 0 .749.065 1.057.196.308.131.567.313.777.546.21.233.368.516.476.847.107.331.161.695.161 1.092V129Zm-3.234-.763c.219 0 .42-.021.602-.063.182-.047.352-.11.511-.189.163-.084.317-.184.462-.301.149-.117.294-.25.434-.399v-1.477a9.91 9.91 0 0 0-1.463.14c-.402.07-.728.163-.98.28-.252.117-.437.254-.553.413a.902.902 0 0 0-.168.532c0 .187.03.348.091.483.06.135.142.247.245.336.102.084.224.147.364.189.14.037.291.056.455.056Zm7.648-6.447c.308 0 .595.035.861.105.271.065.516.163.735.294h1.925v.462c0 .154-.098.252-.294.294l-.805.112c.159.303.238.642.238 1.015 0 .345-.067.66-.203.945-.13.28-.315.52-.553.721a2.422 2.422 0 0 1-.84.462 3.355 3.355 0 0 1-1.064.161c-.331 0-.644-.04-.938-.119a1.243 1.243 0 0 0-.343.301.556.556 0 0 0-.112.315c0 .168.068.296.203.385.136.084.315.145.539.182.224.037.479.061.763.07.285.009.574.026.868.049.299.019.591.054.875.105.285.051.539.135.763.252.224.117.404.278.539.483.136.205.203.471.203.798 0 .303-.077.597-.231.882a2.296 2.296 0 0 1-.651.756 3.271 3.271 0 0 1-1.043.532c-.41.135-.875.203-1.393.203s-.973-.051-1.365-.154a3.194 3.194 0 0 1-.966-.413 1.832 1.832 0 0 1-.581-.602 1.422 1.422 0 0 1-.189-.707c0-.35.11-.646.329-.889.224-.247.53-.443.917-.588a1.306 1.306 0 0 1-.483-.371c-.116-.159-.175-.369-.175-.63 0-.103.019-.208.056-.315a1.33 1.33 0 0 1 .168-.329 1.865 1.865 0 0 1 .679-.567 2.247 2.247 0 0 1-.826-.777 2.176 2.176 0 0 1-.294-1.141c0-.345.066-.658.196-.938a2.08 2.08 0 0 1 .56-.721 2.51 2.51 0 0 1 .847-.462 3.517 3.517 0 0 1 1.085-.161Zm2.212 7.595a.609.609 0 0 0-.147-.427.925.925 0 0 0-.399-.245 2.706 2.706 0 0 0-.581-.133 7.72 7.72 0 0 0-.693-.056l-.742-.042a6.925 6.925 0 0 1-.721-.077 2.09 2.09 0 0 0-.651.462.943.943 0 0 0-.245.651c0 .159.04.306.119.441.084.14.21.259.378.357.168.103.378.182.63.238.257.061.558.091.903.091.336 0 .637-.03.903-.091s.49-.147.672-.259a1.26 1.26 0 0 0 .427-.399.932.932 0 0 0 .147-.511Zm-2.212-3.85c.252 0 .474-.035.665-.105.196-.07.36-.168.49-.294.131-.126.229-.275.294-.448.066-.177.098-.371.098-.581 0-.434-.133-.779-.399-1.036-.261-.257-.644-.385-1.148-.385-.499 0-.882.128-1.148.385-.261.257-.392.602-.392 1.036 0 .21.033.404.098.581.07.173.171.322.301.448.131.126.292.224.483.294.192.07.411.105.658.105Zm11.349-6.678c.369 0 .705.061 1.008.182.303.117.565.273.784.469.224.196.399.425.525.686.131.257.205.525.224.805l-.777.154a.338.338 0 0 1-.238-.042c-.051-.033-.089-.091-.112-.175a1.624 1.624 0 0 0-.161-.378 1.334 1.334 0 0 0-.28-.357 1.38 1.38 0 0 0-.973-.371 1.68 1.68 0 0 0-.63.112c-.187.075-.348.18-.483.315a1.417 1.417 0 0 0-.308.469c-.07.177-.105.371-.105.581 0 .163.019.32.056.469.042.149.103.301.182.455.079.149.182.306.308.469.126.159.278.327.455.504l2.884 2.933c.177-.313.317-.639.42-.98.107-.345.18-.691.217-1.036a.353.353 0 0 1 .084-.21.253.253 0 0 1 .196-.077h.77a5.554 5.554 0 0 1-.966 3.038l2.1 2.128h-1.204a.916.916 0 0 1-.329-.049.872.872 0 0 1-.28-.203l-1.008-1.015a5.01 5.01 0 0 1-1.519 1.008 4.68 4.68 0 0 1-1.883.371 3.3 3.3 0 0 1-1.099-.189 3.09 3.09 0 0 1-.966-.546 2.837 2.837 0 0 1-.679-.882 2.573 2.573 0 0 1-.259-1.169c0-.327.054-.635.161-.924a3.16 3.16 0 0 1 .455-.812c.196-.247.427-.469.693-.665.266-.196.558-.364.875-.504a4.196 4.196 0 0 1-.63-1.05 2.846 2.846 0 0 1-.203-1.057c0-.341.061-.66.182-.959.126-.299.306-.558.539-.777.233-.224.516-.399.847-.525a3.082 3.082 0 0 1 1.127-.196Zm-2.779 7.371c0 .303.056.572.168.805.112.229.259.422.441.581.182.159.39.28.623.364.233.079.471.119.714.119.523 0 .992-.096 1.407-.287a3.773 3.773 0 0 0 1.099-.763l-2.961-2.989c-.495.266-.868.586-1.12.959a2.131 2.131 0 0 0-.371 1.211ZM223.425 129c-.178 0-.29-.086-.336-.259l-.112-.861a3.77 3.77 0 0 1-1.043.889 2.671 2.671 0 0 1-1.337.329c-.406 0-.775-.077-1.106-.231a2.325 2.325 0 0 1-.847-.693c-.234-.303-.413-.681-.539-1.134a5.84 5.84 0 0 1-.189-1.561c0-.523.07-1.008.21-1.456.14-.453.34-.845.602-1.176a2.816 2.816 0 0 1 2.254-1.064c.434 0 .805.075 1.113.224.308.145.583.35.826.616v-3.934h1.246V129h-.742Zm-2.415-.91c.406 0 .76-.093 1.064-.28.308-.187.59-.45.847-.791v-3.43c-.229-.308-.481-.523-.756-.644a2.116 2.116 0 0 0-.903-.189c-.663 0-1.172.236-1.526.707-.355.471-.532 1.143-.532 2.016 0 .462.039.859.119 1.19.079.327.196.597.35.812.154.21.343.364.567.462.224.098.48.147.77.147Zm5.384.91v-7.091h.714c.135 0 .229.026.28.077.051.051.086.14.105.266l.084 1.106c.243-.495.541-.88.896-1.155a1.99 1.99 0 0 1 1.26-.42c.196 0 .373.023.532.07.159.042.306.103.441.182l-.161.931c-.033.117-.105.175-.217.175-.065 0-.166-.021-.301-.063a1.796 1.796 0 0 0-.567-.07c-.434 0-.798.126-1.092.378-.289.252-.532.618-.728 1.099V129h-1.246Zm8.656-7.203c.518 0 .985.086 1.4.259.42.173.775.418 1.064.735.294.317.518.702.672 1.155.159.448.238.95.238 1.505a4.5 4.5 0 0 1-.238 1.512 3.187 3.187 0 0 1-.672 1.148 2.925 2.925 0 0 1-1.064.735 3.703 3.703 0 0 1-1.4.252c-.518 0-.987-.084-1.407-.252a3.012 3.012 0 0 1-1.064-.735c-.294-.317-.52-.7-.679-1.148a4.526 4.526 0 0 1-.238-1.512c0-.555.08-1.057.238-1.505.159-.453.385-.838.679-1.155a3.012 3.012 0 0 1 1.064-.735c.42-.173.889-.259 1.407-.259Zm0 6.328c.7 0 1.223-.233 1.568-.7.346-.471.518-1.127.518-1.967 0-.845-.172-1.503-.518-1.974-.345-.471-.868-.707-1.568-.707-.354 0-.662.061-.924.182a1.76 1.76 0 0 0-.658.525 2.43 2.43 0 0 0-.392.847 4.596 4.596 0 0 0-.126 1.127c0 .42.042.796.126 1.127.089.331.22.611.392.84.178.224.397.397.658.518.262.121.57.182.924.182Zm5.05 3.276v-9.492h.742c.177 0 .289.086.336.259l.105.84a3.786 3.786 0 0 1 1.036-.889 2.674 2.674 0 0 1 1.351-.336c.406 0 .774.079 1.106.238.331.154.613.385.847.693.233.303.413.681.539 1.134.126.453.189.973.189 1.561 0 .523-.07 1.01-.21 1.463-.14.448-.341.838-.602 1.169a2.861 2.861 0 0 1-.966.777 2.85 2.85 0 0 1-1.281.28c-.439 0-.815-.072-1.127-.217a2.548 2.548 0 0 1-.819-.616v3.136H240.1Zm3.157-8.61c-.406 0-.763.093-1.071.28a3.08 3.08 0 0 0-.84.791v3.43c.228.308.478.525.749.651.275.126.581.189.917.189.658 0 1.164-.236 1.519-.707.354-.471.532-1.143.532-2.016 0-.462-.042-.859-.126-1.19a2.26 2.26 0 0 0-.35-.812 1.364 1.364 0 0 0-.567-.469 1.888 1.888 0 0 0-.763-.147Zm8.94-.882V129h-1.246v-7.091h1.246Zm.28-2.226a.776.776 0 0 1-.077.343.934.934 0 0 1-.476.469.842.842 0 0 1-.343.07.849.849 0 0 1-.343-.07 1.046 1.046 0 0 1-.28-.189 1.03 1.03 0 0 1-.189-.28.862.862 0 0 1 0-.686.885.885 0 0 1 .189-.287.849.849 0 0 1 .623-.266.842.842 0 0 1 .623.266c.084.079.15.175.196.287a.776.776 0 0 1 .077.343Zm4.205 9.429c-.56 0-.991-.156-1.295-.469-.298-.313-.448-.763-.448-1.351v-4.34h-.854a.291.291 0 0 1-.189-.063c-.051-.047-.077-.117-.077-.21v-.497l1.162-.147.287-2.191c.01-.07.04-.126.091-.168a.28.28 0 0 1 .196-.07h.63v2.443h2.03v.903h-2.03v4.256c0 .299.073.52.217.665a.758.758 0 0 0 .56.217c.131 0 .243-.016.336-.049.098-.037.182-.077.252-.119.07-.042.129-.079.175-.112.052-.037.096-.056.133-.056.066 0 .124.04.175.119l.364.595a2.353 2.353 0 0 1-.777.476 2.686 2.686 0 0 1-.938.168Zm6.021-7.315c.425 0 .817.072 1.176.217.359.14.67.345.931.616.261.266.464.597.609.994.149.392.224.84.224 1.344 0 .196-.021.327-.063.392-.042.065-.121.098-.238.098h-4.718c.009.448.07.838.182 1.169.112.331.266.609.462.833.196.219.429.385.7.497.271.107.574.161.91.161.313 0 .581-.035.805-.105a4.039 4.039 0 0 0 .994-.469.547.547 0 0 1 .287-.112c.103 0 .182.04.238.119l.35.455a2.42 2.42 0 0 1-.553.49 3.582 3.582 0 0 1-.693.336 4.075 4.075 0 0 1-.756.196c-.261.047-.52.07-.777.07-.49 0-.943-.082-1.358-.245a3.074 3.074 0 0 1-1.071-.728 3.403 3.403 0 0 1-.7-1.19c-.168-.471-.252-1.013-.252-1.624 0-.495.075-.957.224-1.386.154-.429.373-.8.658-1.113a2.953 2.953 0 0 1 1.043-.742 3.388 3.388 0 0 1 1.386-.273Zm.028.917c-.602 0-1.076.175-1.421.525-.345.345-.56.826-.644 1.442h3.857c0-.289-.04-.553-.119-.791a1.725 1.725 0 0 0-.35-.623 1.507 1.507 0 0 0-.567-.406 1.834 1.834 0 0 0-.756-.147Zm4.647 6.286v-7.091h.742c.177 0 .289.086.336.259l.091.728c.261-.322.553-.586.875-.791a2.09 2.09 0 0 1 1.134-.308c.481 0 .868.133 1.162.399.299.266.513.625.644 1.078.098-.257.226-.478.385-.665a2.29 2.29 0 0 1 1.183-.728c.229-.056.46-.084.693-.084.373 0 .705.061.994.182.294.117.541.289.742.518.205.229.362.511.469.847.107.331.161.712.161 1.141V129h-1.246v-4.515c0-.555-.121-.975-.364-1.26-.243-.289-.595-.434-1.057-.434-.205 0-.401.037-.588.112-.182.07-.343.175-.483.315-.14.14-.252.317-.336.532-.079.21-.119.455-.119.735V129h-1.246v-4.515c0-.569-.114-.994-.343-1.274-.229-.28-.562-.42-1.001-.42-.308 0-.595.084-.861.252a2.765 2.765 0 0 0-.721.672V129h-1.246Zm15.698-5.922a.275.275 0 0 1-.259.154.492.492 0 0 1-.238-.077 4.432 4.432 0 0 0-.329-.168 2.52 2.52 0 0 0-.455-.175 2.099 2.099 0 0 0-.63-.084c-.21 0-.399.028-.567.084a1.349 1.349 0 0 0-.434.217 1.009 1.009 0 0 0-.273.329.873.873 0 0 0-.091.399c0 .182.051.334.154.455.107.121.247.226.42.315s.369.168.588.238c.219.065.443.138.672.217.233.075.46.159.679.252.219.093.415.21.588.35.173.14.31.313.413.518.107.201.161.443.161.728 0 .327-.058.63-.175.91a2.018 2.018 0 0 1-.518.721 2.538 2.538 0 0 1-.84.476 3.441 3.441 0 0 1-1.148.175c-.495 0-.943-.079-1.344-.238a3.458 3.458 0 0 1-1.022-.623l.294-.476a.427.427 0 0 1 .133-.14.37.37 0 0 1 .203-.049.47.47 0 0 1 .266.098c.093.065.205.138.336.217.135.079.296.152.483.217.191.065.429.098.714.098.243 0 .455-.03.637-.091a1.38 1.38 0 0 0 .455-.259.977.977 0 0 0 .266-.371c.061-.14.091-.289.091-.448a.72.72 0 0 0-.161-.483 1.228 1.228 0 0 0-.413-.329 3.049 3.049 0 0 0-.595-.238l-.679-.217a9.396 9.396 0 0 1-.679-.252 2.495 2.495 0 0 1-.588-.364 1.68 1.68 0 0 1-.42-.532 1.786 1.786 0 0 1-.154-.777c0-.271.056-.53.168-.777a1.87 1.87 0 0 1 .49-.658c.215-.191.478-.343.791-.455.313-.112.67-.168 1.071-.168.467 0 .884.075 1.253.224.373.145.695.345.966.602l-.28.455Zm4.997 5.922v-10.311h1.246v4.172c.304-.322.64-.579 1.008-.77a2.676 2.676 0 0 1 1.274-.294c.388 0 .728.065 1.022.196.299.126.546.308.742.546.201.233.353.516.455.847.103.331.154.698.154 1.099V129h-1.246v-4.515c0-.537-.123-.952-.371-1.246-.242-.299-.616-.448-1.12-.448a2.12 2.12 0 0 0-1.036.266 3.436 3.436 0 0 0-.882.721V129h-1.246Zm10.727-7.203c.424 0 .816.072 1.176.217.359.14.669.345.931.616.261.266.464.597.609.994.149.392.224.84.224 1.344 0 .196-.021.327-.063.392-.042.065-.122.098-.238.098h-4.718c.009.448.07.838.182 1.169.112.331.266.609.462.833.196.219.429.385.7.497.27.107.574.161.91.161.312 0 .581-.035.805-.105a4.134 4.134 0 0 0 .994-.469.544.544 0 0 1 .287-.112c.102 0 .182.04.238.119l.35.455a2.44 2.44 0 0 1-.553.49 3.582 3.582 0 0 1-.693.336 4.075 4.075 0 0 1-.756.196c-.262.047-.521.07-.777.07-.49 0-.943-.082-1.358-.245a3.074 3.074 0 0 1-1.071-.728 3.403 3.403 0 0 1-.7-1.19c-.168-.471-.252-1.013-.252-1.624 0-.495.074-.957.224-1.386.154-.429.373-.8.658-1.113a2.944 2.944 0 0 1 1.043-.742c.41-.182.872-.273 1.386-.273Zm.028.917c-.602 0-1.076.175-1.421.525-.346.345-.56.826-.644 1.442h3.857c0-.289-.04-.553-.119-.791a1.74 1.74 0 0 0-.35-.623 1.507 1.507 0 0 0-.567-.406 1.84 1.84 0 0 0-.756-.147Zm4.646 6.286v-7.091h.714c.136 0 .229.026.28.077.052.051.087.14.105.266l.084 1.106c.243-.495.542-.88.896-1.155.36-.28.78-.42 1.26-.42.196 0 .374.023.532.07.159.042.306.103.441.182l-.161.931c-.032.117-.105.175-.217.175-.065 0-.165-.021-.301-.063a1.796 1.796 0 0 0-.567-.07c-.434 0-.798.126-1.092.378-.289.252-.532.618-.728 1.099V129h-1.246Zm8.594-7.203c.424 0 .816.072 1.176.217.359.14.669.345.931.616.261.266.464.597.609.994.149.392.224.84.224 1.344 0 .196-.021.327-.063.392-.042.065-.122.098-.238.098h-4.718c.009.448.07.838.182 1.169.112.331.266.609.462.833.196.219.429.385.7.497.27.107.574.161.91.161.312 0 .581-.035.805-.105a4.134 4.134 0 0 0 .994-.469.544.544 0 0 1 .287-.112c.102 0 .182.04.238.119l.35.455a2.44 2.44 0 0 1-.553.49 3.582 3.582 0 0 1-.693.336 4.075 4.075 0 0 1-.756.196c-.262.047-.521.07-.777.07-.49 0-.943-.082-1.358-.245a3.074 3.074 0 0 1-1.071-.728 3.403 3.403 0 0 1-.7-1.19c-.168-.471-.252-1.013-.252-1.624 0-.495.074-.957.224-1.386.154-.429.373-.8.658-1.113a2.944 2.944 0 0 1 1.043-.742c.41-.182.872-.273 1.386-.273Zm.028.917c-.602 0-1.076.175-1.421.525-.346.345-.56.826-.644 1.442h3.857c0-.289-.04-.553-.119-.791a1.74 1.74 0 0 0-.35-.623 1.507 1.507 0 0 0-.567-.406 1.84 1.84 0 0 0-.756-.147ZM319.87 129v-6.027l-.784-.091a.68.68 0 0 1-.245-.105.268.268 0 0 1-.091-.217v-.511h1.12v-.686c0-.406.056-.765.168-1.078.116-.317.28-.583.49-.798.214-.219.471-.385.77-.497a2.849 2.849 0 0 1 1.008-.168 2.7 2.7 0 0 1 .882.14l-.028.623c-.005.093-.045.149-.119.168-.075.019-.18.028-.315.028h-.217c-.215 0-.411.028-.588.084a1.105 1.105 0 0 0-.448.273 1.27 1.27 0 0 0-.294.497c-.066.205-.098.46-.098.763v.651h2.051v.903h-2.009V129h-1.253Zm4.576 0v-7.091h.714c.136 0 .229.026.28.077.052.051.087.14.105.266l.084 1.106c.243-.495.542-.88.896-1.155.36-.28.78-.42 1.26-.42.196 0 .374.023.532.07.159.042.306.103.441.182l-.161.931c-.032.117-.105.175-.217.175-.065 0-.165-.021-.301-.063a1.796 1.796 0 0 0-.567-.07c-.434 0-.798.126-1.092.378-.289.252-.532.618-.728 1.099V129h-1.246Zm8.657-7.203c.518 0 .985.086 1.4.259.42.173.775.418 1.064.735.294.317.518.702.672 1.155.159.448.238.95.238 1.505a4.5 4.5 0 0 1-.238 1.512 3.187 3.187 0 0 1-.672 1.148 2.925 2.925 0 0 1-1.064.735 3.703 3.703 0 0 1-1.4.252c-.518 0-.987-.084-1.407-.252a3.012 3.012 0 0 1-1.064-.735c-.294-.317-.52-.7-.679-1.148a4.5 4.5 0 0 1-.238-1.512c0-.555.079-1.057.238-1.505.159-.453.385-.838.679-1.155a3.012 3.012 0 0 1 1.064-.735c.42-.173.889-.259 1.407-.259Zm0 6.328c.7 0 1.223-.233 1.568-.7.345-.471.518-1.127.518-1.967 0-.845-.173-1.503-.518-1.974-.345-.471-.868-.707-1.568-.707-.355 0-.663.061-.924.182a1.752 1.752 0 0 0-.658.525 2.413 2.413 0 0 0-.392.847 4.596 4.596 0 0 0-.126 1.127c0 .42.042.796.126 1.127.089.331.219.611.392.84.177.224.397.397.658.518s.569.182.924.182Zm5.049.875v-7.091h.742c.178 0 .29.086.336.259l.091.728c.262-.322.553-.586.875-.791a2.09 2.09 0 0 1 1.134-.308c.481 0 .868.133 1.162.399.299.266.514.625.644 1.078.098-.257.227-.478.385-.665a2.32 2.32 0 0 1 1.183-.728c.229-.056.46-.084.693-.084.374 0 .705.061.994.182.294.117.542.289.742.518.206.229.362.511.469.847.108.331.161.712.161 1.141V129h-1.246v-4.515c0-.555-.121-.975-.364-1.26-.242-.289-.595-.434-1.057-.434-.205 0-.401.037-.588.112-.182.07-.343.175-.483.315-.14.14-.252.317-.336.532-.079.21-.119.455-.119.735V129h-1.246v-4.515c0-.569-.114-.994-.343-1.274-.228-.28-.562-.42-1.001-.42-.308 0-.595.084-.861.252a2.78 2.78 0 0 0-.721.672V129h-1.246Zm14.261-7.084a2.88 2.88 0 0 1-.301-.672 2.517 2.517 0 0 1 .217-1.883c.21-.387.502-.742.875-1.064l.385.238c.038.023.061.049.07.077a.186.186 0 0 1 .021.084.229.229 0 0 1-.07.168 4.862 4.862 0 0 0-.217.294c-.07.103-.133.212-.189.329-.056.112-.1.231-.133.357a1.615 1.615 0 0 0-.049.399c0 .149.021.303.063.462.047.159.124.327.231.504a.292.292 0 0 1 .049.161c0 .112-.063.191-.189.238l-.763.308Zm2.128 0a2.88 2.88 0 0 1-.301-.672 2.517 2.517 0 0 1 .217-1.883c.21-.387.502-.742.875-1.064l.385.238c.038.023.061.049.07.077a.186.186 0 0 1 .021.084.229.229 0 0 1-.07.168 4.862 4.862 0 0 0-.217.294c-.07.103-.133.212-.189.329-.056.112-.1.231-.133.357a1.615 1.615 0 0 0-.049.399c0 .149.021.303.063.462.047.159.124.327.231.504a.292.292 0 0 1 .049.161c0 .112-.063.191-.189.238l-.763.308Zm8.467 3.458c.065.112.121.231.168.357.051.121.1.245.147.371a5.98 5.98 0 0 1 .322-.735l3.395-6.167c.061-.107.124-.173.189-.196a.88.88 0 0 1 .28-.035h1.001V129h-1.19v-7.371c0-.098.002-.203.007-.315.005-.112.012-.226.021-.343l-3.437 6.272c-.117.21-.28.315-.49.315h-.196c-.21 0-.373-.105-.49-.315l-3.514-6.293c.014.121.023.24.028.357.009.117.014.224.014.322V129h-1.19v-10.031h1.001a.88.88 0 0 1 .28.035c.065.023.128.089.189.196l3.465 6.174Zm9.967 5.719a.636.636 0 0 1-.161.224c-.061.056-.157.084-.287.084h-.924l1.295-2.814-2.926-6.678h1.078c.107 0 .191.028.252.084a.48.48 0 0 1 .133.175l1.897 4.466c.042.103.077.205.105.308.032.103.06.208.084.315.032-.107.065-.212.098-.315a4.61 4.61 0 0 1 .112-.315l1.841-4.459a.381.381 0 0 1 .14-.182.373.373 0 0 1 .224-.077h.994l-3.955 9.184Zm12.741-3.08c.271 0 .518-.012.742-.035.229-.028.443-.068.644-.119.201-.051.39-.112.567-.182.177-.075.355-.159.532-.252v-2.212h-1.554a.31.31 0 0 1-.217-.077.257.257 0 0 1-.077-.189v-.77h3.08v3.85a5.46 5.46 0 0 1-.791.476 5.417 5.417 0 0 1-1.869.539c-.355.047-.74.07-1.155.07a5.262 5.262 0 0 1-2.002-.371 4.678 4.678 0 0 1-1.568-1.05 4.842 4.842 0 0 1-1.029-1.624 5.732 5.732 0 0 1-.364-2.079c0-.765.119-1.463.357-2.093a4.644 4.644 0 0 1 1.029-1.617 4.607 4.607 0 0 1 1.617-1.05c.635-.247 1.344-.371 2.128-.371.397 0 .765.03 1.106.091.341.056.656.14.945.252.294.107.565.24.812.399.247.154.478.329.693.525l-.385.616c-.079.126-.182.189-.308.189a.5.5 0 0 1-.245-.077 7.428 7.428 0 0 1-.392-.238 3.17 3.17 0 0 0-.532-.266 3.92 3.92 0 0 0-.735-.224 4.767 4.767 0 0 0-1.001-.091c-.565 0-1.076.093-1.533.28a3.192 3.192 0 0 0-1.169.791 3.468 3.468 0 0 0-.742 1.246 4.854 4.854 0 0 0-.259 1.638c0 .635.089 1.202.266 1.701.182.495.436.915.763 1.26s.714.609 1.162.791a3.91 3.91 0 0 0 1.484.273Zm5.752.987v-7.091h.714c.136 0 .229.026.28.077.052.051.087.14.105.266l.084 1.106c.243-.495.542-.88.896-1.155.36-.28.78-.42 1.26-.42.196 0 .374.023.532.07.159.042.306.103.441.182l-.161.931c-.032.117-.105.175-.217.175-.065 0-.165-.021-.301-.063a1.796 1.796 0 0 0-.567-.07c-.434 0-.798.126-1.092.378-.289.252-.532.618-.728 1.099V129h-1.246Zm8.657-7.203c.518 0 .984.086 1.4.259.42.173.774.418 1.064.735.294.317.518.702.672 1.155.158.448.238.95.238 1.505 0 .56-.08 1.064-.238 1.512a3.187 3.187 0 0 1-.672 1.148c-.29.317-.644.562-1.064.735a3.707 3.707 0 0 1-1.4.252c-.518 0-.987-.084-1.407-.252a3.003 3.003 0 0 1-1.064-.735 3.26 3.26 0 0 1-.679-1.148 4.5 4.5 0 0 1-.238-1.512c0-.555.079-1.057.238-1.505.158-.453.385-.838.679-1.155a3.003 3.003 0 0 1 1.064-.735c.42-.173.889-.259 1.407-.259Zm0 6.328c.7 0 1.222-.233 1.568-.7.345-.471.518-1.127.518-1.967 0-.845-.173-1.503-.518-1.974-.346-.471-.868-.707-1.568-.707-.355 0-.663.061-.924.182a1.744 1.744 0 0 0-.658.525 2.396 2.396 0 0 0-.392.847 4.596 4.596 0 0 0-.126 1.127c0 .42.042.796.126 1.127.088.331.219.611.392.84.177.224.396.397.658.518.261.121.569.182.924.182Zm6.127-6.216v4.522c0 .537.124.952.371 1.246.247.294.621.441 1.12.441.364 0 .707-.086 1.029-.259.322-.173.618-.413.889-.721v-5.229h1.246V129h-.742c-.177 0-.289-.086-.336-.259l-.098-.763a3.95 3.95 0 0 1-1.036.826 2.744 2.744 0 0 1-1.316.308 2.63 2.63 0 0 1-1.029-.189 2.086 2.086 0 0 1-.742-.546 2.345 2.345 0 0 1-.455-.847 3.865 3.865 0 0 1-.147-1.099v-4.522h1.246Zm6.841 9.492v-9.492h.742c.178 0 .29.086.336.259l.105.84a3.815 3.815 0 0 1 1.036-.889 2.676 2.676 0 0 1 1.351-.336c.406 0 .775.079 1.106.238.332.154.614.385.847.693.234.303.413.681.539 1.134.126.453.189.973.189 1.561 0 .523-.07 1.01-.21 1.463-.14.448-.34.838-.602 1.169a2.842 2.842 0 0 1-.966.777 2.85 2.85 0 0 1-1.281.28c-.438 0-.814-.072-1.127-.217a2.548 2.548 0 0 1-.819-.616v3.136h-1.246Zm3.157-8.61c-.406 0-.763.093-1.071.28a3.11 3.11 0 0 0-.84.791v3.43c.229.308.479.525.749.651.276.126.581.189.917.189.658 0 1.165-.236 1.519-.707.355-.471.532-1.143.532-2.016 0-.462-.042-.859-.126-1.19a2.243 2.243 0 0 0-.35-.812 1.364 1.364 0 0 0-.567-.469 1.885 1.885 0 0 0-.763-.147Zm8.768.287a.275.275 0 0 1-.259.154.492.492 0 0 1-.238-.077 4.432 4.432 0 0 0-.329-.168 2.52 2.52 0 0 0-.455-.175 2.099 2.099 0 0 0-.63-.084c-.21 0-.399.028-.567.084a1.349 1.349 0 0 0-.434.217 1.009 1.009 0 0 0-.273.329.873.873 0 0 0-.091.399c0 .182.051.334.154.455.107.121.247.226.42.315s.369.168.588.238c.219.065.443.138.672.217.233.075.46.159.679.252.219.093.415.21.588.35.173.14.31.313.413.518.107.201.161.443.161.728 0 .327-.058.63-.175.91a2.018 2.018 0 0 1-.518.721 2.538 2.538 0 0 1-.84.476 3.441 3.441 0 0 1-1.148.175c-.495 0-.943-.079-1.344-.238a3.458 3.458 0 0 1-1.022-.623l.294-.476a.427.427 0 0 1 .133-.14.37.37 0 0 1 .203-.049.47.47 0 0 1 .266.098c.093.065.205.138.336.217.135.079.296.152.483.217.191.065.429.098.714.098.243 0 .455-.03.637-.091a1.38 1.38 0 0 0 .455-.259.977.977 0 0 0 .266-.371c.061-.14.091-.289.091-.448a.72.72 0 0 0-.161-.483 1.228 1.228 0 0 0-.413-.329 3.049 3.049 0 0 0-.595-.238l-.679-.217a9.396 9.396 0 0 1-.679-.252 2.495 2.495 0 0 1-.588-.364 1.68 1.68 0 0 1-.42-.532 1.786 1.786 0 0 1-.154-.777c0-.271.056-.53.168-.777a1.87 1.87 0 0 1 .49-.658c.215-.191.478-.343.791-.455.313-.112.67-.168 1.071-.168.467 0 .884.075 1.253.224.373.145.695.345.966.602l-.28.455Zm3.025-4.634a2.547 2.547 0 0 1 .385 1.344c0 .425-.105.831-.315 1.218a3.767 3.767 0 0 1-.861 1.057l-.385-.238a.202.202 0 0 1-.077-.077.274.274 0 0 1-.014-.084c0-.065.024-.121.07-.168.075-.089.147-.184.217-.287.07-.107.133-.217.189-.329.056-.117.101-.238.133-.364a1.57 1.57 0 0 0-.021-.861 1.917 1.917 0 0 0-.224-.504.29.29 0 0 1-.049-.154c0-.112.063-.194.189-.245l.763-.308Zm2.128 0a2.547 2.547 0 0 1 .385 1.344c0 .425-.105.831-.315 1.218a3.767 3.767 0 0 1-.861 1.057l-.385-.238a.202.202 0 0 1-.077-.077.274.274 0 0 1-.014-.084c0-.065.024-.121.07-.168.075-.089.147-.184.217-.287.07-.107.133-.217.189-.329.056-.117.101-.238.133-.364a1.57 1.57 0 0 0-.021-.861 1.917 1.917 0 0 0-.224-.504.29.29 0 0 1-.049-.154c0-.112.063-.194.189-.245l.763-.308Zm6.47.245V129h-1.246v-10.311h1.246Zm3.722 3.22V129h-1.246v-7.091h1.246Zm.28-2.226a.79.79 0 0 1-.077.343.953.953 0 0 1-.196.28.91.91 0 0 1-.28.189.845.845 0 0 1-.343.07.845.845 0 0 1-.343-.07 1.03 1.03 0 0 1-.28-.189 1.03 1.03 0 0 1-.189-.28.845.845 0 0 1-.07-.343c0-.121.023-.236.07-.343a.885.885 0 0 1 .189-.287.845.845 0 0 1 .623-.266.845.845 0 0 1 .623.266.828.828 0 0 1 .196.287.79.79 0 0 1 .077.343Zm6.116 3.395a.275.275 0 0 1-.259.154.492.492 0 0 1-.238-.077 4.432 4.432 0 0 0-.329-.168 2.52 2.52 0 0 0-.455-.175 2.099 2.099 0 0 0-.63-.084c-.21 0-.399.028-.567.084a1.349 1.349 0 0 0-.434.217 1.009 1.009 0 0 0-.273.329.873.873 0 0 0-.091.399c0 .182.051.334.154.455.107.121.247.226.42.315s.369.168.588.238c.219.065.443.138.672.217.233.075.46.159.679.252.219.093.415.21.588.35.173.14.31.313.413.518.107.201.161.443.161.728 0 .327-.058.63-.175.91a2.018 2.018 0 0 1-.518.721 2.538 2.538 0 0 1-.84.476 3.441 3.441 0 0 1-1.148.175c-.495 0-.943-.079-1.344-.238a3.458 3.458 0 0 1-1.022-.623l.294-.476a.427.427 0 0 1 .133-.14.37.37 0 0 1 .203-.049.47.47 0 0 1 .266.098c.093.065.205.138.336.217.135.079.296.152.483.217.191.065.429.098.714.098.243 0 .455-.03.637-.091a1.38 1.38 0 0 0 .455-.259.977.977 0 0 0 .266-.371c.061-.14.091-.289.091-.448a.72.72 0 0 0-.161-.483 1.228 1.228 0 0 0-.413-.329 3.049 3.049 0 0 0-.595-.238l-.679-.217a9.396 9.396 0 0 1-.679-.252 2.495 2.495 0 0 1-.588-.364 1.68 1.68 0 0 1-.42-.532 1.786 1.786 0 0 1-.154-.777c0-.271.056-.53.168-.777a1.87 1.87 0 0 1 .49-.658c.215-.191.478-.343.791-.455.313-.112.67-.168 1.071-.168.467 0 .884.075 1.253.224.373.145.695.345.966.602l-.28.455Zm4.299 6.034c-.56 0-.991-.156-1.295-.469-.298-.313-.448-.763-.448-1.351v-4.34h-.854a.291.291 0 0 1-.189-.063c-.051-.047-.077-.117-.077-.21v-.497l1.162-.147.287-2.191c.01-.07.04-.126.091-.168a.28.28 0 0 1 .196-.07h.63v2.443h2.03v.903h-2.03v4.256c0 .299.073.52.217.665a.758.758 0 0 0 .56.217c.131 0 .243-.016.336-.049.098-.037.182-.077.252-.119.07-.042.129-.079.175-.112.052-.037.096-.056.133-.056.066 0 .124.04.175.119l.364.595a2.353 2.353 0 0 1-.777.476 2.686 2.686 0 0 1-.938.168Zm2.808-.882c0-.121.021-.236.063-.343a.967.967 0 0 1 .182-.28.91.91 0 0 1 .28-.189.845.845 0 0 1 .343-.07c.121 0 .236.023.343.07a.91.91 0 0 1 .28.189c.079.079.14.173.182.28.047.107.07.222.07.343a.862.862 0 0 1-.07.35.822.822 0 0 1-.462.455.845.845 0 0 1-.343.07.845.845 0 0 1-.343-.07.812.812 0 0 1-.462-.455.95.95 0 0 1-.063-.35Z"/><rect width="20" height="20" x="12" y="114" fill="#F4F4F4" rx="10"/><path fill="#858585" d="M21.84 118.857c.425 0 .817.061 1.176.182.36.121.667.294.924.518.261.224.464.495.609.812.145.317.217.67.217 1.057 0 .317-.042.602-.126.854a2.024 2.024 0 0 1-.896 1.134 3.037 3.037 0 0 1-.721.315c.653.173 1.143.462 1.47.868.331.406.497.915.497 1.526a2.84 2.84 0 0 1-.98 2.191 3.281 3.281 0 0 1-1.064.595 4.036 4.036 0 0 1-1.295.203c-.532 0-.987-.065-1.365-.196a2.876 2.876 0 0 1-.959-.553 2.943 2.943 0 0 1-.644-.826 6.349 6.349 0 0 1-.427-1.043l.532-.224a.741.741 0 0 1 .294-.063c.093 0 .175.021.245.063.075.037.13.098.168.182.01.019.019.04.028.063.01.019.019.04.028.063.065.135.145.289.238.462.093.168.22.327.378.476.159.149.355.275.588.378.238.103.532.154.882.154s.656-.056.917-.168c.266-.117.485-.266.658-.448a1.837 1.837 0 0 0 .532-1.274c0-.271-.037-.518-.112-.742a1.24 1.24 0 0 0-.392-.581c-.187-.163-.448-.292-.784-.385-.331-.093-.758-.14-1.281-.14v-.903a4.006 4.006 0 0 0 1.085-.14c.303-.089.55-.21.742-.364a1.32 1.32 0 0 0 .413-.553c.089-.215.133-.453.133-.714 0-.289-.047-.541-.14-.756a1.416 1.416 0 0 0-.371-.532 1.564 1.564 0 0 0-.567-.315 2.246 2.246 0 0 0-.7-.105c-.252 0-.485.037-.7.112-.215.075-.406.18-.574.315a1.769 1.769 0 0 0-.413.476c-.112.182-.196.38-.252.595a.56.56 0 0 1-.168.294.439.439 0 0 1-.287.091h-.077c-.023-.005-.051-.009-.084-.014l-.651-.112c.065-.457.191-.861.378-1.211.187-.355.422-.651.707-.889.29-.238.618-.418.987-.539a3.741 3.741 0 0 1 1.204-.189Z"/><defs><clipPath id="a"><path fill="#fff" d="M143 8h24v24h-24z"/></clipPath><clipPath id="b"><path fill="#fff" d="M143 60h24v24h-24z"/></clipPath><clipPath id="c"><path fill="#fff" d="M143 112h24v24h-24z"/></clipPath></defs></svg>