<?xml version="1.0" encoding="utf-8"?>
<!-- Generator: Adobe Illustrator 24.1.2, SVG Export Plug-In . SVG Version: 6.00 Build 0)  -->
<svg version="1.1" id="Layer_1" xmlns="http://www.w3.org/2000/svg" xmlns:xlink="http://www.w3.org/1999/xlink" x="0px" y="0px"
	 viewBox="0 0 451.6 90.3" style="enable-background:new 0 0 451.6 90.3;" xml:space="preserve">
<style type="text/css">
	.st0{fill:#FF06EE;}
	.st1{fill:#FF5D00;}
	.st2{fill:#FFFFFF;}
</style>
<polygon class="st0" points="0,15.9 0,32.9 24.9,53.1 0,73.2 0,90.3 46,53.1 "/>
<polygon class="st1" points="42.2,15.9 42.2,32.9 67.1,53.1 42.2,73.2 42.2,90.3 88.2,53.1 "/>
<path class="st2" d="M111.6,26.5h10.3V7.9h13.7v18.6H148v10.2h-12.4v33.1c0,1.2,0,2.5,0.2,3.7c0.1,0.9,0.4,1.8,0.8,2.6
	c0.5,0.7,1.2,1.3,2,1.6c1.2,0.4,2.4,0.6,3.6,0.5c1,0,1.9,0,2.9-0.1c1,0,1.9-0.2,2.9-0.4v10.6c-1.5,0.2-3,0.3-4.4,0.5
	c-1.5,0.2-3,0.2-4.4,0.2c-2.9,0.1-5.9-0.3-8.7-1c-2-0.5-3.7-1.6-5.2-3c-1.3-1.4-2.2-3.1-2.5-5c-0.5-2.3-0.7-4.5-0.8-6.8V36.7h-10.3
	V26.5z"/>
<path class="st2" d="M166.7,26.5h12.8v12h0.2c0.4-1.8,1.2-3.5,2.3-4.9c1.2-1.6,2.6-3.1,4.2-4.4c1.7-1.3,3.5-2.4,5.5-3.2
	c1.9-0.8,4-1.2,6.1-1.2c1.1,0,2.2,0,3.3,0.1c0.6,0.1,1.2,0.2,1.9,0.2v13.2c-1-0.2-1.9-0.3-2.9-0.4c-1-0.1-2-0.2-2.9-0.2
	c-2.3,0-4.5,0.5-6.5,1.4c-2.1,0.9-3.9,2.3-5.3,4.1c-1.6,2-2.8,4.2-3.6,6.7c-0.9,2.9-1.4,6-1.3,9.1v29.5h-13.7V26.5z"/>
<rect x="219.7" y="26.5" class="st2" width="13.7" height="62"/>
<path class="st2" d="M248.1,26.5H263l15.7,47.6h0.2l15.1-47.6h14.2l-22.2,62h-15.4L248.1,26.5z"/>
<rect x="323" y="26.5" class="st2" width="13.7" height="62"/>
<path class="st2" d="M448.8,78.3c-1,0-1.9,0.1-2.9,0.1c-1.2,0-2.4-0.1-3.6-0.5c-0.8-0.3-1.5-0.9-2-1.6c-0.5-0.8-0.8-1.7-0.8-2.6
	c-0.1-1.2-0.2-2.5-0.2-3.7V56.2h0V2.9h-13.7v70.4c0,2.3,0.3,4.6,0.8,6.8c0.4,1.9,1.2,3.6,2.5,5c1.4,1.4,3.2,2.5,5.2,3
	c2.8,0.8,5.8,1.1,8.7,1c1.5,0,3-0.1,4.4-0.2c1.4-0.2,2.9-0.3,4.4-0.5V77.9C450.7,78.1,449.7,78.3,448.8,78.3z"/>
<path class="st2" d="M407.8,82.8c-0.2-1.8-0.3-3.7-0.3-5.7v-6.8h0V42.9c0.1-2.9-0.7-5.8-2.2-8.3c-1.4-2.3-3.4-4.2-5.7-5.6
	c-2.5-1.5-5.2-2.5-8-3.1c-3-0.6-6-1-9-1c-3.4,0-6.8,0.3-10.1,1c-3.1,0.6-6.1,1.7-8.8,3.4c-2.6,1.6-4.8,3.8-6.4,6.4
	c-1.8,3-2.8,6.4-2.9,10h13.7c0.1-3,1.7-5.8,4.2-7.4c2.9-1.7,6.2-2.5,9.5-2.4c1.4,0,2.9,0.1,4.3,0.3c1.4,0.2,2.8,0.6,4.1,1.2
	c1.2,0.6,2.3,1.5,3.1,2.6c0.9,1.3,1.3,2.8,1.3,4.3c0.1,1.6-0.4,3.3-1.5,4.5c-1.1,1.1-2.6,1.8-4.1,2.2c-1.9,0.5-3.9,0.9-5.9,1
	c-2.4,0.2-4.7,0.6-7.1,1c-2.9,0.3-5.7,0.8-8.6,1.4c-2.7,0.5-5.3,1.5-7.7,2.9c-2.3,1.4-4.2,3.3-5.5,5.6c-1.5,2.9-2.2,6.1-2.1,9.4
	c-0.1,2.8,0.5,5.5,1.7,8c1.1,2.2,2.7,4.1,4.7,5.6c2,1.5,4.3,2.7,6.8,3.4c2.6,0.8,5.3,1.2,8,1.1c3.9,0,7.7-0.6,11.5-1.8
	c3.8-1.1,7.2-3.1,10-5.8c0.1,1,0.2,2,0.3,3c0.2,1,0.4,2,0.6,2.9h13.3C408.4,86.8,407.9,84.8,407.8,82.8z M393.8,67.7
	c0.1,1.9-0.5,3.8-1.6,5.5c-1,1.5-2.4,2.7-3.9,3.7c-1.5,1-3.2,1.6-5,2c-1.6,0.4-3.3,0.6-4.9,0.6c-1.3,0-2.7-0.1-4-0.4
	c-1.4-0.2-2.8-0.6-4.1-1.3c-1.2-0.6-2.3-1.4-3.2-2.5c-0.9-1.1-1.4-2.4-1.3-3.8c0-1.5,0.3-3.1,0.9-4.5c0.6-1.2,1.4-2.2,2.5-3
	c1.1-0.8,2.3-1.4,3.6-1.8c1.4-0.4,2.8-0.8,4.2-1c3-0.6,6.1-1,9.1-1.3c2.7-0.2,5.4-1,7.7-2.5L393.8,67.7z"/>
<rect x="219.7" y="2.8" transform="matrix(0.7071 -0.7071 0.7071 0.7071 59.5119 163.0225)" class="st2" width="13.7" height="13.7"/>
<rect x="323" y="2.8" transform="matrix(0.7071 -0.7071 0.7071 0.7071 89.7589 236.0447)" class="st2" width="13.7" height="13.7"/>
</svg>
