<svg id="Layer_1" data-name="Layer 1" xmlns="http://www.w3.org/2000/svg" xmlns:xlink="http://www.w3.org/1999/xlink" viewBox="0 0 622.99228 124.58803">
  <defs>
    <style>
      .cls-1 {
        fill: url(#linear-gradient);
      }

      .cls-2 {
        fill: url(#linear-gradient-2);
      }

      .cls-3 {
        fill: #221e1d;
      }
    </style>
    <linearGradient id="linear-gradient" x1="-9.91511" y1="27.69408" x2="42.05175" y2="116.61515" gradientUnits="userSpaceOnUse">
      <stop offset="0" stop-color="#f0f"/>
      <stop offset="1" stop-color="#ff5b00"/>
    </linearGradient>
    <linearGradient id="linear-gradient-2" x1="33.44803" y1="2.35198" x2="85.41489" y2="91.27305" xlink:href="#linear-gradient"/>
  </defs>
  <title>trivial-logo-simplified-dark-on-light</title>
  <g>
    <polygon class="cls-1" points="0 22.019 0 45.528 34.364 73.304 0 101.079 0 124.588 63.451 73.304 0 22.019"/>
    <polygon class="cls-2" points="58.173 22.019 58.173 45.528 92.538 73.304 58.173 101.079 58.173 124.588 121.624 73.304 58.173 22.019"/>
  </g>
  <path class="cls-3" d="M153.97347,36.69494H168.209V11.0392h18.86935V36.69494h17.0495V50.76479h-17.0495v45.6849a45.52734,45.52734,0,0,0,.24785,5.13088,8.81947,8.81947,0,0,0,1.1598,3.64105,5.51335,5.51335,0,0,0,2.73046,2.23474,13.422,13.422,0,0,0,4.96519.74491q1.98621,0,3.97377-.08217a19.80512,19.80512,0,0,0,3.97243-.57922v14.56555q-3.146.32936-6.125.66275a55.72182,55.72182,0,0,1-6.12365.33,41.83134,41.83134,0,0,1-12.00079-1.40631,15.98523,15.98523,0,0,1-7.11776-4.13811,14.25778,14.25778,0,0,1-3.47672-6.86991,51.36614,51.36614,0,0,1-1.07493-9.43468V50.76479H153.97347Z"/>
  <path class="cls-3" d="M229.88675,36.69494h17.7109V53.24739h.33137a19.07948,19.07948,0,0,1,3.22751-6.7864,31.40005,31.40005,0,0,1,5.79362-6.04148,29.20026,29.20026,0,0,1,7.53131-4.386,22.55887,22.55887,0,0,1,8.44191-1.65552,41.27372,41.27372,0,0,1,4.55165.16569c.82708.11046,1.68111.22226,2.56477.33v18.208q-1.98622-.32935-4.0546-.57923a34.01727,34.01727,0,0,0-4.05594-.24785,21.70546,21.70546,0,0,0-9.02113,1.90337,20.71684,20.71684,0,0,0-7.36562,5.62793,27.53024,27.53024,0,0,0-4.9652,9.18682,39.68751,39.68751,0,0,0-1.8212,12.58v40.71836H229.88675Z"/>
  <rect class="cls-3" x="303.05658" y="36.69494" width="18.8707" height="85.57617"/>
  <path class="cls-3" d="M342.2437,36.69494h20.52487l21.68332,65.71271h.33137L405.6395,36.69494h19.53209l-30.62228,85.57618H373.3617Z"/>
  <rect class="cls-3" x="445.48724" y="36.69494" width="18.8707" height="85.57617"/>
  <path class="cls-3" d="M619.01986,108.1191q-1.98621.08487-3.97377.08217a13.42212,13.42212,0,0,1-4.9652-.74491,5.51328,5.51328,0,0,1-2.73045-2.23474,8.81947,8.81947,0,0,1-1.1598-3.64105,45.52473,45.52473,0,0,1-.24786-5.13088V77.61805h.00135V4.08712h-18.8707v97.16207a51.367,51.367,0,0,0,1.07494,9.43468,14.25785,14.25785,0,0,0,3.47671,6.86991,15.98532,15.98532,0,0,0,7.11777,4.13811,41.83134,41.83134,0,0,0,12.00079,1.40631,55.72182,55.72182,0,0,0,6.12365-.33q2.98032-.3334,6.125-.66275V107.53988A19.80492,19.80492,0,0,1,619.01986,108.1191Z"/>
  <path class="cls-3" d="M562.55257,114.35388c-.24348-2.52368-.389-5.142-.458-7.83573v-9.3323h-.01415V59.2067A21.11289,21.11289,0,0,0,559.10078,47.703a23.84462,23.84462,0,0,0-7.86268-7.697,35.29613,35.29613,0,0,0-11.00667-4.30379A58.62512,58.62512,0,0,0,527.8171,34.378a72.4526,72.4526,0,0,0-13.90416,1.32415A36.2597,36.2597,0,0,0,501.74646,40.336a27.45825,27.45825,0,0,0-8.85545,8.77328,28.41448,28.41448,0,0,0-3.97242,13.73847h18.86935q.66072-6.95275,5.79362-10.26176,5.1282-3.30969,13.07708-3.311a46.196,46.196,0,0,1,5.958.41354,18.68626,18.68626,0,0,1,5.71146,1.65552,11.67327,11.67327,0,0,1,4.30245,3.55888,9.66677,9.66677,0,0,1,1.739,5.95931q0,4.13811-2.06906,6.20716a12.56444,12.56444,0,0,1-5.62794,3.06183,45.73721,45.73721,0,0,1-8.19405,1.40631,97.0754,97.0754,0,0,0-9.766,1.40766q-5.95863.66274-11.8351,1.90337a34.39778,34.39778,0,0,0-10.59313,4.05459,21.45108,21.45108,0,0,0-7.61348,7.78051q-2.8995,4.96452-2.89748,12.91a23.94289,23.94289,0,0,0,2.40043,11.008,22.159,22.159,0,0,0,6.455,7.77916,29.03766,29.03766,0,0,0,9.3525,4.63517,38.75981,38.75981,0,0,0,11.09019,1.572,54.426,54.426,0,0,0,15.80753-2.4826,33.37411,33.37411,0,0,0,13.81525-7.94013q.12882,2.08017.4351,4.07951.31824,2.07411.83011,4.058h18.38071A24.54134,24.54134,0,0,1,562.55257,114.35388ZM543.21108,93.47a12.77872,12.77872,0,0,1-2.15257,7.53131,18.06845,18.06845,0,0,1-5.38008,5.04871,22.55921,22.55921,0,0,1-6.86857,2.814,30.63681,30.63681,0,0,1-6.78639.82708,34.9,34.9,0,0,1-5.54577-.49706,20.24579,20.24579,0,0,1-5.62793-1.73768,13.17913,13.17913,0,0,1-4.386-3.3932,7.90748,7.90748,0,0,1-1.8212-5.29656,14.167,14.167,0,0,1,1.242-6.20717,10.92,10.92,0,0,1,3.3932-4.13811,17.4353,17.4353,0,0,1,4.96654-2.48259,40.64151,40.64151,0,0,1,5.79228-1.40766q6.29-1.15577,12.58-1.73769a22.88841,22.88841,0,0,0,10.59448-3.39319Z"/>
  <rect class="cls-3" x="302.99754" y="3.9327" width="18.98878" height="18.98878" transform="translate(82.03238 224.89786) rotate(-45)"/>
  <rect class="cls-3" x="445.4282" y="3.9327" width="18.98878" height="18.98878" transform="translate(123.74935 325.61155) rotate(-45)"/>
</svg>
