<?xml version="1.0" encoding="utf-8"?>
<!-- Generator: Adobe Illustrator 27.0.0, SVG Export Plug-In . SVG Version: 6.00 Build 0)  -->
<svg version="1.1" id="Layer_1" xmlns="http://www.w3.org/2000/svg" xmlns:xlink="http://www.w3.org/1999/xlink" x="0px" y="0px"
	 viewBox="0 0 1000 1000" style="enable-background:new 0 0 1000 1000;" xml:space="preserve">
<style type="text/css">
	.st0{fill-rule:evenodd;clip-rule:evenodd;fill:#72BDA3;}
</style>
<g id="Artboard">
	<polygon id="Path" class="st0" points="0,639.4 45.5,639.4 123.7,422.8 201.3,639.4 245.5,639.4 145.5,361 99.7,361 	"/>
	<polygon id="Path_00000021108146132273696620000017901274138186821548_" class="st0" points="753.5,639.4 798.9,639.4 877.2,422.8 
		954.8,639.4 999,639.4 898.9,361 853.1,361 	"/>
	<polygon id="Path-2-Copy" class="st0" points="641.6,361 534.6,500.2 641.6,639.4 693.7,639.4 588.1,500.2 695.3,361 	"/>
	<path id="Path-3-Copy" class="st0" d="M406.7,639.4h44.9l-42.7-118.6c28.6-15.3,42.1-42.2,40.5-80.7c-8.7-67.2-63.1-79-74.5-78.5
		c-22.7,0-44.3-0.2-64.6-0.5v42.5c28.5,0,47.9,0,58.1,0c28.5,0,40.4,25.3,40.4,44.2s-13.2,43.9-37.2,45c-12,0.6-32.5,0.6-61.4,0
		v41.2h58.1L406.7,639.4z"/>
</g>
</svg>
