<?xml version="1.0" encoding="utf-8"?>
<!-- Generator: Adobe Illustrator 24.1.2, SVG Export Plug-In . SVG Version: 6.00 Build 0)  -->
<svg version="1.1" id="Layer_1" xmlns="http://www.w3.org/2000/svg" xmlns:xlink="http://www.w3.org/1999/xlink" x="0px" y="0px"
	 viewBox="0 0 631.7 623" style="enable-background:new 0 0 631.7 623;" xml:space="preserve">
<style type="text/css">
	.st0{fill:#8DD329;}
</style>
<g id="Page-1">
	<g id="trivial-logo" transform="translate(0.000000, 0.900000)">
		<polygon id="Path_2_" class="st0" points="1.4,302.9 179.4,444 178.4,380.2 82.6,302.9 178.4,225.1 179.4,160.5 		"/>
	</g>
</g>
<g id="Page-1_1_">
	<g id="trivial-logo_1_" transform="translate(0.000000, 0.900000)">
		<polygon id="Path_1_" class="st0" points="449.3,160.5 450.2,225.1 546,302.9 450.2,380.2 449.3,444 627.2,302.9 		"/>
	</g>
</g>
<path id="Path_3_" class="st0" d="M387.3,149.7c0,0,6.5-29.1-16-36.8c-20.1-6.9-32,18.5-32,18.5L239,453.1c0,0-6.5,29.1,16,36.8
	c20.1,6.9,32-18.5,32-18.5L387.3,149.7z"/>
</svg>
