<?xml version="1.0" encoding="utf-8"?>
<!-- Generator: Adobe Illustrator 24.1.2, SVG Export Plug-In . SVG Version: 6.00 Build 0)  -->
<svg version="1.1" id="Layer_1" xmlns="http://www.w3.org/2000/svg" xmlns:xlink="http://www.w3.org/1999/xlink" x="0px" y="0px"
	 viewBox="0 0 700 700" style="enable-background:new 0 0 700 700;" xml:space="preserve">
<style type="text/css">
	.st0{opacity:0.51;}
	.st1{fill:none;stroke:#15D115;stroke-width:40;stroke-linejoin:round;stroke-miterlimit:10;}
	.st2{fill:#15D115;}
	.st3{fill:#47BAEB;}
</style>
<g class="st0">
	<line class="st1" x1="345.6" y1="326.6" x2="236.2" y2="393"/>
	<path class="st1" d="M345.6,106.1"/>
	<path class="st1" d="M345.6,16.7"/>
	<polyline class="st1" points="147.1,513.8 147.1,448 256.5,381.5 	"/>
</g>
<polyline class="st1" points="343.8,175.6 343.8,326.6 453.2,393 "/>
<g class="st0">
	<path class="st2" d="M283.4,513.8H30.9c-10.4,0-18.6,8.4-18.6,19v136.8c0,10.6,8.2,19,18.6,19h252.5c10.4,0,18.6-8.4,18.6-19V532.8
		C301.9,522.2,293.8,513.8,283.4,513.8z M264.8,650.6H49.4v-98.8h215.3V650.6z"/>
</g>
<g>
	<path class="st2" d="M665.6,513.8H413.1c-10.4,0-18.6,8.4-18.6,19v136.8c0,10.6,8.2,19,18.6,19h252.5c10.4,0,18.6-8.4,18.6-19
		V532.8C684.2,522.2,676,513.8,665.6,513.8z M647,650.6H431.7v-98.8H647V650.6z"/>
</g>
<g>
	<path class="st2" d="M501.6,18.1H184.1c-10.4,0-18.6,8.4-18.6,19v136.8c0,10.6,8.2,19,18.6,19h317.5c10.4,0,18.6-8.4,18.6-19V37.1
		C520.2,26.5,512,18.1,501.6,18.1z M483,154.9H202.7V56.1H483V154.9z"/>
</g>
<path class="st3" d="M376.8,98.9"/>
<path class="st3" d="M339.7,98.9"/>
<polyline class="st1" points="542.3,536.4 542.3,448 432.9,381.5 "/>
</svg>
