<svg xmlns="http://www.w3.org/2000/svg" width="204" height="66" fill="none"><g clip-path="url(#a)"><g clip-path="url(#b)"><path fill="#2B2B2B" d="M331.292.06H4.247A3.94 3.94 0 0 0 .307 4v57.627a3.94 3.94 0 0 0 3.94 3.94h327.045a3.94 3.94 0 0 0 3.94-3.94V4a3.94 3.94 0 0 0-3.94-3.94Z"/><path fill="#fff" d="M13.927 13.23v2.044h2.495v.838h-2.495v2.664h-1.042v-6.383h3.98v.838h-2.938Zm5.447.954c.334 0 .636.054.905.164.271.109.502.264.691.465.192.201.34.445.443.732.104.286.155.608.155.966s-.051.68-.155.966a2.094 2.094 0 0 1-.443.736c-.189.201-.42.356-.691.466-.27.109-.57.164-.905.164a2.43 2.43 0 0 1-.913-.164 1.97 1.97 0 0 1-.691-.466 2.096 2.096 0 0 1-.444-.736 2.834 2.834 0 0 1-.155-.966c0-.358.052-.68.155-.966a2.05 2.05 0 0 1 .444-.732 1.97 1.97 0 0 1 .691-.465 2.43 2.43 0 0 1 .913-.164Zm0 3.914c.408 0 .711-.136.909-.408.201-.275.301-.666.301-1.175 0-.508-.1-.9-.301-1.174-.198-.278-.5-.417-.909-.417-.413 0-.72.139-.922.417-.2.275-.301.666-.301 1.174 0 .509.1.9.301 1.175.201.272.509.408.922.408Zm4.099-3.006c.142-.286.313-.51.514-.673a1.1 1.1 0 0 1 .723-.249c.097 0 .189.012.274.036a.73.73 0 0 1 .23.097l-.066.718c-.011.05-.03.086-.057.107a.16.16 0 0 1-.098.027 1.17 1.17 0 0 1-.19-.023 1.247 1.247 0 0 0-.262-.026c-.133 0-.251.019-.355.057a.886.886 0 0 0-.274.169c-.08.074-.151.164-.213.27-.062.107-.12.228-.173.364v2.81h-.953v-4.521h.554c.1 0 .17.019.208.057.039.036.065.1.08.19l.058.59Zm5.271.914c0-.16-.024-.308-.07-.444a.99.99 0 0 0-.2-.359.882.882 0 0 0-.333-.24c-.13-.058-.28-.088-.452-.088-.346 0-.618.1-.816.297-.198.198-.323.476-.376.834h2.247Zm-2.274.585c.012.257.052.48.12.67.068.185.158.34.27.465.115.124.251.217.408.279.16.059.337.088.532.088.186 0 .347-.02.483-.062a2.586 2.586 0 0 0 .612-.283.376.376 0 0 1 .195-.067c.077 0 .136.03.177.089l.27.35c-.112.133-.239.245-.38.337a2.305 2.305 0 0 1-.453.226 3.154 3.154 0 0 1-.984.16 2.41 2.41 0 0 1-.873-.156 1.987 1.987 0 0 1-.696-.465 2.183 2.183 0 0 1-.461-.758 3.048 3.048 0 0 1-.164-1.042c0-.313.049-.606.146-.877.1-.272.242-.509.426-.71.186-.2.41-.359.673-.474.266-.118.566-.177.9-.177.278 0 .535.046.772.137.236.089.44.22.611.395.172.174.305.388.4.642.097.252.146.538.146.86 0 .148-.017.247-.05.297-.032.05-.09.076-.177.076H26.47Zm7.303-1.45a.495.495 0 0 1-.084.089.185.185 0 0 1-.115.03.302.302 0 0 1-.16-.052 2.454 2.454 0 0 0-.195-.116 1.373 1.373 0 0 0-.27-.12 1.28 1.28 0 0 0-.4-.053c-.206 0-.388.037-.545.111-.153.074-.283.18-.39.32a1.432 1.432 0 0 0-.235.5c-.05.196-.075.416-.075.66 0 .255.028.481.084.68.056.197.136.364.24.5.106.136.233.24.38.31.151.071.32.107.506.107.183 0 .333-.022.448-.067.115-.044.211-.093.288-.146.077-.053.142-.102.195-.146a.282.282 0 0 1 .177-.067c.077 0 .136.03.178.089l.27.35c-.11.133-.23.245-.363.337a2.141 2.141 0 0 1-.422.226 2.198 2.198 0 0 1-.46.12c-.16.026-.321.04-.484.04-.28 0-.544-.052-.789-.156a1.904 1.904 0 0 1-.638-.456 2.258 2.258 0 0 1-.43-.732 2.93 2.93 0 0 1-.155-.988c0-.334.047-.643.142-.926.094-.287.232-.534.412-.74.183-.208.41-.369.678-.484.269-.118.58-.177.931-.177.328 0 .616.053.864.16.252.106.475.256.67.451l-.253.346Zm3.568 1.658a5.79 5.79 0 0 0-.86.084 2.305 2.305 0 0 0-.567.164.751.751 0 0 0-.315.235.526.526 0 0 0-.093.302c0 .106.016.198.049.274a.557.557 0 0 0 .142.187.655.655 0 0 0 .212.106c.083.02.173.031.27.031.25 0 .462-.046.64-.137.18-.095.354-.23.522-.408v-.838Zm-2.526-1.915a2.589 2.589 0 0 1 1.826-.714c.26 0 .49.043.691.129.204.083.374.2.51.355.139.153.244.337.315.55.074.21.11.442.11.7v2.872h-.425a.434.434 0 0 1-.208-.04c-.047-.03-.087-.087-.12-.173l-.093-.368a4.596 4.596 0 0 1-.341.28 2.21 2.21 0 0 1-.35.204 1.596 1.596 0 0 1-.386.124c-.136.03-.287.044-.452.044-.184 0-.355-.025-.515-.075a1.145 1.145 0 0 1-.407-.226 1.128 1.128 0 0 1-.275-.382 1.336 1.336 0 0 1-.098-.532c0-.174.046-.344.138-.51.094-.165.248-.313.46-.443.216-.133.499-.242.847-.328a6.185 6.185 0 0 1 1.3-.146v-.301c0-.325-.07-.568-.21-.727-.138-.16-.342-.24-.61-.24-.184 0-.338.024-.462.071a1.954 1.954 0 0 0-.324.147 4.656 4.656 0 0 0-.243.15.42.42 0 0 1-.226.067.29.29 0 0 1-.169-.05.464.464 0 0 1-.11-.128l-.173-.31Zm7.357.19a.237.237 0 0 1-.08.09.212.212 0 0 1-.11.026.37.37 0 0 1-.164-.044 4.362 4.362 0 0 0-.209-.107 1.648 1.648 0 0 0-.283-.102 1.296 1.296 0 0 0-.377-.048c-.118 0-.226.014-.324.044a.697.697 0 0 0-.243.12.523.523 0 0 0-.204.403c0 .106.032.195.097.266.065.07.15.133.257.186.107.05.228.096.364.138.136.04.274.085.416.133.142.047.281.101.417.164.136.061.257.138.364.23.106.089.192.198.257.328.065.127.097.282.097.465 0 .213-.038.41-.115.59-.077.18-.19.337-.337.47a1.548 1.548 0 0 1-.554.31 2.35 2.35 0 0 1-.754.111 2.694 2.694 0 0 1-.873-.155 2.5 2.5 0 0 1-.368-.177 1.99 1.99 0 0 1-.301-.222l.221-.364a.273.273 0 0 1 .248-.142c.063 0 .123.021.182.063l.213.128c.083.047.182.092.297.133.115.039.259.058.43.058.142 0 .265-.016.368-.049a.764.764 0 0 0 .257-.142.567.567 0 0 0 .2-.443.414.414 0 0 0-.098-.284.82.82 0 0 0-.261-.19c-.107-.054-.23-.1-.368-.142a16.65 16.65 0 0 1-.417-.133 4.58 4.58 0 0 1-.421-.164 1.53 1.53 0 0 1-.368-.235 1.13 1.13 0 0 1-.257-.35 1.186 1.186 0 0 1-.098-.506c0-.18.036-.351.107-.514.074-.162.18-.306.319-.43.142-.124.315-.222.519-.293.206-.073.444-.11.713-.11.305 0 .58.048.83.146.247.098.456.23.624.399l-.213.346Zm2.71 3.773c-.376 0-.666-.105-.87-.315-.2-.212-.301-.511-.301-.895v-2.633h-.497a.206.206 0 0 1-.137-.049c-.038-.036-.058-.087-.058-.155v-.386l.732-.106.208-1.308a.24.24 0 0 1 .075-.12.202.202 0 0 1 .142-.048h.488v1.485h1.254v.687h-1.254v2.566c0 .163.04.287.12.373.08.085.186.128.319.128a.606.606 0 0 0 .19-.026c.053-.021.1-.042.138-.062l.097-.062a.148.148 0 0 1 .084-.031c.054 0 .096.03.129.088l.284.466c-.148.13-.322.23-.523.301a1.926 1.926 0 0 1-.62.102Z"/><mask id="c" width="107" height="28" x="8" y="26" maskUnits="userSpaceOnUse" style="mask-type:luminance"><path fill="#fff" d="M8.187 26.657h106.387v27.09H8.187v-27.09Z"/></mask><g mask="url(#c)"><path fill="#585858" d="M114.082 26.657v27.09h.985v-27.09h-.985Z"/></g><path fill="#9F9F9F" d="M13.486 35.905h2.29v.602H12.77v-5.293h.716v4.691Zm5.797.602h-.291a.348.348 0 0 1-.156-.03c-.039-.019-.065-.06-.077-.125l-.074-.347a4.684 4.684 0 0 1-.288.24 1.816 1.816 0 0 1-.296.178 1.59 1.59 0 0 1-.332.107 1.87 1.87 0 0 1-.388.036c-.145 0-.282-.02-.41-.059a.894.894 0 0 1-.554-.491 1.112 1.112 0 0 1-.081-.443c0-.148.04-.29.122-.425.08-.138.211-.26.391-.366.182-.106.42-.192.713-.258a5.32 5.32 0 0 1 1.075-.118v-.292c0-.29-.063-.51-.189-.658-.123-.15-.306-.225-.55-.225-.16 0-.295.02-.406.063-.109.039-.203.085-.285.136-.079.05-.147.095-.207.137a.296.296 0 0 1-.17.06.214.214 0 0 1-.118-.034.296.296 0 0 1-.077-.089l-.118-.21c.206-.2.43-.349.668-.447.24-.099.504-.148.794-.148.21 0 .396.034.558.103a1.144 1.144 0 0 1 .661.735c.057.175.085.367.085.577v2.393Zm-1.706-.402c.115 0 .221-.011.317-.033a1.346 1.346 0 0 0 .514-.259c.079-.062.155-.132.229-.21v-.78c-.303.01-.56.034-.772.074a2.118 2.118 0 0 0-.517.148.737.737 0 0 0-.292.218.476.476 0 0 0-.089.28c0 .099.016.184.048.255.032.072.075.13.13.177a.548.548 0 0 0 .192.1.93.93 0 0 0 .24.03Zm4.919-2.723a.146.146 0 0 1-.137.082.257.257 0 0 1-.125-.041 2.214 2.214 0 0 0-.414-.181 1.111 1.111 0 0 0-.332-.044c-.111 0-.211.014-.3.044a.716.716 0 0 0-.229.114.54.54 0 0 0-.144.174.465.465 0 0 0-.048.21c0 .097.027.177.081.24.057.065.13.12.222.167.091.047.195.089.31.126.116.034.234.072.355.114.123.04.243.084.358.133.116.05.22.11.31.185a.819.819 0 0 1 .303.657c0 .173-.03.333-.092.48a1.065 1.065 0 0 1-.273.381c-.12.106-.269.19-.444.251a1.82 1.82 0 0 1-.605.093 1.827 1.827 0 0 1-1.249-.454l.155-.252a.225.225 0 0 1 .07-.074.197.197 0 0 1 .108-.026c.044 0 .09.017.14.052.05.034.108.073.177.114.072.042.157.08.255.115.101.035.227.052.377.052.128 0 .24-.016.336-.048a.73.73 0 0 0 .24-.137.588.588 0 0 0 .188-.432.38.38 0 0 0-.084-.255.65.65 0 0 0-.218-.174 1.603 1.603 0 0 0-.314-.125 366.07 366.07 0 0 1-.359-.115c-.12-.04-.24-.084-.358-.133a1.315 1.315 0 0 1-.31-.192.89.89 0 0 1-.222-.28.945.945 0 0 1-.081-.41.988.988 0 0 1 .347-.757c.113-.102.252-.182.417-.241a1.67 1.67 0 0 1 .566-.089c.246 0 .466.04.66.118.198.077.368.183.51.318l-.147.24Zm2.269 3.184c-.296 0-.524-.082-.684-.247-.157-.165-.236-.403-.236-.713v-2.29h-.45a.152.152 0 0 1-.1-.034c-.028-.024-.041-.061-.041-.11v-.263l.613-.077.152-1.156a.133.133 0 0 1 .048-.089.148.148 0 0 1 .103-.037h.333v1.29h1.07v.476h-1.07v2.246c0 .157.038.274.114.35a.4.4 0 0 0 .296.115.54.54 0 0 0 .31-.088 1.58 1.58 0 0 0 .092-.06c.027-.02.05-.03.07-.03.035 0 .066.022.093.064l.192.314a1.25 1.25 0 0 1-.41.25c-.16.06-.325.09-.495.09Zm6.663-5.352v.295c0 .084-.01.153-.03.207a.832.832 0 0 1-.055.137l-2.19 4.422a.509.509 0 0 1-.133.166.361.361 0 0 1-.23.066h-.469l2.224-4.366a1.31 1.31 0 0 1 .21-.318h-2.762a.164.164 0 0 1-.163-.162v-.447h3.598Zm7.088 2.648c0 .397-.062.758-.188 1.083a2.401 2.401 0 0 1-.532.835 2.392 2.392 0 0 1-.824.539 2.89 2.89 0 0 1-1.064.188h-1.98v-5.293h1.98c.39 0 .744.064 1.064.192.32.126.595.305.824.54a2.4 2.4 0 0 1 .532.834c.126.325.188.686.188 1.082Zm-.735 0c0-.325-.044-.615-.133-.871a1.835 1.835 0 0 0-.376-.65 1.607 1.607 0 0 0-.591-.407 2.043 2.043 0 0 0-.773-.14h-1.26v4.134h1.26c.284 0 .541-.047.773-.14.231-.094.428-.229.59-.403.163-.178.289-.395.377-.65.09-.257.133-.547.133-.873Zm4.43 2.645h-.293a.348.348 0 0 1-.155-.03c-.04-.019-.065-.06-.078-.125l-.073-.347a4.654 4.654 0 0 1-.288.24 1.816 1.816 0 0 1-.296.178 1.591 1.591 0 0 1-.332.107 1.87 1.87 0 0 1-.388.036c-.146 0-.282-.02-.41-.059a.893.893 0 0 1-.554-.491 1.112 1.112 0 0 1-.082-.443c0-.148.04-.29.122-.425.081-.138.212-.26.392-.366.182-.106.42-.192.713-.258a5.322 5.322 0 0 1 1.075-.118v-.292c0-.29-.063-.51-.189-.658-.123-.15-.306-.225-.55-.225-.16 0-.296.02-.407.063-.108.039-.203.085-.284.136-.079.05-.148.095-.207.137a.296.296 0 0 1-.17.06.214.214 0 0 1-.118-.034.296.296 0 0 1-.078-.089l-.118-.21c.207-.2.43-.349.669-.447.239-.099.503-.148.794-.148.21 0 .395.034.558.103a1.144 1.144 0 0 1 .661.735c.057.175.085.367.085.577v2.393Zm-1.708-.402c.116 0 .222-.011.318-.033a1.348 1.348 0 0 0 .514-.259c.078-.062.155-.132.229-.21v-.78c-.303.01-.56.034-.772.074a2.118 2.118 0 0 0-.518.148.736.736 0 0 0-.291.218.476.476 0 0 0-.09.28.62.62 0 0 0 .049.255.5.5 0 0 0 .13.177.548.548 0 0 0 .191.1.93.93 0 0 0 .24.03Zm3.759 1.507a.333.333 0 0 1-.085.118c-.032.03-.083.045-.152.045h-.487l.683-1.486-1.544-3.524h.569c.057 0 .1.015.133.045a.25.25 0 0 1 .07.092l1.001 2.357c.022.054.04.108.056.162.017.055.032.11.044.167l.052-.167a2.79 2.79 0 0 1 .059-.166l.971-2.353a.203.203 0 0 1 .074-.096.196.196 0 0 1 .118-.04h.525l-2.087 4.846Zm4.9-4.23a.146.146 0 0 1-.137.082.257.257 0 0 1-.126-.041 2.214 2.214 0 0 0-.413-.181 1.111 1.111 0 0 0-.333-.044c-.11 0-.21.014-.299.044a.714.714 0 0 0-.229.114.54.54 0 0 0-.144.174.465.465 0 0 0-.048.21.36.36 0 0 0 .081.24c.057.065.13.12.222.167.09.047.194.089.31.126.116.034.234.072.355.114.123.04.242.084.358.133.116.05.22.11.31.185a.817.817 0 0 1 .303.657c0 .173-.03.333-.092.48a1.065 1.065 0 0 1-.273.381c-.121.106-.269.19-.444.251a1.82 1.82 0 0 1-.606.093 1.825 1.825 0 0 1-1.248-.454l.155-.252a.225.225 0 0 1 .07-.074.197.197 0 0 1 .107-.026c.045 0 .091.017.14.052.05.034.109.073.178.114.071.042.156.08.255.115.1.035.227.052.377.052.128 0 .24-.016.336-.048a.73.73 0 0 0 .24-.137.588.588 0 0 0 .188-.432.38.38 0 0 0-.085-.255.648.648 0 0 0-.218-.174 1.603 1.603 0 0 0-.314-.125l-.358-.115a4.86 4.86 0 0 1-.358-.133 1.317 1.317 0 0 1-.31-.192.889.889 0 0 1-.222-.28.944.944 0 0 1-.081-.41.988.988 0 0 1 .347-.757c.113-.102.252-.182.417-.241a1.67 1.67 0 0 1 .565-.089c.247 0 .467.04.662.118.197.077.367.183.51.318l-.148.24Zm3.512 1.208-1.26-1.825h.632c.054 0 .094.009.118.026a.245.245 0 0 1 .067.074l.916 1.404a.966.966 0 0 1 .096-.207l.805-1.182a.4.4 0 0 1 .074-.081.134.134 0 0 1 .093-.034h.606l-1.26 1.788 1.311 1.954h-.632a.193.193 0 0 1-.129-.04.459.459 0 0 1-.073-.096l-.943-1.467a.666.666 0 0 1-.077.192l-.872 1.275a.764.764 0 0 1-.081.096.155.155 0 0 1-.115.04h-.587l1.311-1.917Zm6.175-3.435c.224 0 .431.032.62.096.19.064.353.155.488.273.138.118.245.261.322.429.076.167.114.353.114.558 0 .167-.022.317-.066.45a1.07 1.07 0 0 1-.473.599c-.113.069-.24.124-.38.166.344.09.603.244.775.458.175.214.262.483.262.805a1.497 1.497 0 0 1-.517 1.156c-.16.136-.347.24-.561.314-.212.072-.44.107-.684.107-.28 0-.52-.034-.72-.103a1.519 1.519 0 0 1-.506-.292 1.554 1.554 0 0 1-.34-.436 3.34 3.34 0 0 1-.225-.55l.28-.118a.39.39 0 0 1 .156-.034c.049 0 .092.012.129.034.04.02.069.051.088.096l.015.033.015.033c.034.072.076.153.126.244a1.039 1.039 0 0 0 .51.45c.125.055.28.082.465.082.184 0 .346-.03.484-.089.14-.061.256-.14.347-.236a.969.969 0 0 0 .28-.672c0-.143-.019-.274-.058-.392a.656.656 0 0 0-.207-.306 1.049 1.049 0 0 0-.414-.204c-.175-.049-.4-.074-.676-.074v-.476c.224-.003.415-.027.573-.074.16-.047.29-.11.391-.192a.697.697 0 0 0 .218-.292.978.978 0 0 0 .07-.377.993.993 0 0 0-.073-.399.75.75 0 0 0-.495-.447 1.184 1.184 0 0 0-.37-.055c-.133 0-.256.02-.37.06-.112.038-.213.094-.302.165a.935.935 0 0 0-.218.252c-.06.095-.104.2-.133.313a.294.294 0 0 1-.089.156.231.231 0 0 1-.151.048h-.041a.729.729 0 0 0-.044-.008l-.344-.059c.035-.241.101-.454.2-.639.098-.187.222-.343.373-.469a1.6 1.6 0 0 1 .52-.285c.198-.066.41-.1.636-.1Zm6.133 2.707c0 .463-.051.865-.152 1.205a2.488 2.488 0 0 1-.406.838 1.636 1.636 0 0 1-.614.495 1.77 1.77 0 0 1-.753.163 1.652 1.652 0 0 1-1.363-.658 2.488 2.488 0 0 1-.406-.838 4.353 4.353 0 0 1-.148-1.205c0-.462.05-.864.148-1.204.098-.34.234-.62.406-.842a1.64 1.64 0 0 1 .606-.499 1.78 1.78 0 0 1 .757-.162c.268 0 .52.054.753.162.237.109.441.275.614.499.172.222.307.502.406.842.101.34.152.742.152 1.204Zm-.684 0c0-.403-.034-.742-.103-1.015a1.99 1.99 0 0 0-.274-.665 1.004 1.004 0 0 0-.395-.359 1.051 1.051 0 0 0-.938 0c-.15.072-.282.191-.395.359-.114.167-.205.389-.274.665-.066.273-.1.612-.1 1.015 0 .404.034.743.1 1.016.07.274.16.494.274.662.113.167.245.288.395.362a1.08 1.08 0 0 0 .938 0c.15-.074.282-.195.395-.362a1.99 1.99 0 0 0 .274-.662c.069-.273.103-.612.103-1.016Zm3.897.728-1.26-1.825h.632c.054 0 .094.009.118.026a.246.246 0 0 1 .067.074l.916 1.404a.976.976 0 0 1 .096-.207l.805-1.182a.407.407 0 0 1 .074-.081.134.134 0 0 1 .093-.034h.605l-1.26 1.788 1.312 1.954h-.632a.193.193 0 0 1-.129-.04.456.456 0 0 1-.074-.096l-.942-1.467a.67.67 0 0 1-.077.192l-.872 1.275a.781.781 0 0 1-.081.096.155.155 0 0 1-.115.04h-.587l1.311-1.917Zm4.945 1.415h1.137v-3.609c0-.108.004-.218.011-.329l-.945.81a.294.294 0 0 1-.074.043.242.242 0 0 1-.07.012.22.22 0 0 1-.1-.023.195.195 0 0 1-.067-.059l-.207-.284 1.574-1.363h.536v4.802h1.042v.502H73.14v-.502Zm5.519-4.85c.224 0 .433.033.628.1a1.414 1.414 0 0 1 .839.753c.081.182.121.39.121.62 0 .198-.03.38-.088.547-.06.168-.14.33-.24.484a3.627 3.627 0 0 1-.351.447c-.13.143-.27.29-.417.44l-1.393 1.426a2.492 2.492 0 0 1 .59-.089h1.774a.23.23 0 0 1 .17.063.22.22 0 0 1 .063.163v.398h-3.532v-.225c0-.047.009-.095.026-.144.02-.05.05-.095.093-.137l1.695-1.703c.14-.142.268-.28.384-.41.116-.133.214-.266.296-.399.083-.133.147-.267.192-.402.044-.138.066-.285.066-.44 0-.155-.025-.29-.074-.406a.785.785 0 0 0-.506-.462c-.115-.04-.24-.059-.373-.059s-.256.02-.37.06a1.004 1.004 0 0 0-.524.413.996.996 0 0 0-.125.318.294.294 0 0 1-.09.155.238.238 0 0 1-.154.048h-.04a.738.738 0 0 0-.045-.008l-.344-.059c.035-.241.101-.454.2-.639.098-.187.223-.343.373-.469.153-.126.326-.22.52-.285.198-.066.41-.1.636-.1Zm7.547.059v.584h-2.542v1.85h2.172v.584h-2.172v2.275h-.72v-5.293h3.262Zm3.185 2.216a.294.294 0 0 1-.059.063.139.139 0 0 1-.084.022.225.225 0 0 1-.123-.044 1.345 1.345 0 0 0-.406-.203 1.084 1.084 0 0 0-.347-.048c-.182 0-.344.033-.484.1a.938.938 0 0 0-.355.28 1.325 1.325 0 0 0-.214.447c-.047.175-.07.37-.07.588 0 .226.026.428.078.605.051.175.124.323.217.444a.96.96 0 0 0 .34.273c.136.062.287.092.455.092.16 0 .291-.018.395-.055.103-.04.19-.083.258-.13a2.22 2.22 0 0 0 .17-.125.201.201 0 0 1 .133-.059c.057 0 .099.02.126.063l.185.24c-.163.2-.366.346-.61.44a2.189 2.189 0 0 1-.772.136c-.234 0-.452-.043-.654-.13-.199-.085-.373-.21-.52-.372a1.823 1.823 0 0 1-.351-.606 2.46 2.46 0 0 1-.126-.816c0-.279.038-.536.114-.773a1.77 1.77 0 0 1 .34-.609c.15-.172.335-.307.554-.403.22-.096.47-.144.754-.144.26 0 .492.043.694.13.202.083.381.203.536.358l-.174.236Zm2.105 3.136c-.296 0-.524-.082-.684-.247-.157-.165-.236-.403-.236-.713v-2.29h-.45a.153.153 0 0 1-.1-.034c-.028-.024-.041-.061-.041-.11v-.263l.613-.077.151-1.156a.133.133 0 0 1 .049-.089.148.148 0 0 1 .103-.037h.333v1.29h1.07v.476h-1.07v2.246c0 .157.037.274.114.35a.4.4 0 0 0 .295.115.54.54 0 0 0 .31-.088c.037-.023.069-.042.093-.06.027-.02.05-.03.07-.03.035 0 .066.022.093.064l.192.314a1.25 1.25 0 0 1-.41.25c-.16.06-.326.09-.495.09Zm3.838-3.184a.146.146 0 0 1-.137.082.257.257 0 0 1-.125-.041 2.202 2.202 0 0 0-.414-.181 1.111 1.111 0 0 0-.332-.044c-.111 0-.21.014-.3.044a.716.716 0 0 0-.228.114.465.465 0 0 0-.192.384c0 .097.027.177.08.24.057.065.131.12.222.167.092.047.195.089.31.126.117.034.235.072.355.114.124.04.243.084.359.133.115.05.219.11.31.185a.818.818 0 0 1 .303.657c0 .173-.03.333-.092.48a1.065 1.065 0 0 1-.274.381c-.12.106-.268.19-.443.251a1.82 1.82 0 0 1-.606.093 1.827 1.827 0 0 1-1.249-.454l.156-.252a.224.224 0 0 1 .07-.074.198.198 0 0 1 .107-.026c.044 0 .091.017.14.052.05.034.109.073.178.114.071.042.156.08.254.115.101.035.227.052.377.052.128 0 .24-.016.337-.048a.731.731 0 0 0 .24-.137.587.587 0 0 0 .189-.432.38.38 0 0 0-.086-.255.648.648 0 0 0-.218-.174 1.605 1.605 0 0 0-.314-.125l-.358-.115a4.85 4.85 0 0 1-.359-.133 1.317 1.317 0 0 1-.31-.192.889.889 0 0 1-.222-.28.944.944 0 0 1-.081-.41c0-.143.03-.28.089-.41a.99.99 0 0 1 .258-.348c.114-.1.253-.181.418-.24a1.67 1.67 0 0 1 .565-.089c.246 0 .467.04.661.118.197.077.367.183.51.318l-.148.24Z"/><path fill="#F4F4F4" d="M14.407 51.82a3.759 3.759 0 0 1-1.083-.315 3.071 3.071 0 0 1-.857-.586l.374-.557a.369.369 0 0 1 .128-.118.334.334 0 0 1 .173-.05c.072 0 .149.027.231.08.082.049.176.108.28.177.106.069.226.138.36.207.135.069.294.12.478.153l.187-2.207a7.828 7.828 0 0 1-.694-.231 2.415 2.415 0 0 1-.616-.35 1.677 1.677 0 0 1-.438-.557c-.112-.223-.168-.502-.168-.837 0-.25.05-.492.148-.729a1.97 1.97 0 0 1 .438-.64c.19-.187.426-.342.705-.463.279-.122.599-.19.96-.207l.054-.62a.344.344 0 0 1 .099-.212.304.304 0 0 1 .231-.094h.449l-.084.97c.348.056.648.155.901.296s.473.3.66.477l-.295.449a.608.608 0 0 1-.138.148.28.28 0 0 1-.168.049.465.465 0 0 1-.177-.045l-.232-.113a3.934 3.934 0 0 0-.285-.138 1.993 1.993 0 0 0-.35-.113l-.172 2.039c.236.072.47.153.7.241.232.086.44.197.625.335.187.138.338.31.453.517.115.204.172.46.172.769 0 .305-.05.592-.152.862a2.114 2.114 0 0 1-.449.709c-.193.203-.433.37-.719.497a2.88 2.88 0 0 1-.98.232l-.06.724a.34.34 0 0 1-.098.207.297.297 0 0 1-.231.098h-.448l.088-1.054Zm1.897-2.088a.72.72 0 0 0-.07-.325.73.73 0 0 0-.187-.251 1.161 1.161 0 0 0-.28-.187 2.952 2.952 0 0 0-.355-.143l-.167 2c.348-.046.61-.163.788-.35.18-.19.27-.439.27-.744Zm-2.394-3.221a.8.8 0 0 0 .241.586c.08.072.171.138.276.197.105.056.22.107.345.153l.153-1.823a1.7 1.7 0 0 0-.463.118.996.996 0 0 0-.316.198.757.757 0 0 0-.182.265.854.854 0 0 0-.054.306Zm6.995-1.936c.328 0 .629.05.901.148.273.095.506.231.7.409.193.177.344.39.453.64.108.25.162.527.162.832 0 .263-.04.506-.118.73a2.879 2.879 0 0 1-.31.64c-.128.203-.28.4-.454.59-.174.191-.356.385-.546.582l-1.606 1.64a3.642 3.642 0 0 1 .897-.143h1.827a.42.42 0 0 1 .31.113.375.375 0 0 1 .118.291v.729h-4.886v-.404c0-.082.017-.167.05-.256a.745.745 0 0 1 .167-.246l2.162-2.167c.181-.184.342-.36.483-.527.145-.168.264-.334.36-.498.098-.164.172-.33.221-.497.053-.171.079-.35.079-.537 0-.171-.025-.32-.074-.448a.88.88 0 0 0-.212-.33.86.86 0 0 0-.33-.197 1.219 1.219 0 0 0-.423-.07c-.292 0-.534.075-.724.222a1.167 1.167 0 0 0-.394.596.508.508 0 0 1-.163.271.457.457 0 0 1-.276.079.99.99 0 0 1-.162-.015l-.64-.113c.049-.342.144-.64.285-.897.141-.259.317-.474.527-.645.214-.174.457-.303.73-.389.275-.088.57-.133.886-.133Zm3.241 6.452c0-.092.017-.177.05-.256a.645.645 0 0 1 .147-.212.765.765 0 0 1 .517-.197.72.72 0 0 1 .326.07.63.63 0 0 1 .231.182.732.732 0 0 1 .138.266c.03.098.044.203.044.315 0 .157-.024.323-.073.497a2.468 2.468 0 0 1-.207.522 3.05 3.05 0 0 1-.803.96l-.212-.191a.228.228 0 0 1-.089-.182c0-.027.009-.056.025-.09a.45.45 0 0 1 .069-.088l.133-.148c.052-.055.105-.121.158-.197.052-.072.1-.152.142-.241a.983.983 0 0 0 .099-.276.715.715 0 0 1-.28-.054.72.72 0 0 1-.223-.158.782.782 0 0 1-.142-.231.83.83 0 0 1-.05-.29Zm4.774.828c-.368 0-.704-.05-1.01-.148a2.327 2.327 0 0 1-.778-.419 1.908 1.908 0 0 1-.507-.655 2.021 2.021 0 0 1-.177-.857c0-.42.103-.775.31-1.064.207-.292.529-.509.965-.65-.348-.144-.609-.35-.783-.615-.17-.266-.256-.587-.256-.96 0-.27.054-.521.163-.754.111-.233.265-.435.463-.606.197-.174.431-.309.704-.404.276-.099.578-.148.906-.148.328 0 .629.05.901.148.276.095.513.23.71.404a1.794 1.794 0 0 1 .625 1.36c0 .373-.087.694-.26.96-.175.266-.434.47-.779.615.437.142.758.358.965.65.207.29.31.644.31 1.064 0 .316-.06.601-.181.857a1.857 1.857 0 0 1-.503.655 2.32 2.32 0 0 1-.783.419 3.228 3.228 0 0 1-1.005.148Zm0-.95c.2 0 .376-.029.527-.084.151-.06.278-.14.38-.242a.971.971 0 0 0 .236-.364c.052-.142.079-.294.079-.458 0-.391-.109-.687-.325-.887-.217-.2-.516-.3-.897-.3-.38 0-.68.1-.896.3-.217.2-.325.496-.325.887 0 .164.026.316.078.458.053.141.13.262.232.364.105.102.233.182.384.242.151.055.327.083.527.083Zm0-3.29c.197 0 .363-.032.498-.095a.889.889 0 0 0 .325-.246.938.938 0 0 0 .172-.354 1.59 1.59 0 0 0 .054-.414 1.15 1.15 0 0 0-.064-.384.904.904 0 0 0-.192-.32.902.902 0 0 0-.325-.227 1.192 1.192 0 0 0-.468-.084c-.18 0-.336.028-.468.084a.907.907 0 0 0-.522.547c-.04.121-.059.25-.059.384 0 .141.017.279.05.414.035.131.095.25.177.354a.89.89 0 0 0 .325.246c.134.063.3.094.497.094Zm5.921-3.04c.329 0 .63.05.902.148.272.095.505.231.699.409.194.177.345.39.453.64.108.25.163.527.163.832 0 .263-.04.506-.118.73a2.883 2.883 0 0 1-.31.64c-.129.203-.28.4-.454.59-.174.191-.356.385-.547.582l-1.605 1.64a3.642 3.642 0 0 1 .896-.143h1.827a.42.42 0 0 1 .31.113.375.375 0 0 1 .119.291v.729H32.29v-.404c0-.082.016-.167.05-.256a.745.745 0 0 1 .167-.246l2.162-2.167c.18-.184.341-.36.483-.527.144-.168.264-.334.36-.498.098-.164.172-.33.22-.497.053-.171.08-.35.08-.537 0-.171-.025-.32-.074-.448a.88.88 0 0 0-.212-.33.86.86 0 0 0-.33-.197 1.219 1.219 0 0 0-.424-.07c-.292 0-.533.075-.724.222a1.167 1.167 0 0 0-.394.596.509.509 0 0 1-.162.271.457.457 0 0 1-.276.079.99.99 0 0 1-.163-.015l-.64-.113c.05-.342.145-.64.286-.897.14-.259.317-.474.527-.645.213-.174.456-.303.729-.389.276-.088.571-.133.886-.133Zm5.926 0c.329 0 .624.048.887.143.266.092.492.222.68.39a1.724 1.724 0 0 1 .581 1.305c0 .226-.027.426-.08.6a1.331 1.331 0 0 1-.575.773 2.098 2.098 0 0 1-.473.222c.427.135.745.34.955.616.21.276.316.622.316 1.039 0 .355-.066.668-.197.94a2.048 2.048 0 0 1-.532.69 2.338 2.338 0 0 1-.779.419 2.99 2.99 0 0 1-.93.143c-.358 0-.67-.041-.936-.123a2.033 2.033 0 0 1-1.197-.956 3.984 3.984 0 0 1-.355-.808l.537-.221a.707.707 0 0 1 .28-.06c.086 0 .162.019.227.055a.366.366 0 0 1 .158.157c.06.115.123.228.192.34.072.112.158.212.256.3.099.086.214.157.345.212.135.053.294.08.478.08.207 0 .387-.034.542-.1a1.18 1.18 0 0 0 .384-.265c.105-.108.182-.228.231-.36.053-.134.079-.27.079-.404 0-.17-.018-.325-.054-.462a.69.69 0 0 0-.227-.36 1.232 1.232 0 0 0-.497-.232c-.214-.055-.501-.083-.862-.083v-.867c.299-.004.547-.031.744-.084.197-.052.352-.125.468-.217a.751.751 0 0 0 .246-.34c.046-.13.069-.275.069-.433 0-.338-.092-.593-.276-.763-.184-.174-.435-.261-.754-.261-.289 0-.528.077-.719.231-.19.151-.323.346-.399.586a.552.552 0 0 1-.162.271.435.435 0 0 1-.271.079c-.053 0-.109-.005-.168-.015l-.64-.113c.05-.342.145-.64.286-.897.14-.259.317-.474.527-.645.213-.174.456-.303.729-.389.276-.088.571-.133.886-.133Zm3.129 6.452a.66.66 0 0 1 .049-.256.647.647 0 0 1 .148-.212.765.765 0 0 1 .517-.197.72.72 0 0 1 .325.07.63.63 0 0 1 .231.182.73.73 0 0 1 .138.266c.03.098.045.203.045.315 0 .157-.025.323-.074.497a2.458 2.458 0 0 1-.207.522 3.037 3.037 0 0 1-.803.96l-.212-.191a.228.228 0 0 1-.088-.182c0-.027.008-.056.024-.09a.454.454 0 0 1 .07-.088c.035-.04.08-.088.132-.148a1.72 1.72 0 0 0 .158-.197c.052-.072.1-.152.143-.241a.983.983 0 0 0 .098-.276.716.716 0 0 1-.28-.054.72.72 0 0 1-.222-.158.782.782 0 0 1-.143-.231.832.832 0 0 1-.05-.29Zm6.788-5.856a.565.565 0 0 1-.167.424c-.109.108-.291.162-.547.162h-1.96l-.257 1.488c.322-.066.616-.099.882-.099.374 0 .703.056.985.168.286.111.525.266.72.463.193.197.34.428.438.694.098.263.147.547.147.852 0 .378-.067.723-.201 1.035-.132.311-.316.58-.552.802-.237.22-.517.39-.843.513a2.957 2.957 0 0 1-1.054.182c-.223 0-.435-.023-.635-.07-.2-.045-.39-.106-.566-.181a3.638 3.638 0 0 1-.488-.266 3.333 3.333 0 0 1-.399-.32l.374-.518a.367.367 0 0 1 .316-.167c.082 0 .164.026.246.079.085.052.184.11.295.172.112.063.242.12.39.172.147.053.326.08.536.08.224 0 .42-.037.591-.11.171-.072.312-.172.424-.3.115-.131.2-.285.256-.463.06-.18.089-.375.089-.586 0-.387-.113-.69-.34-.906-.223-.22-.553-.33-.99-.33-.345 0-.691.063-1.04.187l-.758-.216.591-3.458h3.517v.517Zm4.241 2.157c.27 0 .53.045.783.133.257.09.482.224.675.404.194.178.35.4.468.665.118.266.177.576.177.931 0 .331-.06.644-.182.936a2.301 2.301 0 0 1-1.31 1.27c-.308.125-.65.188-1.024.188-.381 0-.723-.06-1.025-.182a2.254 2.254 0 0 1-.773-.508 2.266 2.266 0 0 1-.493-.788 3 3 0 0 1-.167-1.024c0-.335.067-.678.202-1.03.138-.354.35-.722.635-1.103l1.7-2.28a.71.71 0 0 1 .255-.202.892.892 0 0 1 .395-.084h1.083l-2.113 2.586a7.17 7.17 0 0 1-.133.157c-.04.05-.079.1-.118.153.138-.069.286-.123.443-.162.161-.04.335-.06.522-.06Zm-1.704 2.212c0 .197.027.378.079.542.056.16.136.299.241.413.109.115.242.206.4.271.157.063.34.094.546.094.194 0 .371-.033.532-.099a1.266 1.266 0 0 0 .694-.69c.066-.16.099-.334.099-.521 0-.204-.031-.386-.094-.547a1.123 1.123 0 0 0-.68-.675 1.53 1.53 0 0 0-.531-.088c-.194 0-.37.032-.527.098a1.22 1.22 0 0 0-.41.276 1.225 1.225 0 0 0-.26.414c-.06.157-.089.328-.089.512Zm5.542 1.325h1.443v-4.152c0-.161.005-.33.015-.508l-1.024.857a.36.36 0 0 1-.133.074.434.434 0 0 1-.31-.02.359.359 0 0 1-.119-.098l-.384-.527 2.172-1.847h1v6.22h1.28v.912h-3.94v-.911Z"/><path fill="#9F9F9F" d="M127.755 35.905h2.29v.602h-3.007v-5.293h.717v4.691Zm5.797.602h-.292a.35.35 0 0 1-.155-.03c-.039-.019-.065-.06-.077-.125l-.074-.347a5.002 5.002 0 0 1-.288.24 1.812 1.812 0 0 1-.296.178 1.58 1.58 0 0 1-.332.107 1.873 1.873 0 0 1-.388.036c-.146 0-.282-.02-.41-.059a.947.947 0 0 1-.329-.184.879.879 0 0 1-.225-.307 1.116 1.116 0 0 1-.081-.443c0-.148.04-.29.121-.425.081-.138.212-.26.392-.366.182-.106.42-.192.713-.258a5.318 5.318 0 0 1 1.075-.118v-.292c0-.29-.063-.51-.188-.658-.124-.15-.307-.225-.551-.225-.16 0-.296.02-.406.063-.109.039-.203.085-.285.136a5.46 5.46 0 0 0-.207.137.293.293 0 0 1-.169.06.216.216 0 0 1-.119-.034.285.285 0 0 1-.077-.089l-.119-.21c.207-.2.43-.349.669-.447.239-.099.504-.148.794-.148.209 0 .396.034.558.103a1.141 1.141 0 0 1 .661.735c.057.175.085.367.085.577v2.393Zm-1.706-.402c.115 0 .221-.011.317-.033.096-.025.186-.058.27-.1.086-.044.167-.098.244-.159.078-.062.155-.132.229-.21v-.78c-.303.01-.56.034-.772.074a2.113 2.113 0 0 0-.517.148.734.734 0 0 0-.292.218.477.477 0 0 0-.089.28.62.62 0 0 0 .048.255c.032.072.075.13.129.177a.553.553 0 0 0 .192.1c.074.02.155.03.241.03Zm4.919-2.723a.146.146 0 0 1-.137.082.253.253 0 0 1-.125-.041 2.248 2.248 0 0 0-.414-.181 1.112 1.112 0 0 0-.333-.044c-.11 0-.21.014-.299.044a.71.71 0 0 0-.229.114.54.54 0 0 0-.144.174.465.465 0 0 0-.048.21.36.36 0 0 0 .081.24c.057.065.131.12.222.167.091.047.194.089.31.126.116.034.234.072.355.114.123.04.243.084.358.133.116.05.219.11.311.185a.815.815 0 0 1 .217.273.8.8 0 0 1 .086.384c0 .173-.032.333-.093.48a1.078 1.078 0 0 1-.273.381c-.121.106-.269.19-.444.251a1.822 1.822 0 0 1-.606.093 1.824 1.824 0 0 1-1.248-.454l.155-.252a.229.229 0 0 1 .07-.074.2.2 0 0 1 .107-.026.25.25 0 0 1 .141.052c.049.034.108.073.177.114.071.042.157.08.255.115.101.035.227.052.377.052.128 0 .24-.016.336-.048a.73.73 0 0 0 .24-.137.522.522 0 0 0 .141-.196.588.588 0 0 0 .047-.236.382.382 0 0 0-.084-.255.652.652 0 0 0-.219-.174 1.595 1.595 0 0 0-.313-.125 185.74 185.74 0 0 1-.359-.115 4.754 4.754 0 0 1-.358-.133 1.307 1.307 0 0 1-.31-.192.897.897 0 0 1-.222-.28.947.947 0 0 1-.081-.41.97.97 0 0 1 .089-.41.989.989 0 0 1 .258-.348c.113-.1.252-.181.417-.24.165-.06.354-.089.566-.089.246 0 .466.04.661.118.197.077.367.183.509.318l-.147.24Zm2.268 3.184c-.295 0-.523-.082-.683-.247-.157-.165-.236-.403-.236-.713v-2.29h-.451a.154.154 0 0 1-.1-.034c-.027-.024-.04-.061-.04-.11v-.263l.613-.077.151-1.156a.133.133 0 0 1 .048-.089.15.15 0 0 1 .104-.037h.332v1.29h1.072v.476h-1.072v2.246c0 .157.038.274.115.35a.398.398 0 0 0 .295.115.537.537 0 0 0 .31-.088 1.74 1.74 0 0 0 .093-.06c.027-.02.05-.03.07-.03.034 0 .065.022.093.064l.192.314c-.114.106-.251.19-.411.25-.16.06-.325.09-.495.09Zm4.95-5.411c.224 0 .431.032.62.096.19.064.353.155.488.273.138.118.245.261.322.429.076.167.114.353.114.558 0 .167-.022.317-.067.45a1.056 1.056 0 0 1-.472.599c-.114.069-.24.124-.381.166.345.09.604.244.776.458.175.214.262.483.262.805a1.506 1.506 0 0 1-.517 1.156c-.16.136-.347.24-.561.314a2.13 2.13 0 0 1-.684.107c-.28 0-.521-.034-.72-.103a1.513 1.513 0 0 1-.506-.292 1.56 1.56 0 0 1-.34-.436 3.264 3.264 0 0 1-.225-.55l.28-.118a.394.394 0 0 1 .155-.034c.05 0 .093.012.13.034.039.02.069.051.089.096l.014.033.015.033c.035.072.076.153.126.244a1.049 1.049 0 0 0 .51.45c.125.055.28.082.465.082s.346-.03.484-.089c.14-.061.256-.14.347-.236a.983.983 0 0 0 .281-.672c0-.143-.02-.274-.059-.392a.656.656 0 0 0-.207-.306 1.055 1.055 0 0 0-.414-.204c-.175-.049-.4-.074-.676-.074v-.476c.224-.003.415-.027.572-.074.161-.047.291-.11.392-.192a.694.694 0 0 0 .218-.292.974.974 0 0 0 .07-.377.981.981 0 0 0-.074-.399.735.735 0 0 0-.195-.28.828.828 0 0 0-.3-.167 1.18 1.18 0 0 0-.369-.055c-.133 0-.256.02-.369.06a.989.989 0 0 0-.303.165.918.918 0 0 0-.218.252c-.059.095-.104.2-.133.313a.293.293 0 0 1-.089.156.231.231 0 0 1-.151.048h-.041a.71.71 0 0 0-.044-.008l-.344-.059c.035-.241.101-.454.2-.639.098-.187.223-.343.373-.469.153-.126.326-.22.52-.285.197-.066.409-.1.636-.1Zm6.132 2.707c0 .463-.05.865-.151 1.205a2.486 2.486 0 0 1-.406.838 1.643 1.643 0 0 1-.613.495 1.77 1.77 0 0 1-.754.163c-.271 0-.523-.054-.757-.163a1.646 1.646 0 0 1-.606-.495 2.487 2.487 0 0 1-.407-.838 4.374 4.374 0 0 1-.147-1.205c0-.462.049-.864.147-1.204.099-.34.234-.62.407-.842.172-.224.374-.39.606-.499a1.78 1.78 0 0 1 .757-.162c.269 0 .52.054.754.162.236.109.44.275.613.499.172.222.308.502.406.842.101.34.151.742.151 1.204Zm-.683 0a4.23 4.23 0 0 0-.103-1.015 1.993 1.993 0 0 0-.274-.665 1.003 1.003 0 0 0-.395-.359 1.047 1.047 0 0 0-.938 0 .997.997 0 0 0-.395.359 2.08 2.08 0 0 0-.274.665c-.066.273-.1.612-.1 1.015 0 .404.034.743.1 1.016.069.274.16.494.274.662.113.167.244.288.395.362a1.08 1.08 0 0 0 .938 0c.15-.074.282-.195.395-.362.116-.168.207-.388.274-.662a4.23 4.23 0 0 0 .103-1.016Zm7.713 0c0 .397-.063.758-.189 1.083a2.393 2.393 0 0 1-.532.835 2.39 2.39 0 0 1-.823.539 2.89 2.89 0 0 1-1.064.188h-1.98v-5.293h1.98c.389 0 .744.064 1.064.192.32.126.594.305.823.54.229.23.407.51.532.834.126.325.189.686.189 1.082Zm-.735 0c0-.325-.045-.615-.133-.871a1.85 1.85 0 0 0-.377-.65 1.615 1.615 0 0 0-.591-.407 2.045 2.045 0 0 0-.772-.14h-1.26v4.134h1.26c.283 0 .54-.047.772-.14.231-.094.428-.229.591-.403.162-.178.288-.395.377-.65.088-.257.133-.547.133-.873Zm4.428 2.645h-.292a.35.35 0 0 1-.155-.03c-.039-.019-.065-.06-.077-.125l-.074-.347a4.683 4.683 0 0 1-.288.24 1.812 1.812 0 0 1-.296.178 1.58 1.58 0 0 1-.332.107 1.873 1.873 0 0 1-.388.036c-.145 0-.282-.02-.41-.059a.891.891 0 0 1-.554-.491 1.116 1.116 0 0 1-.081-.443c0-.148.04-.29.121-.425.082-.138.212-.26.392-.366.182-.106.42-.192.713-.258a5.318 5.318 0 0 1 1.075-.118v-.292c0-.29-.063-.51-.188-.658-.124-.15-.307-.225-.551-.225-.16 0-.296.02-.406.063-.109.039-.203.085-.285.136-.078.05-.147.095-.206.137a.299.299 0 0 1-.17.06.216.216 0 0 1-.119-.034.285.285 0 0 1-.077-.089l-.119-.21c.207-.2.43-.349.669-.447.239-.099.504-.148.794-.148.21 0 .396.034.558.103a1.141 1.141 0 0 1 .661.735c.057.175.085.367.085.577v2.393Zm-1.706-.402c.116 0 .221-.011.318-.033a1.349 1.349 0 0 0 .513-.259c.079-.062.155-.132.229-.21v-.78c-.303.01-.56.034-.772.074a2.113 2.113 0 0 0-.517.148.734.734 0 0 0-.292.218.477.477 0 0 0-.089.28.62.62 0 0 0 .048.255c.032.072.075.13.129.177a.562.562 0 0 0 .192.1c.074.02.155.03.241.03Zm3.758 1.507a.324.324 0 0 1-.085.118c-.032.03-.083.045-.152.045h-.487l.683-1.486-1.544-3.524h.569c.057 0 .101.015.133.045a.252.252 0 0 1 .07.092l1.002 2.357c.022.054.04.108.055.162.017.055.032.11.044.167a6.05 6.05 0 0 1 .111-.333l.972-2.353a.196.196 0 0 1 .074-.096.193.193 0 0 1 .118-.04h.524l-2.087 4.846Zm4.9-4.23a.145.145 0 0 1-.137.082.253.253 0 0 1-.125-.041 2.248 2.248 0 0 0-.414-.181 1.117 1.117 0 0 0-.333-.044c-.11 0-.21.014-.299.044a.721.721 0 0 0-.229.114.554.554 0 0 0-.144.174.465.465 0 0 0-.048.21c0 .097.027.177.082.24.056.065.13.12.221.167.091.047.195.089.311.126a8.887 8.887 0 0 1 .712.247c.116.05.219.11.311.185a.817.817 0 0 1 .302.657c0 .173-.03.333-.092.48a1.054 1.054 0 0 1-.273.381c-.121.106-.268.19-.443.251a1.822 1.822 0 0 1-.606.093 1.83 1.83 0 0 1-1.249-.454l.155-.252a.229.229 0 0 1 .07-.074.199.199 0 0 1 .108-.026c.044 0 .091.017.14.052.049.034.108.073.177.114.072.042.157.08.255.115.101.035.227.052.377.052.128 0 .24-.016.336-.048a.73.73 0 0 0 .24-.137.522.522 0 0 0 .141-.196.588.588 0 0 0 .048-.236.383.383 0 0 0-.085-.255.658.658 0 0 0-.218-.174 1.605 1.605 0 0 0-.314-.125l-.358-.115a4.777 4.777 0 0 1-.359-.133 1.307 1.307 0 0 1-.31-.192.897.897 0 0 1-.222-.28.947.947 0 0 1-.081-.41 1.004 1.004 0 0 1 .347-.757c.113-.102.253-.182.418-.241.165-.06.353-.089.565-.089.246 0 .467.04.661.118.197.077.367.183.51.318l-.148.24Zm3.512 1.208-1.259-1.825h.631c.055 0 .094.009.119.026a.258.258 0 0 1 .066.074l.916 1.404a.956.956 0 0 1 .096-.207l.806-1.182a.402.402 0 0 1 .073-.081.135.135 0 0 1 .093-.034h.606l-1.26 1.788 1.312 1.954h-.632a.193.193 0 0 1-.129-.04.423.423 0 0 1-.074-.096l-.942-1.467a.676.676 0 0 1-.078.192l-.872 1.275a.686.686 0 0 1-.081.096c-.027.027-.065.04-.115.04h-.587l1.311-1.917Zm4.945 1.415h1.138v-3.609c0-.108.004-.218.011-.329l-.946.81a.288.288 0 0 1-.073.043.252.252 0 0 1-.071.012.215.215 0 0 1-.099-.023.196.196 0 0 1-.067-.059l-.207-.284 1.574-1.363h.535v4.802h1.042v.502h-2.837v-.502Zm5.52-4.85c.224 0 .433.033.628.1.194.066.362.163.502.291.143.126.255.28.336.462.081.182.122.39.122.62 0 .198-.029.38-.088.547-.059.168-.14.33-.241.484a3.615 3.615 0 0 1-.35.447c-.131.143-.27.29-.418.44l-1.392 1.426a2.486 2.486 0 0 1 .591-.089h1.773a.23.23 0 0 1 .17.063.223.223 0 0 1 .062.163v.398h-3.531v-.225c0-.047.009-.095.026-.144a.394.394 0 0 1 .092-.137l1.696-1.703c.14-.142.268-.28.384-.41.116-.133.214-.266.295-.399.084-.133.148-.267.192-.402.045-.138.067-.285.067-.44 0-.155-.025-.29-.074-.406a.785.785 0 0 0-.506-.462 1.15 1.15 0 0 0-.373-.059c-.133 0-.256.02-.369.06a.989.989 0 0 0-.651.73.292.292 0 0 1-.088.156.239.239 0 0 1-.155.048h-.041a.757.757 0 0 0-.045-.008l-.343-.059c.035-.241.101-.454.2-.639.098-.187.222-.343.372-.469a1.61 1.61 0 0 1 .521-.285c.198-.066.409-.1.636-.1Zm7.546.059v.584h-2.541v1.85h2.172v.584h-2.172v2.275h-.721v-5.293h3.262Zm3.186 2.216a.27.27 0 0 1-.059.063.14.14 0 0 1-.085.022.226.226 0 0 1-.122-.044 1.297 1.297 0 0 0-.406-.203 1.084 1.084 0 0 0-.347-.048c-.183 0-.344.033-.484.1a.933.933 0 0 0-.355.28 1.312 1.312 0 0 0-.214.447c-.047.175-.07.37-.07.588 0 .226.025.428.077.605.052.175.125.323.218.444.094.118.207.209.34.273.136.062.287.092.454.092a1.2 1.2 0 0 0 .396-.055c.103-.04.189-.083.258-.13.069-.046.126-.088.17-.125a.204.204 0 0 1 .133-.059c.057 0 .099.02.126.063l.185.24c-.163.2-.366.346-.61.44a2.188 2.188 0 0 1-.772.136c-.234 0-.452-.043-.654-.13a1.5 1.5 0 0 1-.521-.372 1.817 1.817 0 0 1-.351-.606 2.453 2.453 0 0 1-.126-.816c0-.279.039-.536.115-.773.079-.236.192-.44.34-.609.15-.172.335-.307.554-.403.219-.096.471-.144.754-.144.261 0 .492.043.694.13.202.083.38.203.536.358l-.174.236Zm2.104 3.136c-.295 0-.523-.082-.683-.247-.158-.165-.237-.403-.237-.713v-2.29h-.45a.152.152 0 0 1-.1-.034c-.027-.024-.041-.061-.041-.11v-.263l.613-.077.152-1.156a.133.133 0 0 1 .048-.089.148.148 0 0 1 .103-.037h.333v1.29h1.071v.476h-1.071v2.246c0 .157.038.274.115.35a.398.398 0 0 0 .295.115.537.537 0 0 0 .31-.088 1.74 1.74 0 0 0 .093-.06c.027-.02.05-.03.07-.03.034 0 .065.022.092.064l.192.314c-.113.106-.25.19-.41.25-.16.06-.325.09-.495.09Zm3.839-3.184a.146.146 0 0 1-.137.082.253.253 0 0 1-.125-.041 2.248 2.248 0 0 0-.414-.181 1.112 1.112 0 0 0-.333-.044c-.11 0-.21.014-.299.044a.71.71 0 0 0-.229.114.54.54 0 0 0-.144.174.465.465 0 0 0-.048.21.36.36 0 0 0 .081.24c.057.065.131.12.222.167.091.047.194.089.31.126.116.034.234.072.355.114.123.04.243.084.358.133.116.05.219.11.311.185a.815.815 0 0 1 .217.273.8.8 0 0 1 .086.384c0 .173-.032.333-.093.48a1.078 1.078 0 0 1-.273.381c-.121.106-.269.19-.444.251a1.822 1.822 0 0 1-.606.093 1.824 1.824 0 0 1-1.248-.454l.155-.252a.229.229 0 0 1 .07-.074.2.2 0 0 1 .107-.026.25.25 0 0 1 .141.052c.049.034.108.073.177.114.071.042.157.08.255.115.101.035.227.052.377.052.128 0 .24-.016.336-.048a.73.73 0 0 0 .24-.137.522.522 0 0 0 .141-.196.588.588 0 0 0 .047-.236.382.382 0 0 0-.084-.255.652.652 0 0 0-.219-.174 1.595 1.595 0 0 0-.313-.125 185.74 185.74 0 0 1-.359-.115 4.754 4.754 0 0 1-.358-.133 1.307 1.307 0 0 1-.31-.192.897.897 0 0 1-.222-.28.947.947 0 0 1-.081-.41.97.97 0 0 1 .089-.41.989.989 0 0 1 .258-.348c.113-.1.252-.181.417-.24.165-.06.354-.089.566-.089.246 0 .466.04.661.118.197.077.367.183.509.318l-.147.24Z"/><path fill="#F4F4F4" d="M128.676 51.82a3.77 3.77 0 0 1-1.084-.315 3.078 3.078 0 0 1-.857-.586l.375-.557a.374.374 0 0 1 .128-.118.334.334 0 0 1 .172-.05c.073 0 .15.027.232.08.082.049.175.108.28.177.106.069.225.138.36.207.135.069.294.12.478.153l.187-2.207a7.86 7.86 0 0 1-.695-.231 2.421 2.421 0 0 1-.615-.35 1.678 1.678 0 0 1-.439-.557c-.111-.223-.167-.502-.167-.837 0-.25.049-.492.148-.729.102-.24.248-.453.438-.64.191-.187.426-.342.704-.463.28-.122.6-.19.961-.207l.054-.62a.346.346 0 0 1 .098-.212.307.307 0 0 1 .232-.094h.448l-.084.97c.349.056.649.155.902.296s.473.3.66.477l-.296.449a.59.59 0 0 1-.138.148.277.277 0 0 1-.167.049.464.464 0 0 1-.177-.045l-.232-.113a3.715 3.715 0 0 0-.286-.138 1.987 1.987 0 0 0-.349-.113l-.173 2.039c.237.072.47.153.7.241.233.086.442.197.625.335.187.138.339.31.453.517.116.204.173.46.173.769 0 .305-.051.592-.153.862a2.102 2.102 0 0 1-.448.709c-.194.203-.434.37-.719.497a2.879 2.879 0 0 1-.98.232l-.06.724a.337.337 0 0 1-.098.207.296.296 0 0 1-.231.098h-.449l.089-1.054Zm1.896-2.088a.706.706 0 0 0-.069-.325.724.724 0 0 0-.187-.251 1.155 1.155 0 0 0-.281-.187 2.915 2.915 0 0 0-.354-.143l-.168 2c.348-.046.611-.163.788-.35.181-.19.271-.439.271-.744Zm-2.394-3.221a.794.794 0 0 0 .242.586c.079.072.171.138.276.197.105.056.22.107.344.153l.153-1.823c-.18.023-.335.063-.463.118a.994.994 0 0 0-.315.198.751.751 0 0 0-.237.57Zm6.995-1.936c.329 0 .629.05.902.148.272.095.506.231.699.409.194.177.345.39.453.64.109.25.163.527.163.832 0 .263-.039.506-.118.73a2.873 2.873 0 0 1-.311.64c-.128.203-.279.4-.453.59-.174.191-.356.385-.546.582l-1.606 1.64a3.62 3.62 0 0 1 .896-.143h1.828a.42.42 0 0 1 .31.113.374.374 0 0 1 .118.291v.729h-4.886v-.404a.73.73 0 0 1 .049-.256.753.753 0 0 1 .168-.246l2.162-2.167c.181-.184.341-.36.483-.527.144-.168.264-.334.359-.498.099-.164.173-.33.222-.497a1.8 1.8 0 0 0 .079-.537c0-.171-.025-.32-.074-.448a.875.875 0 0 0-.212-.33.86.86 0 0 0-.33-.197 1.215 1.215 0 0 0-.423-.07c-.293 0-.534.075-.724.222a1.166 1.166 0 0 0-.395.596.503.503 0 0 1-.162.271.456.456 0 0 1-.276.079.985.985 0 0 1-.162-.015l-.641-.113c.05-.342.145-.64.286-.897.141-.259.317-.474.527-.645.213-.174.457-.303.729-.389a2.88 2.88 0 0 1 .886-.133Zm3.242 6.452c0-.092.017-.177.05-.256a.648.648 0 0 1 .374-.354.765.765 0 0 1 .291-.055c.124 0 .233.023.325.07a.633.633 0 0 1 .231.182.744.744 0 0 1 .138.266c.03.098.044.203.044.315 0 .157-.024.323-.074.497a2.513 2.513 0 0 1-.206.522 3.089 3.089 0 0 1-.803.96l-.212-.191a.229.229 0 0 1-.089-.182c0-.027.008-.056.025-.09a.436.436 0 0 1 .069-.088l.133-.148a1.85 1.85 0 0 0 .3-.438.994.994 0 0 0 .099-.276.715.715 0 0 1-.281-.054.72.72 0 0 1-.222-.158.78.78 0 0 1-.142-.231.827.827 0 0 1-.05-.29Zm7.316-6.373v.527c0 .158-.019.286-.055.384a2.213 2.213 0 0 1-.098.242l-2.694 5.555a.862.862 0 0 1-.237.296.66.66 0 0 1-.413.118h-.882l2.758-5.443c.115-.223.243-.415.384-.576h-3.408a.27.27 0 0 1-.197-.084.27.27 0 0 1-.084-.197v-.822h4.926Zm3.27 7.2c-.367 0-.704-.048-1.009-.147a2.319 2.319 0 0 1-.778-.419 1.913 1.913 0 0 1-.508-.655 2.024 2.024 0 0 1-.177-.857c0-.42.103-.775.31-1.064.207-.292.529-.509.966-.65-.348-.144-.609-.35-.784-.615-.17-.266-.256-.587-.256-.96 0-.27.055-.521.163-.754.112-.233.266-.435.463-.606.197-.174.432-.309.704-.404.276-.099.578-.148.906-.148.329 0 .629.05.902.148.276.095.512.23.709.404.197.17.35.372.458.606.112.233.168.484.168.753 0 .375-.087.695-.261.96-.174.267-.434.472-.779.616.437.142.759.358.966.65.207.29.31.644.31 1.064 0 .316-.061.601-.182.857a1.851 1.851 0 0 1-.503.655c-.216.181-.477.32-.783.419a3.228 3.228 0 0 1-1.005.148Zm0-.95c.201 0 .377-.028.528-.084.151-.059.277-.139.379-.24a.965.965 0 0 0 .236-.365c.053-.142.079-.294.079-.458 0-.391-.108-.687-.325-.887-.217-.2-.515-.3-.897-.3-.38 0-.679.1-.896.3-.217.2-.325.496-.325.887 0 .164.027.316.079.458.052.141.13.262.231.364.106.102.234.182.384.242.152.055.328.083.527.083Zm0-3.29c.198 0 .363-.031.498-.093a.885.885 0 0 0 .325-.247.927.927 0 0 0 .172-.354c.037-.135.055-.273.055-.414 0-.135-.022-.263-.064-.384a.903.903 0 0 0-.193-.32.893.893 0 0 0-.325-.227 1.19 1.19 0 0 0-.468-.084c-.18 0-.336.028-.467.084a.903.903 0 0 0-.523.547 1.25 1.25 0 0 0-.059.384c0 .141.017.279.05.414.036.131.095.25.177.354a.893.893 0 0 0 .325.246c.135.063.3.094.497.094Zm6.035-3.039c.329 0 .624.048.887.143.266.092.492.222.679.39a1.721 1.721 0 0 1 .582 1.305 2.1 2.1 0 0 1-.079.6 1.338 1.338 0 0 1-.577.773 2.08 2.08 0 0 1-.472.222c.427.135.745.34.955.616.21.276.315.622.315 1.039 0 .355-.065.668-.197.94a2.035 2.035 0 0 1-.532.69 2.329 2.329 0 0 1-.778.419 2.987 2.987 0 0 1-.931.143c-.358 0-.67-.041-.936-.123a2.04 2.04 0 0 1-1.196-.956 3.951 3.951 0 0 1-.355-.808l.537-.221a.709.709 0 0 1 .281-.06.46.46 0 0 1 .226.055.365.365 0 0 1 .158.157c.059.115.123.228.192.34a1.28 1.28 0 0 0 .601.512c.134.053.294.08.478.08.206 0 .387-.034.541-.1.154-.068.283-.157.384-.265.105-.108.183-.228.232-.36.053-.134.079-.27.079-.404 0-.17-.018-.325-.054-.462a.69.69 0 0 0-.227-.36 1.235 1.235 0 0 0-.497-.232c-.214-.055-.501-.083-.862-.083v-.867c.299-.004.546-.031.743-.084.197-.052.354-.125.468-.217a.754.754 0 0 0 .247-.34 1.33 1.33 0 0 0 .068-.433c0-.338-.092-.593-.275-.763-.184-.174-.435-.261-.754-.261-.289 0-.528.077-.719.231a1.177 1.177 0 0 0-.399.586.55.55 0 0 1-.163.271.431.431 0 0 1-.27.079c-.053 0-.109-.005-.168-.015l-.64-.113c.049-.342.144-.64.286-.897a2.118 2.118 0 0 1 1.255-1.034c.276-.088.572-.133.887-.133Zm3.128 6.452c0-.092.017-.177.049-.256a.666.666 0 0 1 .375-.354.76.76 0 0 1 .29-.055c.125 0 .234.023.325.07a.62.62 0 0 1 .232.182.744.744 0 0 1 .138.266c.029.098.044.203.044.315 0 .157-.024.323-.074.497a2.411 2.411 0 0 1-.207.522 3.02 3.02 0 0 1-.802.96l-.212-.191a.229.229 0 0 1-.089-.182c0-.027.008-.056.025-.09a.436.436 0 0 1 .069-.088l.133-.148a1.73 1.73 0 0 0 .157-.197 1.48 1.48 0 0 0 .143-.241.994.994 0 0 0 .099-.276.718.718 0 0 1-.281-.054.733.733 0 0 1-.222-.158.804.804 0 0 1-.143-.231.85.85 0 0 1-.049-.29Zm4.996-6.452c.328 0 .624.048.887.143.265.092.492.222.679.39.187.163.33.357.429.58.101.223.152.465.152.724 0 .227-.026.427-.078.601-.05.171-.124.32-.222.448a1.31 1.31 0 0 1-.355.325 2.1 2.1 0 0 1-.472.222c.426.135.745.34.955.616.21.276.315.622.315 1.039 0 .355-.066.668-.197.94a2.048 2.048 0 0 1-.532.69 2.329 2.329 0 0 1-.778.419 2.991 2.991 0 0 1-.931.143c-.358 0-.67-.041-.936-.123a2.03 2.03 0 0 1-1.196-.956 3.951 3.951 0 0 1-.355-.808l.537-.221a.7.7 0 0 1 .28-.06c.086 0 .161.019.227.055a.37.37 0 0 1 .158.157c.059.115.123.228.192.34a1.28 1.28 0 0 0 .601.512c.134.053.293.08.477.08.207 0 .388-.034.542-.1.154-.068.282-.157.384-.265a1.116 1.116 0 0 0 .311-.763c0-.172-.019-.326-.054-.464a.696.696 0 0 0-.227-.36 1.233 1.233 0 0 0-.498-.23c-.213-.056-.5-.084-.861-.084v-.867a3.08 3.08 0 0 0 .743-.084c.197-.052.353-.125.468-.217a.752.752 0 0 0 .246-.34c.046-.13.069-.275.069-.433 0-.338-.092-.593-.275-.763-.185-.174-.436-.261-.754-.261-.289 0-.529.077-.719.231a1.177 1.177 0 0 0-.399.586.55.55 0 0 1-.163.271.433.433 0 0 1-.27.079c-.053 0-.109-.005-.168-.015l-.64-.113c.049-.342.144-.64.285-.897.141-.259.317-.474.527-.645.214-.174.457-.303.729-.389.276-.088.572-.133.887-.133Zm5.344 4.36a2.12 2.12 0 0 1-.724-.129 1.882 1.882 0 0 1-.635-.384 1.96 1.96 0 0 1-.443-.64 2.222 2.222 0 0 1-.168-.897 2.261 2.261 0 0 1 .675-1.63c.214-.21.47-.376.768-.498.299-.121.629-.182.99-.182.365 0 .692.058.981.172.292.115.54.276.743.483.207.207.365.455.473.744.112.289.168.606.168.95 0 .22-.02.429-.059.626a3.086 3.086 0 0 1-.163.571c-.069.181-.153.358-.251.532-.099.171-.209.343-.33.517l-1.63 2.325a.662.662 0 0 1-.252.202.844.844 0 0 1-.374.079h-1.118l2.211-2.763a8.14 8.14 0 0 0 .301-.399 2.018 2.018 0 0 1-.542.241 2.402 2.402 0 0 1-.621.08Zm1.66-2.134c0-.193-.029-.366-.088-.517a1.055 1.055 0 0 0-.641-.63 1.365 1.365 0 0 0-.487-.084c-.184 0-.35.031-.498.094-.147.059-.274.142-.379.25a1.15 1.15 0 0 0-.236.39c-.056.148-.084.31-.084.488 0 .397.102.7.305.91.207.208.5.311.877.311.197 0 .371-.031.522-.093.155-.063.284-.148.389-.257.106-.108.184-.236.237-.384.056-.148.083-.307.083-.478Zm6.183 2.29h.896v.705a.259.259 0 0 1-.064.172c-.043.046-.105.07-.187.07h-.645v1.738h-1.064v-1.739h-3.005a.337.337 0 0 1-.335-.266l-.123-.615 3.374-4.507h1.153v4.443Zm-1.064-2.329a5.912 5.912 0 0 1 .044-.72l-2.211 3.05h2.167v-2.33Z"/><path fill="#2DB884" d="M68.88 47.667a.378.378 0 0 1 0-.534l2.141-2.142a.378.378 0 0 1 .535 0l2.142 2.142a.378.378 0 0 1-.534.534l-1.497-1.497v3.75a.378.378 0 0 1-.756 0v-3.75l-1.497 1.497a.378.378 0 0 1-.535 0ZM183.148 47.667a.378.378 0 0 1 0-.534l2.142-2.142a.378.378 0 0 1 .534 0l2.142 2.142a.377.377 0 0 1-.269.636.378.378 0 0 1-.265-.102l-1.497-1.497v3.75a.377.377 0 0 1-.756 0v-3.75l-1.497 1.497a.378.378 0 0 1-.534 0Z"/></g></g><rect width="203.5" height="65.5" x=".25" y=".25" stroke="#EDEDED" stroke-width=".5" rx="7.75"/><defs><clipPath id="a"><rect width="204" height="66" fill="#fff" rx="8"/></clipPath><clipPath id="b"><path fill="#fff" d="M.14 0H335.56v66H.14z"/></clipPath></defs></svg>