<svg xmlns="http://www.w3.org/2000/svg" width="204" height="158" fill="none"><g clip-path="url(#a)"><path fill="#2B2B2B" d="M610.407.079H4.469A4.344 4.344 0 0 0 .125 4.422v148.77a4.344 4.344 0 0 0 4.344 4.344h605.938a4.343 4.343 0 0 0 4.343-4.344V4.422A4.343 4.343 0 0 0 610.407.08Z"/><path stroke="#404040" stroke-width=".5" d="M601.583 88.716H13.291v.272h588.292v-.272ZM601.583 107.177H13.291v.271h588.292v-.271ZM601.583 125.637H13.291v.272h588.292v-.272ZM601.583 144.098H13.291v.271h588.292v-.271ZM601.583 70.256H13.291v.271h588.292v-.271ZM601.583 49.623H114.28v.272h487.303v-.272Z"/><path fill="#F4F4F4" d="M16.034 17.046c.26 0 .489-.03.684-.093.195-.065.358-.154.489-.268.13-.114.228-.25.293-.406.065-.16.098-.336.098-.528 0-.384-.127-.678-.382-.88-.254-.201-.638-.302-1.153-.302h-.928v2.477h.899Zm3.313 3.665h-1.021c-.202 0-.349-.078-.44-.234l-1.642-2.37a.54.54 0 0 0-.18-.176.625.625 0 0 0-.294-.054h-.635v2.834H13.99v-7.037h2.072c.463 0 .86.048 1.193.142.335.095.61.23.825.406.215.172.373.38.474.625.105.245.157.517.157.816 0 .245-.038.473-.113.684a1.848 1.848 0 0 1-.317.577 1.996 1.996 0 0 1-.509.45 2.59 2.59 0 0 1-.689.298c.14.084.261.203.362.356l1.9 2.683Zm3.695-3.054c0-.176-.026-.339-.078-.489a1.092 1.092 0 0 0-.22-.395.972.972 0 0 0-.367-.264 1.193 1.193 0 0 0-.498-.098c-.381 0-.681.109-.9.327-.218.218-.356.525-.415.919h2.478Zm-2.507.645c.013.283.057.53.132.738.075.205.174.376.298.513.127.137.277.24.45.308.175.065.37.098.586.098.205 0 .383-.023.533-.069a2.873 2.873 0 0 0 .674-.313.413.413 0 0 1 .215-.073c.085 0 .15.033.195.098l.299.386c-.124.146-.264.27-.42.371a2.54 2.54 0 0 1-.5.25 2.807 2.807 0 0 1-.542.131c-.185.03-.366.044-.542.044a2.66 2.66 0 0 1-.963-.17 2.192 2.192 0 0 1-.767-.514 2.406 2.406 0 0 1-.508-.835 3.36 3.36 0 0 1-.18-1.149c0-.345.053-.668.16-.967.111-.3.267-.56.47-.782.205-.222.452-.396.742-.523.293-.13.624-.195.992-.195.306 0 .59.05.85.151.261.098.486.243.675.435.189.192.335.428.44.709.107.276.16.592.16.948 0 .162-.017.271-.053.327-.036.055-.1.083-.195.083h-3.201Zm8.801-2.575-2.003 4.984h-.948l-2.004-4.984h.865c.081 0 .148.02.2.063.056.04.091.087.108.142l1.104 2.903c.046.136.086.272.122.405.036.134.067.269.093.406.026-.137.057-.27.093-.4.04-.134.081-.271.127-.411l1.124-2.903a.298.298 0 0 1 .108-.147.309.309 0 0 1 .19-.058h.821Zm3.942 1.93c0-.176-.026-.339-.078-.489a1.092 1.092 0 0 0-.22-.395.972.972 0 0 0-.367-.264 1.193 1.193 0 0 0-.498-.098c-.382 0-.681.109-.9.327-.218.218-.356.525-.415.919h2.478Zm-2.507.645c.013.283.057.53.132.738.075.205.174.376.298.513.127.137.277.24.45.308.175.065.37.098.586.098.205 0 .383-.023.532-.069a2.873 2.873 0 0 0 .675-.313.413.413 0 0 1 .215-.073c.084 0 .15.033.195.098l.298.386c-.123.146-.264.27-.42.371a2.54 2.54 0 0 1-.498.25 2.807 2.807 0 0 1-.543.131c-.185.03-.366.044-.542.044a2.66 2.66 0 0 1-.963-.17 2.192 2.192 0 0 1-.767-.514 2.406 2.406 0 0 1-.508-.835 3.36 3.36 0 0 1-.181-1.149c0-.345.054-.668.161-.967.111-.3.267-.56.47-.782.205-.222.452-.396.742-.523.293-.13.624-.195.992-.195.306 0 .59.05.85.151.261.098.486.243.675.435.189.192.335.428.44.709.107.276.16.592.16.948 0 .162-.017.271-.053.327-.036.055-.1.083-.195.083H30.77Zm5.51-1.916c.107-.11.218-.21.332-.298.117-.09.24-.17.371-.234a1.968 1.968 0 0 1 .894-.205c.274 0 .514.045.719.136.208.092.383.22.523.386.143.166.25.367.322.602.072.23.108.486.108.767v3.171h-1.046V17.54c0-.336-.078-.596-.235-.782-.153-.186-.387-.279-.703-.279-.235 0-.453.054-.655.162a2.256 2.256 0 0 0-.562.44v3.63h-1.05v-4.984h.635c.143 0 .234.066.273.2l.074.46Zm8.796-.66v4.985h-.635c-.14 0-.23-.067-.27-.2l-.077-.464c-.105.11-.215.211-.333.302a1.946 1.946 0 0 1-1.26.44 1.79 1.79 0 0 1-.724-.137 1.458 1.458 0 0 1-.527-.386 1.688 1.688 0 0 1-.318-.596 2.635 2.635 0 0 1-.108-.772v-3.171h1.051v3.171c0 .336.077.596.23.782.156.186.392.279.708.279.232 0 .447-.053.645-.157a2.22 2.22 0 0 0 .567-.44v-3.635h1.05Zm4.643 1.93c0-.175-.026-.338-.079-.488a1.092 1.092 0 0 0-.22-.395.972.972 0 0 0-.366-.264 1.193 1.193 0 0 0-.498-.098c-.382 0-.681.109-.9.327-.218.218-.356.525-.415.919h2.478Zm-2.507.646c.013.283.057.53.132.738.075.205.174.376.298.513.127.137.277.24.45.308.175.065.37.098.586.098.205 0 .383-.023.532-.069a2.873 2.873 0 0 0 .675-.313.413.413 0 0 1 .215-.073c.084 0 .15.033.195.098l.298.386c-.123.146-.264.27-.42.371a2.54 2.54 0 0 1-.498.25 2.807 2.807 0 0 1-.543.131c-.186.03-.366.044-.542.044a2.66 2.66 0 0 1-.963-.17 2.192 2.192 0 0 1-.767-.514 2.406 2.406 0 0 1-.508-.835 3.36 3.36 0 0 1-.181-1.149c0-.345.054-.668.161-.967.11-.3.267-.56.47-.782.205-.222.452-.396.742-.523.293-.13.624-.195.992-.195.306 0 .59.05.85.151.26.098.486.243.675.435.189.192.335.428.44.709.107.276.16.592.16.948 0 .162-.017.271-.053.327-.036.055-.101.083-.196.083h-3.2Zm16.409-4.628-2.19 7.037h-1.03l-1.652-5.053a3.98 3.98 0 0 1-.059-.18 6.975 6.975 0 0 1-.049-.21 2.784 2.784 0 0 1-.053.21 1.99 1.99 0 0 1-.054.18l-1.666 5.053h-1.031l-2.19-7.037h.958c.098 0 .18.025.244.074.069.045.114.109.137.19l1.32 4.51c.026.098.05.204.073.318.023.114.046.233.068.357.023-.124.048-.243.074-.357.029-.117.06-.223.093-.317l1.51-4.51a.412.412 0 0 1 .136-.182.376.376 0 0 1 .245-.083h.332c.101 0 .182.026.244.079.062.048.11.11.142.185l1.505 4.51c.033.095.062.198.088.308.03.108.055.222.078.343l.064-.343c.023-.11.047-.213.073-.307l1.315-4.51a.348.348 0 0 1 .131-.187.412.412 0 0 1 .25-.078h.894Zm2.945 4.858c-.375.013-.69.044-.948.093a2.541 2.541 0 0 0-.626.18.828.828 0 0 0-.346.26.58.58 0 0 0-.103.332c0 .117.018.218.054.303.039.081.09.15.156.205a.72.72 0 0 0 .235.117c.09.023.19.034.298.034.273 0 .508-.05.703-.151a2.24 2.24 0 0 0 .577-.45v-.923Zm-2.785-2.111a2.854 2.854 0 0 1 2.013-.787c.287 0 .54.047.762.142.225.09.412.221.562.39.153.17.269.372.347.607.082.23.122.488.122.771v3.167h-.469a.479.479 0 0 1-.23-.044c-.052-.033-.096-.096-.132-.19l-.102-.406a5.09 5.09 0 0 1-.376.308 2.424 2.424 0 0 1-.386.224c-.13.062-.272.108-.426.137-.15.033-.316.05-.498.05a1.88 1.88 0 0 1-.567-.084 1.261 1.261 0 0 1-.45-.25 1.245 1.245 0 0 1-.302-.42 1.473 1.473 0 0 1-.108-.586c0-.192.05-.38.152-.562.104-.182.273-.345.508-.488.238-.147.549-.267.933-.362.388-.094.865-.148 1.432-.161v-.332c0-.359-.077-.626-.23-.802-.153-.176-.378-.264-.674-.264-.202 0-.371.026-.508.078a2.164 2.164 0 0 0-.357.162c-.101.058-.19.114-.269.166a.462.462 0 0 1-.249.073.32.32 0 0 1-.186-.054.512.512 0 0 1-.122-.141l-.19-.342Zm6.205-2.942v7.232h-1.05V13.48h1.05Zm2.446 0v4.193h.224c.072 0 .13-.01.176-.03a.39.39 0 0 0 .142-.122l1.398-1.598a.52.52 0 0 1 .16-.146.46.46 0 0 1 .225-.05h.953l-1.68 1.897a1.276 1.276 0 0 1-.323.303.873.873 0 0 1 .17.156c.05.055.097.119.143.19l1.793 2.44h-.938a.566.566 0 0 1-.22-.04.399.399 0 0 1-.157-.156l-1.441-1.955a.35.35 0 0 0-.147-.142.543.543 0 0 0-.22-.034h-.258v2.326h-1.051V13.48h1.05Zm7.348 4.163c0 .684.085 1.354.254 2.009a7.75 7.75 0 0 0 .738 1.842c.03.059.048.11.054.156a.227.227 0 0 1-.068.206.509.509 0 0 1-.079.063l-.464.288a8.55 8.55 0 0 1-.62-1.119 7.83 7.83 0 0 1-.416-1.114 7.734 7.734 0 0 1-.234-1.143 9.48 9.48 0 0 1 0-2.365c.049-.388.127-.77.234-1.144.108-.378.246-.752.416-1.124.17-.371.376-.744.62-1.119l.465.289c.029.019.055.04.078.063a.227.227 0 0 1 .068.205.524.524 0 0 1-.054.157 7.929 7.929 0 0 0-.992 3.85Zm4.486 2.248c.388-.046.681-.173.88-.381.202-.209.303-.477.303-.806a.81.81 0 0 0-.078-.367.87.87 0 0 0-.215-.273 1.226 1.226 0 0 0-.318-.2 3.79 3.79 0 0 0-.4-.162l-.172 2.19Zm-.24-5.38c-.195.02-.362.06-.502.122-.14.059-.256.132-.347.22a.783.783 0 0 0-.2.288.926.926 0 0 0-.064.342.843.843 0 0 0 .273.64c.088.079.19.149.308.21.117.06.245.115.381.167l.152-1.989Zm.49 2.194c.234.072.465.151.693.24.232.084.439.195.621.332.182.133.329.301.44.503.114.202.17.454.17.758 0 .296-.05.576-.15.84-.098.26-.243.492-.436.694a2.287 2.287 0 0 1-.708.489 2.737 2.737 0 0 1-.948.22l-.059.781a.285.285 0 0 1-.083.186.256.256 0 0 1-.2.088h-.391l.083-1.07a3.465 3.465 0 0 1-1.075-.303 3.035 3.035 0 0 1-.846-.596l.318-.484a.34.34 0 0 1 .269-.147c.068 0 .142.028.22.083.081.056.176.12.283.196.108.072.235.143.381.215.147.068.32.119.518.151l.181-2.37a10.391 10.391 0 0 1-.68-.23 2.335 2.335 0 0 1-.6-.346 1.668 1.668 0 0 1-.43-.538c-.108-.215-.161-.485-.161-.811 0-.244.047-.482.141-.713.098-.232.238-.437.42-.616.186-.183.414-.33.685-.445.27-.117.58-.184.928-.2l.049-.655a.291.291 0 0 1 .083-.19.263.263 0 0 1 .2-.084h.391l-.073.958c.342.049.639.143.89.284.25.136.468.296.654.479l-.254.39c-.072.114-.16.171-.264.171a.395.395 0 0 1-.176-.053 23.374 23.374 0 0 0-.234-.127 3.328 3.328 0 0 0-.303-.147 1.803 1.803 0 0 0-.381-.112l-.167 2.179Zm3.817.938a7.977 7.977 0 0 0-.987-3.85.525.525 0 0 1-.054-.157.275.275 0 0 1 .004-.117.236.236 0 0 1 .054-.088.788.788 0 0 1 .083-.063l.47-.289c.24.375.446.748.615 1.12.17.37.308.745.415 1.123.108.375.186.756.235 1.144a9.48 9.48 0 0 1 0 2.365 7.747 7.747 0 0 1-.235 1.143 7.829 7.829 0 0 1-.415 1.114c-.17.372-.375.745-.616 1.12l-.469-.289a.788.788 0 0 1-.083-.063.236.236 0 0 1-.053-.088.275.275 0 0 1-.005-.118.525.525 0 0 1 .053-.156c.32-.577.564-1.19.733-1.842.17-.655.255-1.325.255-2.009ZM21.282 41.368v2.147H20.26V38.02h1.676c.375 0 .695.04.961.118.269.076.488.184.658.323.172.14.298.307.376.502.081.193.122.405.122.638a1.623 1.623 0 0 1-.32.974 1.54 1.54 0 0 1-.38.353c-.149.101-.32.182-.513.243.13.074.241.179.335.316l1.376 2.03h-.92a.46.46 0 0 1-.228-.054.469.469 0 0 1-.156-.152l-1.155-1.76a.4.4 0 0 0-.145-.14.488.488 0 0 0-.228-.042h-.437Zm0-.734h.639c.192 0 .36-.024.501-.072a.968.968 0 0 0 .354-.198.808.808 0 0 0 .209-.304c.046-.116.068-.244.068-.384 0-.278-.092-.492-.277-.642-.183-.15-.463-.224-.84-.224h-.654v1.824Zm5.559-1.08c.246 0 .471.04.676.119.208.078.387.194.536.346.15.15.266.334.35.555a2.08 2.08 0 0 1 .114.927.256.256 0 0 1-.034.11.142.142 0 0 1-.065.057.316.316 0 0 1-.106.015h-2.41c.028.4.136.694.323.882.188.188.436.281.745.281.152 0 .283-.017.392-.053a1.74 1.74 0 0 0 .288-.118c.084-.043.156-.082.217-.118a.375.375 0 0 1 .182-.053c.038 0 .071.008.1.023a.219.219 0 0 1 .072.065l.273.342c-.104.121-.22.224-.35.308a2.08 2.08 0 0 1-.836.3 3.03 3.03 0 0 1-.422.03c-.27 0-.523-.044-.756-.133a1.727 1.727 0 0 1-.608-.399 1.895 1.895 0 0 1-.407-.654 2.546 2.546 0 0 1-.148-.904c0-.266.043-.516.13-.749.085-.235.208-.44.368-.612.162-.175.358-.313.59-.414.232-.101.494-.152.786-.152Zm.019.674c-.274 0-.488.077-.642.231-.155.155-.254.374-.297.658h1.764c0-.122-.017-.236-.05-.342a.791.791 0 0 0-.152-.285.7.7 0 0 0-.258-.19.86.86 0 0 0-.365-.072Zm4.333 3.287h-.851l-1.55-3.9h.778c.069 0 .126.017.171.05a.25.25 0 0 1 .1.126l.752 2.082a5.786 5.786 0 0 1 .186.707 3.628 3.628 0 0 1 .19-.707l.771-2.082a.258.258 0 0 1 .096-.126c.045-.033.1-.05.163-.05h.741l-1.547 3.9Zm3.661-3.96c.246 0 .471.04.677.118.207.078.386.194.535.346.15.15.267.334.35.555a2.08 2.08 0 0 1 .114.927.256.256 0 0 1-.034.11.142.142 0 0 1-.065.057.316.316 0 0 1-.106.015h-2.41c.028.4.136.694.323.882.188.188.436.281.745.281.152 0 .283-.017.392-.053a1.74 1.74 0 0 0 .289-.118c.083-.043.155-.082.216-.118a.375.375 0 0 1 .183-.053c.038 0 .07.008.098.023a.219.219 0 0 1 .073.065l.273.342c-.103.121-.22.224-.35.308a2.08 2.08 0 0 1-.835.3 3.03 3.03 0 0 1-.422.03c-.271 0-.524-.044-.757-.133a1.727 1.727 0 0 1-.608-.399 1.895 1.895 0 0 1-.406-.654 2.546 2.546 0 0 1-.149-.904c0-.266.043-.516.13-.749.086-.235.209-.44.368-.612.162-.175.359-.313.59-.414.232-.101.495-.152.786-.152Zm.019.673c-.274 0-.488.077-.642.231-.155.155-.254.374-.297.658h1.764c0-.122-.017-.236-.05-.342a.79.79 0 0 0-.152-.285.7.7 0 0 0-.258-.19.86.86 0 0 0-.365-.072Zm2.506 3.287v-3.9h.574c.122 0 .201.058.24.172l.064.308a1.87 1.87 0 0 1 .524-.392c.1-.048.205-.085.316-.11.111-.025.233-.038.365-.038.213 0 .401.037.566.11.165.071.302.172.41.304.112.13.196.285.252.468.058.18.087.379.087.596v2.482h-.939v-2.482c0-.238-.056-.422-.167-.55-.11-.133-.274-.198-.494-.198a.978.978 0 0 0-.456.11 1.635 1.635 0 0 0-.403.3v2.82h-.939Zm5.255-3.9v2.479c0 .238.055.423.164.555.111.129.277.194.498.194.162 0 .314-.036.456-.107.142-.073.276-.173.403-.3v-2.82h.938v3.9h-.574c-.121 0-.2-.058-.239-.172l-.065-.312a2.937 2.937 0 0 1-.25.225 1.488 1.488 0 0 1-.593.277 1.485 1.485 0 0 1-.361.042c-.213 0-.402-.035-.567-.106a1.153 1.153 0 0 1-.41-.308 1.367 1.367 0 0 1-.255-.468 2.046 2.046 0 0 1-.083-.6v-2.478h.938Zm5.15-.06c.245 0 .47.04.676.118.207.078.386.194.536.346.15.15.266.334.35.555a2.08 2.08 0 0 1 .113.927.256.256 0 0 1-.034.11.142.142 0 0 1-.064.057.317.317 0 0 1-.107.015h-2.41c.028.4.136.694.323.882.188.188.436.281.745.281.153 0 .283-.017.392-.053.111-.035.208-.075.289-.118a4.64 4.64 0 0 0 .216-.118.375.375 0 0 1 .183-.053c.038 0 .07.008.099.023a.22.22 0 0 1 .072.065l.274.342c-.104.121-.22.224-.35.308a2.08 2.08 0 0 1-.836.3 3.03 3.03 0 0 1-.422.03c-.271 0-.523-.044-.757-.133a1.726 1.726 0 0 1-.608-.399 1.895 1.895 0 0 1-.406-.654 2.546 2.546 0 0 1-.148-.904c0-.266.043-.516.129-.749.086-.235.209-.44.368-.612.163-.175.359-.313.59-.414.233-.101.495-.152.786-.152Zm.018.673c-.273 0-.487.077-.642.231-.155.155-.253.374-.297.658h1.764c0-.122-.017-.236-.05-.342a.791.791 0 0 0-.151-.285.701.701 0 0 0-.259-.19.86.86 0 0 0-.365-.072Zm7.978-2.209v.84h-1.653v4.656h-1.023V38.86h-1.66v-.84h4.336Zm1.371 6.568a.339.339 0 0 1-.11.148c-.043.036-.11.053-.201.053h-.7l.73-1.562-1.577-3.61h.82c.077 0 .135.017.175.053.041.035.072.076.092.122l.832 2.022c.028.065.052.134.072.205.02.07.038.142.053.213a4.6 4.6 0 0 1 .065-.213l.08-.21.783-2.017a.277.277 0 0 1 .259-.175h.752l-2.125 4.971Zm2.746.201v-5.172h.574a.28.28 0 0 1 .156.041.196.196 0 0 1 .083.13l.076.36a1.98 1.98 0 0 1 .54-.436c.205-.112.445-.167.718-.167a1.267 1.267 0 0 1 1.038.52c.13.167.228.375.296.623.071.246.107.529.107.848 0 .291-.04.561-.118.81a1.959 1.959 0 0 1-.338.646c-.145.182-.32.325-.529.43a1.54 1.54 0 0 1-.691.151c-.22 0-.408-.033-.563-.099a1.41 1.41 0 0 1-.41-.28v1.595h-.94Zm1.824-4.503a.959.959 0 0 0-.502.125 1.428 1.428 0 0 0-.383.346v1.748a.915.915 0 0 0 .346.278c.126.05.262.076.406.076.142 0 .27-.027.384-.08a.73.73 0 0 0 .293-.243c.08-.11.143-.246.186-.41.043-.168.065-.364.065-.59 0-.228-.02-.42-.057-.578a1.093 1.093 0 0 0-.156-.387.62.62 0 0 0-.251-.217.763.763 0 0 0-.33-.068Zm4.161-.73c.246 0 .472.04.677.118.208.078.386.194.536.346.15.15.266.334.35.555a2.08 2.08 0 0 1 .114.927.253.253 0 0 1-.035.11.14.14 0 0 1-.064.057.314.314 0 0 1-.107.015h-2.41c.029.4.136.694.324.882.188.188.436.281.745.281.152 0 .282-.017.391-.053.112-.035.208-.075.289-.118a4.64 4.64 0 0 0 .217-.118.375.375 0 0 1 .182-.053.203.203 0 0 1 .171.088l.274.342c-.104.121-.22.224-.35.308a2.069 2.069 0 0 1-.836.3 3.03 3.03 0 0 1-.422.03c-.27 0-.523-.044-.756-.133a1.73 1.73 0 0 1-.608-.399 1.897 1.897 0 0 1-.407-.654 2.546 2.546 0 0 1-.148-.904c0-.266.043-.516.129-.749.086-.235.209-.44.369-.612.162-.175.358-.313.589-.414.233-.101.495-.152.786-.152Zm.02.673c-.274 0-.488.077-.643.231-.154.155-.253.374-.296.658h1.763c0-.122-.016-.236-.05-.342a.785.785 0 0 0-.151-.285.698.698 0 0 0-.259-.19.86.86 0 0 0-.365-.072ZM125.401 40.767c0 .246-.025.482-.076.707a2.806 2.806 0 0 1-.221.627 2.605 2.605 0 0 1-.345.54 2.512 2.512 0 0 1-.468.43l1.395 1.52h-.844c-.121 0-.232-.017-.33-.05a.639.639 0 0 1-.266-.182l-.806-.89a3.21 3.21 0 0 1-.821.106c-.416 0-.796-.069-1.14-.208a2.633 2.633 0 0 1-.882-.59 2.655 2.655 0 0 1-.566-.889 3.047 3.047 0 0 1-.202-1.12c0-.404.067-.776.202-1.118.134-.345.323-.642.566-.893.246-.251.54-.446.882-.586a2.964 2.964 0 0 1 1.14-.212c.416 0 .794.07 1.136.212.342.142.635.339.878.59.243.248.432.544.566.889.135.342.202.714.202 1.117Zm-1.049 0c0-.301-.04-.571-.122-.81a1.678 1.678 0 0 0-.342-.611 1.476 1.476 0 0 0-.547-.384 1.86 1.86 0 0 0-.722-.133c-.268 0-.511.044-.726.133a1.515 1.515 0 0 0-.551.384 1.73 1.73 0 0 0-.346.612 2.507 2.507 0 0 0-.122.81c0 .3.041.572.122.813.081.238.196.44.346.608.152.164.336.291.551.38.215.088.458.133.726.133.269 0 .509-.045.722-.133.215-.089.398-.216.547-.38.15-.168.264-.37.342-.608.082-.241.122-.512.122-.814Zm2.401 2.045h1.113v-3.204c0-.124.004-.255.012-.391l-.791.66a.278.278 0 0 1-.102.058.342.342 0 0 1-.24-.015.283.283 0 0 1-.091-.076l-.296-.407 1.676-1.425h.771v4.8h.988v.703h-3.04v-.703Zm7.297-4.853c.253 0 .485.037.695.113a1.449 1.449 0 0 1 .89.81c.083.193.125.407.125.642 0 .203-.03.39-.091.563a2.185 2.185 0 0 1-.24.494c-.099.157-.215.31-.349.456a21.16 21.16 0 0 1-.422.449l-1.239 1.265a2.723 2.723 0 0 1 .691-.11h1.411c.101 0 .181.03.239.087.061.056.091.13.091.225v.562h-3.77v-.312c0-.063.012-.129.038-.197a.582.582 0 0 1 .129-.19l1.669-1.672c.139-.142.263-.278.372-.407.111-.13.204-.257.278-.384.076-.127.133-.255.171-.384.04-.132.06-.27.06-.414a.961.961 0 0 0-.057-.346.677.677 0 0 0-.163-.255.665.665 0 0 0-.255-.152.94.94 0 0 0-.327-.053.883.883 0 0 0-.558.171.895.895 0 0 0-.304.46.392.392 0 0 1-.126.209.352.352 0 0 1-.213.06.767.767 0 0 1-.125-.01l-.494-.088c.038-.264.111-.494.22-.692.109-.2.245-.366.407-.498a1.67 1.67 0 0 1 .563-.3c.212-.068.44-.102.684-.102Zm6.416 2.808c0 .48-.052.896-.156 1.25a2.516 2.516 0 0 1-.426.875c-.179.23-.394.403-.642.517a1.91 1.91 0 0 1-.798.167 1.91 1.91 0 0 1-.798-.167 1.732 1.732 0 0 1-.635-.517c-.18-.23-.32-.522-.422-.874a4.59 4.59 0 0 1-.152-1.25c0-.482.051-.899.152-1.251.102-.352.242-.644.422-.874.18-.23.391-.402.635-.514.246-.113.512-.17.798-.17.286 0 .552.056.798.17.248.112.463.283.642.514.183.23.324.522.426.874.104.352.156.769.156 1.25Zm-.969 0c0-.398-.03-.727-.088-.988a1.97 1.97 0 0 0-.235-.623.83.83 0 0 0-.73-.418.869.869 0 0 0-.392.095.833.833 0 0 0-.33.323 2.023 2.023 0 0 0-.232.623 4.83 4.83 0 0 0-.084.988c0 .398.028.727.084.988.058.261.136.47.232.624a.863.863 0 0 0 .33.327.9.9 0 0 0 .787 0 .86.86 0 0 0 .335-.327c.098-.155.177-.363.235-.624a4.66 4.66 0 0 0 .088-.988Zm3.523-2.809c.254 0 .486.038.696.114.21.074.39.18.54.316.149.137.266.302.349.494.084.193.126.407.126.642 0 .203-.031.39-.092.563a2.18 2.18 0 0 1-.239.494c-.099.157-.216.31-.35.456a18.86 18.86 0 0 1-.422.449l-1.239 1.265a2.773 2.773 0 0 1 .692-.11h1.41c.102 0 .182.03.24.087.06.056.091.13.091.225v.562h-3.77v-.312c0-.063.012-.129.038-.197a.567.567 0 0 1 .129-.19l1.668-1.672c.14-.142.264-.278.373-.407.111-.13.204-.257.277-.384.076-.127.133-.255.171-.384.041-.132.061-.27.061-.414a.961.961 0 0 0-.057-.346.677.677 0 0 0-.163-.255.665.665 0 0 0-.255-.152.94.94 0 0 0-.327-.053.888.888 0 0 0-.559.171.901.901 0 0 0-.304.46.385.385 0 0 1-.125.209.354.354 0 0 1-.213.06.757.757 0 0 1-.125-.01l-.494-.088c.038-.264.111-.494.22-.692a1.634 1.634 0 0 1 .969-.798c.213-.068.441-.102.684-.102Zm5.778 3.486h.692v.543c0 .05-.017.095-.05.133-.033.036-.081.053-.144.053h-.498v1.342h-.821v-1.342h-2.318a.264.264 0 0 1-.168-.057.265.265 0 0 1-.091-.148l-.095-.475 2.604-3.477h.889v3.428Zm-.821-1.798a4.966 4.966 0 0 1 .034-.555l-1.706 2.353h1.672v-1.798ZM22.76 82.072a2.8 2.8 0 0 0 1.06-.182c.097-.041.194-.087.29-.137v-1.201h-.844a.168.168 0 0 1-.118-.042.139.139 0 0 1-.041-.103v-.418h1.672v2.09a2.96 2.96 0 0 1-.905.445 3.373 3.373 0 0 1-.54.107 4.793 4.793 0 0 1-.627.038c-.395 0-.757-.068-1.087-.202a2.54 2.54 0 0 1-.851-.57 2.635 2.635 0 0 1-.559-.882 3.117 3.117 0 0 1-.197-1.128c0-.416.064-.795.193-1.137.132-.342.319-.635.56-.878.243-.246.535-.436.877-.57.345-.134.73-.201 1.156-.201.215 0 .415.016.6.05.185.03.356.075.513.136a2.573 2.573 0 0 1 .817.502l-.209.334c-.043.069-.098.103-.167.103a.27.27 0 0 1-.133-.042 4.032 4.032 0 0 1-.213-.13 1.711 1.711 0 0 0-.289-.144 2.136 2.136 0 0 0-.399-.121 2.588 2.588 0 0 0-.543-.05c-.307 0-.584.05-.833.152-.248.1-.46.242-.634.43a1.88 1.88 0 0 0-.403.676c-.094.264-.14.56-.14.89 0 .344.047.652.144.923.099.269.236.497.414.684.177.188.388.331.63.43.244.099.513.148.807.148Zm3.124.536v-3.85h.387c.074 0 .125.014.152.042.028.027.047.076.058.144l.045.6c.132-.268.294-.477.487-.627.195-.152.423-.228.684-.228.106 0 .202.013.289.038a.96.96 0 0 1 .239.1l-.087.505c-.018.063-.057.095-.118.095a.62.62 0 0 1-.164-.035.977.977 0 0 0-.308-.037.879.879 0 0 0-.592.205c-.157.137-.29.335-.396.596v2.452h-.676Zm4.7-3.911c.281 0 .535.047.76.14.228.095.42.228.578.4.16.172.281.38.365.627.086.243.129.516.129.817 0 .304-.043.578-.13.82a1.731 1.731 0 0 1-.364.624c-.157.172-.35.305-.578.4a2.012 2.012 0 0 1-.76.136c-.281 0-.536-.046-.764-.137a1.634 1.634 0 0 1-.578-.399 1.775 1.775 0 0 1-.368-.623 2.447 2.447 0 0 1-.13-.821c0-.301.043-.574.13-.817.086-.246.209-.455.368-.627.16-.172.352-.305.578-.4a1.99 1.99 0 0 1 .764-.14Zm0 3.436c.38 0 .664-.127.851-.38.188-.256.282-.612.282-1.068 0-.459-.094-.816-.282-1.072-.187-.256-.471-.384-.851-.384-.193 0-.36.033-.502.099a.951.951 0 0 0-.357.285 1.31 1.31 0 0 0-.213.46c-.046.18-.068.384-.068.612 0 .228.023.432.068.612.048.18.12.331.213.456a.969.969 0 0 0 .357.281c.142.066.31.099.502.099Zm4.946-2.74a.15.15 0 0 1-.14.083.266.266 0 0 1-.13-.042 2.38 2.38 0 0 0-.426-.186 1.141 1.141 0 0 0-.342-.046.97.97 0 0 0-.308.046.735.735 0 0 0-.235.118.552.552 0 0 0-.148.179.477.477 0 0 0-.05.216c0 .099.028.181.084.247a.776.776 0 0 0 .228.171c.093.049.2.091.319.13.12.035.24.074.365.117.127.041.25.087.368.137.12.05.226.114.32.19a.842.842 0 0 1 .311.677c0 .177-.031.342-.095.494-.063.15-.157.28-.28.391-.125.11-.277.195-.457.259a1.87 1.87 0 0 1-.623.095 1.873 1.873 0 0 1-1.285-.468l.16-.258a.232.232 0 0 1 .072-.076.201.201 0 0 1 .11-.027c.046 0 .094.018.145.053.05.036.111.075.182.118.074.043.161.083.262.118.104.035.233.053.388.053.132 0 .247-.016.346-.05a.751.751 0 0 0 .247-.14.604.604 0 0 0 .194-.445.39.39 0 0 0-.088-.262.666.666 0 0 0-.224-.178 1.65 1.65 0 0 0-.323-.13l-.369-.117a5.11 5.11 0 0 1-.368-.137 1.346 1.346 0 0 1-.32-.198.918.918 0 0 1-.228-.289.973.973 0 0 1-.083-.422c0-.147.03-.287.091-.421.06-.137.15-.256.266-.358.117-.103.26-.186.43-.247.17-.06.363-.091.581-.091.253 0 .48.04.68.122.203.078.378.187.525.326l-.152.248Zm3.372 0a.15.15 0 0 1-.14.083.266.266 0 0 1-.13-.042 2.38 2.38 0 0 0-.426-.186 1.141 1.141 0 0 0-.342-.046.97.97 0 0 0-.308.046.736.736 0 0 0-.235.118.552.552 0 0 0-.149.179.477.477 0 0 0-.049.216c0 .099.028.181.084.247a.777.777 0 0 0 .228.171c.093.049.2.091.319.13.119.035.24.074.365.117.127.041.25.087.368.137.12.05.226.114.32.19a.844.844 0 0 1 .311.677c0 .177-.031.342-.095.494-.063.15-.157.28-.28.391-.125.11-.277.195-.457.259a1.87 1.87 0 0 1-.623.095 1.873 1.873 0 0 1-1.285-.468l.16-.258a.233.233 0 0 1 .072-.076.201.201 0 0 1 .11-.027c.046 0 .094.018.145.053.05.036.111.075.182.118.074.043.16.083.262.118.104.035.233.053.388.053.132 0 .247-.016.346-.05a.75.75 0 0 0 .247-.14.604.604 0 0 0 .194-.445.39.39 0 0 0-.088-.262.666.666 0 0 0-.224-.178 1.648 1.648 0 0 0-.323-.13l-.369-.117a5.127 5.127 0 0 1-.368-.137 1.344 1.344 0 0 1-.32-.198.917.917 0 0 1-.228-.289.973.973 0 0 1-.083-.422 1.017 1.017 0 0 1 .357-.78c.117-.102.26-.185.43-.246.17-.06.363-.091.58-.091.254 0 .481.04.681.122.203.078.378.187.525.326l-.152.248Zm3.63.942v2.273h-.734V77.16h1.539a3.3 3.3 0 0 1 .893.107c.25.068.457.168.62.3.164.132.286.292.364.48.079.184.118.392.118.622 0 .193-.03.373-.091.54a1.43 1.43 0 0 1-.266.452 1.558 1.558 0 0 1-.422.339 2.06 2.06 0 0 1-.563.212c.092.054.173.13.244.232l1.588 2.163h-.653c-.135 0-.233-.052-.297-.156l-1.414-1.946a.394.394 0 0 0-.14-.13.49.49 0 0 0-.228-.04h-.559Zm0-.536h.77c.216 0 .405-.025.567-.076a1.17 1.17 0 0 0 .41-.22.92.92 0 0 0 .251-.342c.056-.132.084-.278.084-.437 0-.325-.108-.57-.323-.734-.213-.164-.531-.247-.954-.247h-.806v2.056Zm5.575-1.102c.23 0 .444.04.639.118.195.076.363.187.505.334.142.145.252.324.33.54.082.213.122.456.122.73 0 .106-.011.177-.034.213-.023.035-.066.053-.13.053h-2.56c.004.243.037.455.098.635.06.18.145.33.25.452.107.119.234.209.381.27.147.058.312.087.494.087.17 0 .316-.019.437-.057a2.208 2.208 0 0 0 .54-.255c.06-.04.113-.06.156-.06a.15.15 0 0 1 .129.064l.19.247c-.084.102-.184.19-.3.266a1.932 1.932 0 0 1-.377.183 2.203 2.203 0 0 1-.41.106 2.38 2.38 0 0 1-.422.038c-.266 0-.512-.044-.737-.133a1.673 1.673 0 0 1-.582-.395 1.853 1.853 0 0 1-.38-.646 2.62 2.62 0 0 1-.137-.882c0-.269.04-.52.122-.753.084-.233.203-.434.357-.604.155-.172.344-.307.567-.403.223-.099.473-.148.752-.148Zm.015.498c-.327 0-.584.095-.771.285-.188.187-.304.448-.35.783h2.094c0-.157-.021-.3-.064-.43a.94.94 0 0 0-.19-.338.818.818 0 0 0-.308-.22.997.997 0 0 0-.41-.08Zm1.94-.437h.555a.21.21 0 0 1 .133.042c.036.027.061.06.076.098l.977 2.478c.036.092.063.183.084.274l.057.27c.02-.088.041-.179.064-.27.023-.091.052-.182.088-.274l.988-2.478a.219.219 0 0 1 .072-.098.204.204 0 0 1 .13-.042h.528l-1.57 3.85h-.612l-1.57-3.85Zm5.88-.061c.23 0 .444.04.639.118.195.076.363.187.505.334.142.145.252.324.33.54.082.213.122.456.122.73 0 .106-.011.177-.034.213-.023.035-.066.053-.13.053h-2.56c.005.243.037.455.098.635.06.18.144.33.25.452.107.119.234.209.38.27.148.058.313.087.495.087.17 0 .315-.019.437-.057a2.19 2.19 0 0 0 .54-.255c.06-.04.113-.06.156-.06a.15.15 0 0 1 .129.064l.19.247c-.084.102-.184.19-.3.266a2.191 2.191 0 0 1-.787.289 2.377 2.377 0 0 1-.422.038c-.266 0-.511-.044-.737-.133a1.68 1.68 0 0 1-.582-.395 1.854 1.854 0 0 1-.38-.646 2.62 2.62 0 0 1-.137-.882c0-.269.04-.52.122-.753.084-.233.203-.434.357-.604a1.61 1.61 0 0 1 .566-.403 1.84 1.84 0 0 1 .753-.148Zm.015.498c-.327 0-.584.095-.771.285-.188.187-.304.448-.35.783h2.094c0-.157-.021-.3-.065-.43a.938.938 0 0 0-.19-.338.818.818 0 0 0-.307-.22.996.996 0 0 0-.41-.08Zm2.523 3.413v-3.85h.403c.096 0 .157.047.183.14l.053.419c.167-.186.353-.335.559-.449a1.47 1.47 0 0 1 .718-.171c.21 0 .395.035.555.106.162.069.296.168.403.297.109.126.19.28.247.46a2 2 0 0 1 .083.596v2.452h-.676v-2.452c0-.291-.068-.516-.202-.676-.132-.162-.334-.243-.608-.243-.2 0-.388.048-.562.144a1.866 1.866 0 0 0-.48.392v2.835h-.676Zm4.885-3.85v2.455c0 .292.068.517.202.677.134.16.337.239.608.239.197 0 .384-.047.559-.14.174-.095.336-.225.482-.392v-2.84h.677v3.85h-.403c-.096 0-.157-.046-.183-.14l-.053-.414a2.145 2.145 0 0 1-.562.448 1.488 1.488 0 0 1-.715.168c-.21 0-.396-.034-.559-.103a1.131 1.131 0 0 1-.402-.296 1.282 1.282 0 0 1-.247-.46 2.1 2.1 0 0 1-.08-.597v-2.455h.676Zm5.24-.061c.23 0 .442.04.638.118.195.076.363.187.505.334.142.145.252.324.33.54.082.213.123.456.123.73 0 .106-.012.177-.035.213-.022.035-.066.053-.129.053h-2.562c.005.243.038.455.1.635.06.18.144.33.25.452.106.119.233.209.38.27.147.058.312.087.494.087.17 0 .316-.019.437-.057a2.246 2.246 0 0 0 .54-.255c.06-.04.112-.06.156-.06a.15.15 0 0 1 .13.064l.19.247c-.085.102-.185.19-.301.266a1.942 1.942 0 0 1-.376.183 2.215 2.215 0 0 1-.41.106 2.387 2.387 0 0 1-.423.038 2 2 0 0 1-.737-.133 1.668 1.668 0 0 1-.582-.395 1.847 1.847 0 0 1-.38-.646 2.62 2.62 0 0 1-.136-.882c0-.269.04-.52.121-.753.084-.233.203-.434.357-.604.155-.172.344-.307.567-.403.222-.099.473-.148.752-.148Zm.014.498c-.326 0-.584.095-.771.285-.188.187-.304.448-.35.783h2.094c0-.157-.021-.3-.064-.43a.946.946 0 0 0-.19-.338.818.818 0 0 0-.308-.22 1 1 0 0 0-.41-.08ZM21.142 98.796v2.272h-.734v-5.446h1.54a3.3 3.3 0 0 1 .893.106c.25.069.457.169.62.3.164.133.286.292.364.48.079.185.118.392.118.623 0 .193-.03.372-.091.54a1.43 1.43 0 0 1-.266.452 1.56 1.56 0 0 1-.422.338 2.063 2.063 0 0 1-.563.213c.091.053.172.13.243.232l1.59 2.162h-.655c-.134 0-.233-.052-.296-.155l-1.414-1.946a.395.395 0 0 0-.14-.13.49.49 0 0 0-.229-.041h-.558Zm0-.536h.771c.216 0 .404-.026.567-.076a1.17 1.17 0 0 0 .41-.22.92.92 0 0 0 .25-.343 1.11 1.11 0 0 0 .084-.437c0-.324-.107-.569-.323-.733-.212-.165-.53-.247-.953-.247h-.806v2.056Zm5.576-1.103c.23 0 .443.04.638.118.195.076.364.188.506.335.142.144.252.324.33.54.081.212.122.456.122.73 0 .106-.011.177-.034.212-.023.035-.066.053-.13.053H25.59c.005.243.038.455.099.635.06.18.144.331.25.452.107.119.234.209.38.27.148.058.312.087.495.087.17 0 .315-.019.437-.057a2.388 2.388 0 0 0 .54-.254.294.294 0 0 1 .155-.061.15.15 0 0 1 .13.065l.19.247c-.084.101-.184.19-.3.266a1.933 1.933 0 0 1-.377.182 2.247 2.247 0 0 1-.41.107 2.43 2.43 0 0 1-.422.038 2.01 2.01 0 0 1-.738-.133 1.686 1.686 0 0 1-.581-.396 1.85 1.85 0 0 1-.38-.646 2.62 2.62 0 0 1-.137-.882c0-.268.04-.52.122-.752.083-.233.202-.434.357-.604.154-.172.343-.307.566-.403.223-.1.474-.148.753-.148Zm.015.498c-.327 0-.584.095-.772.285-.187.188-.304.449-.35.783h2.095c0-.157-.022-.3-.065-.43a.94.94 0 0 0-.19-.337.818.818 0 0 0-.308-.22.998.998 0 0 0-.41-.08Zm2.675 3.413v-3.272l-.426-.05a.371.371 0 0 1-.133-.056.146.146 0 0 1-.05-.118v-.278h.609v-.372c0-.22.03-.415.091-.585a1.134 1.134 0 0 1 .684-.703 1.55 1.55 0 0 1 .548-.092c.172 0 .332.026.478.076l-.015.339c-.002.05-.024.08-.064.09a.733.733 0 0 1-.171.016h-.118c-.117 0-.223.015-.32.046a.6.6 0 0 0-.243.148.69.69 0 0 0-.16.27c-.035.11-.052.25-.052.414v.353h1.113v.49h-1.09v3.284h-.681Zm3.07-3.85v2.456c0 .291.067.516.202.676.134.16.337.239.608.239.198 0 .384-.046.559-.14.174-.094.335-.224.482-.392v-2.839h.677v3.85h-.403c-.096 0-.157-.046-.183-.14l-.053-.415a2.134 2.134 0 0 1-.562.449 1.493 1.493 0 0 1-.715.167c-.21 0-.396-.034-.559-.102a1.137 1.137 0 0 1-.402-.297 1.266 1.266 0 0 1-.247-.46 2.094 2.094 0 0 1-.08-.596v-2.456h.676Zm3.715 3.85v-3.85h.403c.096 0 .157.047.182.14l.053.419c.167-.185.354-.335.559-.448a1.47 1.47 0 0 1 .718-.171c.21 0 .396.035.555.106.162.068.297.167.403.296.11.127.191.28.247.46.056.18.084.38.084.597v2.451h-.677v-2.451c0-.292-.067-.517-.201-.677-.132-.162-.335-.243-.608-.243-.2 0-.388.049-.563.145a1.86 1.86 0 0 0-.479.391v2.835h-.676Zm7.01 0c-.097 0-.158-.046-.183-.14l-.06-.468a2.039 2.039 0 0 1-.567.483c-.21.119-.452.179-.726.179-.22 0-.42-.042-.6-.126a1.269 1.269 0 0 1-.46-.376 1.787 1.787 0 0 1-.293-.616 3.17 3.17 0 0 1-.103-.847c0-.284.038-.548.114-.79.076-.247.185-.46.327-.64a1.53 1.53 0 0 1 1.224-.578c.236 0 .437.042.604.123.168.078.317.19.449.334V95.47h.676v5.598h-.402Zm-1.312-.494c.22 0 .413-.05.578-.152.167-.101.32-.244.46-.43V98.13a1.047 1.047 0 0 0-.9-.452c-.36 0-.637.128-.83.384-.192.256-.288.62-.288 1.095 0 .25.021.466.064.646.043.177.107.324.19.441a.748.748 0 0 0 .308.25c.122.054.261.08.418.08Zm5.128-2.721a.15.15 0 0 1-.14.084.266.266 0 0 1-.13-.042 2.415 2.415 0 0 0-.425-.186 1.141 1.141 0 0 0-.342-.046.97.97 0 0 0-.308.046.733.733 0 0 0-.236.117.552.552 0 0 0-.148.179.477.477 0 0 0-.05.217c0 .099.028.181.084.247a.774.774 0 0 0 .228.17c.094.05.2.092.32.13.118.035.24.075.364.118.127.04.25.086.369.137.119.05.225.114.32.19a.845.845 0 0 1 .31.676c0 .178-.03.342-.094.494a1.1 1.1 0 0 1-.282.392 1.368 1.368 0 0 1-.456.258c-.18.064-.387.095-.623.095-.269 0-.512-.043-.73-.129a1.881 1.881 0 0 1-.554-.338l.16-.259a.234.234 0 0 1 .071-.076.2.2 0 0 1 .11-.026c.046 0 .094.018.145.053.05.035.111.075.182.118a1.196 1.196 0 0 0 .65.171c.132 0 .247-.017.346-.05a.747.747 0 0 0 .247-.14.605.605 0 0 0 .194-.445.391.391 0 0 0-.087-.262.668.668 0 0 0-.225-.179 1.652 1.652 0 0 0-.323-.13l-.368-.117a5.159 5.159 0 0 1-.369-.137 1.346 1.346 0 0 1-.32-.197.917.917 0 0 1-.227-.29.973.973 0 0 1-.084-.421c0-.147.03-.288.091-.422.061-.137.15-.256.266-.357.117-.104.26-.186.43-.247.17-.061.363-.091.581-.091.254 0 .48.04.68.121.203.079.378.187.525.327l-.152.247ZM25.052 116.808c0 .407-.064.779-.193 1.113-.13.335-.312.621-.548.859a2.455 2.455 0 0 1-.847.555c-.33.129-.694.194-1.095.194h-2.037v-5.446h2.037c.4 0 .765.065 1.095.197a2.4 2.4 0 0 1 .847.555c.236.238.418.525.548.859.129.335.193.706.193 1.114Zm-.756 0a2.73 2.73 0 0 0-.137-.897 1.883 1.883 0 0 0-.387-.669 1.644 1.644 0 0 0-.608-.418 2.107 2.107 0 0 0-.795-.145h-1.296v4.253h1.296c.292 0 .556-.048.794-.144.239-.096.441-.235.609-.414a1.9 1.9 0 0 0 .387-.669c.091-.264.137-.563.137-.897Zm2.482-1.129v3.85H26.1v-3.85h.677Zm.152-1.209a.425.425 0 0 1-.042.186.5.5 0 0 1-.258.255.45.45 0 0 1-.187.038.45.45 0 0 1-.186-.038.568.568 0 0 1-.152-.102.564.564 0 0 1-.103-.153.464.464 0 0 1 0-.372.477.477 0 0 1 .255-.262.45.45 0 0 1 .186-.038.45.45 0 0 1 .338.144.448.448 0 0 1 .107.156.428.428 0 0 1 .041.186Zm3.32 1.844a.149.149 0 0 1-.14.083.264.264 0 0 1-.13-.042 2.633 2.633 0 0 0-.178-.091 1.408 1.408 0 0 0-.247-.095 1.156 1.156 0 0 0-.342-.045.982.982 0 0 0-.308.045.73.73 0 0 0-.236.118.543.543 0 0 0-.148.179.474.474 0 0 0-.05.216c0 .099.028.182.084.247a.765.765 0 0 0 .228.171c.094.049.2.092.32.13a8.075 8.075 0 0 1 .733.254c.119.051.226.114.32.19a.846.846 0 0 1 .31.677c0 .177-.03.342-.094.494-.064.149-.157.28-.281.391a1.387 1.387 0 0 1-.457.259c-.18.063-.387.095-.623.095-.268 0-.512-.043-.73-.129a1.886 1.886 0 0 1-.554-.339l.16-.258a.234.234 0 0 1 .071-.076.2.2 0 0 1 .11-.027c.046 0 .094.018.145.053.05.036.112.075.182.118.074.043.161.083.263.118.104.035.233.053.387.053.132 0 .247-.016.346-.049a.748.748 0 0 0 .247-.141.603.603 0 0 0 .194-.444.392.392 0 0 0-.087-.263.663.663 0 0 0-.225-.178 1.663 1.663 0 0 0-.323-.13l-.368-.117a5.54 5.54 0 0 1-.369-.137 1.334 1.334 0 0 1-.32-.198.922.922 0 0 1-.227-.289.97.97 0 0 1-.084-.422 1.023 1.023 0 0 1 .357-.779c.117-.103.26-.186.43-.247.17-.061.364-.091.581-.091.254 0 .48.041.68.122.204.078.378.187.525.327l-.152.247Zm3.794.049a.322.322 0 0 1-.06.065.145.145 0 0 1-.088.022.233.233 0 0 1-.126-.045 1.294 1.294 0 0 0-.775-.259c-.188 0-.353.035-.498.103a.962.962 0 0 0-.365.289c-.096.126-.17.28-.22.46a2.328 2.328 0 0 0-.072.604c0 .233.026.441.08.623.053.18.127.332.224.456a.987.987 0 0 0 .35.282c.139.063.294.095.467.095.165 0 .3-.019.407-.057.106-.041.195-.085.266-.133.07-.049.129-.092.174-.13a.209.209 0 0 1 .137-.06c.059 0 .102.021.13.064l.19.247a1.487 1.487 0 0 1-.628.453c-.25.093-.515.14-.794.14a1.69 1.69 0 0 1-.673-.133 1.527 1.527 0 0 1-.536-.384 1.876 1.876 0 0 1-.36-.623 2.535 2.535 0 0 1-.13-.84c0-.286.04-.551.118-.794.081-.244.198-.453.35-.627.154-.178.344-.316.57-.415.225-.099.484-.148.775-.148.269 0 .507.045.715.133.207.086.391.209.55.369l-.178.243Zm2.556-.745c.282 0 .535.047.76.141.229.094.421.227.578.399.16.172.281.381.365.627.086.243.13.516.13.817 0 .304-.044.578-.13.821a1.73 1.73 0 0 1-.365.623c-.157.172-.35.305-.578.399a1.996 1.996 0 0 1-.76.137c-.28 0-.536-.045-.764-.137a1.636 1.636 0 0 1-.577-.399 1.776 1.776 0 0 1-.369-.623 2.449 2.449 0 0 1-.13-.821c0-.301.044-.574.13-.817.086-.246.21-.455.369-.627.16-.172.352-.305.577-.399.228-.094.483-.141.764-.141Zm0 3.436c.38 0 .664-.127.852-.38.187-.256.28-.612.28-1.068 0-.459-.093-.816-.28-1.072-.188-.256-.472-.384-.852-.384-.192 0-.36.033-.501.099a.957.957 0 0 0-.358.285 1.304 1.304 0 0 0-.212.46c-.046.18-.069.384-.069.612 0 .228.023.432.069.612.048.179.119.331.212.456a.977.977 0 0 0 .358.281c.142.066.309.099.501.099Zm3.327-3.375v2.455c0 .292.067.517.202.677.134.159.337.239.608.239.197 0 .384-.047.558-.141.175-.093.336-.224.483-.391v-2.839h.677v3.85h-.403c-.096 0-.157-.047-.183-.141l-.053-.414a2.151 2.151 0 0 1-.562.449 1.493 1.493 0 0 1-.715.167c-.21 0-.396-.034-.559-.103a1.135 1.135 0 0 1-.402-.296 1.274 1.274 0 0 1-.248-.46 2.101 2.101 0 0 1-.08-.597v-2.455h.677Zm3.715 3.85v-3.85h.403c.096 0 .157.047.182.14l.053.419c.167-.186.354-.335.559-.449a1.47 1.47 0 0 1 .718-.171c.21 0 .395.035.555.106.162.069.297.168.403.297.109.126.191.28.247.46.056.18.084.379.084.597v2.451h-.677v-2.451c0-.292-.067-.517-.201-.677-.132-.162-.335-.243-.608-.243-.2 0-.388.048-.563.144a1.85 1.85 0 0 0-.479.392v2.835h-.676Zm5.466.061c-.304 0-.538-.085-.703-.255-.162-.17-.243-.414-.243-.733v-2.357h-.464a.155.155 0 0 1-.102-.034c-.028-.026-.042-.064-.042-.114v-.27l.63-.08.157-1.189a.139.139 0 0 1 .049-.092.154.154 0 0 1 .106-.038h.343v1.327h1.102v.49h-1.102v2.311c0 .162.039.282.117.361a.41.41 0 0 0 .304.118c.071 0 .132-.009.183-.027a.92.92 0 0 0 .232-.125c.028-.02.052-.031.072-.031.035 0 .067.022.095.065l.197.323a1.297 1.297 0 0 1-.421.259c-.165.06-.335.091-.51.091Zm3.95-3.276a.149.149 0 0 1-.141.083.264.264 0 0 1-.13-.042 2.682 2.682 0 0 0-.178-.091 1.412 1.412 0 0 0-.247-.095 1.156 1.156 0 0 0-.342-.045.982.982 0 0 0-.308.045.731.731 0 0 0-.236.118.543.543 0 0 0-.148.179.474.474 0 0 0-.05.216c0 .099.029.182.084.247a.764.764 0 0 0 .229.171c.093.049.2.092.319.13a8.075 8.075 0 0 1 .733.254c.12.051.226.114.32.19a.847.847 0 0 1 .311.677c0 .177-.031.342-.095.494-.063.149-.157.28-.281.391a1.387 1.387 0 0 1-.456.259c-.18.063-.388.095-.623.095-.269 0-.512-.043-.73-.129a1.882 1.882 0 0 1-.555-.339l.16-.258a.234.234 0 0 1 .072-.076.2.2 0 0 1 .11-.027c.046 0 .094.018.145.053.05.036.11.075.182.118.073.043.16.083.262.118.104.035.233.053.388.053.131 0 .247-.016.346-.049a.748.748 0 0 0 .247-.141.603.603 0 0 0 .194-.444.392.392 0 0 0-.088-.263.663.663 0 0 0-.224-.178 1.663 1.663 0 0 0-.323-.13l-.369-.117a5.522 5.522 0 0 1-.369-.137 1.332 1.332 0 0 1-.319-.198.921.921 0 0 1-.228-.289.97.97 0 0 1-.083-.422 1.022 1.022 0 0 1 .357-.779 1.31 1.31 0 0 1 .43-.247c.17-.061.363-.091.58-.091.254 0 .481.041.681.122.203.078.378.187.525.327l-.152.247Zm5.54 3.215h-.3a.364.364 0 0 1-.16-.03c-.04-.021-.066-.064-.079-.13l-.076-.357c-.101.091-.2.174-.296.247a1.874 1.874 0 0 1-.304.183c-.107.048-.22.084-.343.11a1.944 1.944 0 0 1-.399.038c-.149 0-.29-.02-.422-.061a.923.923 0 0 1-.57-.506 1.14 1.14 0 0 1-.083-.456c0-.152.042-.297.125-.437.084-.141.218-.267.403-.376.187-.109.432-.198.734-.266a5.52 5.52 0 0 1 1.106-.122v-.3c0-.299-.065-.524-.194-.676-.127-.155-.316-.232-.567-.232-.164 0-.304.021-.418.064-.11.041-.209.088-.292.141a4.11 4.11 0 0 0-.213.141.307.307 0 0 1-.175.06.218.218 0 0 1-.122-.034.301.301 0 0 1-.08-.091l-.121-.217c.213-.205.442-.358.688-.46a2.13 2.13 0 0 1 .817-.152c.216 0 .407.036.574.107.167.071.308.17.422.296.114.127.2.28.258.46.058.18.088.378.088.593v2.463Zm-1.755-.414c.119 0 .228-.012.327-.035.099-.025.19-.059.277-.102.089-.046.172-.1.25-.164.082-.063.16-.135.237-.216v-.802c-.312.01-.577.035-.795.076a2.152 2.152 0 0 0-.532.152.757.757 0 0 0-.3.224.49.49 0 0 0-.091.289.63.63 0 0 0 .05.262.52.52 0 0 0 .132.183.578.578 0 0 0 .198.102.97.97 0 0 0 .247.031Zm2.857.414v-3.85h.403c.096 0 .157.047.182.14l.053.419c.168-.186.354-.335.559-.449.207-.114.447-.171.718-.171.21 0 .396.035.555.106.162.069.297.168.403.297.109.126.191.28.247.46.056.18.084.379.084.597v2.451h-.677v-2.451c0-.292-.067-.517-.201-.677-.132-.162-.335-.243-.608-.243-.2 0-.388.048-.563.144a1.84 1.84 0 0 0-.479.392v2.835H59.7Zm7.01 0c-.097 0-.157-.047-.183-.141l-.06-.467c-.165.2-.354.361-.567.483-.21.118-.453.178-.726.178-.22 0-.42-.042-.6-.125a1.27 1.27 0 0 1-.46-.377 1.774 1.774 0 0 1-.293-.615 3.172 3.172 0 0 1-.103-.848c0-.284.038-.547.114-.79.076-.246.185-.459.327-.639a1.538 1.538 0 0 1 1.224-.578c.236 0 .437.041.604.122.168.079.317.19.449.335v-2.136h.676v5.598h-.403Zm-1.312-.494c.22 0 .413-.051.578-.152.167-.102.32-.244.46-.43v-1.862a1.055 1.055 0 0 0-.41-.35 1.154 1.154 0 0 0-.491-.102c-.36 0-.636.128-.829.384-.192.255-.288.62-.288 1.094 0 .251.021.467.064.646.043.178.107.324.19.441a.75.75 0 0 0 .308.251c.122.053.261.08.418.08Zm8.414-.631a.15.15 0 0 1 .11.049l.29.316c-.223.258-.495.46-.814.604-.316.145-.7.217-1.148.217-.392 0-.749-.068-1.068-.202a2.37 2.37 0 0 1-.817-.57 2.598 2.598 0 0 1-.524-.882 3.292 3.292 0 0 1-.187-1.128c0-.411.067-.787.198-1.129.135-.342.322-.636.563-.882.24-.246.528-.436.862-.57a2.932 2.932 0 0 1 1.114-.205c.4 0 .745.062 1.034.186.291.124.55.293.775.505l-.24.339a.296.296 0 0 1-.06.064.17.17 0 0 1-.1.023.208.208 0 0 1-.105-.034 4.912 4.912 0 0 0-.308-.205 1.478 1.478 0 0 0-.244-.114 2.186 2.186 0 0 0-.756-.126c-.291 0-.559.051-.802.152-.24.099-.448.241-.623.426s-.312.41-.41.677a2.611 2.611 0 0 0-.145.893c0 .339.048.642.144.908.1.266.232.491.4.677.17.182.37.322.6.418.23.096.479.144.745.144.162 0 .308-.009.437-.027.13-.02.249-.05.357-.091.112-.04.215-.091.308-.152.097-.063.193-.138.289-.224.043-.038.085-.057.125-.057Zm1.335 1.125v-3.85h.388c.073 0 .124.014.152.042.028.027.047.076.057.144l.045.601c.132-.269.294-.478.487-.628.195-.152.423-.228.684-.228a1.033 1.033 0 0 1 .528.137l-.087.506c-.018.063-.057.095-.118.095a.656.656 0 0 1-.163-.034.962.962 0 0 0-.308-.038.878.878 0 0 0-.593.205c-.157.137-.29.335-.396.597v2.451h-.676Zm4.666-3.911c.23 0 .443.039.639.118.195.076.363.187.505.334.142.145.252.324.33.54.082.213.122.456.122.73 0 .106-.011.177-.034.213-.023.035-.066.053-.13.053h-2.56c.004.243.037.455.098.635.06.179.144.33.25.452.107.119.234.209.381.27.147.058.312.087.494.087.17 0 .316-.019.437-.057a2.352 2.352 0 0 0 .54-.255.3.3 0 0 1 .156-.06c.055 0 .099.021.129.064l.19.247c-.084.102-.184.19-.3.266a1.945 1.945 0 0 1-.377.183 2.25 2.25 0 0 1-.41.106 2.34 2.34 0 0 1-.422.038 1.99 1.99 0 0 1-.737-.133 1.668 1.668 0 0 1-.582-.395 1.856 1.856 0 0 1-.38-.646 2.619 2.619 0 0 1-.137-.882c0-.269.04-.52.122-.753.084-.232.203-.434.357-.604a1.6 1.6 0 0 1 .567-.403c.222-.099.473-.148.752-.148Zm.015.498c-.327 0-.584.095-.771.285-.188.187-.304.448-.35.783h2.094c0-.157-.022-.3-.064-.43a.952.952 0 0 0-.19-.338.812.812 0 0 0-.308-.22 1.002 1.002 0 0 0-.41-.08Zm5.233 3.413c-.096 0-.157-.047-.182-.141l-.061-.467c-.165.2-.353.361-.566.483a1.46 1.46 0 0 1-.726.178c-.22 0-.421-.042-.6-.125a1.266 1.266 0 0 1-.46-.377 1.766 1.766 0 0 1-.293-.615 3.176 3.176 0 0 1-.103-.848c0-.284.038-.547.114-.79.076-.246.185-.459.327-.639a1.538 1.538 0 0 1 1.224-.578c.236 0 .437.041.604.122.167.079.317.19.449.335v-2.136h.676v5.598h-.403Zm-1.311-.494c.22 0 .413-.051.578-.152.167-.102.32-.244.46-.43v-1.862a1.055 1.055 0 0 0-.41-.35 1.154 1.154 0 0 0-.491-.102c-.36 0-.636.128-.829.384-.192.255-.289.62-.289 1.094 0 .251.022.467.065.646.043.178.106.324.19.441a.75.75 0 0 0 .308.251c.122.053.26.08.418.08Zm3.676-3.356v3.85h-.677v-3.85h.677Zm.152-1.209a.426.426 0 0 1-.042.186.505.505 0 0 1-.258.255.453.453 0 0 1-.187.038.45.45 0 0 1-.186-.038.566.566 0 0 1-.152-.102.546.546 0 0 1-.103-.153.457.457 0 0 1-.038-.186.46.46 0 0 1 .038-.186.465.465 0 0 1 .103-.156.517.517 0 0 1 .152-.106.45.45 0 0 1 .186-.038.453.453 0 0 1 .339.144.45.45 0 0 1 .106.156.43.43 0 0 1 .042.186Zm2.283 5.12c-.304 0-.539-.085-.703-.255-.162-.17-.243-.414-.243-.733v-2.357h-.464a.155.155 0 0 1-.103-.034c-.027-.026-.041-.064-.041-.114v-.27l.63-.08.156-1.189a.138.138 0 0 1 .05-.092.154.154 0 0 1 .106-.038h.342v1.327h1.102v.49h-1.102v2.311c0 .162.04.282.118.361a.41.41 0 0 0 .304.118.546.546 0 0 0 .182-.027.92.92 0 0 0 .232-.125c.028-.02.052-.031.072-.031.036 0 .068.022.096.065l.197.323a1.301 1.301 0 0 1-.422.259c-.164.06-.334.091-.509.091Zm3.95-3.276a.15.15 0 0 1-.141.083.263.263 0 0 1-.13-.042 2.784 2.784 0 0 0-.178-.091 1.415 1.415 0 0 0-.247-.095 1.158 1.158 0 0 0-.342-.045.982.982 0 0 0-.308.045.729.729 0 0 0-.236.118.537.537 0 0 0-.148.179.472.472 0 0 0-.05.216c0 .099.028.182.084.247a.76.76 0 0 0 .228.171c.094.049.2.092.32.13a8.158 8.158 0 0 1 .733.254c.12.051.225.114.32.19a.852.852 0 0 1 .311.677c0 .177-.032.342-.095.494-.064.149-.157.28-.281.391a1.389 1.389 0 0 1-.456.259c-.18.063-.388.095-.624.095-.268 0-.512-.043-.73-.129a1.878 1.878 0 0 1-.554-.339l.16-.258a.229.229 0 0 1 .072-.076.2.2 0 0 1 .11-.027c.045 0 .093.018.144.053.05.036.112.075.183.118.073.043.16.083.262.118.104.035.233.053.388.053.131 0 .247-.016.346-.049a.751.751 0 0 0 .246-.141.529.529 0 0 0 .145-.201.612.612 0 0 0 .05-.243.393.393 0 0 0-.088-.263.67.67 0 0 0-.224-.178 1.667 1.667 0 0 0-.323-.13l-.369-.117a5.522 5.522 0 0 1-.369-.137 1.32 1.32 0 0 1-.319-.198.915.915 0 0 1-.228-.289.967.967 0 0 1-.084-.422c0-.147.03-.287.092-.421.06-.137.149-.256.266-.358.116-.103.26-.186.43-.247.169-.061.362-.091.58-.091.254 0 .48.041.681.122.203.078.377.187.525.327l-.152.247ZM23.122 133.394a.324.324 0 0 1-.072.088.167.167 0 0 1-.099.026c-.043 0-.094-.021-.152-.064a1.956 1.956 0 0 0-.216-.141 1.61 1.61 0 0 0-.316-.144 1.34 1.34 0 0 0-.445-.065c-.164 0-.31.023-.437.069a.91.91 0 0 0-.319.178.746.746 0 0 0-.19.27.84.84 0 0 0-.065.331c0 .152.037.278.11.38.077.099.175.183.297.254.124.072.264.133.418.187.157.05.317.103.479.159.165.056.324.119.479.19.157.069.296.156.418.263.124.106.223.236.296.391.076.155.114.345.114.57 0 .238-.04.463-.121.673-.081.208-.2.389-.357.543a1.624 1.624 0 0 1-.574.365 2.088 2.088 0 0 1-.772.133 2.39 2.39 0 0 1-.965-.19 2.285 2.285 0 0 1-.741-.521l.212-.349a.27.27 0 0 1 .073-.069c.03-.02.063-.03.099-.03.053 0 .114.029.182.087.068.056.153.118.255.187.103.068.228.132.372.19.147.056.326.083.536.083.175 0 .33-.024.467-.072a.989.989 0 0 0 .346-.201.891.891 0 0 0 .22-.316c.051-.121.077-.257.077-.406 0-.165-.038-.3-.114-.403a.894.894 0 0 0-.293-.266 1.919 1.919 0 0 0-.418-.179 20.989 20.989 0 0 0-.479-.152 5.529 5.529 0 0 1-.479-.182 1.557 1.557 0 0 1-.414-.267 1.25 1.25 0 0 1-.296-.406 1.493 1.493 0 0 1-.11-.608c0-.193.036-.379.11-.559a1.47 1.47 0 0 1 .326-.479c.142-.139.317-.251.525-.334.21-.084.45-.126.722-.126.304 0 .581.049.832.145.251.096.47.235.658.418l-.179.349Zm1.21 4.595v-5.598h.677v2.265c.165-.175.348-.314.548-.418.2-.106.43-.16.691-.16.21 0 .396.036.555.107.162.068.297.167.403.296.11.127.192.281.247.46.056.18.084.379.084.597v2.451h-.677v-2.451c0-.292-.067-.517-.201-.677-.132-.162-.335-.243-.608-.243-.2 0-.388.049-.563.145a1.867 1.867 0 0 0-.479.391v2.835h-.676Zm5.053-3.85v3.85h-.676v-3.85h.676Zm.152-1.208a.425.425 0 0 1-.042.186.517.517 0 0 1-.258.255.468.468 0 0 1-.372 0 .573.573 0 0 1-.152-.103.557.557 0 0 1-.103-.152.464.464 0 0 1 0-.373.481.481 0 0 1 .102-.155.468.468 0 0 1 .677 0 .452.452 0 0 1 .106.155.43.43 0 0 1 .042.187Zm1.117 6.362v-5.154h.402c.097 0 .158.047.183.141l.057.456c.165-.2.352-.361.562-.483.213-.121.458-.182.734-.182.22 0 .42.043.6.129.18.084.334.209.46.376.127.165.225.37.293.616.068.246.103.528.103.848 0 .284-.038.548-.114.794a1.96 1.96 0 0 1-.327.635 1.557 1.557 0 0 1-.525.422 1.555 1.555 0 0 1-.695.152c-.239 0-.442-.039-.612-.118a1.38 1.38 0 0 1-.445-.335v1.703h-.676Zm1.714-4.675c-.22 0-.415.051-.582.152a1.696 1.696 0 0 0-.456.43v1.862c.124.167.26.285.407.353.15.069.315.103.498.103.357 0 .632-.128.824-.384.193-.255.29-.62.29-1.094 0-.251-.023-.467-.07-.646a1.218 1.218 0 0 0-.19-.441.738.738 0 0 0-.307-.255 1.028 1.028 0 0 0-.414-.08Zm2.556 4.675v-5.154h.403c.096 0 .157.047.182.141l.057.456c.165-.2.352-.361.563-.483.212-.121.457-.182.733-.182.22 0 .42.043.6.129.18.084.334.209.46.376.127.165.225.37.293.616.069.246.103.528.103.848 0 .284-.038.548-.114.794a1.96 1.96 0 0 1-.327.635 1.558 1.558 0 0 1-.525.422 1.555 1.555 0 0 1-.695.152c-.238 0-.442-.039-.612-.118a1.38 1.38 0 0 1-.445-.335v1.703h-.676Zm1.714-4.675c-.22 0-.414.051-.582.152a1.693 1.693 0 0 0-.456.43v1.862c.124.167.26.285.407.353.15.069.315.103.498.103.357 0 .632-.128.825-.384.192-.255.288-.62.288-1.094 0-.251-.022-.467-.068-.646a1.22 1.22 0 0 0-.19-.441.737.737 0 0 0-.308-.255 1.027 1.027 0 0 0-.414-.08Zm3.308-.479v3.85h-.676v-3.85h.676Zm.152-1.208a.427.427 0 0 1-.041.186.517.517 0 0 1-.259.255.468.468 0 0 1-.372 0 .573.573 0 0 1-.152-.103.555.555 0 0 1-.103-.152.467.467 0 0 1 0-.373.48.48 0 0 1 .103-.155.468.468 0 0 1 .677 0 .452.452 0 0 1 .106.155.431.431 0 0 1 .041.187Zm1.117 5.058v-3.85h.403c.096 0 .157.047.182.141l.053.418c.167-.185.354-.334.559-.448a1.47 1.47 0 0 1 .718-.172c.21 0 .396.036.555.107.162.068.297.167.403.296.109.127.191.281.247.46.056.18.084.379.084.597v2.451h-.677v-2.451c0-.292-.067-.517-.201-.677-.132-.162-.335-.243-.608-.243-.2 0-.388.049-.563.145a1.867 1.867 0 0 0-.479.391v2.835h-.676Zm5.596-3.914c.167 0 .323.019.467.057.147.035.28.088.4.159h1.044v.251c0 .084-.053.137-.16.16l-.436.061c.086.164.129.348.129.551 0 .187-.037.358-.11.513a1.133 1.133 0 0 1-.3.391 1.319 1.319 0 0 1-.457.251 1.826 1.826 0 0 1-.577.088c-.18 0-.35-.022-.51-.065a.66.66 0 0 0-.186.163.298.298 0 0 0-.06.171c0 .092.036.161.11.209a.795.795 0 0 0 .292.099c.122.02.26.033.414.038.155.005.312.014.472.027.162.01.32.029.475.057.154.028.293.073.414.137a.77.77 0 0 1 .293.262c.073.111.11.256.11.433a.995.995 0 0 1-.125.479 1.25 1.25 0 0 1-.354.411 1.79 1.79 0 0 1-.566.288 2.395 2.395 0 0 1-.757.111c-.28 0-.528-.028-.74-.084a1.731 1.731 0 0 1-.525-.224.994.994 0 0 1-.316-.327.774.774 0 0 1-.102-.384c0-.19.06-.351.178-.483.122-.134.288-.24.498-.319a.704.704 0 0 1-.262-.201.567.567 0 0 1-.095-.342c0-.056.01-.113.03-.171a.692.692 0 0 1 .092-.179 1.066 1.066 0 0 1 .368-.308 1.214 1.214 0 0 1-.448-.422 1.18 1.18 0 0 1-.16-.619 1.126 1.126 0 0 1 .41-.901c.13-.109.283-.193.46-.251a1.91 1.91 0 0 1 .59-.087Zm1.2 4.123a.328.328 0 0 0-.08-.231.5.5 0 0 0-.216-.133 1.467 1.467 0 0 0-.315-.073 4.324 4.324 0 0 0-.377-.03l-.402-.023a3.623 3.623 0 0 1-.392-.042 1.141 1.141 0 0 0-.353.251.513.513 0 0 0-.069.593.562.562 0 0 0 .206.194c.09.056.205.099.342.129.139.033.302.05.49.05.182 0 .346-.017.49-.05.145-.033.266-.08.365-.14a.684.684 0 0 0 .232-.217.508.508 0 0 0 .08-.278Zm-1.2-2.09c.136 0 .257-.019.36-.057a.723.723 0 0 0 .267-.16.65.65 0 0 0 .16-.243.904.904 0 0 0 .053-.315c0-.236-.073-.423-.217-.563-.142-.139-.35-.209-.623-.209-.272 0-.48.07-.624.209-.142.14-.212.327-.212.563 0 .114.017.219.053.315a.69.69 0 0 0 .425.403c.104.038.223.057.358.057ZM121.467 82.654a2.438 2.438 0 0 1-.84-.225 2.322 2.322 0 0 1-.649-.47l.201-.313a.204.204 0 0 1 .076-.068.212.212 0 0 1 .103-.027c.048 0 .102.024.163.073.061.048.136.103.224.167.089.06.194.12.316.178.124.059.272.098.444.118l.141-2.018a7.6 7.6 0 0 1-.524-.178 1.884 1.884 0 0 1-.46-.263 1.257 1.257 0 0 1-.327-.406 1.388 1.388 0 0 1-.122-.616 1.421 1.421 0 0 1 .422-1.011c.14-.137.311-.248.513-.335.203-.088.436-.138.699-.148l.038-.547a.243.243 0 0 1 .057-.13.17.17 0 0 1 .134-.056h.25l-.053.752c.266.033.496.102.688.205.193.104.365.23.517.377l-.163.25c-.051.077-.109.115-.175.115a.283.283 0 0 1-.133-.046 3.038 3.038 0 0 0-.441-.236 1.25 1.25 0 0 0-.331-.09l-.125 1.839c.182.056.362.116.539.182.178.066.338.151.479.255a1.152 1.152 0 0 1 .475.973c0 .228-.038.442-.114.642-.076.2-.187.376-.334.528a1.691 1.691 0 0 1-.536.373c-.21.094-.451.148-.722.163l-.046.67a.2.2 0 0 1-.061.124.161.161 0 0 1-.129.058h-.251l.057-.86Zm1.494-1.593a.694.694 0 0 0-.262-.562 1.26 1.26 0 0 0-.285-.171 3.759 3.759 0 0 0-.35-.133l-.129 1.892c.165-.015.31-.05.437-.106.129-.058.237-.132.323-.22a.838.838 0 0 0 .198-.308 1.1 1.1 0 0 0 .068-.392Zm-2.109-2.524c0 .122.021.228.064.32a.784.784 0 0 0 .179.235c.076.069.165.129.266.179.102.05.212.096.331.137l.114-1.714a1.477 1.477 0 0 0-.43.099.95.95 0 0 0-.296.19.783.783 0 0 0-.228.555Zm5.493-1.436c.23 0 .446.034.646.102.2.069.372.169.517.3.146.13.262.288.346.476.083.187.125.4.125.638 0 .203-.03.39-.091.563a2.347 2.347 0 0 1-.247.498c-.104.157-.224.31-.361.46-.135.147-.278.297-.43.452l-1.433 1.467a2.572 2.572 0 0 1 .609-.091h1.824a.24.24 0 0 1 .175.064.226.226 0 0 1 .064.168v.41h-3.633v-.232c0-.048.009-.098.026-.148a.43.43 0 0 1 .095-.14l1.745-1.753c.144-.147.276-.288.395-.422.119-.136.221-.273.304-.41.086-.137.152-.275.198-.414.046-.142.068-.293.068-.453 0-.16-.025-.299-.076-.418a.812.812 0 0 0-.52-.475c-.12-.04-.247-.06-.384-.06s-.264.02-.38.06a1.035 1.035 0 0 0-.54.426 1.014 1.014 0 0 0-.129.327.313.313 0 0 1-.091.16.246.246 0 0 1-.16.049h-.042l-.045-.008-.354-.06a1.98 1.98 0 0 1 .205-.658c.101-.193.229-.354.384-.483a1.64 1.64 0 0 1 .536-.293 2.03 2.03 0 0 1 .654-.102Zm6.382 2.786c0 .476-.052.89-.156 1.239a2.581 2.581 0 0 1-.418.862 1.689 1.689 0 0 1-.631.51c-.241.111-.5.167-.775.167-.28 0-.539-.056-.78-.167a1.697 1.697 0 0 1-.623-.51 2.562 2.562 0 0 1-.418-.862 4.454 4.454 0 0 1-.152-1.24c0-.475.05-.889.152-1.238.101-.35.241-.639.418-.867.177-.23.385-.402.623-.513.241-.111.5-.167.78-.167.275 0 .534.056.775.167.243.111.453.282.631.513.177.228.316.517.418.867.104.35.156.763.156 1.239Zm-.703 0c0-.416-.036-.764-.107-1.046a2.035 2.035 0 0 0-.281-.684 1.04 1.04 0 0 0-.889-.482c-.168 0-.329.038-.483.114a1.027 1.027 0 0 0-.407.368 2.12 2.12 0 0 0-.281.684c-.069.282-.103.63-.103 1.046 0 .415.034.764.103 1.045.07.281.164.508.281.68.116.172.252.297.407.373a1.111 1.111 0 0 0 .965 0c.154-.076.29-.2.407-.373.119-.172.213-.399.281-.68.071-.281.107-.63.107-1.045Zm3.364-2.786c.23 0 .443.033.638.099.195.065.362.16.502.28.142.123.252.27.331.442.078.172.117.364.117.574 0 .172-.022.327-.068.463a1.09 1.09 0 0 1-.487.616 1.64 1.64 0 0 1-.391.171c.355.094.621.25.798.471.18.22.27.497.27.829a1.545 1.545 0 0 1-.532 1.19 1.78 1.78 0 0 1-.578.323 2.19 2.19 0 0 1-.703.11c-.289 0-.536-.035-.741-.107a1.567 1.567 0 0 1-.521-.3 1.59 1.59 0 0 1-.349-.448 3.35 3.35 0 0 1-.232-.567l.289-.121a.4.4 0 0 1 .159-.035c.051 0 .095.012.133.035.04.02.071.053.091.099l.016.034.015.034c.035.073.078.157.129.25a1.078 1.078 0 0 0 .525.464c.129.056.288.084.478.084.191 0 .356-.03.498-.091.145-.064.264-.144.358-.243a.997.997 0 0 0 .288-.692c0-.147-.02-.281-.06-.403a.673.673 0 0 0-.213-.315 1.08 1.08 0 0 0-.426-.21 2.637 2.637 0 0 0-.695-.076v-.49c.23-.002.426-.027.589-.076a1.17 1.17 0 0 0 .403-.197.726.726 0 0 0 .224-.3 1.01 1.01 0 0 0 .072-.388c0-.157-.025-.294-.076-.41a.78.78 0 0 0-.509-.46 1.22 1.22 0 0 0-.38-.058c-.137 0-.264.02-.38.061-.117.04-.221.098-.312.171a.959.959 0 0 0-.224.259 1.161 1.161 0 0 0-.137.323.313.313 0 0 1-.091.16.24.24 0 0 1-.156.049h-.042l-.046-.008-.353-.06a1.98 1.98 0 0 1 .205-.658c.101-.193.229-.354.384-.483a1.64 1.64 0 0 1 .536-.293 2.03 2.03 0 0 1 .654-.102Zm2.486 5.04c0-.059.01-.113.03-.164a.437.437 0 0 1 .418-.266c.076 0 .144.014.202.042.061.028.11.067.148.118a.473.473 0 0 1 .091.17c.02.064.031.134.031.21 0 .114-.017.233-.05.357a2.015 2.015 0 0 1-.368.715c-.089.114-.19.219-.304.315l-.114-.11a.138.138 0 0 1-.05-.107c0-.033.018-.067.053-.102.026-.028.057-.066.095-.114a1.456 1.456 0 0 0 .232-.361.924.924 0 0 0 .076-.236h-.049a.436.436 0 0 1-.319-.13.52.52 0 0 1-.092-.147.58.58 0 0 1-.03-.19Zm4.762-1.498h.824v.388c0 .04-.013.075-.038.102-.022.028-.059.042-.11.042h-.676v1.433h-.597v-1.433h-2.414a.22.22 0 0 1-.133-.042.206.206 0 0 1-.068-.11l-.068-.346 2.649-3.515h.631v3.481Zm-.597-2.246a2.529 2.529 0 0 1 .03-.448l-1.98 2.694h1.95v-2.246Zm3.737 1.976c-.206 0-.401-.034-.586-.102a1.416 1.416 0 0 1-.817-.791 1.731 1.731 0 0 1-.122-.669 1.68 1.68 0 0 1 .506-1.212c.16-.155.35-.277.57-.365.22-.089.462-.133.726-.133.261 0 .498.043.711.129.213.086.395.206.547.361.152.155.268.34.35.555.083.216.125.453.125.715a2.245 2.245 0 0 1-.171.859 3.434 3.434 0 0 1-.201.402 5.603 5.603 0 0 1-.263.41l-1.326 1.916a.36.36 0 0 1-.141.118.502.502 0 0 1-.209.042h-.623l1.657-2.17.156-.21c.048-.065.093-.131.137-.197-.14.111-.297.197-.472.255-.174.058-.36.087-.554.087Zm1.36-1.592c0-.17-.028-.323-.083-.46a.955.955 0 0 0-.571-.574 1.153 1.153 0 0 0-.437-.08c-.167 0-.321.028-.46.084a1.049 1.049 0 0 0-.353.224.993.993 0 0 0-.224.346 1.396 1.396 0 0 0-.008.905.99.99 0 0 0 .213.341.906.906 0 0 0 .338.213c.134.049.284.073.449.073.182 0 .343-.03.482-.088a1.025 1.025 0 0 0 .578-.582c.051-.129.076-.263.076-.402Zm3.239 3.888c-.271 0-.52-.035-.745-.107a1.767 1.767 0 0 1-.582-.311 1.387 1.387 0 0 1-.376-.487 1.537 1.537 0 0 1-.133-.646c0-.35.091-.637.274-.863.182-.228.443-.39.783-.486a1.332 1.332 0 0 1-.65-.475 1.317 1.317 0 0 1-.217-.76 1.35 1.35 0 0 1 .452-1.019c.145-.13.317-.23.517-.304.203-.073.429-.11.677-.11.246 0 .47.037.673.11.202.073.376.175.52.304a1.346 1.346 0 0 1 .453 1.019c0 .293-.074.547-.221.76a1.33 1.33 0 0 1-.646.475c.339.096.601.258.783.486.182.226.274.514.274.863 0 .239-.046.454-.137.646-.089.19-.214.353-.376.487-.16.134-.353.238-.578.311a2.467 2.467 0 0 1-.745.107Zm0-.54c.177 0 .335-.024.475-.072.142-.05.261-.12.357-.21a.883.883 0 0 0 .224-.322c.054-.127.08-.266.08-.418a1.09 1.09 0 0 0-.095-.48.854.854 0 0 0-.251-.326.984.984 0 0 0-.361-.183c-.136-.04-.28-.06-.429-.06-.149 0-.293.02-.43.06a.906.906 0 0 0-.615.51 1.135 1.135 0 0 0-.092.479.962.962 0 0 0 .301.741c.099.088.217.158.357.209.142.048.301.072.479.072Zm0-2.615c.177 0 .328-.026.452-.08a.88.88 0 0 0 .308-.216.837.837 0 0 0 .171-.312c.035-.117.053-.237.053-.36a.984.984 0 0 0-.064-.358.84.84 0 0 0-.494-.49 1.153 1.153 0 0 0-.426-.073c-.162 0-.305.024-.43.073a.893.893 0 0 0-.307.197.867.867 0 0 0-.187.293c-.04.111-.06.23-.06.357 0 .124.017.244.053.361.035.117.092.22.171.312.078.088.179.16.304.216.126.054.278.08.456.08ZM119.954 98.503h1.878v.574h-1.878v-.574Zm4.224 2.611a2.458 2.458 0 0 1-.84-.224 2.338 2.338 0 0 1-.65-.471l.202-.312a.204.204 0 0 1 .076-.069.22.22 0 0 1 .102-.026c.049 0 .103.024.164.072.061.048.136.104.224.167.089.061.194.121.316.179.124.058.272.098.444.118l.141-2.018a7.628 7.628 0 0 1-.525-.18 1.877 1.877 0 0 1-.459-.261 1.242 1.242 0 0 1-.327-.407 1.388 1.388 0 0 1-.122-.616 1.42 1.42 0 0 1 .422-1.01c.139-.138.311-.249.513-.335.203-.089.436-.138.699-.148l.038-.548a.229.229 0 0 1 .057-.129.167.167 0 0 1 .133-.057h.251l-.053.753c.266.033.495.101.688.205.193.104.365.229.517.376l-.164.251c-.05.076-.109.114-.174.114a.283.283 0 0 1-.133-.046 3.042 3.042 0 0 0-.187-.11 2.197 2.197 0 0 0-.254-.125 1.25 1.25 0 0 0-.331-.091l-.125 1.84c.182.055.362.116.539.181.178.066.337.151.479.255a1.153 1.153 0 0 1 .475.973c0 .228-.038.442-.114.642a1.53 1.53 0 0 1-.334.529 1.688 1.688 0 0 1-.536.372c-.21.094-.451.148-.722.164l-.046.669a.198.198 0 0 1-.061.125.163.163 0 0 1-.129.057h-.251l.057-.859Zm1.494-1.592a.694.694 0 0 0-.262-.563 1.264 1.264 0 0 0-.285-.171 3.759 3.759 0 0 0-.35-.133l-.129 1.893c.164-.015.31-.051.437-.107.129-.058.237-.132.323-.22a.853.853 0 0 0 .198-.308c.045-.119.068-.25.068-.391Zm-2.109-2.524c0 .121.021.228.064.32a.766.766 0 0 0 .179.235c.076.068.164.128.266.178a2.7 2.7 0 0 0 .331.137l.114-1.714a1.48 1.48 0 0 0-.43.099.952.952 0 0 0-.296.19.783.783 0 0 0-.228.555Zm4.299 3.554h1.17v-3.714c0-.111.004-.224.012-.338l-.973.832a.333.333 0 0 1-.076.046.258.258 0 0 1-.072.011.227.227 0 0 1-.103-.022.21.21 0 0 1-.069-.061l-.212-.293 1.619-1.402h.551v4.941h1.072v.516h-2.919v-.516Zm5.751-4.99c.23 0 .443.032.638.098.196.066.363.16.502.281.142.122.252.27.331.441.078.172.117.364.117.574 0 .172-.022.327-.068.464a1.09 1.09 0 0 1-.487.615 1.644 1.644 0 0 1-.391.172c.355.093.621.25.798.47.18.221.27.498.27.83a1.546 1.546 0 0 1-.532 1.189c-.165.14-.357.247-.578.323-.218.073-.452.11-.703.11-.289 0-.536-.035-.741-.106a1.57 1.57 0 0 1-.521-.3 1.62 1.62 0 0 1-.349-.449 3.355 3.355 0 0 1-.232-.566l.289-.122a.4.4 0 0 1 .159-.034c.051 0 .095.011.133.034a.19.19 0 0 1 .091.099c.006.01.011.022.016.034l.015.034c.036.074.079.157.129.251.051.091.12.178.205.259.087.081.193.149.32.205a1.2 1.2 0 0 0 .478.084c.191 0 .357-.031.498-.092.145-.063.264-.144.358-.243a.999.999 0 0 0 .288-.692c0-.147-.02-.28-.06-.403a.673.673 0 0 0-.213-.315 1.073 1.073 0 0 0-.426-.209 2.632 2.632 0 0 0-.695-.076v-.49c.23-.003.427-.028.589-.076.165-.049.299-.114.403-.198a.718.718 0 0 0 .224-.3 1.01 1.01 0 0 0 .072-.388 1.02 1.02 0 0 0-.076-.41.768.768 0 0 0-.509-.46 1.213 1.213 0 0 0-.38-.057c-.137 0-.264.02-.38.06-.117.041-.221.098-.312.172a.957.957 0 0 0-.224.258 1.163 1.163 0 0 0-.137.323.306.306 0 0 1-.091.16.24.24 0 0 1-.156.05h-.042c-.012-.004-.028-.006-.046-.008l-.353-.061c.036-.248.104-.468.205-.658.102-.192.23-.353.384-.482.158-.13.336-.227.536-.293.203-.069.421-.103.654-.103Zm4.485 0c.231 0 .444.032.639.098s.362.16.501.281c.143.122.253.27.331.441.079.172.118.364.118.574 0 .172-.023.327-.069.464a1.09 1.09 0 0 1-.486.615 1.634 1.634 0 0 1-.392.172c.355.093.621.25.798.47.181.221.27.498.27.83a1.532 1.532 0 0 1-.532 1.189c-.164.14-.357.247-.577.323-.218.073-.453.11-.704.11-.288 0-.535-.035-.741-.106a1.565 1.565 0 0 1-.52-.3 1.604 1.604 0 0 1-.35-.449 3.53 3.53 0 0 1-.232-.566l.289-.122a.4.4 0 0 1 .16-.034c.051 0 .095.011.133.034.04.02.071.053.091.099l.015.034.015.034c.036.074.079.157.129.251a1.091 1.091 0 0 0 .525.464c.129.056.289.084.479.084s.356-.031.498-.092a1.073 1.073 0 0 0 .574-.574.979.979 0 0 0 .072-.36c0-.148-.02-.282-.061-.403a.673.673 0 0 0-.213-.316 1.075 1.075 0 0 0-.425-.209 2.64 2.64 0 0 0-.696-.076v-.49c.231-.003.427-.028.589-.076.165-.049.299-.114.403-.198a.71.71 0 0 0 .224-.3.992.992 0 0 0 .072-.388 1.02 1.02 0 0 0-.076-.41.757.757 0 0 0-.201-.29.84.84 0 0 0-.308-.17 1.213 1.213 0 0 0-.38-.057c-.137 0-.263.02-.38.06-.116.041-.22.098-.312.172a.974.974 0 0 0-.224.258 1.194 1.194 0 0 0-.137.323.3.3 0 0 1-.091.16.237.237 0 0 1-.156.05h-.042c-.012-.004-.027-.006-.045-.008l-.354-.061c.036-.248.105-.468.206-.658.101-.192.229-.353.383-.482.158-.13.337-.227.536-.293.203-.069.421-.103.654-.103Zm2.486 5.039a.41.41 0 0 1 .266-.395.477.477 0 0 1 .183-.035c.076 0 .143.015.201.042a.485.485 0 0 1 .24.289c.02.064.03.133.03.209 0 .114-.016.233-.049.357a2.035 2.035 0 0 1-.369.715 2.1 2.1 0 0 1-.304.315l-.114-.11a.139.139 0 0 1-.05-.106c0-.033.018-.068.054-.103a2.57 2.57 0 0 0 .095-.114 1.464 1.464 0 0 0 .232-.361.959.959 0 0 0 .076-.236h-.05a.445.445 0 0 1-.319-.129.496.496 0 0 1-.091-.148.582.582 0 0 1-.031-.19Zm5.511-2.254c0 .476-.052.89-.156 1.24a2.562 2.562 0 0 1-.418.862 1.678 1.678 0 0 1-.631.509 1.815 1.815 0 0 1-.775.167c-.279 0-.539-.055-.78-.167a1.71 1.71 0 0 1-.623-.509 2.581 2.581 0 0 1-.418-.863 4.493 4.493 0 0 1-.152-1.239c0-.476.051-.89.152-1.239.102-.35.241-.638.418-.866.178-.231.386-.402.623-.514.241-.11.501-.167.78-.167.276 0 .534.056.775.167.243.112.454.283.631.514.177.228.317.516.418.866.104.35.156.763.156 1.24Zm-.703 0c0-.415-.036-.764-.107-1.045a2.036 2.036 0 0 0-.281-.684 1.027 1.027 0 0 0-.407-.369 1.077 1.077 0 0 0-.965 0 1.04 1.04 0 0 0-.407.369c-.116.172-.21.4-.281.684-.068.281-.103.63-.103 1.045 0 .416.035.764.103 1.045.071.282.165.508.281.681.117.172.253.296.407.372a1.118 1.118 0 0 0 .965 0c.155-.076.291-.2.407-.372.119-.172.213-.4.281-.68.071-.282.107-.63.107-1.046Zm5.188 0c0 .476-.052.89-.156 1.24-.101.346-.24.634-.418.862a1.678 1.678 0 0 1-.631.509c-.24.112-.499.167-.775.167-.279 0-.538-.055-.779-.167a1.704 1.704 0 0 1-.624-.509 2.581 2.581 0 0 1-.418-.863 4.493 4.493 0 0 1-.152-1.239c0-.476.051-.89.152-1.239.102-.35.241-.638.418-.866.178-.231.386-.402.624-.514.241-.11.5-.167.779-.167.276 0 .535.056.775.167.243.112.454.283.631.514.178.228.317.516.418.866.104.35.156.763.156 1.24Zm-.703 0c0-.415-.035-.764-.107-1.045a2.016 2.016 0 0 0-.281-.684 1.031 1.031 0 0 0-.406-.369 1.084 1.084 0 0 0-.966 0c-.154.074-.29.197-.406.369-.117.172-.211.4-.282.684-.068.281-.102.63-.102 1.045 0 .416.034.764.102 1.045.071.282.165.508.282.681.116.172.252.296.406.372a1.122 1.122 0 0 0 .966 0c.154-.076.29-.2.406-.372.12-.172.213-.4.281-.68.072-.282.107-.63.107-1.046ZM119.954 116.963h1.878v.574h-1.878v-.574Zm4.224 2.611a2.413 2.413 0 0 1-.84-.224 2.318 2.318 0 0 1-.65-.471l.202-.312a.21.21 0 0 1 .076-.068.21.21 0 0 1 .102-.027c.049 0 .103.024.164.073.061.048.136.103.224.167.089.061.194.12.316.178.124.058.272.098.444.118l.141-2.018a7.371 7.371 0 0 1-.525-.179 1.845 1.845 0 0 1-.459-.262 1.236 1.236 0 0 1-.327-.407 1.383 1.383 0 0 1-.122-.615 1.423 1.423 0 0 1 .422-1.011c.139-.137.311-.248.513-.335a1.93 1.93 0 0 1 .699-.148l.038-.547a.226.226 0 0 1 .057-.129.167.167 0 0 1 .133-.057h.251l-.053.752c.266.033.495.102.688.205.193.104.365.229.517.377l-.164.25c-.05.076-.109.114-.174.114a.285.285 0 0 1-.133-.045 2.77 2.77 0 0 0-.187-.11 2.227 2.227 0 0 0-.254-.126 1.25 1.25 0 0 0-.331-.091l-.125 1.84c.182.055.362.116.539.182.178.066.337.151.479.255.142.103.256.234.342.391.089.155.133.349.133.582 0 .228-.038.442-.114.642-.076.2-.187.376-.334.528a1.69 1.69 0 0 1-.536.373c-.21.094-.451.148-.722.163l-.046.669a.198.198 0 0 1-.061.125.163.163 0 0 1-.129.057h-.251l.057-.859Zm1.494-1.592a.695.695 0 0 0-.262-.562 1.277 1.277 0 0 0-.285-.172 3.936 3.936 0 0 0-.35-.133l-.129 1.893c.164-.015.31-.05.437-.106.129-.058.237-.132.323-.221a.845.845 0 0 0 .198-.308c.045-.118.068-.249.068-.391Zm-2.109-2.524c0 .122.021.228.064.32a.765.765 0 0 0 .179.235c.076.069.164.128.266.179.101.05.212.096.331.137l.114-1.714a1.488 1.488 0 0 0-.43.098.961.961 0 0 0-.296.19.784.784 0 0 0-.228.555Zm5.678.734c.218 0 .425.037.62.11a1.47 1.47 0 0 1 .863.825c.086.2.129.429.129.688 0 .251-.046.484-.137.699a1.688 1.688 0 0 1-.384.563 1.74 1.74 0 0 1-.589.376 2.055 2.055 0 0 1-.76.137c-.274 0-.522-.043-.745-.13a1.631 1.631 0 0 1-.566-.372 1.682 1.682 0 0 1-.365-.585 2.245 2.245 0 0 1-.126-.772c0-.238.054-.491.16-.76.106-.269.275-.558.505-.867l1.38-1.858a.396.396 0 0 1 .148-.114.465.465 0 0 1 .217-.049h.601l-1.889 2.39c.129-.088.272-.157.429-.205a1.64 1.64 0 0 1 .509-.076Zm-1.406 1.657c0 .175.026.334.076.479.051.144.124.269.221.372.098.104.217.185.357.244.142.056.303.083.483.083.182 0 .346-.029.494-.087.147-.058.272-.14.376-.243a1.05 1.05 0 0 0 .243-.369c.058-.142.088-.297.088-.464 0-.177-.028-.337-.084-.479a1.01 1.01 0 0 0-.601-.596 1.297 1.297 0 0 0-.467-.08 1.223 1.223 0 0 0-.87.346c-.102.103-.18.225-.236.365-.053.136-.08.28-.08.429Zm3.779 1.212c0-.058.01-.113.03-.163a.435.435 0 0 1 .236-.232.468.468 0 0 1 .182-.034c.076 0 .143.014.201.042a.484.484 0 0 1 .24.289.66.66 0 0 1 .03.209c0 .114-.016.233-.049.357a1.998 1.998 0 0 1-.369.714c-.088.114-.19.22-.304.316l-.114-.11a.145.145 0 0 1-.049-.107c0-.033.018-.067.053-.102a2.57 2.57 0 0 0 .095-.114 1.483 1.483 0 0 0 .232-.361.893.893 0 0 0 .076-.236h-.05a.463.463 0 0 1-.178-.034.467.467 0 0 1-.141-.095.523.523 0 0 1-.091-.149.578.578 0 0 1-.03-.19Zm3.8-2.869c.217 0 .424.037.619.11.195.071.366.176.513.316.147.136.264.306.35.509.086.2.129.429.129.688 0 .251-.045.484-.137.699a1.688 1.688 0 0 1-.384.563 1.74 1.74 0 0 1-.589.376c-.23.091-.483.137-.76.137-.273 0-.522-.043-.745-.13a1.631 1.631 0 0 1-.566-.372 1.682 1.682 0 0 1-.365-.585 2.269 2.269 0 0 1-.125-.772c0-.238.053-.491.159-.76a3.86 3.86 0 0 1 .506-.867l1.379-1.858a.4.4 0 0 1 .149-.114.458.458 0 0 1 .216-.049h.601l-1.889 2.39a1.642 1.642 0 0 1 .939-.281Zm-1.407 1.657c0 .175.026.334.076.479.051.144.125.269.221.372.099.104.218.185.357.244.142.056.303.083.483.083.182 0 .347-.029.494-.087.147-.058.272-.14.376-.243.107-.104.187-.227.243-.369.059-.142.088-.297.088-.464 0-.177-.028-.337-.084-.479a1.021 1.021 0 0 0-.235-.365 1.024 1.024 0 0 0-.365-.231 1.307 1.307 0 0 0-.468-.08c-.182 0-.347.031-.494.095a1.108 1.108 0 0 0-.612.616c-.053.136-.08.28-.08.429Zm7.542-3.766v.304a.633.633 0 0 1-.031.212.893.893 0 0 1-.057.141l-2.254 4.549a.513.513 0 0 1-.137.171.367.367 0 0 1-.235.069h-.483l2.288-4.493a2.7 2.7 0 0 1 .099-.174c.035-.054.075-.104.118-.152h-2.843a.17.17 0 0 1-.167-.168v-.459h3.702Zm4.546 2.725c0 .476-.052.889-.156 1.239a2.557 2.557 0 0 1-.418.862 1.69 1.69 0 0 1-.631.51 1.83 1.83 0 0 1-.775.167c-.279 0-.539-.056-.78-.167a1.722 1.722 0 0 1-.623-.51 2.576 2.576 0 0 1-.418-.862 4.495 4.495 0 0 1-.152-1.239c0-.477.051-.89.152-1.239.102-.35.241-.639.418-.867.178-.231.386-.402.623-.513.241-.111.501-.167.78-.167.276 0 .534.056.775.167.243.111.454.282.631.513.177.228.317.517.418.867.104.349.156.762.156 1.239Zm-.703 0c0-.416-.036-.764-.107-1.046a2.033 2.033 0 0 0-.281-.684 1.024 1.024 0 0 0-.407-.368 1.077 1.077 0 0 0-.965 0c-.154.073-.29.196-.407.368-.116.172-.21.4-.281.684-.068.282-.103.63-.103 1.046 0 .415.035.764.103 1.045.071.281.165.508.281.68.117.172.253.297.407.373a1.118 1.118 0 0 0 .965 0c.155-.076.291-.201.407-.373.119-.172.213-.399.281-.68.071-.281.107-.63.107-1.045ZM119.954 135.424h1.878v.574h-1.878v-.574Zm4.224 2.611a2.458 2.458 0 0 1-.84-.224 2.34 2.34 0 0 1-.65-.472l.202-.311a.204.204 0 0 1 .076-.069.21.21 0 0 1 .102-.026c.049 0 .103.024.164.072.061.048.136.104.224.167.089.061.194.121.316.179.124.058.272.098.444.118l.141-2.019a7.363 7.363 0 0 1-.525-.178 1.91 1.91 0 0 1-.459-.262 1.256 1.256 0 0 1-.327-.407 1.39 1.39 0 0 1-.122-.616 1.415 1.415 0 0 1 .422-1.011c.139-.137.311-.248.513-.334a1.91 1.91 0 0 1 .699-.148l.038-.548a.23.23 0 0 1 .057-.129.167.167 0 0 1 .133-.057h.251l-.053.753c.266.033.495.101.688.205.193.103.365.229.517.376l-.164.251c-.05.076-.109.114-.174.114a.277.277 0 0 1-.133-.046 3.27 3.27 0 0 0-.441-.235 1.25 1.25 0 0 0-.331-.092l-.125 1.84c.182.056.362.117.539.182.178.066.337.151.479.255a1.148 1.148 0 0 1 .475.973c0 .228-.038.442-.114.642a1.53 1.53 0 0 1-.334.529 1.688 1.688 0 0 1-.536.372c-.21.094-.451.148-.722.164l-.046.668a.198.198 0 0 1-.061.126.163.163 0 0 1-.129.057h-.251l.057-.859Zm1.494-1.593a.691.691 0 0 0-.262-.562 1.238 1.238 0 0 0-.285-.171 3.936 3.936 0 0 0-.35-.133l-.129 1.893c.164-.016.31-.051.437-.107.129-.058.237-.132.323-.22a.853.853 0 0 0 .198-.308c.045-.119.068-.25.068-.392Zm-2.109-2.523c0 .121.021.228.064.319a.77.77 0 0 0 .179.236c.076.068.164.128.266.178.101.051.212.096.331.137l.114-1.714a1.455 1.455 0 0 0-.43.099.943.943 0 0 0-.296.19.785.785 0 0 0-.228.555Zm5.564-1.437c.231 0 .444.033.639.099s.362.16.502.281c.141.122.251.269.33.441.079.172.118.364.118.574 0 .172-.023.327-.068.464a1.112 1.112 0 0 1-.487.615 1.591 1.591 0 0 1-.391.171c.354.094.62.251.798.472.18.22.27.497.27.828a1.55 1.55 0 0 1-.532 1.19 1.8 1.8 0 0 1-.578.323c-.218.073-.452.11-.703.11-.289 0-.536-.035-.741-.106a1.562 1.562 0 0 1-.521-.301 1.585 1.585 0 0 1-.35-.448 3.547 3.547 0 0 1-.232-.566l.289-.122a.4.4 0 0 1 .16-.034c.05 0 .095.011.133.034.041.02.071.053.091.099a.57.57 0 0 1 .015.034l.016.034c.035.074.078.157.129.251a1.062 1.062 0 0 0 .524.464c.129.056.289.083.479.083s.356-.03.498-.091c.144-.063.263-.144.357-.243a1 1 0 0 0 .289-.692c0-.147-.02-.281-.061-.403a.672.672 0 0 0-.213-.315 1.062 1.062 0 0 0-.425-.209 2.619 2.619 0 0 0-.696-.076v-.49c.231-.003.427-.028.589-.076.165-.049.3-.114.403-.198a.716.716 0 0 0 .224-.3.994.994 0 0 0 .073-.388 1.03 1.03 0 0 0-.076-.41.768.768 0 0 0-.202-.289.849.849 0 0 0-.308-.171 1.216 1.216 0 0 0-.38-.057 1.055 1.055 0 0 0-.691.231.969.969 0 0 0-.225.259c-.06.099-.106.206-.136.323a.309.309 0 0 1-.092.16.237.237 0 0 1-.156.049h-.041l-.046-.008-.353-.06c.035-.249.103-.468.205-.658.101-.193.229-.353.384-.483.157-.129.335-.227.536-.292.202-.069.42-.103.653-.103Zm2.487 5.04c0-.058.01-.113.03-.164a.433.433 0 0 1 .418-.266c.076 0 .143.014.201.042a.484.484 0 0 1 .24.289c.021.064.03.133.03.209 0 .114-.016.233-.049.357a2.005 2.005 0 0 1-.369.715c-.088.114-.19.219-.304.315l-.114-.11a.143.143 0 0 1-.049-.106c0-.033.018-.068.053-.103a2.57 2.57 0 0 0 .095-.114 1.483 1.483 0 0 0 .232-.361.881.881 0 0 0 .076-.236h-.05a.445.445 0 0 1-.319-.129.517.517 0 0 1-.091-.148.582.582 0 0 1-.03-.19Zm2.42-.05h1.171v-3.713c0-.111.003-.224.011-.338l-.973.832a.291.291 0 0 1-.076.046.268.268 0 0 1-.072.011.22.22 0 0 1-.103-.023.202.202 0 0 1-.068-.06l-.213-.293 1.619-1.402h.551v4.94h1.072v.517h-2.919v-.517Zm5.481-1.717c-.205 0-.4-.035-.585-.103a1.413 1.413 0 0 1-.483-.3 1.493 1.493 0 0 1-.334-.491 1.731 1.731 0 0 1-.122-.669 1.655 1.655 0 0 1 .506-1.212c.159-.155.349-.276.57-.365.22-.088.462-.133.726-.133.261 0 .497.043.71.129.213.087.396.207.548.361.152.155.268.34.349.555.084.216.126.454.126.715 0 .157-.015.307-.046.448-.028.14-.069.277-.125.411a3.297 3.297 0 0 1-.202.403 5.635 5.635 0 0 1-.262.41l-1.326 1.916a.376.376 0 0 1-.141.118.51.51 0 0 1-.209.041h-.623l1.657-2.17c.056-.073.107-.143.156-.209.048-.066.093-.132.136-.198a1.492 1.492 0 0 1-.471.255c-.175.058-.36.088-.555.088Zm1.361-1.593c0-.17-.028-.323-.084-.46a.992.992 0 0 0-.224-.353.973.973 0 0 0-.346-.221 1.16 1.16 0 0 0-.437-.08c-.167 0-.32.028-.46.084a1.029 1.029 0 0 0-.353.224 1.025 1.025 0 0 0-.225.346 1.189 1.189 0 0 0-.079.441c0 .172.023.327.072.464.05.134.121.248.213.342a.923.923 0 0 0 .338.213c.134.048.284.072.448.072.183 0 .344-.029.483-.088a1.032 1.032 0 0 0 .578-.581c.05-.129.076-.263.076-.403Zm3.322-1.68c.231 0 .446.034.646.103a1.434 1.434 0 0 1 .863.775c.084.187.125.4.125.639 0 .202-.03.39-.091.562a2.357 2.357 0 0 1-.247.498 3.693 3.693 0 0 1-.361.46c-.134.147-.277.297-.429.452l-1.433 1.467a2.671 2.671 0 0 1 .608-.091h1.824c.074 0 .132.022.175.065a.225.225 0 0 1 .065.167v.41h-3.634v-.232c0-.048.009-.097.027-.148a.42.42 0 0 1 .095-.14l1.744-1.752c.145-.148.277-.288.396-.422.119-.137.22-.274.304-.411.086-.137.152-.275.197-.414a1.46 1.46 0 0 0 .069-.452c0-.16-.025-.3-.076-.418a.813.813 0 0 0-.521-.476 1.198 1.198 0 0 0-.384-.06 1.073 1.073 0 0 0-.692.231 1.093 1.093 0 0 0-.228.255c-.06.099-.103.208-.129.327a.301.301 0 0 1-.091.16.243.243 0 0 1-.16.049h-.042l-.045-.008-.354-.06c.036-.249.105-.468.206-.658.101-.193.229-.353.384-.483.157-.129.336-.227.535-.292.203-.069.421-.103.654-.103ZM122.341 61.108c0 .309-.038.588-.114.836-.076.248-.19.46-.342.635a1.462 1.462 0 0 1-.562.403c-.226.094-.488.14-.787.14a3.39 3.39 0 0 1-.817-.103l.053-.607a.196.196 0 0 1 .061-.133.232.232 0 0 1 .163-.054c.044 0 .099.01.167.027.072.018.16.027.266.027.145 0 .273-.02.384-.061a.645.645 0 0 0 .278-.202.903.903 0 0 0 .171-.353c.038-.147.057-.324.057-.532v-3.565h1.022v3.542Zm4.185 1.954h-.422a.472.472 0 0 1-.209-.038c-.051-.028-.089-.083-.114-.164l-.083-.277a3.418 3.418 0 0 1-.293.235 1.817 1.817 0 0 1-.293.168c-.101.045-.209.08-.323.102a1.946 1.946 0 0 1-.38.034 1.54 1.54 0 0 1-.456-.064 1.028 1.028 0 0 1-.361-.202.916.916 0 0 1-.232-.33 1.17 1.17 0 0 1-.083-.46c0-.147.038-.292.114-.434a1.08 1.08 0 0 1 .387-.387c.18-.117.42-.213.719-.289.298-.076.67-.119 1.113-.13V60.6c0-.261-.056-.454-.167-.578-.109-.127-.269-.19-.479-.19a1.166 1.166 0 0 0-.646.175l-.205.118a.425.425 0 0 1-.209.053.272.272 0 0 1-.164-.05.398.398 0 0 1-.11-.121l-.171-.3c.449-.41.989-.616 1.623-.616.228 0 .431.038.608.114.18.073.332.177.456.312.124.132.218.29.282.475.065.185.098.387.098.608v2.463Zm-1.824-.586c.096 0 .185-.008.266-.026a.99.99 0 0 0 .228-.08c.073-.035.143-.079.209-.13.069-.053.137-.114.205-.186v-.657a4.97 4.97 0 0 0-.688.072 1.773 1.773 0 0 0-.44.13.58.58 0 0 0-.24.186.425.425 0 0 0-.068.231c0 .165.047.283.144.354a.643.643 0 0 0 .384.106Zm2.823.586v-3.9h.574c.122 0 .202.057.24.171l.064.308a1.924 1.924 0 0 1 .525-.392c.099-.048.204-.084.315-.11a1.64 1.64 0 0 1 .365-.038c.213 0 .402.037.566.11.165.072.302.173.411.305.111.129.195.285.251.467.058.18.087.379.087.597v2.482h-.939V60.58c0-.239-.056-.422-.167-.551-.109-.132-.273-.198-.494-.198a.98.98 0 0 0-.456.11 1.64 1.64 0 0 0-.403.3v2.82h-.939Zm5.256-3.9v2.478c0 .239.054.423.163.555.111.13.278.194.498.194.162 0 .314-.035.456-.107.142-.073.276-.173.403-.3v-2.82h.939v3.9h-.574c-.122 0-.202-.057-.24-.171l-.064-.312c-.081.08-.165.156-.251.224a1.49 1.49 0 0 1-.593.277 1.492 1.492 0 0 1-.361.042c-.213 0-.402-.035-.566-.106a1.14 1.14 0 0 1-.411-.308 1.39 1.39 0 0 1-.255-.467 2.073 2.073 0 0 1-.083-.6v-2.479h.939Zm6.593 3.9h-.422a.469.469 0 0 1-.209-.038c-.051-.028-.089-.083-.114-.164l-.084-.277a3.41 3.41 0 0 1-.292.235 1.817 1.817 0 0 1-.293.168c-.102.045-.209.08-.323.102a1.946 1.946 0 0 1-.38.034 1.54 1.54 0 0 1-.456-.064 1.019 1.019 0 0 1-.361-.202.916.916 0 0 1-.232-.33 1.169 1.169 0 0 1-.084-.46c0-.147.038-.292.114-.434.079-.144.208-.273.388-.387.18-.117.419-.213.718-.289.299-.076.67-.119 1.114-.13V60.6c0-.261-.056-.454-.167-.578-.11-.127-.269-.19-.479-.19a1.166 1.166 0 0 0-.646.175l-.206.118a.422.422 0 0 1-.209.053.269.269 0 0 1-.163-.05.374.374 0 0 1-.11-.121l-.171-.3c.448-.41.989-.616 1.622-.616.229 0 .431.038.609.114a1.275 1.275 0 0 1 .737.787c.066.185.099.387.099.608v2.463Zm-1.825-.586c.097 0 .186-.008.266-.026a1.186 1.186 0 0 0 .438-.21c.068-.053.136-.114.205-.186v-.657a4.953 4.953 0 0 0-.688.072 1.77 1.77 0 0 0-.441.13.583.583 0 0 0-.239.186.418.418 0 0 0-.069.231c0 .165.048.283.145.354a.638.638 0 0 0 .383.106Zm2.824.586v-3.9h.551c.096 0 .163.018.201.053.038.036.064.096.076.183l.057.471c.14-.24.303-.43.491-.57a1.03 1.03 0 0 1 .631-.21c.192 0 .352.045.478.134l-.121.703c-.008.046-.024.079-.05.099a.171.171 0 0 1-.102.026.63.63 0 0 1-.156-.026 1.034 1.034 0 0 0-.262-.027.79.79 0 0 0-.502.164c-.14.106-.257.263-.353.47v2.43h-.939Zm4.562 1.071a.333.333 0 0 1-.11.149c-.043.035-.11.053-.201.053h-.7l.73-1.562-1.577-3.61h.821c.076 0 .134.017.174.052a.342.342 0 0 1 .092.122l.832 2.022c.028.066.052.134.072.205.02.071.038.142.053.213a4.94 4.94 0 0 1 .065-.213l.08-.209.783-2.018a.279.279 0 0 1 .258-.175h.753l-2.125 4.971Z"/><path fill="#91968E" fill-rule="evenodd" d="M152.432 63.605a.318.318 0 0 1-.315-.316v-5.124l-.513.513a.318.318 0 0 1-.446 0 .317.317 0 0 1 0-.445l1.051-1.051a.3.3 0 0 1 .091-.063.306.306 0 0 1 .293.015.305.305 0 0 1 .061.048l1.051 1.05a.317.317 0 0 1 0 .446.312.312 0 0 1-.445 0l-.513-.512v5.123a.318.318 0 0 1-.315.316Zm3.347-.001a.312.312 0 0 1-.207-.092l-1.051-1.051a.317.317 0 0 1 0-.445.317.317 0 0 1 .446 0l.512.512v-5.124c0-.172.143-.315.315-.315.173 0 .316.143.316.315v5.125l.513-.513a.317.317 0 0 1 .446 0 .318.318 0 0 1 0 .445l-1.052 1.051a.31.31 0 0 1-.222.093l-.016-.001Z" clip-rule="evenodd"/><path fill="#F4F4F4" d="M174.677 82.654a2.438 2.438 0 0 1-.84-.225 2.322 2.322 0 0 1-.649-.47l.201-.313a.204.204 0 0 1 .076-.068.212.212 0 0 1 .103-.027c.048 0 .102.024.163.073.061.048.136.103.224.167.089.06.194.12.316.178.124.059.272.098.444.118l.141-2.018a7.6 7.6 0 0 1-.524-.178 1.884 1.884 0 0 1-.46-.263 1.257 1.257 0 0 1-.327-.406 1.388 1.388 0 0 1-.122-.616 1.421 1.421 0 0 1 .422-1.011c.14-.137.311-.248.513-.335.203-.088.436-.138.699-.148l.038-.547a.243.243 0 0 1 .057-.13.17.17 0 0 1 .133-.056h.251l-.053.752c.266.033.496.102.688.205.193.104.365.23.517.377l-.163.25c-.051.077-.109.115-.175.115a.283.283 0 0 1-.133-.046 3.038 3.038 0 0 0-.441-.236 1.25 1.25 0 0 0-.331-.09l-.125 1.839c.182.056.362.116.539.182.178.066.338.151.479.255a1.152 1.152 0 0 1 .475.973c0 .228-.038.442-.114.642-.076.2-.187.376-.334.528a1.691 1.691 0 0 1-.536.373c-.21.094-.451.148-.722.163l-.046.67a.2.2 0 0 1-.061.124.161.161 0 0 1-.129.058h-.251l.057-.86Zm1.494-1.593a.694.694 0 0 0-.262-.562 1.26 1.26 0 0 0-.285-.171 3.759 3.759 0 0 0-.35-.133l-.129 1.892c.165-.015.31-.05.437-.106.129-.058.237-.132.323-.22a.838.838 0 0 0 .198-.308 1.1 1.1 0 0 0 .068-.392Zm-2.109-2.524c0 .122.021.228.064.32a.784.784 0 0 0 .179.235c.076.069.165.129.266.179.101.05.212.096.331.137l.114-1.714a1.477 1.477 0 0 0-.43.099.95.95 0 0 0-.296.19.783.783 0 0 0-.228.555Zm5.493-1.436c.23 0 .445.034.646.102.2.069.372.169.517.3.146.13.262.288.346.476.083.187.125.4.125.638 0 .203-.03.39-.091.563a2.395 2.395 0 0 1-.247.498c-.104.157-.224.31-.361.46-.135.147-.278.297-.43.452l-1.433 1.467a2.572 2.572 0 0 1 .608-.091h1.825a.24.24 0 0 1 .175.064.226.226 0 0 1 .064.168v.41h-3.633v-.232c0-.048.008-.098.026-.148a.416.416 0 0 1 .095-.14l1.745-1.753c.144-.147.276-.288.395-.422.119-.136.221-.273.304-.41.086-.137.152-.275.198-.414.046-.142.068-.293.068-.453 0-.16-.025-.299-.076-.418a.812.812 0 0 0-.52-.475c-.12-.04-.247-.06-.384-.06s-.264.02-.38.06a1.035 1.035 0 0 0-.54.426 1.014 1.014 0 0 0-.129.327.313.313 0 0 1-.091.16.246.246 0 0 1-.16.049h-.042l-.046-.008-.353-.06a1.98 1.98 0 0 1 .205-.658c.101-.193.229-.354.384-.483a1.64 1.64 0 0 1 .536-.293 2.03 2.03 0 0 1 .654-.102Zm6.382 2.786c0 .476-.052.89-.156 1.239a2.581 2.581 0 0 1-.418.862 1.689 1.689 0 0 1-.631.51 1.83 1.83 0 0 1-.776.167c-.279 0-.538-.056-.779-.167a1.697 1.697 0 0 1-.623-.51 2.544 2.544 0 0 1-.418-.862 4.454 4.454 0 0 1-.152-1.24c0-.475.05-.889.152-1.238.101-.35.24-.639.418-.867.177-.23.385-.402.623-.513.241-.111.5-.167.779-.167.276 0 .535.056.776.167.243.111.453.282.631.513.177.228.316.517.418.867.104.35.156.763.156 1.239Zm-.703 0c0-.416-.036-.764-.107-1.046a2.035 2.035 0 0 0-.281-.684 1.04 1.04 0 0 0-.89-.482c-.167 0-.328.038-.482.114a1.027 1.027 0 0 0-.407.368 2.12 2.12 0 0 0-.281.684c-.069.282-.103.63-.103 1.046 0 .415.034.764.103 1.045.07.281.164.508.281.68.116.172.252.297.407.373a1.11 1.11 0 0 0 .965 0c.154-.076.29-.2.407-.373.119-.172.213-.399.281-.68.071-.281.107-.63.107-1.045Zm3.291-2.786c.231 0 .446.034.647.102a1.453 1.453 0 0 1 .862.776c.084.187.126.4.126.638a1.7 1.7 0 0 1-.091.563 2.351 2.351 0 0 1-.248.498c-.104.157-.224.31-.361.46-.134.147-.277.297-.429.452l-1.433 1.467a2.572 2.572 0 0 1 .608-.091h1.825c.073 0 .131.021.174.064a.227.227 0 0 1 .065.168v.41h-3.634v-.232a.44.44 0 0 1 .027-.148.416.416 0 0 1 .095-.14l1.745-1.753c.144-.147.275-.288.395-.422.119-.136.22-.273.304-.41.086-.137.152-.275.198-.414.045-.142.068-.293.068-.453 0-.16-.026-.299-.076-.418a.824.824 0 0 0-.209-.3.859.859 0 0 0-.312-.175 1.179 1.179 0 0 0-.384-.06c-.136 0-.263.02-.38.06a1.041 1.041 0 0 0-.539.426 1.016 1.016 0 0 0-.13.327.306.306 0 0 1-.091.16.245.245 0 0 1-.159.049h-.042l-.046-.008-.353-.06c.035-.249.103-.468.205-.658.101-.193.229-.354.384-.483a1.63 1.63 0 0 1 .536-.293c.202-.068.42-.102.653-.102Zm2.559 5.04c0-.059.01-.113.03-.164a.434.434 0 0 1 .418-.266c.076 0 .144.014.202.042.061.028.11.067.148.118a.473.473 0 0 1 .091.17c.02.064.031.134.031.21 0 .114-.017.233-.05.357a2.015 2.015 0 0 1-.368.715c-.089.114-.191.219-.305.315l-.114-.11a.14.14 0 0 1-.049-.107c0-.033.018-.067.053-.102.026-.028.057-.066.095-.114a1.456 1.456 0 0 0 .232-.361.924.924 0 0 0 .076-.236h-.049a.45.45 0 0 1-.32-.13.517.517 0 0 1-.091-.147.58.58 0 0 1-.03-.19Zm4.762-1.498h.824v.388c0 .04-.013.075-.038.102-.022.028-.059.042-.11.042h-.676v1.433h-.597v-1.433h-2.414a.22.22 0 0 1-.133-.042.206.206 0 0 1-.068-.11l-.068-.346 2.649-3.515h.631v3.481Zm-.597-2.246a2.529 2.529 0 0 1 .03-.448l-1.98 2.694h1.95v-2.246Zm3.736 1.976c-.205 0-.4-.034-.585-.102a1.42 1.42 0 0 1-.483-.3 1.508 1.508 0 0 1-.334-.491 1.731 1.731 0 0 1-.122-.669 1.68 1.68 0 0 1 .506-1.212c.16-.155.35-.277.57-.365.22-.089.462-.133.726-.133.261 0 .498.043.711.129.212.086.395.206.547.361.152.155.268.34.35.555.083.216.125.453.125.715a2.245 2.245 0 0 1-.171.859 3.434 3.434 0 0 1-.201.402 5.603 5.603 0 0 1-.263.41l-1.326 1.916a.36.36 0 0 1-.141.118.502.502 0 0 1-.209.042h-.623l1.657-2.17.156-.21c.048-.065.093-.131.137-.197-.14.111-.297.197-.472.255-.174.058-.36.087-.555.087Zm1.361-1.592c0-.17-.028-.323-.083-.46a.955.955 0 0 0-.571-.574 1.156 1.156 0 0 0-.437-.08c-.167 0-.321.028-.46.084a1.049 1.049 0 0 0-.353.224.993.993 0 0 0-.224.346 1.396 1.396 0 0 0-.008.905.99.99 0 0 0 .213.341.906.906 0 0 0 .338.213c.134.049.284.073.449.073.182 0 .343-.03.482-.088a1.025 1.025 0 0 0 .578-.582c.051-.129.076-.263.076-.402Zm3.239 3.888c-.271 0-.52-.035-.745-.107a1.767 1.767 0 0 1-.582-.311 1.387 1.387 0 0 1-.376-.487 1.537 1.537 0 0 1-.133-.646c0-.35.091-.637.274-.863.182-.228.443-.39.783-.486a1.332 1.332 0 0 1-.65-.475 1.317 1.317 0 0 1-.217-.76 1.35 1.35 0 0 1 .452-1.019c.145-.13.317-.23.517-.304.203-.073.429-.11.677-.11.246 0 .47.037.673.11.202.073.376.175.52.304a1.346 1.346 0 0 1 .453 1.019c0 .293-.074.547-.221.76a1.33 1.33 0 0 1-.646.475c.339.096.601.258.783.486.182.226.274.514.274.863 0 .239-.046.454-.137.646-.089.19-.214.353-.377.487a1.703 1.703 0 0 1-.577.311 2.471 2.471 0 0 1-.745.107Zm0-.54c.177 0 .335-.024.475-.072.142-.05.261-.12.357-.21a.883.883 0 0 0 .224-.322c.054-.127.08-.266.08-.418a1.09 1.09 0 0 0-.095-.48.854.854 0 0 0-.251-.326.984.984 0 0 0-.361-.183c-.136-.04-.28-.06-.429-.06-.149 0-.293.02-.43.06a.906.906 0 0 0-.615.51 1.135 1.135 0 0 0-.092.479c0 .152.026.291.076.418a.979.979 0 0 0 .225.323c.099.088.217.158.357.209.142.048.301.072.479.072Zm0-2.615c.177 0 .328-.026.452-.08a.88.88 0 0 0 .308-.216.837.837 0 0 0 .171-.312c.035-.117.053-.237.053-.36a.984.984 0 0 0-.064-.358.848.848 0 0 0-.494-.49 1.153 1.153 0 0 0-.426-.073c-.162 0-.305.024-.43.073a.893.893 0 0 0-.307.197.867.867 0 0 0-.187.293 1.05 1.05 0 0 0-.061.357c0 .124.018.244.054.361.035.117.092.22.171.312.078.088.179.16.304.216.126.054.278.08.456.08ZM173.164 98.503h1.878v.574h-1.878v-.574Zm4.224 2.611a2.458 2.458 0 0 1-.84-.224 2.338 2.338 0 0 1-.65-.471l.202-.312a.204.204 0 0 1 .076-.069.22.22 0 0 1 .102-.026c.049 0 .103.024.164.072.061.048.136.104.224.167.089.061.194.121.316.179.124.058.272.098.444.118l.141-2.018a7.628 7.628 0 0 1-.525-.18 1.877 1.877 0 0 1-.459-.261 1.242 1.242 0 0 1-.327-.407 1.388 1.388 0 0 1-.122-.616 1.42 1.42 0 0 1 .422-1.01 1.63 1.63 0 0 1 .513-.335c.203-.089.436-.138.699-.148l.038-.548a.229.229 0 0 1 .057-.129.167.167 0 0 1 .133-.057h.251l-.053.753c.266.033.495.101.688.205.193.104.365.229.517.376l-.164.251c-.05.076-.109.114-.174.114a.283.283 0 0 1-.133-.046 3.042 3.042 0 0 0-.187-.11 2.197 2.197 0 0 0-.254-.125 1.25 1.25 0 0 0-.331-.091l-.125 1.84c.182.055.362.116.539.181.178.066.337.151.479.255a1.153 1.153 0 0 1 .475.973c0 .228-.038.442-.114.642a1.53 1.53 0 0 1-.334.529 1.688 1.688 0 0 1-.536.372c-.21.094-.451.148-.722.164l-.046.669a.198.198 0 0 1-.061.125.163.163 0 0 1-.129.057h-.251l.057-.859Zm1.494-1.592a.694.694 0 0 0-.262-.563 1.264 1.264 0 0 0-.285-.171 3.87 3.87 0 0 0-.35-.133l-.129 1.893c.164-.015.31-.051.437-.107.129-.058.237-.132.323-.22a.853.853 0 0 0 .198-.308c.045-.119.068-.25.068-.391Zm-2.109-2.524c0 .121.021.228.064.32a.766.766 0 0 0 .179.235c.076.068.164.128.266.178a2.7 2.7 0 0 0 .331.137l.114-1.714a1.48 1.48 0 0 0-.43.099.952.952 0 0 0-.296.19.783.783 0 0 0-.228.555Zm6.925-1.08c0 .097-.03.176-.091.24-.061.06-.164.091-.308.091h-1.71l-.251 1.43c.284-.062.546-.092.786-.092.284 0 .534.042.749.125.218.084.4.2.547.346.148.147.258.32.331.521.076.2.114.418.114.654 0 .289-.05.55-.152.783a1.785 1.785 0 0 1-1.037.98 2.193 2.193 0 0 1-.772.133c-.16 0-.313-.016-.46-.049a2.182 2.182 0 0 1-.41-.126 2.452 2.452 0 0 1-.354-.182 2.036 2.036 0 0 1-.289-.217l.206-.289a.211.211 0 0 1 .182-.098c.048 0 .104.02.167.06.066.038.145.081.236.13.091.048.198.092.319.133.124.038.271.057.441.057.19 0 .361-.031.513-.091a1.102 1.102 0 0 0 .639-.666c.058-.156.087-.333.087-.528 0-.17-.025-.323-.076-.46a.875.875 0 0 0-.224-.35 1.012 1.012 0 0 0-.373-.224 1.56 1.56 0 0 0-.524-.08 2.78 2.78 0 0 0-.882.145l-.426-.126.441-2.546h2.581v.296Zm3.239 1.813c.218 0 .424.037.619.11a1.47 1.47 0 0 1 .863.825c.086.2.129.43.129.688 0 .251-.045.484-.137.7a1.716 1.716 0 0 1-.973.938c-.23.092-.483.137-.76.137-.273 0-.522-.043-.745-.129a1.645 1.645 0 0 1-.566-.372 1.696 1.696 0 0 1-.365-.586 2.263 2.263 0 0 1-.125-.771c0-.239.053-.492.159-.76.107-.27.276-.558.506-.867l1.379-1.859a.416.416 0 0 1 .149-.114.456.456 0 0 1 .216-.049h.601l-1.889 2.39a1.661 1.661 0 0 1 .939-.281Zm-1.407 1.657c0 .175.026.335.076.48.051.144.125.268.221.372.099.104.218.185.357.243.142.056.303.084.483.084.182 0 .347-.03.494-.088a1.09 1.09 0 0 0 .619-.612c.059-.141.088-.296.088-.463 0-.178-.028-.337-.084-.48a1.001 1.001 0 0 0-.6-.596 1.324 1.324 0 0 0-.468-.08c-.182 0-.347.032-.494.095-.146.061-.272.145-.376.251a1.11 1.11 0 0 0-.316.794Zm5.892-1.657c.218 0 .425.037.62.11a1.465 1.465 0 0 1 .862.825c.087.2.13.43.13.688 0 .251-.046.484-.137.7a1.735 1.735 0 0 1-.973.938c-.23.092-.484.137-.76.137-.274 0-.522-.043-.745-.129a1.65 1.65 0 0 1-.567-.372 1.711 1.711 0 0 1-.365-.586 2.263 2.263 0 0 1-.125-.771c0-.239.053-.492.16-.76.106-.27.275-.558.505-.867l1.38-1.859a.412.412 0 0 1 .148-.114.463.463 0 0 1 .217-.049h.6l-1.889 2.39c.129-.088.273-.156.43-.204.157-.051.327-.077.509-.077Zm-1.406 1.657c0 .175.025.335.076.48.051.144.124.268.22.372.099.104.219.185.358.243.142.056.302.084.482.084.183 0 .348-.03.494-.088a1.094 1.094 0 0 0 .62-.612c.058-.141.087-.296.087-.463 0-.178-.027-.337-.083-.48a1.017 1.017 0 0 0-.601-.596 1.319 1.319 0 0 0-.467-.08c-.183 0-.347.032-.495.095-.146.061-.272.145-.376.251a1.107 1.107 0 0 0-.235.365c-.054.137-.08.28-.08.43Zm3.778 1.213a.41.41 0 0 1 .266-.395.477.477 0 0 1 .183-.035c.076 0 .143.015.201.042a.485.485 0 0 1 .24.289c.02.064.03.133.03.209 0 .114-.016.233-.049.357a2.035 2.035 0 0 1-.369.715 2.1 2.1 0 0 1-.304.315l-.114-.11a.139.139 0 0 1-.05-.106c0-.033.018-.068.054-.103a2.57 2.57 0 0 0 .095-.114 1.464 1.464 0 0 0 .231-.361.881.881 0 0 0 .076-.236h-.049a.445.445 0 0 1-.319-.129.496.496 0 0 1-.091-.148.582.582 0 0 1-.031-.19Zm5.511-2.254c0 .476-.052.89-.156 1.24a2.562 2.562 0 0 1-.418.862 1.678 1.678 0 0 1-.631.509 1.816 1.816 0 0 1-.776.167c-.278 0-.538-.055-.779-.167a1.71 1.71 0 0 1-.623-.509 2.581 2.581 0 0 1-.418-.863 4.493 4.493 0 0 1-.152-1.239c0-.476.051-.89.152-1.239.102-.35.241-.638.418-.866.178-.231.386-.402.623-.514.241-.11.501-.167.779-.167.277 0 .535.056.776.167.243.112.454.283.631.514.177.228.317.516.418.866.104.35.156.763.156 1.24Zm-.703 0c0-.415-.036-.764-.107-1.045a2.036 2.036 0 0 0-.281-.684 1.027 1.027 0 0 0-.407-.369 1.078 1.078 0 0 0-.965 0 1.04 1.04 0 0 0-.407.369c-.116.172-.21.4-.281.684-.069.281-.103.63-.103 1.045 0 .416.034.764.103 1.045.071.282.165.508.281.681.117.172.253.296.407.372a1.117 1.117 0 0 0 .965 0c.155-.076.291-.2.407-.372.119-.172.213-.4.281-.68.071-.282.107-.63.107-1.046Zm5.188 0c0 .476-.052.89-.156 1.24-.101.346-.24.634-.418.862a1.678 1.678 0 0 1-.631.509c-.24.112-.499.167-.775.167-.279 0-.538-.055-.779-.167a1.704 1.704 0 0 1-.624-.509 2.581 2.581 0 0 1-.418-.863 4.493 4.493 0 0 1-.152-1.239c0-.476.051-.89.152-1.239.102-.35.241-.638.418-.866.178-.231.386-.402.624-.514.241-.11.5-.167.779-.167.276 0 .535.056.775.167.243.112.454.283.631.514.178.228.317.516.418.866.104.35.156.763.156 1.24Zm-.703 0c0-.415-.035-.764-.107-1.045a2.016 2.016 0 0 0-.281-.684 1.031 1.031 0 0 0-.406-.369 1.084 1.084 0 0 0-.966 0 1.04 1.04 0 0 0-.407.369c-.116.172-.21.4-.281.684-.068.281-.102.63-.102 1.045 0 .416.034.764.102 1.045.071.282.165.508.281.681.117.172.253.296.407.372a1.122 1.122 0 0 0 .966 0c.154-.076.29-.2.406-.372.12-.172.213-.4.281-.68.072-.282.107-.63.107-1.046ZM173.164 116.963h1.878v.574h-1.878v-.574Zm4.224 2.611a2.413 2.413 0 0 1-.84-.224 2.318 2.318 0 0 1-.65-.471l.202-.312a.21.21 0 0 1 .076-.068.21.21 0 0 1 .102-.027c.049 0 .103.024.164.073.061.048.136.103.224.167.089.061.194.12.316.178.124.058.272.098.444.118l.141-2.018a7.371 7.371 0 0 1-.525-.179 1.845 1.845 0 0 1-.459-.262 1.236 1.236 0 0 1-.327-.407 1.383 1.383 0 0 1-.122-.615 1.423 1.423 0 0 1 .422-1.011 1.64 1.64 0 0 1 .513-.335 1.93 1.93 0 0 1 .699-.148l.038-.547a.226.226 0 0 1 .057-.129.167.167 0 0 1 .133-.057h.251l-.053.752c.266.033.495.102.688.205.193.104.365.229.517.377l-.164.25c-.05.076-.109.114-.174.114a.285.285 0 0 1-.133-.045 2.77 2.77 0 0 0-.187-.11 2.227 2.227 0 0 0-.254-.126 1.25 1.25 0 0 0-.331-.091l-.125 1.84c.182.055.362.116.539.182.178.066.337.151.479.255.142.103.256.234.342.391.089.155.133.349.133.582 0 .228-.038.442-.114.642-.076.2-.187.376-.334.528a1.69 1.69 0 0 1-.536.373c-.21.094-.451.148-.722.163l-.046.669a.198.198 0 0 1-.061.125.163.163 0 0 1-.129.057h-.251l.057-.859Zm1.494-1.592a.695.695 0 0 0-.262-.562 1.277 1.277 0 0 0-.285-.172 4.058 4.058 0 0 0-.35-.133l-.129 1.893c.164-.015.31-.05.437-.106.129-.058.237-.132.323-.221a.845.845 0 0 0 .198-.308c.045-.118.068-.249.068-.391Zm-2.109-2.524c0 .122.021.228.064.32a.765.765 0 0 0 .179.235c.076.069.164.128.266.179.101.05.212.096.331.137l.114-1.714a1.488 1.488 0 0 0-.43.098.961.961 0 0 0-.296.19.784.784 0 0 0-.228.555Zm7.328-1.375v.304a.633.633 0 0 1-.031.212.893.893 0 0 1-.057.141l-2.253 4.549a.54.54 0 0 1-.137.171.37.37 0 0 1-.236.069h-.483l2.288-4.493a1.342 1.342 0 0 1 .217-.326h-2.843a.168.168 0 0 1-.167-.168v-.459h3.702Zm.723 4.978c0-.058.01-.113.03-.163a.435.435 0 0 1 .236-.232.468.468 0 0 1 .182-.034c.076 0 .143.014.201.042a.484.484 0 0 1 .24.289.69.69 0 0 1 .03.209c0 .114-.016.233-.049.357a1.998 1.998 0 0 1-.369.714c-.088.114-.19.22-.304.316l-.114-.11a.145.145 0 0 1-.049-.107c0-.033.018-.067.053-.102a2.57 2.57 0 0 0 .095-.114 1.483 1.483 0 0 0 .232-.361.893.893 0 0 0 .076-.236h-.05a.463.463 0 0 1-.178-.034.467.467 0 0 1-.141-.095.523.523 0 0 1-.091-.149.578.578 0 0 1-.03-.19Zm5.51-2.253c0 .476-.052.889-.156 1.239-.101.347-.24.634-.418.862a1.698 1.698 0 0 1-.631.51c-.24.111-.499.167-.775.167-.279 0-.539-.056-.779-.167a1.709 1.709 0 0 1-.624-.51 2.576 2.576 0 0 1-.418-.862 4.495 4.495 0 0 1-.152-1.239c0-.477.051-.89.152-1.239.102-.35.241-.639.418-.867.178-.231.385-.402.624-.513.24-.111.5-.167.779-.167.276 0 .535.056.775.167.243.111.453.282.631.513.178.228.317.517.418.867.104.349.156.762.156 1.239Zm-.703 0c0-.416-.035-.764-.107-1.046a2.033 2.033 0 0 0-.281-.684 1.03 1.03 0 0 0-.407-.368 1.077 1.077 0 0 0-.965 0 1.03 1.03 0 0 0-.407.368c-.116.172-.21.4-.281.684-.068.282-.102.63-.102 1.046 0 .415.034.764.102 1.045.071.281.165.508.281.68.117.172.252.297.407.373a1.122 1.122 0 0 0 .965 0c.155-.076.29-.201.407-.373.119-.172.213-.399.281-.68.072-.281.107-.63.107-1.045Zm4.725-2.429a.33.33 0 0 1-.092.239c-.06.061-.163.092-.307.092h-1.711l-.251 1.429c.284-.061.547-.092.787-.092.284 0 .533.042.749.126.218.083.4.199.547.346.147.147.258.32.331.52.076.201.114.419.114.654 0 .289-.051.55-.152.783a1.828 1.828 0 0 1-.418.601 1.828 1.828 0 0 1-.62.38 2.206 2.206 0 0 1-1.231.083 2.215 2.215 0 0 1-.764-.308 2.032 2.032 0 0 1-.289-.216l.205-.289a.213.213 0 0 1 .183-.099.32.32 0 0 1 .167.061c.066.038.144.081.236.129.091.048.197.092.319.133.124.038.271.057.441.057.19 0 .361-.03.513-.091.152-.061.281-.147.387-.258.11-.114.193-.25.251-.407.058-.157.088-.334.088-.528 0-.17-.026-.323-.076-.46a.877.877 0 0 0-.225-.35 1.006 1.006 0 0 0-.372-.224 1.564 1.564 0 0 0-.524-.08c-.137 0-.279.011-.426.034-.147.023-.299.06-.456.11l-.426-.125.441-2.546h2.581v.296Zm4.888-.296v.304c0 .086-.01.156-.031.212a.735.735 0 0 1-.057.141l-2.253 4.549a.526.526 0 0 1-.137.171.37.37 0 0 1-.236.069h-.483l2.288-4.493a1.342 1.342 0 0 1 .217-.326h-2.843a.171.171 0 0 1-.118-.05.173.173 0 0 1-.049-.118v-.459h3.702ZM173.164 135.424h1.878v.574h-1.878v-.574Zm4.224 2.611a2.458 2.458 0 0 1-.84-.224 2.34 2.34 0 0 1-.65-.472l.202-.311a.204.204 0 0 1 .076-.069.21.21 0 0 1 .102-.026c.049 0 .103.024.164.072.061.048.136.104.224.167.089.061.194.121.316.179.124.058.272.098.444.118l.141-2.019a7.363 7.363 0 0 1-.525-.178 1.91 1.91 0 0 1-.459-.262 1.256 1.256 0 0 1-.327-.407 1.39 1.39 0 0 1-.122-.616 1.415 1.415 0 0 1 .422-1.011c.139-.137.31-.248.513-.334a1.91 1.91 0 0 1 .699-.148l.038-.548a.23.23 0 0 1 .057-.129.167.167 0 0 1 .133-.057h.251l-.053.753c.266.033.495.101.688.205.193.103.365.229.517.376l-.164.251c-.05.076-.109.114-.174.114a.277.277 0 0 1-.133-.046 3.27 3.27 0 0 0-.441-.235 1.25 1.25 0 0 0-.331-.092l-.125 1.84c.182.056.362.117.539.182.178.066.337.151.479.255a1.148 1.148 0 0 1 .475.973c0 .228-.038.442-.114.642a1.53 1.53 0 0 1-.334.529 1.688 1.688 0 0 1-.536.372c-.21.094-.451.148-.722.164l-.046.668a.198.198 0 0 1-.061.126.163.163 0 0 1-.129.057h-.251l.057-.859Zm1.494-1.593a.691.691 0 0 0-.262-.562 1.238 1.238 0 0 0-.285-.171 4.058 4.058 0 0 0-.35-.133l-.129 1.893c.164-.016.31-.051.437-.107.129-.058.237-.132.323-.22a.853.853 0 0 0 .198-.308c.045-.119.068-.25.068-.392Zm-2.109-2.523c0 .121.021.228.064.319a.77.77 0 0 0 .179.236c.076.068.164.128.266.178.101.051.212.096.331.137l.114-1.714a1.455 1.455 0 0 0-.43.099.943.943 0 0 0-.296.19.785.785 0 0 0-.228.555Zm5.492-1.437c.231 0 .446.034.646.103a1.434 1.434 0 0 1 .863.775c.084.187.125.4.125.639 0 .202-.03.39-.091.562a2.357 2.357 0 0 1-.247.498 3.693 3.693 0 0 1-.361.46c-.134.147-.277.297-.429.452l-1.433 1.467a2.671 2.671 0 0 1 .608-.091h1.824c.073 0 .132.022.175.065a.225.225 0 0 1 .065.167v.41h-3.634v-.232c0-.048.009-.097.027-.148a.42.42 0 0 1 .095-.14l1.744-1.752c.145-.148.277-.288.396-.422a3.19 3.19 0 0 0 .304-.411c.086-.137.152-.275.197-.414a1.46 1.46 0 0 0 .069-.452c0-.16-.026-.3-.076-.418a.825.825 0 0 0-.209-.301.87.87 0 0 0-.312-.175 1.198 1.198 0 0 0-.384-.06 1.06 1.06 0 0 0-.692.231 1.093 1.093 0 0 0-.228.255c-.06.099-.103.208-.129.327a.301.301 0 0 1-.091.16.246.246 0 0 1-.16.049h-.042l-.045-.008-.354-.06c.036-.249.104-.468.206-.658.101-.193.229-.353.383-.483.157-.129.336-.227.536-.292.203-.069.421-.103.654-.103Zm2.559 5.04c0-.058.01-.113.03-.164a.433.433 0 0 1 .418-.266c.076 0 .143.014.201.042a.484.484 0 0 1 .24.289c.02.064.03.133.03.209 0 .114-.016.233-.049.357a2.005 2.005 0 0 1-.369.715c-.088.114-.19.219-.304.315l-.114-.11a.143.143 0 0 1-.049-.106c0-.033.018-.068.053-.103a2.57 2.57 0 0 0 .095-.114 1.483 1.483 0 0 0 .232-.361.881.881 0 0 0 .076-.236h-.05a.445.445 0 0 1-.319-.129.517.517 0 0 1-.091-.148.582.582 0 0 1-.03-.19Zm5.046-4.683c0 .097-.03.176-.091.24-.061.061-.163.091-.308.091h-1.71l-.251 1.429c.284-.061.546-.091.787-.091.284 0 .533.042.749.125.217.084.4.199.547.346.147.147.257.321.33.521.076.2.114.418.114.654 0 .288-.05.55-.152.783a1.795 1.795 0 0 1-1.037.98 2.185 2.185 0 0 1-.772.133c-.159 0-.312-.016-.46-.049a2.182 2.182 0 0 1-.41-.126 2.44 2.44 0 0 1-.353-.182 1.998 1.998 0 0 1-.289-.217l.205-.289a.213.213 0 0 1 .182-.098c.049 0 .104.02.168.06.065.038.144.081.235.13.091.048.198.092.319.133.125.038.271.057.441.057.19 0 .361-.031.513-.092.152-.06.282-.147.388-.258.109-.114.193-.25.251-.407.058-.157.087-.333.087-.528 0-.17-.025-.323-.076-.46a.871.871 0 0 0-.224-.35 1.014 1.014 0 0 0-.372-.224 1.575 1.575 0 0 0-.525-.08 2.84 2.84 0 0 0-.882.145l-.425-.126.441-2.546h2.58v.296Zm1.859 4.633h1.171v-3.713c0-.111.004-.224.011-.338l-.973.832a.291.291 0 0 1-.076.046.268.268 0 0 1-.072.011.197.197 0 0 1-.171-.083l-.213-.293 1.619-1.402h.551v4.94h1.072v.517h-2.919v-.517Zm7.515-4.929v.304c0 .086-.01.157-.031.213a.724.724 0 0 1-.057.14l-2.253 4.55a.526.526 0 0 1-.137.171.37.37 0 0 1-.236.068h-.483l2.288-4.492c.034-.064.067-.122.099-.175.036-.053.075-.104.118-.152h-2.843a.17.17 0 0 1-.118-.049.175.175 0 0 1-.049-.118v-.46h3.702ZM176.805 57.566v.813h-2.436v1.627h2.056v.817h-2.056v2.239h-1.03v-5.496h3.466Zm2.192 1.535c.245 0 .471.04.677.118.207.079.386.194.535.346.15.15.266.334.35.555a2.07 2.07 0 0 1 .114.927.266.266 0 0 1-.034.11.14.14 0 0 1-.065.057.31.31 0 0 1-.106.016h-2.41c.028.4.135.694.323.881.188.188.436.282.745.282.152 0 .283-.018.392-.054.111-.035.207-.075.289-.117.083-.043.155-.083.216-.118a.375.375 0 0 1 .183-.053.2.2 0 0 1 .171.087l.273.342c-.104.122-.22.224-.349.308a2.1 2.1 0 0 1-.837.3c-.144.02-.285.03-.421.03-.272 0-.524-.044-.757-.133a1.724 1.724 0 0 1-.608-.399 1.904 1.904 0 0 1-.407-.653 2.564 2.564 0 0 1-.148-.905c0-.266.043-.516.129-.749.086-.235.21-.44.369-.612.162-.174.358-.312.589-.414a1.95 1.95 0 0 1 .787-.152Zm.019.673c-.274 0-.488.077-.642.232-.155.154-.254.373-.297.657h1.764a1.15 1.15 0 0 0-.05-.342.78.78 0 0 0-.152-.285.697.697 0 0 0-.258-.19.86.86 0 0 0-.365-.072Zm2.517 3.288v-5.648h.939v2.227c.155-.165.329-.295.524-.392.195-.098.423-.148.685-.148a1.27 1.27 0 0 1 1.037.513c.129.168.228.374.297.62.071.246.106.528.106.847 0 .292-.039.562-.118.81a1.97 1.97 0 0 1-.338.646 1.55 1.55 0 0 1-.528.43 1.542 1.542 0 0 1-.692.151 1.31 1.31 0 0 1-.597-.136 1.249 1.249 0 0 1-.228-.156 2.391 2.391 0 0 1-.198-.21l-.041.263c-.016.066-.042.113-.08.14a.235.235 0 0 1-.148.043h-.62Zm1.824-3.231a.956.956 0 0 0-.501.125c-.137.081-.265.197-.384.346v1.748a.905.905 0 0 0 .346.278c.126.05.263.076.41.076.142 0 .27-.027.384-.08a.74.74 0 0 0 .289-.243c.081-.11.143-.246.186-.41.043-.168.065-.364.065-.59 0-.228-.019-.42-.057-.577a1.095 1.095 0 0 0-.156-.388.617.617 0 0 0-.251-.217.762.762 0 0 0-.331-.068Zm2.576 3.23v-3.899h.551c.096 0 .164.018.202.053.038.035.063.096.076.183l.057.47c.139-.24.302-.43.49-.57a1.03 1.03 0 0 1 .631-.208c.192 0 .352.044.479.133l-.122.703c-.007.046-.024.079-.049.099a.178.178 0 0 1-.103.026.634.634 0 0 1-.156-.026 1.034 1.034 0 0 0-.262-.027.79.79 0 0 0-.502.164 1.224 1.224 0 0 0-.353.47v2.43h-.939Zm4.038-3.899v2.478c0 .238.055.423.163.555.112.13.278.194.498.194.162 0 .314-.036.456-.107a1.64 1.64 0 0 0 .403-.3v-2.82h.939v3.9h-.574c-.122 0-.202-.057-.24-.171l-.064-.312c-.081.08-.165.156-.251.224a1.49 1.49 0 0 1-.593.277 1.492 1.492 0 0 1-.361.042c-.213 0-.401-.035-.566-.106a1.158 1.158 0 0 1-.411-.308 1.373 1.373 0 0 1-.254-.467 2.04 2.04 0 0 1-.084-.6v-2.479h.939Zm6.593 3.9h-.422a.472.472 0 0 1-.209-.038c-.051-.028-.089-.083-.114-.164l-.084-.277a3.412 3.412 0 0 1-.292.235 1.817 1.817 0 0 1-.293.168c-.101.045-.209.08-.323.102a1.946 1.946 0 0 1-.38.034 1.54 1.54 0 0 1-.456-.064 1.028 1.028 0 0 1-.361-.202.915.915 0 0 1-.232-.33 1.169 1.169 0 0 1-.084-.46c0-.147.038-.292.114-.434.079-.144.208-.273.388-.387.18-.117.42-.213.718-.29a5.095 5.095 0 0 1 1.114-.128v-.228c0-.261-.056-.454-.167-.578-.109-.127-.269-.19-.479-.19a1.17 1.17 0 0 0-.646.175l-.206.118a.421.421 0 0 1-.209.053.269.269 0 0 1-.163-.05.385.385 0 0 1-.11-.121l-.171-.3c.448-.411.989-.616 1.623-.616.228 0 .431.038.608.114.18.073.332.177.456.312.124.131.218.29.281.475.066.185.099.387.099.608v2.463Zm-1.825-.586c.097 0 .186-.008.266-.026a.981.981 0 0 0 .229-.08c.073-.035.143-.079.209-.13.068-.053.136-.114.205-.186v-.657a4.953 4.953 0 0 0-.688.072 1.782 1.782 0 0 0-.441.13.584.584 0 0 0-.239.186.418.418 0 0 0-.069.231c0 .165.048.283.145.354a.64.64 0 0 0 .383.106Zm2.824.586v-3.9h.551c.097 0 .164.018.202.053.038.035.063.096.076.183l.057.47c.139-.24.302-.43.49-.57.188-.139.398-.208.631-.208.192 0 .352.044.479.133l-.122.703c-.007.046-.024.079-.049.099a.178.178 0 0 1-.103.026.62.62 0 0 1-.155-.026 1.048 1.048 0 0 0-.263-.027.787.787 0 0 0-.501.164c-.14.106-.258.263-.354.47v2.43h-.939Zm4.562 1.071a.333.333 0 0 1-.11.148c-.043.036-.11.054-.201.054h-.7l.73-1.562-1.577-3.611h.821a.26.26 0 0 1 .175.053.35.35 0 0 1 .091.122l.832 2.022c.028.066.052.134.072.205.021.071.038.142.054.213.02-.073.041-.145.064-.213l.08-.209.783-2.018a.274.274 0 0 1 .258-.175h.753l-2.125 4.971Z"/></g><rect width="203.5" height="157.5" x=".25" y=".25" stroke="#EDEDED" stroke-width=".5" rx="7.75"/><defs><clipPath id="a"><rect width="204" height="158" fill="#fff" rx="8"/></clipPath></defs></svg>